  0
SECTION
  2
BLOCKS
  0
ENDSEC
  0
SECTION
  2
ENTITIES
  0
LINE
  8
0
 10
-58.35
 11
-58.241
 20
-26.927
 21
-24.316
  0
LINE
  8
0
 10
-58.241
 11
-57.935
 20
-24.316
 21
-21.649
  0
LINE
  8
0
 10
-57.935
 11
-57.444
 20
-21.649
 21
-18.95
  0
LINE
  8
0
 10
-57.444
 11
-56.784
 20
-18.95
 21
-16.246
  0
LINE
  8
0
 10
-56.784
 11
-55.967
 20
-16.246
 21
-13.563
  0
LINE
  8
0
 10
-55.967
 11
-55.009
 20
-13.563
 21
-10.929
  0
LINE
  8
0
 10
-55.009
 11
-53.923
 20
-10.929
 21
-8.369
  0
LINE
  8
0
 10
-53.923
 11
-52.724
 20
-8.369
 21
-5.91
  0
LINE
  8
0
 10
-52.724
 11
-51.425
 20
-5.91
 21
-3.577
  0
LINE
  8
0
 10
-51.425
 11
-50.04
 20
-3.577
 21
-1.398
  0
LINE
  8
0
 10
-50.04
 11
-48.585
 20
-1.398
 21
0.6
  0
LINE
  8
0
 10
-48.585
 11
-47.072
 20
0.6
 21
2.393
  0
LINE
  8
0
 10
-47.072
 11
-45.516
 20
2.393
 21
3.953
  0
LINE
  8
0
 10
-45.516
 11
-43.442
 20
3.953
 21
5.748
  0
LINE
  8
0
 10
-43.442
 11
-41.379
 20
5.748
 21
7.341
  0
LINE
  8
0
 10
-41.379
 11
-39.326
 20
7.341
 21
8.742
  0
LINE
  8
0
 10
-39.326
 11
-37.282
 20
8.742
 21
9.961
  0
LINE
  8
0
 10
-37.282
 11
-35.243
 20
9.961
 21
11.008
  0
LINE
  8
0
 10
-35.243
 11
-33.21
 20
11.008
 21
11.892
  0
LINE
  8
0
 10
-33.21
 11
-31.179
 20
11.892
 21
12.623
  0
LINE
  8
0
 10
-31.179
 11
-29.149
 20
12.623
 21
13.211
  0
LINE
  8
0
 10
-29.149
 11
-27.118
 20
13.211
 21
13.665
  0
LINE
  8
0
 10
-27.118
 11
-25.086
 20
13.665
 21
13.996
  0
LINE
  8
0
 10
-25.086
 11
-23.049
 20
13.996
 21
14.212
  0
LINE
  8
0
 10
-23.049
 11
-21.006
 20
14.212
 21
14.324
  0
LINE
  8
0
 10
-21.006
 11
-18.956
 20
14.324
 21
14.34
  0
LINE
  8
0
 10
-18.956
 11
-16.896
 20
14.34
 21
14.272
  0
LINE
  8
0
 10
-16.896
 11
-12.742
 20
14.272
 21
13.92
  0
LINE
  8
0
 10
-12.742
 11
-12.142
 20
13.92
 21
17.353
  0
LINE
  8
0
 10
-12.142
 11
17.412
 20
17.353
 21
12.2
  0
LINE
  8
0
 10
17.412
 11
12.259
 20
12.2
 21
-17.357
  0
LINE
  8
0
 10
12.259
 11
-17.295
 20
-17.357
 21
-12.201
  0
LINE
  8
0
 10
-17.295
 11
-15.324
 20
-12.201
 21
-0.903
  0
LINE
  8
0
 10
-15.324
 11
-18.428
 20
-0.903
 21
-0.694
  0
LINE
  8
0
 10
-18.428
 11
-21.256
 20
-0.694
 21
-0.72
  0
LINE
  8
0
 10
-21.256
 11
-23.862
 20
-0.72
 21
-1.005
  0
LINE
  8
0
 10
-23.862
 11
-26.298
 20
-1.005
 21
-1.573
  0
LINE
  8
0
 10
-26.298
 11
-28.617
 20
-1.573
 21
-2.446
  0
LINE
  8
0
 10
-28.617
 11
-30.872
 20
-2.446
 21
-3.647
  0
LINE
  8
0
 10
-30.872
 11
-33.117
 20
-3.647
 21
-5.2
  0
LINE
  8
0
 10
-33.117
 11
-35.404
 20
-5.2
 21
-7.128
  0
LINE
  8
0
 10
-35.404
 11
-36.301
 20
-7.128
 21
-8.048
  0
LINE
  8
0
 10
-36.301
 11
-37.181
 20
-8.048
 21
-9.147
  0
LINE
  8
0
 10
-37.181
 11
-38.035
 20
-9.147
 21
-10.4
  0
LINE
  8
0
 10
-38.035
 11
-38.854
 20
-10.4
 21
-11.783
  0
LINE
  8
0
 10
-38.854
 11
-40.359
 20
-11.783
 21
-14.839
  0
LINE
  8
0
 10
-40.359
 11
-41.63
 20
-14.839
 21
-18.123
  0
LINE
  8
0
 10
-41.63
 11
-42.599
 20
-18.123
 21
-21.438
  0
LINE
  8
0
 10
-42.599
 11
-42.95
 20
-21.438
 21
-23.047
  0
LINE
  8
0
 10
-42.95
 11
-43.201
 20
-23.047
 21
-24.591
  0
LINE
  8
0
 10
-43.201
 11
-43.345
 20
-24.591
 21
-26.046
  0
LINE
  8
0
 10
-43.345
 11
-43.371
 20
-26.046
 21
-27.386
  0
LINE
  8
0
 10
-43.371
 11
-43.273
 20
-27.386
 21
-28.589
  0
LINE
  8
0
 10
-43.273
 11
-43.041
 20
-28.589
 21
-29.629
  0
LINE
  8
0
 10
-43.041
 11
-41.89
 20
-29.629
 21
-32.787
  0
LINE
  8
0
 10
-41.89
 11
-41.237
 20
-32.787
 21
-34.235
  0
LINE
  8
0
 10
-41.237
 11
-40.53
 20
-34.235
 21
-35.6
  0
LINE
  8
0
 10
-40.53
 11
-39.765
 20
-35.6
 21
-36.884
  0
LINE
  8
0
 10
-39.765
 11
-38.942
 20
-36.884
 21
-38.09
  0
LINE
  8
0
 10
-38.942
 11
-38.056
 20
-38.09
 21
-39.219
  0
LINE
  8
0
 10
-38.056
 11
-37.106
 20
-39.219
 21
-40.275
  0
LINE
  8
0
 10
-37.106
 11
-36.089
 20
-40.275
 21
-41.261
  0
LINE
  8
0
 10
-36.089
 11
-35.003
 20
-41.261
 21
-42.178
  0
LINE
  8
0
 10
-35.003
 11
-33.846
 20
-42.178
 21
-43.03
  0
LINE
  8
0
 10
-33.846
 11
-32.614
 20
-43.03
 21
-43.818
  0
LINE
  8
0
 10
-32.614
 11
-31.306
 20
-43.818
 21
-44.546
  0
LINE
  8
0
 10
-31.306
 11
-29.919
 20
-44.546
 21
-45.216
  0
LINE
  8
0
 10
-29.919
 11
-26.899
 20
-45.216
 21
-46.391
  0
LINE
  8
0
 10
-26.899
 11
-25.12
 20
-46.391
 21
-46.94
  0
LINE
  8
0
 10
-25.12
 11
-23.257
 20
-46.94
 21
-47.426
  0
LINE
  8
0
 10
-23.257
 11
-19.296
 20
-47.426
 21
-48.225
  0
LINE
  8
0
 10
-19.296
 11
-15.055
 20
-48.225
 21
-48.818
  0
LINE
  8
0
 10
-15.055
 11
-10.569
 20
-48.818
 21
-49.235
  0
LINE
  8
0
 10
-10.569
 11
-5.876
 20
-49.235
 21
-49.507
  0
LINE
  8
0
 10
-5.876
 11
-1.013
 20
-49.507
 21
-49.663
  0
LINE
  8
0
 10
-1.013
 11
9.077
 20
-49.663
 21
-49.752
  0
LINE
  8
0
 10
9.077
 11
9.078
 20
-49.752
 21
-54.751
  0
LINE
  8
0
 10
9.078
 11
13.069
 20
-54.751
 21
-54.747
  0
LINE
  8
0
 10
13.069
 11
13.073
 20
-54.747
 21
-59.746
  0
LINE
  8
0
 10
13.073
 11
9.076
 20
-59.746
 21
-59.75
  0
LINE
  8
0
 10
9.076
 11
9.077
 20
-59.75
 21
-64.749
  0
LINE
  8
0
 10
9.077
 11
0.82
 20
-64.749
 21
-64.697
  0
LINE
  8
0
 10
0.82
 11
-7.224
 20
-64.697
 21
-64.457
  0
LINE
  8
0
 10
-7.224
 11
-11.137
 20
-64.457
 21
-64.228
  0
LINE
  8
0
 10
-11.137
 11
-14.962
 20
-64.228
 21
-63.907
  0
LINE
  8
0
 10
-14.962
 11
-18.688
 20
-63.907
 21
-63.478
  0
LINE
  8
0
 10
-18.688
 11
-22.304
 20
-63.478
 21
-62.925
  0
LINE
  8
0
 10
-22.304
 11
-24.745
 20
-62.925
 21
-62.459
  0
LINE
  8
0
 10
-24.745
 11
-27.122
 20
-62.459
 21
-61.92
  0
LINE
  8
0
 10
-27.122
 11
-29.432
 20
-61.92
 21
-61.306
  0
LINE
  8
0
 10
-29.432
 11
-31.673
 20
-61.306
 21
-60.609
  0
LINE
  8
0
 10
-31.673
 11
-34.062
 20
-60.609
 21
-59.739
  0
LINE
  8
0
 10
-34.062
 11
-36.343
 20
-59.739
 21
-58.768
  0
LINE
  8
0
 10
-36.343
 11
-38.518
 20
-58.768
 21
-57.695
  0
LINE
  8
0
 10
-38.518
 11
-40.585
 20
-57.695
 21
-56.519
  0
LINE
  8
0
 10
-40.585
 11
-42.547
 20
-56.519
 21
-55.24
  0
LINE
  8
0
 10
-42.547
 11
-44.404
 20
-55.24
 21
-53.857
  0
LINE
  8
0
 10
-44.404
 11
-46.156
 20
-53.857
 21
-52.37
  0
LINE
  8
0
 10
-46.156
 11
-47.805
 20
-52.37
 21
-50.776
  0
LINE
  8
0
 10
-47.805
 11
-49.351
 20
-50.776
 21
-49.077
  0
LINE
  8
0
 10
-49.351
 11
-50.794
 20
-49.077
 21
-47.271
  0
LINE
  8
0
 10
-50.794
 11
-52.136
 20
-47.271
 21
-45.357
  0
LINE
  8
0
 10
-52.136
 11
-53.377
 20
-45.357
 21
-43.335
  0
LINE
  8
0
 10
-53.377
 11
-54.517
 20
-43.335
 21
-41.203
  0
LINE
  8
0
 10
-54.517
 11
-55.559
 20
-41.203
 21
-38.962
  0
LINE
  8
0
 10
-55.559
 11
-56.501
 20
-38.962
 21
-36.611
  0
LINE
  8
0
 10
-56.501
 11
-57.346
 20
-36.611
 21
-34.148
  0
LINE
  8
0
 10
-57.346
 11
-57.916
 20
-34.148
 21
-31.869
  0
LINE
  8
0
 10
-57.916
 11
-58.246
 20
-31.869
 21
-29.453
  0
LINE
  8
0
 10
-58.246
 11
-58.35
 20
-29.453
 21
-26.927
  0
LINE
  8
0
 10
-3.942
 11
-3.86
 20
0
 21
0.806
  0
LINE
  8
0
 10
-3.86
 11
-3.627
 20
0.806
 21
1.557
  0
LINE
  8
0
 10
-3.627
 11
-3.258
 20
1.557
 21
2.236
  0
LINE
  8
0
 10
-3.258
 11
-2.77
 20
2.236
 21
2.828
  0
LINE
  8
0
 10
-2.77
 11
-2.178
 20
2.828
 21
3.316
  0
LINE
  8
0
 10
-2.178
 11
-1.498
 20
3.316
 21
3.685
  0
LINE
  8
0
 10
-1.498
 11
-0.748
 20
3.685
 21
3.918
  0
LINE
  8
0
 10
-0.748
 11
0.059
 20
3.918
 21
4
  0
LINE
  8
0
 10
0.059
 11
0.865
 20
4
 21
3.918
  0
LINE
  8
0
 10
0.865
 11
1.615
 20
3.918
 21
3.685
  0
LINE
  8
0
 10
1.615
 11
2.295
 20
3.685
 21
3.316
  0
LINE
  8
0
 10
2.295
 11
2.887
 20
3.316
 21
2.828
  0
LINE
  8
0
 10
2.887
 11
3.375
 20
2.828
 21
2.236
  0
LINE
  8
0
 10
3.375
 11
3.744
 20
2.236
 21
1.557
  0
LINE
  8
0
 10
3.744
 11
3.977
 20
1.557
 21
0.806
  0
LINE
  8
0
 10
3.977
 11
4.058
 20
0.806
 21
0
  0
LINE
  8
0
 10
4.058
 11
3.977
 20
0
 21
-0.806
  0
LINE
  8
0
 10
3.977
 11
3.744
 20
-0.806
 21
-1.557
  0
LINE
  8
0
 10
3.744
 11
3.375
 20
-1.557
 21
-2.237
  0
LINE
  8
0
 10
3.375
 11
2.887
 20
-2.237
 21
-2.829
  0
LINE
  8
0
 10
2.887
 11
2.295
 20
-2.829
 21
-3.317
  0
LINE
  8
0
 10
2.295
 11
1.615
 20
-3.317
 21
-3.686
  0
LINE
  8
0
 10
1.615
 11
0.865
 20
-3.686
 21
-3.919
  0
LINE
  8
0
 10
0.865
 11
0.059
 20
-3.919
 21
-4
  0
LINE
  8
0
 10
0.059
 11
-0.748
 20
-4
 21
-3.919
  0
LINE
  8
0
 10
-0.748
 11
-1.498
 20
-3.919
 21
-3.686
  0
LINE
  8
0
 10
-1.498
 11
-2.178
 20
-3.686
 21
-3.317
  0
LINE
  8
0
 10
-2.178
 11
-2.77
 20
-3.317
 21
-2.829
  0
LINE
  8
0
 10
-2.77
 11
-3.258
 20
-2.829
 21
-2.237
  0
LINE
  8
0
 10
-3.258
 11
-3.627
 20
-2.237
 21
-1.557
  0
LINE
  8
0
 10
-3.627
 11
-3.86
 20
-1.557
 21
-0.806
  0
LINE
  8
0
 10
-3.86
 11
-3.942
 20
-0.806
 21
0
  0
ENDSEC
  0
SECTION
  2
OBJECTS
  0
DICTIONARY
  0
ENDSEC
  0
EOF
