  0
SECTION
  2
BLOCKS
  0
ENDSEC
  0
SECTION
  2
ENTITIES
  0
LINE
  8
0
 10
-12.5
 11
-12.5
 20
-4.498
 21
4.498
  0
LINE
  8
0
 10
-12.5
 11
-12.439
 20
4.498
 21
5.101
  0
LINE
  8
0
 10
-12.439
 11
-12.263
 20
5.101
 21
5.663
  0
LINE
  8
0
 10
-12.263
 11
-11.986
 20
5.663
 21
6.172
  0
LINE
  8
0
 10
-11.986
 11
-11.619
 20
6.172
 21
6.617
  0
LINE
  8
0
 10
-11.619
 11
-11.174
 20
6.617
 21
6.984
  0
LINE
  8
0
 10
-11.174
 11
-10.665
 20
6.984
 21
7.262
  0
LINE
  8
0
 10
-10.665
 11
-10.103
 20
7.262
 21
7.437
  0
LINE
  8
0
 10
-10.103
 11
-9.5
 20
7.437
 21
7.498
  0
LINE
  8
0
 10
-9.5
 11
9.5
 20
7.498
 21
7.498
  0
LINE
  8
0
 10
9.5
 11
10.103
 20
7.498
 21
7.437
  0
LINE
  8
0
 10
10.103
 11
10.665
 20
7.437
 21
7.262
  0
LINE
  8
0
 10
10.665
 11
11.174
 20
7.262
 21
6.984
  0
LINE
  8
0
 10
11.174
 11
11.619
 20
6.984
 21
6.617
  0
LINE
  8
0
 10
11.619
 11
11.986
 20
6.617
 21
6.172
  0
LINE
  8
0
 10
11.986
 11
12.263
 20
6.172
 21
5.663
  0
LINE
  8
0
 10
12.263
 11
12.439
 20
5.663
 21
5.101
  0
LINE
  8
0
 10
12.439
 11
12.5
 20
5.101
 21
4.498
  0
LINE
  8
0
 10
12.5
 11
12.5
 20
4.498
 21
-4.498
  0
LINE
  8
0
 10
12.5
 11
12.439
 20
-4.498
 21
-5.101
  0
LINE
  8
0
 10
12.439
 11
12.263
 20
-5.101
 21
-5.663
  0
LINE
  8
0
 10
12.263
 11
11.986
 20
-5.663
 21
-6.172
  0
LINE
  8
0
 10
11.986
 11
11.619
 20
-6.172
 21
-6.617
  0
LINE
  8
0
 10
11.619
 11
11.174
 20
-6.617
 21
-6.984
  0
LINE
  8
0
 10
11.174
 11
10.665
 20
-6.984
 21
-7.262
  0
LINE
  8
0
 10
10.665
 11
10.103
 20
-7.262
 21
-7.437
  0
LINE
  8
0
 10
10.103
 11
9.5
 20
-7.437
 21
-7.498
  0
LINE
  8
0
 10
9.5
 11
-9.5
 20
-7.498
 21
-7.498
  0
LINE
  8
0
 10
-9.5
 11
-10.103
 20
-7.498
 21
-7.437
  0
LINE
  8
0
 10
-10.103
 11
-10.665
 20
-7.437
 21
-7.262
  0
LINE
  8
0
 10
-10.665
 11
-11.174
 20
-7.262
 21
-6.984
  0
LINE
  8
0
 10
-11.174
 11
-11.619
 20
-6.984
 21
-6.617
  0
LINE
  8
0
 10
-11.619
 11
-11.986
 20
-6.617
 21
-6.172
  0
LINE
  8
0
 10
-11.986
 11
-12.263
 20
-6.172
 21
-5.663
  0
LINE
  8
0
 10
-12.263
 11
-12.439
 20
-5.663
 21
-5.101
  0
LINE
  8
0
 10
-12.439
 11
-12.5
 20
-5.101
 21
-4.498
  0
LINE
  8
0
 10
-0.5
 11
-0.5
 20
-2.55
 21
2.55
  0
LINE
  8
0
 10
-0.5
 11
0.5
 20
2.55
 21
2.55
  0
LINE
  8
0
 10
0.5
 11
0.5
 20
2.55
 21
-2.55
  0
LINE
  8
0
 10
0.5
 11
-0.5
 20
-2.55
 21
-2.55
  0
ENDSEC
  0
SECTION
  2
OBJECTS
  0
DICTIONARY
  0
ENDSEC
  0
EOF
