<?xml version="1.0" encoding="utf-8"?>
<!-- Generator: Adobe Illustrator 26.5.0, SVG Export Plug-In . SVG Version: 6.00 Build 0)  -->
<svg version="1.1" id="Layer_1" xmlns="http://www.w3.org/2000/svg" xmlns:xlink="http://www.w3.org/1999/xlink" x="0px" y="0px"
	 viewBox="0 0 1312.4 1122.5" style="enable-background:new 0 0 1312.4 1122.5;" xml:space="preserve">
<style type="text/css">
	.st0{fill:none;stroke:#000000;stroke-width:1.4173;stroke-miterlimit:11.3386;}
</style>
<g>
	<polygon class="st0" points="21.3,301 35.4,301 35.4,311.8 49.6,311.8 49.6,301 63.8,301 63.8,311.8 78,311.8 78,301 92.1,301 
		92.1,311.8 106.3,311.8 106.3,301 120.5,301 120.5,311.8 134.6,311.8 134.6,301 148.8,301 148.8,311.8 163,311.8 163,301 
		177.2,301 177.2,311.8 191.3,311.8 191.3,301 205.5,301 205.5,311.8 219.7,311.8 219.7,301 233.9,301 233.9,311.8 248,311.8 
		248,301 262.2,301 262.2,311.8 276.4,311.8 276.4,301 290.6,301 290.6,311.8 311.8,311.8 311.8,0 206.9,0 206.9,10.8 104.9,10.8 
		104.9,0 0,0 0,21.3 10.8,21.3 10.8,35.4 0,35.4 0,49.6 10.8,49.6 10.8,63.8 0,63.8 0,78 10.8,78 10.8,92.1 0,92.1 0,106.3 
		10.8,106.3 10.8,120.5 0,120.5 0,134.6 10.8,134.6 10.8,148.8 0,148.8 0,163 10.8,163 10.8,177.2 0,177.2 0,191.3 10.8,191.3 
		10.8,205.5 0,205.5 0,219.7 10.8,219.7 10.8,233.9 0,233.9 0,248 10.8,248 10.8,262.2 0,262.2 0,276.4 10.8,276.4 10.8,290.6 
		0,290.6 0,311.8 21.3,311.8 	"/>
	<rect x="301" y="21.3" class="st0" width="10.8" height="14.2"/>
	<rect x="301" y="49.6" class="st0" width="10.8" height="14.2"/>
	<rect x="89.9" y="78" class="st0" width="10.8" height="14.2"/>
	<rect x="301" y="78" class="st0" width="10.8" height="14.2"/>
	<rect x="89.9" y="106.3" class="st0" width="10.8" height="14.2"/>
	<rect x="301" y="106.3" class="st0" width="10.8" height="14.2"/>
	<rect x="89.9" y="134.6" class="st0" width="10.8" height="14.2"/>
	<rect x="301" y="134.6" class="st0" width="10.8" height="14.2"/>
	<rect x="301" y="163" class="st0" width="10.8" height="14.2"/>
	<rect x="89.9" y="163" class="st0" width="10.8" height="14.2"/>
	<rect x="301" y="191.3" class="st0" width="10.8" height="14.2"/>
	<rect x="89.9" y="191.3" class="st0" width="10.8" height="14.2"/>
	<rect x="301" y="219.7" class="st0" width="10.8" height="14.2"/>
	<rect x="89.9" y="219.7" class="st0" width="10.8" height="14.2"/>
	<rect x="301" y="248" class="st0" width="10.8" height="14.2"/>
	<rect x="301" y="276.4" class="st0" width="10.8" height="14.2"/>
</g>
<g>
	<polygon class="st0" points="769.6,301 783.8,301 783.8,311.8 798,311.8 798,301 812.1,301 812.1,311.8 826.3,311.8 826.3,301 
		840.5,301 840.5,311.8 854.6,311.8 854.6,301 868.8,301 868.8,311.8 883,311.8 883,301 897.2,301 897.2,311.8 911.3,311.8 
		911.3,301 925.5,301 925.5,311.8 939.7,311.8 939.7,301 953.9,301 953.9,311.8 968,311.8 968,301 982.2,301 982.2,311.8 
		996.4,311.8 996.4,301 1010.6,301 1010.6,311.8 1024.7,311.8 1024.7,301 1038.9,301 1038.9,311.8 1060.2,311.8 1060.2,290.6 
		1049.4,290.6 1049.4,276.4 1060.2,276.4 1060.2,262.2 1049.4,262.2 1049.4,248 1060.2,248 1060.2,233.9 1049.4,233.9 1049.4,219.7 
		1060.2,219.7 1060.2,205.5 1049.4,205.5 1049.4,191.3 1060.2,191.3 1060.2,177.2 1049.4,177.2 1049.4,163 1060.2,163 1060.2,148.8 
		1049.4,148.8 1049.4,134.6 1060.2,134.6 1060.2,120.5 1049.4,120.5 1049.4,106.3 1060.2,106.3 1060.2,92.1 1049.4,92.1 1049.4,78 
		1060.2,78 1060.2,63.8 1049.4,63.8 1049.4,49.6 1060.2,49.6 1060.2,35.4 1049.4,35.4 1049.4,21.3 1060.2,21.3 1060.2,0 955.3,0 
		955.3,10.8 853.2,10.8 853.2,0 748.3,0 748.3,311.8 769.6,311.8 	"/>
	<rect x="748.3" y="21.3" class="st0" width="10.8" height="14.2"/>
	<rect x="748.3" y="49.6" class="st0" width="10.8" height="14.2"/>
	<rect x="748.3" y="78" class="st0" width="10.8" height="14.2"/>
	<rect x="959.5" y="78" class="st0" width="10.8" height="14.2"/>
	<rect x="748.3" y="106.3" class="st0" width="10.8" height="14.2"/>
	<rect x="959.5" y="106.3" class="st0" width="10.8" height="14.2"/>
	<rect x="748.3" y="134.6" class="st0" width="10.8" height="14.2"/>
	<rect x="959.5" y="134.6" class="st0" width="10.8" height="14.2"/>
	<rect x="748.3" y="163" class="st0" width="10.8" height="14.2"/>
	<rect x="959.5" y="163" class="st0" width="10.8" height="14.2"/>
	<rect x="959.5" y="191.3" class="st0" width="10.8" height="14.2"/>
	<rect x="748.3" y="191.3" class="st0" width="10.8" height="14.2"/>
	<rect x="748.3" y="219.7" class="st0" width="10.8" height="14.2"/>
	<rect x="959.5" y="219.7" class="st0" width="10.8" height="14.2"/>
	<rect x="748.3" y="248" class="st0" width="10.8" height="14.2"/>
	<rect x="748.3" y="276.4" class="st0" width="10.8" height="14.2"/>
</g>
<g>
	<polygon class="st0" points="731.9,248 731.9,233.9 742.7,233.9 742.7,219.7 731.9,219.7 731.9,205.5 742.7,205.5 742.7,191.3 
		731.9,191.3 731.9,177.2 742.7,177.2 742.7,163 731.9,163 731.9,148.8 742.7,148.8 742.7,134.6 731.9,134.6 731.9,120.5 
		742.7,120.5 742.7,106.3 731.9,106.3 731.9,92.1 742.7,92.1 742.7,78 731.9,78 731.9,63.8 742.7,63.8 742.7,49.6 731.9,49.6 
		731.9,35.4 742.7,35.4 742.7,21.3 731.9,21.3 731.9,10.8 581.1,10.8 581.1,0 479.1,0 479.1,10.8 328.3,10.8 328.3,21.3 317.5,21.3 
		317.5,35.4 328.3,35.4 328.3,49.6 317.5,49.6 317.5,63.8 328.3,63.8 328.3,78 317.5,78 317.5,92.1 328.3,92.1 328.3,106.3 
		317.5,106.3 317.5,120.5 328.3,120.5 328.3,134.6 317.5,134.6 317.5,148.8 328.3,148.8 328.3,163 317.5,163 317.5,177.2 
		328.3,177.2 328.3,191.3 317.5,191.3 317.5,205.5 328.3,205.5 328.3,219.7 317.5,219.7 317.5,233.9 328.3,233.9 328.3,248 
		317.5,248 317.5,262.2 328.3,262.2 328.3,276.4 317.5,276.4 317.5,290.6 328.3,290.6 328.3,301 338.7,301 338.7,311.8 352.9,311.8 
		352.9,301 367.1,301 367.1,311.8 381.3,311.8 381.3,301 395.4,301 395.4,311.8 409.6,311.8 409.6,301 423.8,301 423.8,311.8 
		438,311.8 438,301 452.1,301 452.1,311.8 466.3,311.8 466.3,301 480.5,301 480.5,311.8 494.6,311.8 494.6,301 508.8,301 
		508.8,311.8 523,311.8 523,301 537.2,301 537.2,311.8 551.3,311.8 551.3,301 565.5,301 565.5,311.8 579.7,311.8 579.7,301 
		593.9,301 593.9,311.8 608,311.8 608,301 622.2,301 622.2,311.8 636.4,311.8 636.4,301 650.6,301 650.6,311.8 664.7,311.8 
		664.7,301 678.9,301 678.9,311.8 693.1,311.8 693.1,301 707.2,301 707.2,311.8 721.4,311.8 721.4,301 731.9,301 731.9,290.6 
		742.7,290.6 742.7,276.4 731.9,276.4 731.9,262.2 742.7,262.2 742.7,248 	"/>
	<polygon class="st0" points="385.6,28.4 384.8,28.2 384.1,27.9 383.5,27.4 382.9,26.9 382.5,26.3 382.2,25.6 382,24.8 381.9,24 
		382,23.3 382.2,22.5 382.5,21.8 382.9,21.2 383.5,20.6 384.1,20.2 384.8,19.8 385.6,19.6 386.4,19.6 387.1,19.6 387.9,19.8 
		388.6,20.2 389.2,20.6 389.8,21.2 390.2,21.8 390.6,22.5 390.8,23.3 390.8,24 390.8,24.8 390.6,25.6 390.2,26.3 389.8,26.9 
		389.2,27.4 388.6,27.9 387.9,28.2 387.1,28.4 386.4,28.5 	"/>
	<polygon class="st0" points="673,28.4 672.3,28.2 671.6,27.9 670.9,27.4 670.4,26.9 669.9,26.3 669.6,25.6 669.4,24.8 669.3,24 
		669.4,23.3 669.6,22.5 669.9,21.8 670.4,21.2 670.9,20.6 671.6,20.2 672.3,19.8 673,19.6 673.8,19.6 674.6,19.6 675.3,19.8 
		676,20.2 676.7,20.6 677.2,21.2 677.7,21.8 678,22.5 678.2,23.3 678.3,24 678.2,24.8 678,25.6 677.7,26.3 677.2,26.9 676.7,27.4 
		676,27.9 675.3,28.2 674.6,28.4 673.8,28.5 	"/>
	<polygon class="st0" points="673,292.2 672.3,292 671.6,291.6 670.9,291.2 670.4,290.7 669.9,290 669.6,289.3 669.4,288.6 
		669.3,287.8 669.4,287 669.6,286.3 669.9,285.6 670.4,284.9 670.9,284.4 671.6,283.9 672.3,283.6 673,283.4 673.8,283.3 
		674.6,283.4 675.3,283.6 676,283.9 676.7,284.4 677.2,284.9 677.7,285.6 678,286.3 678.2,287 678.3,287.8 678.2,288.6 678,289.3 
		677.7,290 677.2,290.7 676.7,291.2 676,291.6 675.3,292 674.6,292.2 673.8,292.2 	"/>
	<polygon class="st0" points="385.6,292.2 384.8,292 384.1,291.6 383.5,291.2 382.9,290.7 382.5,290 382.2,289.3 382,288.6 
		381.9,287.8 382,287 382.2,286.3 382.5,285.6 382.9,284.9 383.5,284.4 384.1,283.9 384.8,283.6 385.6,283.4 386.4,283.3 
		387.1,283.4 387.9,283.6 388.6,283.9 389.2,284.4 389.8,284.9 390.2,285.6 390.6,286.3 390.8,287 390.8,287.8 390.8,288.6 
		390.6,289.3 390.2,290 389.8,290.7 389.2,291.2 388.6,291.6 387.9,292 387.1,292.2 386.4,292.2 	"/>
</g>
<g>
	<polygon class="st0" points="206.9,731.9 311.8,731.9 311.8,581.1 301,581.1 301,479.1 311.8,479.1 311.8,328.3 206.9,328.3 
		206.9,317.5 104.9,317.5 104.9,328.3 0,328.3 0,479.1 10.8,479.1 10.8,581.1 0,581.1 0,731.9 104.9,731.9 104.9,742.7 206.9,742.7 
			"/>
	<polygon class="st0" points="177.1,354.9 176.8,354.8 176.6,354.7 176.4,354.6 176.2,354.4 176.1,354.2 176,354 175.9,353.7 
		175.9,353.5 175.9,353.2 176,353 176.1,352.8 176.2,352.6 176.4,352.4 176.6,352.3 176.8,352.1 177.1,352.1 177.3,352.1 
		177.6,352.1 177.8,352.1 178,352.3 178.2,352.4 178.4,352.6 178.5,352.8 178.6,353 178.7,353.2 178.7,353.5 178.7,353.7 178.6,354 
		178.5,354.2 178.4,354.4 178.2,354.6 178,354.7 177.8,354.8 177.6,354.9 177.3,354.9 	"/>
	<polygon class="st0" points="134.3,354.9 134,354.8 133.8,354.7 133.6,354.6 133.4,354.4 133.3,354.2 133.2,354 133.1,353.7 
		133.1,353.5 133.1,353.2 133.2,353 133.3,352.8 133.4,352.6 133.6,352.4 133.8,352.3 134,352.1 134.3,352.1 134.5,352.1 
		134.8,352.1 135,352.1 135.2,352.3 135.4,352.4 135.6,352.6 135.7,352.8 135.8,353 135.9,353.2 135.9,353.5 135.9,353.7 135.8,354 
		135.7,354.2 135.6,354.4 135.4,354.6 135.2,354.7 135,354.8 134.8,354.9 134.5,354.9 	"/>
	<rect x="99.2" y="365.7" class="st0" width="113.4" height="212.6"/>
	<rect x="100.6" y="367" class="st0" width="110.7" height="209.9"/>
	<polygon class="st0" points="134.3,389.7 134,389.7 133.8,389.6 133.6,389.4 133.4,389.3 133.3,389.1 133.2,388.8 133.1,388.6 
		133.1,388.3 133.1,388.1 133.2,387.9 133.3,387.6 133.4,387.4 133.6,387.3 133.8,387.1 134,387 134.3,387 134.5,386.9 134.8,387 
		135,387 135.2,387.1 135.4,387.3 135.6,387.4 135.7,387.6 135.8,387.9 135.9,388.1 135.9,388.3 135.9,388.6 135.8,388.8 
		135.7,389.1 135.6,389.3 135.4,389.4 135.2,389.6 135,389.7 134.8,389.7 134.5,389.8 	"/>
	<polygon class="st0" points="177.1,389.7 176.8,389.7 176.6,389.6 176.4,389.4 176.2,389.3 176.1,389.1 176,388.8 175.9,388.6 
		175.9,388.3 175.9,388.1 176,387.9 176.1,387.6 176.2,387.4 176.4,387.3 176.6,387.1 176.8,387 177.1,387 177.3,386.9 177.6,387 
		177.8,387 178,387.1 178.2,387.3 178.4,387.4 178.5,387.6 178.6,387.9 178.7,388.1 178.7,388.3 178.7,388.6 178.6,388.8 
		178.5,389.1 178.4,389.3 178.2,389.4 178,389.6 177.8,389.7 177.6,389.7 177.3,389.8 	"/>
	<rect x="10.8" y="378.9" class="st0" width="10.8" height="14.9"/>
	<rect x="290.3" y="378.9" class="st0" width="10.8" height="14.9"/>
	<rect x="10.8" y="666.4" class="st0" width="10.8" height="14.9"/>
	<rect x="290.3" y="666.4" class="st0" width="10.8" height="14.9"/>
	<polygon class="st0" points="153.3,689.9 149,686.8 147.3,681.7 149,676.7 153.3,673.6 158.6,673.6 162.8,676.7 164.5,681.7 
		162.8,686.8 158.6,689.9 	"/>
</g>
<g>
	<polygon class="st0" points="783.8,731.9 798,731.9 798,742.7 812.1,742.7 812.1,731.9 826.3,731.9 826.3,742.7 840.5,742.7 
		840.5,731.9 854.6,731.9 854.6,742.7 868.8,742.7 868.8,731.9 883,731.9 883,742.7 897.2,742.7 897.2,731.9 911.3,731.9 
		911.3,742.7 925.5,742.7 925.5,731.9 939.7,731.9 939.7,742.7 953.9,742.7 953.9,731.9 968,731.9 968,742.7 982.2,742.7 
		982.2,731.9 996.4,731.9 996.4,742.7 1010.6,742.7 1010.6,731.9 1024.7,731.9 1024.7,742.7 1038.9,742.7 1038.9,731.9 
		1060.2,731.9 1060.2,721.4 1049.4,721.4 1049.4,707.2 1060.2,707.2 1060.2,693.1 1049.4,693.1 1049.4,678.9 1060.2,678.9 
		1060.2,664.7 1049.4,664.7 1049.4,650.6 1060.2,650.6 1060.2,636.4 1049.4,636.4 1049.4,622.2 1060.2,622.2 1060.2,608 1049.4,608 
		1049.4,593.9 1060.2,593.9 1060.2,579.7 1049.4,579.7 1049.4,565.5 1060.2,565.5 1060.2,551.3 1049.4,551.3 1049.4,537.2 
		1060.2,537.2 1060.2,523 1049.4,523 1049.4,508.8 1060.2,508.8 1060.2,494.6 1049.4,494.6 1049.4,480.5 1060.2,480.5 1060.2,466.3 
		1049.4,466.3 1049.4,452.1 1060.2,452.1 1060.2,438 1049.4,438 1049.4,423.8 1060.2,423.8 1060.2,409.6 1049.4,409.6 1049.4,395.4 
		1060.2,395.4 1060.2,381.3 1049.4,381.3 1049.4,367.1 1060.2,367.1 1060.2,352.9 1049.4,352.9 1049.4,338.7 1060.2,338.7 
		1060.2,328.3 1038.9,328.3 1038.9,317.5 1024.7,317.5 1024.7,328.3 1010.6,328.3 1010.6,317.5 996.4,317.5 996.4,328.3 
		982.2,328.3 982.2,317.5 968,317.5 968,328.3 953.9,328.3 953.9,317.5 939.7,317.5 939.7,328.3 925.5,328.3 925.5,317.5 
		911.3,317.5 911.3,328.3 897.2,328.3 897.2,317.5 883,317.5 883,328.3 868.8,328.3 868.8,317.5 854.6,317.5 854.6,328.3 
		840.5,328.3 840.5,317.5 826.3,317.5 826.3,328.3 812.1,328.3 812.1,317.5 798,317.5 798,328.3 783.8,328.3 783.8,317.5 
		769.6,317.5 769.6,328.3 748.3,328.3 748.3,731.9 769.6,731.9 769.6,742.7 783.8,742.7 	"/>
	<rect x="748.3" y="338.7" class="st0" width="10.8" height="14.2"/>
	<rect x="748.3" y="367.1" class="st0" width="10.8" height="14.2"/>
	<rect x="769.9" y="378.9" class="st0" width="10.8" height="14.9"/>
	<rect x="1027.8" y="378.9" class="st0" width="10.8" height="14.9"/>
	<rect x="959.5" y="395.4" class="st0" width="10.8" height="14.2"/>
	<rect x="748.3" y="395.4" class="st0" width="10.8" height="14.2"/>
	<rect x="959.5" y="423.8" class="st0" width="10.8" height="14.2"/>
	<rect x="748.3" y="423.8" class="st0" width="10.8" height="14.2"/>
	<rect x="959.5" y="452.1" class="st0" width="10.8" height="14.2"/>
	<rect x="748.3" y="452.1" class="st0" width="10.8" height="14.2"/>
	<rect x="748.3" y="480.5" class="st0" width="10.8" height="14.2"/>
	<rect x="959.5" y="480.5" class="st0" width="10.8" height="14.2"/>
	<rect x="878.9" y="494.6" class="st0" width="10.8" height="14.2"/>
	<rect x="959.5" y="508.8" class="st0" width="10.8" height="14.2"/>
	<rect x="748.3" y="508.8" class="st0" width="10.8" height="14.2"/>
	<rect x="878.9" y="523" class="st0" width="10.8" height="14.2"/>
	<rect x="959.5" y="537.2" class="st0" width="10.8" height="14.2"/>
	<rect x="748.3" y="537.2" class="st0" width="10.8" height="14.2"/>
	<rect x="878.9" y="551.3" class="st0" width="10.8" height="14.2"/>
	<rect x="959.5" y="565.5" class="st0" width="10.8" height="14.2"/>
	<rect x="748.3" y="565.5" class="st0" width="10.8" height="14.2"/>
	<rect x="878.9" y="579.7" class="st0" width="10.8" height="14.2"/>
	<rect x="959.5" y="593.9" class="st0" width="10.8" height="14.2"/>
	<rect x="748.3" y="593.9" class="st0" width="10.8" height="14.2"/>
	<rect x="878.9" y="608" class="st0" width="10.8" height="14.2"/>
	<rect x="959.5" y="622.2" class="st0" width="10.8" height="14.2"/>
	<rect x="748.3" y="622.2" class="st0" width="10.8" height="14.2"/>
	<rect x="878.9" y="636.4" class="st0" width="10.8" height="14.2"/>
	<rect x="959.5" y="650.6" class="st0" width="10.8" height="14.2"/>
	<rect x="748.3" y="650.6" class="st0" width="10.8" height="14.2"/>
	<rect x="878.9" y="664.7" class="st0" width="10.8" height="14.2"/>
	<rect x="1027.8" y="666.4" class="st0" width="10.8" height="14.9"/>
	<rect x="769.9" y="666.4" class="st0" width="10.8" height="14.9"/>
	<rect x="748.3" y="678.9" class="st0" width="10.8" height="14.2"/>
	<rect x="748.3" y="707.2" class="st0" width="10.8" height="14.2"/>
</g>
<g>
	<polygon class="st0" points="731.9,673.2 731.9,659.1 742.7,659.1 742.7,644.9 731.9,644.9 731.9,630.7 742.7,630.7 742.7,616.5 
		731.9,616.5 731.9,602.4 742.7,602.4 742.7,588.2 731.9,588.2 731.9,574 742.7,574 742.7,559.8 731.9,559.8 731.9,545.7 
		742.7,545.7 742.7,531.5 731.9,531.5 731.9,517.3 742.7,517.3 742.7,503.1 731.9,503.1 731.9,489 742.7,489 742.7,474.8 
		731.9,474.8 731.9,460.6 742.7,460.6 742.7,446.5 731.9,446.5 731.9,436 581.1,436 581.1,425.2 479.1,425.2 479.1,436 328.3,436 
		328.3,446.5 317.5,446.5 317.5,460.6 328.3,460.6 328.3,474.8 317.5,474.8 317.5,489 328.3,489 328.3,503.1 317.5,503.1 
		317.5,517.3 328.3,517.3 328.3,531.5 317.5,531.5 317.5,545.7 328.3,545.7 328.3,559.8 317.5,559.8 317.5,574 328.3,574 
		328.3,588.2 317.5,588.2 317.5,602.4 328.3,602.4 328.3,616.5 317.5,616.5 317.5,630.7 328.3,630.7 328.3,644.9 317.5,644.9 
		317.5,659.1 328.3,659.1 328.3,673.2 317.5,673.2 317.5,687.4 328.3,687.4 328.3,701.6 317.5,701.6 317.5,715.7 328.3,715.7 
		328.3,726.2 338.7,726.2 338.7,737 352.9,737 352.9,726.2 367.1,726.2 367.1,737 381.3,737 381.3,726.2 395.4,726.2 395.4,737 
		409.6,737 409.6,726.2 423.8,726.2 423.8,737 438,737 438,726.2 452.1,726.2 452.1,737 466.3,737 466.3,726.2 480.5,726.2 
		480.5,737 494.6,737 494.6,726.2 508.8,726.2 508.8,737 523,737 523,726.2 537.2,726.2 537.2,737 551.3,737 551.3,726.2 
		565.5,726.2 565.5,737 579.7,737 579.7,726.2 593.9,726.2 593.9,737 608,737 608,726.2 622.2,726.2 622.2,737 636.4,737 
		636.4,726.2 650.6,726.2 650.6,737 664.7,737 664.7,726.2 678.9,726.2 678.9,737 693.1,737 693.1,726.2 707.2,726.2 707.2,737 
		721.4,737 721.4,726.2 731.9,726.2 731.9,715.7 742.7,715.7 742.7,701.6 731.9,701.6 731.9,687.4 742.7,687.4 742.7,673.2 	"/>
	<polygon class="st0" points="385.6,453.6 384.8,453.4 384.1,453.1 383.5,452.6 382.9,452.1 382.5,451.5 382.2,450.8 382,450 
		381.9,449.2 382,448.4 382.2,447.7 382.5,447 382.9,446.4 383.5,445.8 384.1,445.4 384.8,445 385.6,444.8 386.4,444.8 387.1,444.8 
		387.9,445 388.6,445.4 389.2,445.8 389.8,446.4 390.2,447 390.6,447.7 390.8,448.4 390.8,449.2 390.8,450 390.6,450.8 390.2,451.5 
		389.8,452.1 389.2,452.6 388.6,453.1 387.9,453.4 387.1,453.6 386.4,453.7 	"/>
	<polygon class="st0" points="673,453.6 672.3,453.4 671.6,453.1 670.9,452.6 670.4,452.1 669.9,451.5 669.6,450.8 669.4,450 
		669.3,449.2 669.4,448.4 669.6,447.7 669.9,447 670.4,446.4 670.9,445.8 671.6,445.4 672.3,445 673,444.8 673.8,444.8 674.6,444.8 
		675.3,445 676,445.4 676.7,445.8 677.2,446.4 677.7,447 678,447.7 678.2,448.4 678.3,449.2 678.2,450 678,450.8 677.7,451.5 
		677.2,452.1 676.7,452.6 676,453.1 675.3,453.4 674.6,453.6 673.8,453.7 	"/>
	<polygon class="st0" points="385.6,717.4 384.8,717.2 384.1,716.8 383.5,716.4 382.9,715.9 382.5,715.2 382.2,714.5 382,713.8 
		381.9,713 382,712.2 382.2,711.5 382.5,710.7 382.9,710.1 383.5,709.6 384.1,709.1 384.8,708.8 385.6,708.6 386.4,708.5 
		387.1,708.6 387.9,708.8 388.6,709.1 389.2,709.6 389.8,710.1 390.2,710.7 390.6,711.5 390.8,712.2 390.8,713 390.8,713.8 
		390.6,714.5 390.2,715.2 389.8,715.9 389.2,716.4 388.6,716.8 387.9,717.2 387.1,717.4 386.4,717.4 	"/>
	<polygon class="st0" points="673,717.4 672.3,717.2 671.6,716.8 670.9,716.4 670.4,715.9 669.9,715.2 669.6,714.5 669.4,713.8 
		669.3,713 669.4,712.2 669.6,711.5 669.9,710.7 670.4,710.1 670.9,709.6 671.6,709.1 672.3,708.8 673,708.6 673.8,708.5 
		674.6,708.6 675.3,708.8 676,709.1 676.7,709.6 677.2,710.1 677.7,710.7 678,711.5 678.2,712.2 678.3,713 678.2,713.8 678,714.5 
		677.7,715.2 677.2,715.9 676.7,716.4 676,716.8 675.3,717.2 674.6,717.4 673.8,717.4 	"/>
</g>
<g>
	<polygon class="st0" points="731.9,934 731.9,919.8 742.7,919.8 742.7,905.7 731.9,905.7 731.9,891.5 742.7,891.5 742.7,877.3 
		731.9,877.3 731.9,863.1 742.7,863.1 742.7,849 731.9,849 731.9,834.8 742.7,834.8 742.7,820.6 731.9,820.6 731.9,753.4 
		328.3,753.4 328.3,820.6 317.5,820.6 317.5,834.8 328.3,834.8 328.3,849 317.5,849 317.5,863.1 328.3,863.1 328.3,877.3 
		317.5,877.3 317.5,891.5 328.3,891.5 328.3,905.7 317.5,905.7 317.5,919.8 328.3,919.8 328.3,934 317.5,934 317.5,948.2 
		328.3,948.2 328.3,962.4 317.5,962.4 317.5,976.5 328.3,976.5 328.3,1043.7 395.4,1043.7 395.4,1054.5 409.6,1054.5 409.6,1043.7 
		423.8,1043.7 423.8,1054.5 438,1054.5 438,1043.7 452.1,1043.7 452.1,1054.5 466.3,1054.5 466.3,1043.7 480.5,1043.7 480.5,1054.5 
		494.6,1054.5 494.6,1043.7 508.8,1043.7 508.8,1054.5 523,1054.5 523,1043.7 537.2,1043.7 537.2,1054.5 551.3,1054.5 551.3,1043.7 
		565.5,1043.7 565.5,1054.5 579.7,1054.5 579.7,1043.7 593.9,1043.7 593.9,1054.5 608,1054.5 608,1043.7 622.2,1043.7 622.2,1054.5 
		636.4,1054.5 636.4,1043.7 650.6,1043.7 650.6,1054.5 664.7,1054.5 664.7,1043.7 731.9,1043.7 731.9,976.5 742.7,976.5 
		742.7,962.4 731.9,962.4 731.9,948.2 742.7,948.2 742.7,934 	"/>
	<polygon class="st0" points="455.8,859.7 455.8,839.8 453,839.8 453,821.3 455.8,821.3 455.8,801.4 576,801.4 576,859.7 	"/>
	<polygon class="st0" points="585.8,818.6 585.6,818.5 585.3,818.4 585.1,818.2 584.9,818 584.8,817.8 584.7,817.6 584.6,817.3 
		584.6,817.1 584.6,816.8 584.7,816.6 584.8,816.3 584.9,816.1 585.1,815.9 585.3,815.8 585.6,815.7 585.8,815.6 586.1,815.6 
		586.3,815.6 586.6,815.7 586.8,815.8 587,815.9 587.2,816.1 587.4,816.3 587.5,816.6 587.5,816.8 587.6,817.1 587.5,817.3 
		587.5,817.6 587.4,817.8 587.2,818 587,818.2 586.8,818.4 586.6,818.5 586.3,818.6 586.1,818.6 	"/>
	<polygon class="st0" points="445.5,818.6 445.2,818.5 445,818.4 444.8,818.2 444.6,818 444.5,817.8 444.4,817.6 444.3,817.3 
		444.3,817.1 444.3,816.8 444.4,816.6 444.5,816.3 444.6,816.1 444.8,815.9 445,815.8 445.2,815.7 445.5,815.6 445.7,815.6 
		446,815.6 446.3,815.7 446.5,815.8 446.7,815.9 446.9,816.1 447,816.3 447.1,816.6 447.2,816.8 447.2,817.1 447.2,817.3 
		447.1,817.6 447,817.8 446.9,818 446.7,818.2 446.5,818.4 446.3,818.5 446,818.6 445.7,818.6 	"/>
	<rect x="411.6" y="836.9" class="st0" width="4.5" height="9.9"/>
	<rect x="360.6" y="836.9" class="st0" width="4.5" height="9.9"/>
	<polygon class="st0" points="585.8,845.5 585.6,845.4 585.3,845.3 585.1,845.2 584.9,845 584.8,844.8 584.7,844.5 584.6,844.3 
		584.6,844 584.6,843.8 584.7,843.5 584.8,843.3 584.9,843.1 585.1,842.9 585.3,842.7 585.6,842.6 585.8,842.6 586.1,842.5 
		586.3,842.6 586.6,842.6 586.8,842.7 587,842.9 587.2,843.1 587.4,843.3 587.5,843.5 587.5,843.8 587.6,844 587.5,844.3 
		587.5,844.5 587.4,844.8 587.2,845 587,845.2 586.8,845.3 586.6,845.4 586.3,845.5 586.1,845.5 	"/>
	<polygon class="st0" points="445.5,845.5 445.2,845.4 445,845.3 444.8,845.2 444.6,845 444.5,844.8 444.4,844.5 444.3,844.3 
		444.3,844 444.3,843.8 444.4,843.5 444.5,843.3 444.6,843.1 444.8,842.9 445,842.7 445.2,842.6 445.5,842.6 445.7,842.5 446,842.6 
		446.3,842.6 446.5,842.7 446.7,842.9 446.9,843.1 447,843.3 447.1,843.5 447.2,843.8 447.2,844 447.2,844.3 447.1,844.5 447,844.8 
		446.9,845 446.7,845.2 446.5,845.3 446.3,845.4 446,845.5 445.7,845.5 	"/>
	<polygon class="st0" points="705.8,871.7 704.3,870.8 703.4,869.3 703,867.6 703.4,865.8 704.3,864.4 705.8,863.4 707.5,863 
		709.3,863.4 710.7,864.4 711.7,865.8 712.1,867.6 711.7,869.3 710.7,870.8 709.3,871.7 707.5,872.1 	"/>
	<polygon class="st0" points="623,871.7 621.5,870.8 620.6,869.3 620.2,867.6 620.6,865.8 621.5,864.4 623,863.4 624.7,863 
		626.5,863.4 627.9,864.4 628.9,865.8 629.3,867.6 628.9,869.3 627.9,870.8 626.5,871.7 624.7,872.1 	"/>
	<polygon class="st0" points="478.7,1033.2 477.8,1032.7 475.9,1032.5 474.6,1031.9 473.8,1031 472.7,1028.9 471.2,1027.2 
		469.7,1025.7 468.1,1023.8 467.1,1021.6 466.2,1020.4 463.7,1019.1 460.8,1018.5 458.9,1018.2 458,1017.8 457.1,1016.9 
		453.8,1016.9 455.8,1015.8 457.9,1015.5 462,1016 463.2,1016.2 463.1,1015.7 459.7,1008.7 456,1001.8 455.2,1001.2 454.1,1000.8 
		453.3,999.9 452.3,997.5 451.4,995.1 450.7,992.7 450.9,990.2 452.3,985.2 452.8,983.4 452,983.4 442.6,983.2 437.8,982.9 
		432.8,982.1 434.5,981.3 436.2,980.5 436.1,980.3 429.3,979.8 433.3,978.1 430.9,977.6 433.9,975.4 433,975.2 418.9,971.9 
		416.2,971 412.5,969.8 408.7,969.1 405.7,968.9 402.6,969.1 395.8,970.5 383.9,973.8 378.7,975 373.4,975.6 369,975.5 367.2,974.8 
		366.6,974 366.6,973.1 367.4,971.6 368.9,969.8 369.4,969.1 363.5,967.6 372.9,964.1 382.4,961 382.4,960.9 378.2,959.8 
		382.4,957.7 376.1,957.5 376.1,957.4 377.8,957.1 381.6,956.5 385.3,955.4 395.6,951.6 405.6,947.1 418.3,941.4 419,941 419,940.9 
		407,942.5 406.9,942.4 407.2,942.2 420.5,936.8 425.6,935 430.9,933.5 439,931 446.9,928 457.2,923.9 467.7,920.3 472.5,918.5 
		477.1,916.2 478.5,915.4 480.4,914.1 482.1,912.5 483.4,910.7 484.4,908.6 486.4,904 488,900.7 490.1,897.8 492.7,895.4 
		495.7,893.5 500.3,891.2 505.1,889.3 510.7,888.1 511.3,887.9 513.7,887.9 514.7,888.1 518,888.9 521.3,889.9 524.2,890.9 
		526.1,892.1 527.5,893.3 529.2,894.2 540,898.3 544.6,900.2 549,902.4 552.7,905.3 553.9,906.7 554.7,908.4 554.9,909.5 
		554.1,909.2 552.8,908.8 551.3,908.7 541.3,908.7 536.9,908.9 532.5,909.5 529.2,910.4 526.2,911.9 523.5,913.9 521.2,916.5 
		520,918.9 519.8,921.7 519.7,925.4 518.7,929.1 516.6,934.8 514.7,940.6 513.3,946.6 512.3,951.2 511.3,954.1 509.9,956.7 508,959 
		505.7,961 498.9,966 491.9,970.6 488.2,972.6 484.6,974 480.9,974.7 476.3,975.5 473.5,976.6 471.2,978.5 469.6,980.3 467.7,982.1 
		465.6,983.5 463.9,984.3 464.1,985 466.4,989.8 467.7,991.5 469.1,992.2 470.7,991.9 471.9,991 473.1,990 474.8,989.4 476.5,990.2 
		473.7,991.1 472.5,991.7 471.8,992.3 471.7,993 471.9,993.6 472.6,994.2 474,994.5 475.3,994.4 478.6,993.7 481.2,993.7 
		482.3,994.3 483.3,995.2 483.8,995.8 483.9,996.1 483.7,996.1 480.5,995.6 476,995.5 474,996 473.4,996.3 473.2,996.9 473.5,997.4 
		474.2,997.7 474.9,997.9 476.1,997.8 478.8,997.7 481.4,998.6 483,999.6 481.4,999.4 480.2,999.5 477.8,999.9 475.3,999.7 
		469.6,998.6 465.5,998.5 459.6,999.1 459.2,999.2 459.4,999.8 464,1008.5 466.7,1012.7 469.7,1016.6 473.7,1020.8 475.2,1021.7 
		476.9,1021.9 479,1021.6 483.2,1021.2 487.3,1021.2 490,1021.5 492.6,1022.3 494.9,1023.4 493.9,1023.4 493,1023.6 490.2,1023.7 
		487.4,1023.4 484.3,1023.6 481.9,1024.2 483.8,1024.7 485.3,1025.4 489.5,1028 490.2,1029 490.5,1031.1 489.7,1030 488.8,1029.4 
		484,1027.8 481.6,1026.9 479.2,1026.2 475.5,1026.1 477.6,1029.9 478.6,1031.8 479.3,1034 	"/>
	<polygon class="st0" points="462.4,996.4 463.8,995.4 464,993.7 463.2,990.2 461.9,986.9 461.7,986.6 461.3,987.7 460.8,990.6 
		460.8,993.2 461,994.9 460.5,996.5 460.5,996.9 	"/>
	
		<rect x="414.9" y="897" transform="matrix(0.9061 -0.4231 0.4231 0.9061 -342.4195 261.1665)" class="st0" width="4.5" height="9.9"/>
	
		<rect x="368.6" y="918.6" transform="matrix(0.9061 -0.423 0.423 0.9061 -355.8662 243.6087)" class="st0" width="4.5" height="9.9"/>
	<rect x="519.4" y="970" class="st0" width="9.9" height="4.5"/>
	<rect x="567.6" y="970" class="st0" width="9.9" height="4.5"/>
	<rect x="519.4" y="1021" class="st0" width="9.9" height="4.5"/>
	<rect x="567.6" y="1021" class="st0" width="9.9" height="4.5"/>
	<polygon class="st0" points="705.8,1030.2 704.3,1029.2 703.4,1027.7 703,1026 703.4,1024.2 704.3,1022.8 705.8,1021.8 
		707.5,1021.4 709.3,1021.8 710.7,1022.8 711.7,1024.2 712.1,1026 711.7,1027.7 710.7,1029.2 709.3,1030.2 707.5,1030.5 	"/>
	<polygon class="st0" points="623,1030.1 621.5,1029.2 620.6,1027.7 620.2,1026 620.6,1024.2 621.5,1022.8 623,1021.8 624.7,1021.4 
		626.5,1021.8 627.9,1022.8 628.9,1024.2 629.3,1026 628.9,1027.7 627.9,1029.2 626.5,1030.1 624.7,1030.5 	"/>
</g>
<g>
	<polygon class="st0" points="958.3,974.4 969.7,974.4 969.6,960.2 958.3,960.2 958.3,946.1 929.7,945.8 915.9,945.4 902.6,944.6 
		889.9,943.4 877.9,941.7 866.7,939.5 861.4,938.1 856.3,936.5 847.8,933.2 843.9,931.3 840.1,929.2 836.7,927 833.4,924.6 
		830.3,922 827.4,919.2 824.7,916.2 822.2,913 819.9,909.6 817.7,906 815.7,902.1 813.9,898 810.6,889 809.9,886.1 809.7,882.7 
		809.7,878.9 810.1,874.7 810.9,870.4 811.8,865.8 814.6,856.4 818.2,847.1 822.5,838.4 824.8,834.5 827.2,831 829.7,827.9 
		832.2,825.2 838.7,819.8 845.1,815.4 851.5,812 858.1,809.5 865,807.9 872.3,807.1 880.4,807 889.2,807.6 883.6,839.6 967.3,854.2 
		982,770.5 898.2,755.8 896.5,765.6 884.7,764.6 878.9,764.4 873.1,764.4 867.3,764.8 861.5,765.4 855.7,766.3 850,767.6 
		844.2,769.3 838.5,771.3 832.7,773.8 826.9,776.8 821.1,780.3 815.3,784.2 809.5,788.7 803.6,793.8 799.2,798.3 794.9,803.3 
		790.8,809 786.8,815.2 783.1,821.8 779.7,828.8 776.7,836 774,843.5 771.6,851.1 769.8,858.8 768.4,866.4 767.5,874 767.2,881.4 
		767.5,888.5 768.4,895.4 770,901.8 772.4,908.8 775.1,915.5 778.1,921.8 781.3,927.9 784.8,933.6 788.6,939 792.7,944.2 797.1,949 
		801.8,953.5 806.7,957.7 812,961.6 817.6,965.3 823.4,968.6 829.6,971.6 836,974.4 842.8,976.8 849.2,978.8 855.7,980.6 
		862.5,982.1 869.4,983.4 879.6,985 890.2,986.2 901,987.1 912.1,987.8 934.9,988.4 958.3,988.6 	"/>
	<polygon class="st0" points="930.5,816.1 928.4,815.5 926.4,814.4 924.7,813.1 923.4,811.4 922.3,809.5 921.7,807.3 921.4,805 
		921.7,802.8 922.3,800.6 923.4,798.7 924.7,797 926.4,795.6 928.4,794.6 930.5,793.9 932.8,793.7 935.1,793.9 937.2,794.6 
		939.1,795.6 940.8,797 942.2,798.7 943.2,800.6 943.9,802.8 944.1,805 943.9,807.3 943.2,809.5 942.2,811.4 940.8,813.1 
		939.1,814.4 937.2,815.5 935.1,816.1 932.8,816.4 	"/>
	<polygon class="st0" points="961.2,911.2 962.8,910.7 964.3,909.9 965.5,908.8 966.6,907.6 967.4,906.1 967.9,904.5 968,902.8 
		968,877.3 967.9,875.6 967.4,874 966.6,872.6 965.5,871.3 964.3,870.3 962.8,869.5 961.2,869 959.5,868.8 905.7,868.8 904,869 
		902.4,869.5 900.9,870.3 899.7,871.3 898.6,872.6 897.8,874 897.3,875.6 897.2,877.3 897.2,902.8 897.3,904.5 897.8,906.1 
		898.6,907.6 899.7,908.8 900.9,909.9 902.4,910.7 904,911.2 905.7,911.3 959.5,911.3 	"/>
	<rect x="927.2" y="882.8" class="st0" width="10.8" height="14.6"/>
</g>
<polygon class="st0" points="240.3,920.9 239.5,920.7 238.8,920.4 238.2,920 237.6,919.4 237.2,918.8 236.8,918.1 236.6,917.3 
	236.6,916.5 236.6,915.8 236.8,915 237.2,914.3 237.6,913.7 238.2,913.1 238.8,912.7 239.5,912.3 240.3,912.1 241,912.1 
	241.8,912.1 242.6,912.3 243.3,912.7 243.9,913.1 244.4,913.7 244.9,914.3 245.2,915 245.4,915.8 245.5,916.5 245.4,917.3 
	245.2,918.1 244.9,918.8 244.4,919.4 243.9,920 243.3,920.4 242.6,920.7 241.8,920.9 241,921 "/>
<polygon class="st0" points="175.9,920.9 175.1,920.7 174.4,920.4 173.8,920 173.2,919.4 172.8,918.8 172.5,918.1 172.3,917.3 
	172.2,916.5 172.3,915.8 172.5,915 172.8,914.3 173.2,913.7 173.8,913.1 174.4,912.7 175.1,912.3 175.9,912.1 176.7,912.1 
	177.4,912.1 178.2,912.3 178.9,912.7 179.5,913.1 180.1,913.7 180.5,914.3 180.9,915 181.1,915.8 181.1,916.5 181.1,917.3 
	180.9,918.1 180.5,918.8 180.1,919.4 179.5,920 178.9,920.4 178.2,920.7 177.4,920.9 176.7,921 "/>
<polygon class="st0" points="111.5,920.9 110.8,920.7 110.1,920.4 109.4,920 108.9,919.4 108.4,918.8 108.1,918.1 107.9,917.3 
	107.8,916.5 107.9,915.8 108.1,915 108.4,914.3 108.9,913.7 109.4,913.1 110.1,912.7 110.8,912.3 111.5,912.1 112.3,912.1 
	113.1,912.1 113.8,912.3 114.5,912.7 115.2,913.1 115.7,913.7 116.2,914.3 116.5,915 116.7,915.8 116.8,916.5 116.7,917.3 
	116.5,918.1 116.2,918.8 115.7,919.4 115.2,920 114.5,920.4 113.8,920.7 113.1,920.9 112.3,921 "/>
<polygon class="st0" points="47.2,920.9 46.4,920.7 45.7,920.4 45.1,920 44.5,919.4 44.1,918.8 43.7,918.1 43.5,917.3 43.5,916.5 
	43.5,915.8 43.7,915 44.1,914.3 44.5,913.7 45.1,913.1 45.7,912.7 46.4,912.3 47.2,912.1 47.9,912.1 48.7,912.1 49.5,912.3 
	50.2,912.7 50.8,913.1 51.4,913.7 51.8,914.3 52.1,915 52.3,915.8 52.4,916.5 52.3,917.3 52.1,918.1 51.8,918.8 51.4,919.4 
	50.8,920 50.2,920.4 49.5,920.7 48.7,920.9 47.9,921 "/>
<g>
	<polygon class="st0" points="123.2,785.6 123.7,785.5 124.1,785.3 124.5,785 124.9,784.6 125.2,784.2 125.4,783.8 125.5,783.3 
		125.6,782.8 125.6,762 125.5,761.5 125.4,761 125.2,760.5 124.9,760.1 124.5,759.8 124.1,759.5 123.7,759.3 123.2,759.2 
		122.7,759.1 119.4,759.1 119.4,748.3 105.2,748.3 105.2,759.1 101.9,759.1 101.4,759.2 100.9,759.3 100.5,759.5 100.1,759.8 
		99.7,760.1 99.4,760.5 99.2,761 99.1,761.5 99,762 99,782.8 99.1,783.3 99.2,783.8 99.4,784.2 99.7,784.6 100.1,785 100.5,785.3 
		100.9,785.5 101.4,785.6 101.9,785.6 122.7,785.6 	"/>
	<polygon class="st0" points="111.5,776.8 110.8,776.6 110.1,776.2 109.4,775.8 108.9,775.2 108.4,774.6 108.1,773.9 107.9,773.1 
		107.8,772.4 107.9,771.6 108.1,770.8 108.4,770.1 108.9,769.5 109.4,769 110.1,768.5 110.8,768.2 111.5,768 112.3,767.9 113.1,768 
		113.8,768.2 114.5,768.5 115.2,769 115.7,769.5 116.2,770.1 116.5,770.8 116.7,771.6 116.8,772.4 116.7,773.1 116.5,773.9 
		116.2,774.6 115.7,775.2 115.2,775.8 114.5,776.2 113.8,776.6 113.1,776.8 112.3,776.8 	"/>
	<polygon class="st0" points="187.6,785.6 188.1,785.5 188.5,785.3 188.9,785 189.3,784.6 189.5,784.2 189.8,783.8 189.9,783.3 
		189.9,782.8 189.9,762 189.9,761.5 189.8,761 189.5,760.5 189.3,760.1 188.9,759.8 188.5,759.5 188.1,759.3 187.6,759.2 
		187.1,759.1 183.8,759.1 183.8,748.3 169.6,748.3 169.6,759.1 166.2,759.1 165.8,759.2 165.3,759.3 164.8,759.5 164.4,759.8 
		164.1,760.1 163.8,760.5 163.6,761 163.5,761.5 163.4,762 163.4,782.8 163.5,783.3 163.6,783.8 163.8,784.2 164.1,784.6 164.4,785 
		164.8,785.3 165.3,785.5 165.8,785.6 166.2,785.6 187.1,785.6 	"/>
	<polygon class="st0" points="175.9,776.8 175.1,776.6 174.4,776.2 173.8,775.8 173.2,775.2 172.8,774.6 172.5,773.9 172.3,773.1 
		172.2,772.4 172.3,771.6 172.5,770.8 172.8,770.1 173.2,769.5 173.8,769 174.4,768.5 175.1,768.2 175.9,768 176.7,767.9 177.4,768 
		178.2,768.2 178.9,768.5 179.5,769 180.1,769.5 180.5,770.1 180.9,770.8 181.1,771.6 181.1,772.4 181.1,773.1 180.9,773.9 
		180.5,774.6 180.1,775.2 179.5,775.8 178.9,776.2 178.2,776.6 177.4,776.8 176.7,776.8 	"/>
	<polygon class="st0" points="58.9,785.6 59.3,785.5 59.8,785.3 60.2,785 60.5,784.6 60.8,784.2 61,783.8 61.2,783.3 61.2,782.8 
		61.2,762 61.2,761.5 61,761 60.8,760.5 60.5,760.1 60.2,759.8 59.8,759.5 59.3,759.3 58.9,759.2 58.4,759.1 55,759.1 55,748.3 
		40.9,748.3 40.9,759.1 37.5,759.1 37,759.2 36.5,759.3 36.1,759.5 35.7,759.8 35.3,760.1 35.1,760.5 34.9,761 34.7,761.5 34.7,762 
		34.7,782.8 34.7,783.3 34.9,783.8 35.1,784.2 35.3,784.6 35.7,785 36.1,785.3 36.5,785.5 37,785.6 37.5,785.6 58.4,785.6 	"/>
	<polygon class="st0" points="47.2,776.8 46.4,776.6 45.7,776.2 45.1,775.8 44.5,775.2 44.1,774.6 43.7,773.9 43.5,773.1 
		43.5,772.4 43.5,771.6 43.7,770.8 44.1,770.1 44.5,769.5 45.1,769 45.7,768.5 46.4,768.2 47.2,768 47.9,767.9 48.7,768 49.5,768.2 
		50.2,768.5 50.8,769 51.4,769.5 51.8,770.1 52.1,770.8 52.3,771.6 52.4,772.4 52.3,773.1 52.1,773.9 51.8,774.6 51.4,775.2 
		50.8,775.8 50.2,776.2 49.5,776.6 48.7,776.8 47.9,776.8 	"/>
	<polygon class="st0" points="251.9,785.6 252.4,785.5 252.9,785.3 253.3,785 253.6,784.6 253.9,784.2 254.1,783.8 254.2,783.3 
		254.3,782.8 254.3,762 254.2,761.5 254.1,761 253.9,760.5 253.6,760.1 253.3,759.8 252.9,759.5 252.4,759.3 251.9,759.2 
		251.5,759.1 248.1,759.1 248.1,748.3 233.9,748.3 233.9,759.1 230.6,759.1 230.1,759.2 229.6,759.3 229.2,759.5 228.8,759.8 
		228.4,760.1 228.2,760.5 227.9,761 227.8,761.5 227.8,762 227.8,782.8 227.8,783.3 227.9,783.8 228.2,784.2 228.4,784.6 228.8,785 
		229.2,785.3 229.6,785.5 230.1,785.6 230.6,785.6 251.5,785.6 	"/>
	<polygon class="st0" points="240.3,776.8 239.5,776.6 238.8,776.2 238.2,775.8 237.6,775.2 237.2,774.6 236.8,773.9 236.6,773.1 
		236.6,772.4 236.6,771.6 236.8,770.8 237.2,770.1 237.6,769.5 238.2,769 238.8,768.5 239.5,768.2 240.3,768 241,767.9 241.8,768 
		242.6,768.2 243.3,768.5 243.9,769 244.4,769.5 244.9,770.1 245.2,770.8 245.4,771.6 245.5,772.4 245.4,773.1 245.2,773.9 
		244.9,774.6 244.4,775.2 243.9,775.8 243.3,776.2 242.6,776.6 241.8,776.8 241,776.8 	"/>
	<polygon class="st0" points="219.8,785.6 220.2,785.5 220.7,785.3 221.1,785 221.4,784.6 221.7,784.2 221.9,783.8 222.1,783.3 
		222.1,782.8 222.1,762 222.1,761.5 221.9,761 221.7,760.5 221.4,760.1 221.1,759.8 220.7,759.5 220.2,759.3 219.8,759.2 
		219.3,759.1 198.4,759.1 197.9,759.2 197.5,759.3 197,759.5 196.6,759.8 196.3,760.1 196,760.5 195.8,761 195.6,761.5 195.6,762 
		195.6,782.8 195.6,783.3 195.8,783.8 196,784.2 196.3,784.6 196.6,785 197,785.3 197.5,785.5 197.9,785.6 198.4,785.6 219.3,785.6 
			"/>
	<polygon class="st0" points="204.2,780.4 199.6,772.4 204.2,764.3 213.5,764.3 218.1,772.4 213.5,780.4 	"/>
	<polygon class="st0" points="155.4,785.6 155.9,785.5 156.3,785.3 156.7,785 157.1,784.6 157.4,784.2 157.6,783.8 157.7,783.3 
		157.7,782.8 157.7,762 157.7,761.5 157.6,761 157.4,760.5 157.1,760.1 156.7,759.8 156.3,759.5 155.9,759.3 155.4,759.2 
		154.9,759.1 134.1,759.1 133.6,759.2 133.1,759.3 132.6,759.5 132.2,759.8 131.9,760.1 131.6,760.5 131.4,761 131.3,761.5 
		131.2,762 131.2,782.8 131.3,783.3 131.4,783.8 131.6,784.2 131.9,784.6 132.2,785 132.6,785.3 133.1,785.5 133.6,785.6 
		134.1,785.6 154.9,785.6 	"/>
	<polygon class="st0" points="139.8,780.4 135.2,772.4 139.8,764.3 149.1,764.3 153.8,772.4 149.1,780.4 	"/>
	<polygon class="st0" points="91,785.6 91.5,785.5 92,785.3 92.4,785 92.7,784.6 93,784.2 93.2,783.8 93.3,783.3 93.4,782.8 
		93.4,762 93.3,761.5 93.2,761 93,760.5 92.7,760.1 92.4,759.8 92,759.5 91.5,759.3 91,759.2 90.5,759.1 69.7,759.1 69.2,759.2 
		68.7,759.3 68.3,759.5 67.9,759.8 67.5,760.1 67.2,760.5 67,761 66.9,761.5 66.9,762 66.9,782.8 66.9,783.3 67,783.8 67.2,784.2 
		67.5,784.6 67.9,785 68.3,785.3 68.7,785.5 69.2,785.6 69.7,785.6 90.5,785.6 	"/>
	<polygon class="st0" points="75.5,780.4 70.8,772.4 75.5,764.3 84.8,764.3 89.4,772.4 84.8,780.4 	"/>
	<polygon class="st0" points="26.7,785.6 27.1,785.5 27.6,785.3 28,785 28.3,784.6 28.6,784.2 28.8,783.8 29,783.3 29,782.8 29,762 
		29,761.5 28.8,761 28.6,760.5 28.3,760.1 28,759.8 27.6,759.5 27.1,759.3 26.7,759.2 26.2,759.1 5.3,759.1 4.8,759.2 4.4,759.3 
		3.9,759.5 3.5,759.8 3.2,760.1 2.9,760.5 2.7,761 2.5,761.5 2.5,762 2.5,782.8 2.5,783.3 2.7,783.8 2.9,784.2 3.2,784.6 3.5,785 
		3.9,785.3 4.4,785.5 4.8,785.6 5.3,785.6 26.2,785.6 	"/>
	<polygon class="st0" points="11.1,780.4 6.5,772.4 11.1,764.3 20.4,764.3 25,772.4 20.4,780.4 	"/>
	<polygon class="st0" points="251.9,833.6 252.4,833.5 252.9,833.3 253.3,833 253.6,832.7 253.9,832.3 254.1,831.8 254.2,831.3 
		254.3,830.9 254.3,810 254.2,809.5 254.1,809 253.9,808.6 253.6,808.2 253.3,807.8 252.9,807.6 252.4,807.3 251.9,807.2 
		251.5,807.2 248.1,807.2 248.1,796.4 233.9,796.4 233.9,807.2 230.6,807.2 230.1,807.2 229.6,807.3 229.2,807.6 228.8,807.8 
		228.4,808.2 228.2,808.6 227.9,809 227.8,809.5 227.8,810 227.8,830.9 227.8,831.3 227.9,831.8 228.2,832.3 228.4,832.7 228.8,833 
		229.2,833.3 229.6,833.5 230.1,833.6 230.6,833.7 251.5,833.7 	"/>
	<polygon class="st0" points="240.3,824.8 239.5,824.6 238.8,824.3 238.2,823.9 237.6,823.3 237.2,822.7 236.8,822 236.6,821.2 
		236.6,820.4 236.6,819.7 236.8,818.9 237.2,818.2 237.6,817.6 238.2,817 238.8,816.6 239.5,816.2 240.3,816 241,816 241.8,816 
		242.6,816.2 243.3,816.6 243.9,817 244.4,817.6 244.9,818.2 245.2,818.9 245.4,819.7 245.5,820.4 245.4,821.2 245.2,822 
		244.9,822.7 244.4,823.3 243.9,823.9 243.3,824.3 242.6,824.6 241.8,824.8 241,824.9 	"/>
	<polygon class="st0" points="58.9,833.6 59.3,833.5 59.8,833.3 60.2,833 60.5,832.7 60.8,832.3 61,831.8 61.2,831.3 61.2,830.9 
		61.2,810 61.2,809.5 61,809 60.8,808.6 60.5,808.2 60.2,807.8 59.8,807.6 59.3,807.3 58.9,807.2 58.4,807.2 55,807.2 55,796.4 
		40.9,796.4 40.9,807.2 37.5,807.2 37,807.2 36.5,807.3 36.1,807.6 35.7,807.8 35.3,808.2 35.1,808.6 34.9,809 34.7,809.5 34.7,810 
		34.7,830.9 34.7,831.3 34.9,831.8 35.1,832.3 35.3,832.7 35.7,833 36.1,833.3 36.5,833.5 37,833.6 37.5,833.7 58.4,833.7 	"/>
	<polygon class="st0" points="47.2,824.8 46.4,824.6 45.7,824.3 45.1,823.9 44.5,823.3 44.1,822.7 43.7,822 43.5,821.2 43.5,820.4 
		43.5,819.7 43.7,818.9 44.1,818.2 44.5,817.6 45.1,817 45.7,816.6 46.4,816.2 47.2,816 47.9,816 48.7,816 49.5,816.2 50.2,816.6 
		50.8,817 51.4,817.6 51.8,818.2 52.1,818.9 52.3,819.7 52.4,820.4 52.3,821.2 52.1,822 51.8,822.7 51.4,823.3 50.8,823.9 
		50.2,824.3 49.5,824.6 48.7,824.8 47.9,824.9 	"/>
	<polygon class="st0" points="187.6,833.6 188.1,833.5 188.5,833.3 188.9,833 189.3,832.7 189.5,832.3 189.8,831.8 189.9,831.3 
		189.9,830.9 189.9,810 189.9,809.5 189.8,809 189.5,808.6 189.3,808.2 188.9,807.8 188.5,807.6 188.1,807.3 187.6,807.2 
		187.1,807.2 183.8,807.2 183.8,796.4 169.6,796.4 169.6,807.2 166.2,807.2 165.8,807.2 165.3,807.3 164.8,807.6 164.4,807.8 
		164.1,808.2 163.8,808.6 163.6,809 163.5,809.5 163.4,810 163.4,830.9 163.5,831.3 163.6,831.8 163.8,832.3 164.1,832.7 164.4,833 
		164.8,833.3 165.3,833.5 165.8,833.6 166.2,833.7 187.1,833.7 	"/>
	<polygon class="st0" points="175.9,824.8 175.1,824.6 174.4,824.3 173.8,823.9 173.2,823.3 172.8,822.7 172.5,822 172.3,821.2 
		172.2,820.4 172.3,819.7 172.5,818.9 172.8,818.2 173.2,817.6 173.8,817 174.4,816.6 175.1,816.2 175.9,816 176.7,816 177.4,816 
		178.2,816.2 178.9,816.6 179.5,817 180.1,817.6 180.5,818.2 180.9,818.9 181.1,819.7 181.1,820.4 181.1,821.2 180.9,822 
		180.5,822.7 180.1,823.3 179.5,823.9 178.9,824.3 178.2,824.6 177.4,824.8 176.7,824.9 	"/>
	<polygon class="st0" points="123.2,833.6 123.7,833.5 124.1,833.3 124.5,833 124.9,832.7 125.2,832.3 125.4,831.8 125.5,831.3 
		125.6,830.9 125.6,810 125.5,809.5 125.4,809 125.2,808.6 124.9,808.2 124.5,807.8 124.1,807.6 123.7,807.3 123.2,807.2 
		122.7,807.2 119.4,807.2 119.4,796.4 105.2,796.4 105.2,807.2 101.9,807.2 101.4,807.2 100.9,807.3 100.5,807.6 100.1,807.8 
		99.7,808.2 99.4,808.6 99.2,809 99.1,809.5 99,810 99,830.9 99.1,831.3 99.2,831.8 99.4,832.3 99.7,832.7 100.1,833 100.5,833.3 
		100.9,833.5 101.4,833.6 101.9,833.7 122.7,833.7 	"/>
	<polygon class="st0" points="111.5,824.8 110.8,824.6 110.1,824.3 109.4,823.9 108.9,823.3 108.4,822.7 108.1,822 107.9,821.2 
		107.8,820.4 107.9,819.7 108.1,818.9 108.4,818.2 108.9,817.6 109.4,817 110.1,816.6 110.8,816.2 111.5,816 112.3,816 113.1,816 
		113.8,816.2 114.5,816.6 115.2,817 115.7,817.6 116.2,818.2 116.5,818.9 116.7,819.7 116.8,820.4 116.7,821.2 116.5,822 
		116.2,822.7 115.7,823.3 115.2,823.9 114.5,824.3 113.8,824.6 113.1,824.8 112.3,824.9 	"/>
	<polygon class="st0" points="26.7,833.6 27.1,833.5 27.6,833.3 28,833 28.3,832.7 28.6,832.3 28.8,831.8 29,831.3 29,830.9 29,810 
		29,809.5 28.8,809 28.6,808.6 28.3,808.2 28,807.8 27.6,807.6 27.1,807.3 26.7,807.2 26.2,807.2 5.3,807.2 4.8,807.2 4.4,807.3 
		3.9,807.6 3.5,807.8 3.2,808.2 2.9,808.6 2.7,809 2.5,809.5 2.5,810 2.5,830.9 2.5,831.3 2.7,831.8 2.9,832.3 3.2,832.7 3.5,833 
		3.9,833.3 4.4,833.5 4.8,833.6 5.3,833.7 26.2,833.7 	"/>
	<polygon class="st0" points="11.1,828.5 6.5,820.4 11.1,812.4 20.4,812.4 25,820.4 20.4,828.5 	"/>
	<polygon class="st0" points="219.8,833.6 220.2,833.5 220.7,833.3 221.1,833 221.4,832.7 221.7,832.3 221.9,831.8 222.1,831.3 
		222.1,830.9 222.1,810 222.1,809.5 221.9,809 221.7,808.6 221.4,808.2 221.1,807.8 220.7,807.6 220.2,807.3 219.8,807.2 
		219.3,807.2 198.4,807.2 197.9,807.2 197.5,807.3 197,807.6 196.6,807.8 196.3,808.2 196,808.6 195.8,809 195.6,809.5 195.6,810 
		195.6,830.9 195.6,831.3 195.8,831.8 196,832.3 196.3,832.7 196.6,833 197,833.3 197.5,833.5 197.9,833.6 198.4,833.7 219.3,833.7 
			"/>
	<polygon class="st0" points="204.2,828.5 199.6,820.4 204.2,812.4 213.5,812.4 218.1,820.4 213.5,828.5 	"/>
	<polygon class="st0" points="91,833.6 91.5,833.5 92,833.3 92.4,833 92.7,832.7 93,832.3 93.2,831.8 93.3,831.3 93.4,830.9 
		93.4,810 93.3,809.5 93.2,809 93,808.6 92.7,808.2 92.4,807.8 92,807.6 91.5,807.3 91,807.2 90.5,807.2 69.7,807.2 69.2,807.2 
		68.7,807.3 68.3,807.6 67.9,807.8 67.5,808.2 67.2,808.6 67,809 66.9,809.5 66.9,810 66.9,830.9 66.9,831.3 67,831.8 67.2,832.3 
		67.5,832.7 67.9,833 68.3,833.3 68.7,833.5 69.2,833.6 69.7,833.7 90.5,833.7 	"/>
	<polygon class="st0" points="75.5,828.5 70.8,820.4 75.5,812.4 84.8,812.4 89.4,820.4 84.8,828.5 	"/>
	<polygon class="st0" points="155.4,833.6 155.9,833.5 156.3,833.3 156.7,833 157.1,832.7 157.4,832.3 157.6,831.8 157.7,831.3 
		157.7,830.9 157.7,810 157.7,809.5 157.6,809 157.4,808.6 157.1,808.2 156.7,807.8 156.3,807.6 155.9,807.3 155.4,807.2 
		154.9,807.2 134.1,807.2 133.6,807.2 133.1,807.3 132.6,807.6 132.2,807.8 131.9,808.2 131.6,808.6 131.4,809 131.3,809.5 
		131.2,810 131.2,830.9 131.3,831.3 131.4,831.8 131.6,832.3 131.9,832.7 132.2,833 132.6,833.3 133.1,833.5 133.6,833.6 
		134.1,833.7 154.9,833.7 	"/>
	<polygon class="st0" points="139.8,828.5 135.2,820.4 139.8,812.4 149.1,812.4 153.8,820.4 149.1,828.5 	"/>
	<polygon class="st0" points="251.9,881.7 252.4,881.6 252.9,881.4 253.3,881.1 253.6,880.7 253.9,880.3 254.1,879.9 254.2,879.4 
		254.3,878.9 254.3,858.1 254.2,857.6 254.1,857.1 253.9,856.6 253.6,856.2 253.3,855.9 252.9,855.6 252.4,855.4 251.9,855.3 
		251.5,855.2 248.1,855.2 248.1,844.5 233.9,844.5 233.9,855.2 230.6,855.2 230.1,855.3 229.6,855.4 229.2,855.6 228.8,855.9 
		228.4,856.2 228.2,856.6 227.9,857.1 227.8,857.6 227.8,858.1 227.8,878.9 227.8,879.4 227.9,879.9 228.2,880.3 228.4,880.7 
		228.8,881.1 229.2,881.4 229.6,881.6 230.1,881.7 230.6,881.7 251.5,881.7 	"/>
	<polygon class="st0" points="240.3,872.9 239.5,872.7 238.8,872.4 238.2,871.9 237.6,871.4 237.2,870.7 236.8,870 236.6,869.3 
		236.6,868.5 236.6,867.7 236.8,867 237.2,866.3 237.6,865.6 238.2,865.1 238.8,864.6 239.5,864.3 240.3,864.1 241,864 241.8,864.1 
		242.6,864.3 243.3,864.6 243.9,865.1 244.4,865.6 244.9,866.3 245.2,867 245.4,867.7 245.5,868.5 245.4,869.3 245.2,870 
		244.9,870.7 244.4,871.4 243.9,871.9 243.3,872.4 242.6,872.7 241.8,872.9 241,873 	"/>
	<polygon class="st0" points="187.6,881.7 188.1,881.6 188.5,881.4 188.9,881.1 189.3,880.7 189.5,880.3 189.8,879.9 189.9,879.4 
		189.9,878.9 189.9,858.1 189.9,857.6 189.8,857.1 189.5,856.6 189.3,856.2 188.9,855.9 188.5,855.6 188.1,855.4 187.6,855.3 
		187.1,855.2 183.8,855.2 183.8,844.5 169.6,844.5 169.6,855.2 166.2,855.2 165.8,855.3 165.3,855.4 164.8,855.6 164.4,855.9 
		164.1,856.2 163.8,856.6 163.6,857.1 163.5,857.6 163.4,858.1 163.4,878.9 163.5,879.4 163.6,879.9 163.8,880.3 164.1,880.7 
		164.4,881.1 164.8,881.4 165.3,881.6 165.8,881.7 166.2,881.7 187.1,881.7 	"/>
	<polygon class="st0" points="175.9,872.9 175.1,872.7 174.4,872.4 173.8,871.9 173.2,871.4 172.8,870.7 172.5,870 172.3,869.3 
		172.2,868.5 172.3,867.7 172.5,867 172.8,866.3 173.2,865.6 173.8,865.1 174.4,864.6 175.1,864.3 175.9,864.1 176.7,864 
		177.4,864.1 178.2,864.3 178.9,864.6 179.5,865.1 180.1,865.6 180.5,866.3 180.9,867 181.1,867.7 181.1,868.5 181.1,869.3 
		180.9,870 180.5,870.7 180.1,871.4 179.5,871.9 178.9,872.4 178.2,872.7 177.4,872.9 176.7,873 	"/>
	<polygon class="st0" points="123.2,881.7 123.7,881.6 124.1,881.4 124.5,881.1 124.9,880.7 125.2,880.3 125.4,879.9 125.5,879.4 
		125.6,878.9 125.6,858.1 125.5,857.6 125.4,857.1 125.2,856.6 124.9,856.2 124.5,855.9 124.1,855.6 123.7,855.4 123.2,855.3 
		122.7,855.2 119.4,855.2 119.4,844.5 105.2,844.5 105.2,855.2 101.9,855.2 101.4,855.3 100.9,855.4 100.5,855.6 100.1,855.9 
		99.7,856.2 99.4,856.6 99.2,857.1 99.1,857.6 99,858.1 99,878.9 99.1,879.4 99.2,879.9 99.4,880.3 99.7,880.7 100.1,881.1 
		100.5,881.4 100.9,881.6 101.4,881.7 101.9,881.7 122.7,881.7 	"/>
	<polygon class="st0" points="111.5,872.9 110.8,872.7 110.1,872.4 109.4,871.9 108.9,871.4 108.4,870.7 108.1,870 107.9,869.3 
		107.8,868.5 107.9,867.7 108.1,867 108.4,866.3 108.9,865.6 109.4,865.1 110.1,864.6 110.8,864.3 111.5,864.1 112.3,864 
		113.1,864.1 113.8,864.3 114.5,864.6 115.2,865.1 115.7,865.6 116.2,866.3 116.5,867 116.7,867.7 116.8,868.5 116.7,869.3 
		116.5,870 116.2,870.7 115.7,871.4 115.2,871.9 114.5,872.4 113.8,872.7 113.1,872.9 112.3,873 	"/>
	<polygon class="st0" points="58.9,881.7 59.3,881.6 59.8,881.4 60.2,881.1 60.5,880.7 60.8,880.3 61,879.9 61.2,879.4 61.2,878.9 
		61.2,858.1 61.2,857.6 61,857.1 60.8,856.6 60.5,856.2 60.2,855.9 59.8,855.6 59.3,855.4 58.9,855.3 58.4,855.2 55,855.2 55,844.5 
		40.9,844.5 40.9,855.2 37.5,855.2 37,855.3 36.5,855.4 36.1,855.6 35.7,855.9 35.3,856.2 35.1,856.6 34.9,857.1 34.7,857.6 
		34.7,858.1 34.7,878.9 34.7,879.4 34.9,879.9 35.1,880.3 35.3,880.7 35.7,881.1 36.1,881.4 36.5,881.6 37,881.7 37.5,881.7 
		58.4,881.7 	"/>
	<polygon class="st0" points="47.2,872.9 46.4,872.7 45.7,872.4 45.1,871.9 44.5,871.4 44.1,870.7 43.7,870 43.5,869.3 43.5,868.5 
		43.5,867.7 43.7,867 44.1,866.3 44.5,865.6 45.1,865.1 45.7,864.6 46.4,864.3 47.2,864.1 47.9,864 48.7,864.1 49.5,864.3 
		50.2,864.6 50.8,865.1 51.4,865.6 51.8,866.3 52.1,867 52.3,867.7 52.4,868.5 52.3,869.3 52.1,870 51.8,870.7 51.4,871.4 
		50.8,871.9 50.2,872.4 49.5,872.7 48.7,872.9 47.9,873 	"/>
	<polygon class="st0" points="219.8,881.7 220.2,881.6 220.7,881.4 221.1,881.1 221.4,880.7 221.7,880.3 221.9,879.9 222.1,879.4 
		222.1,878.9 222.1,858.1 222.1,857.6 221.9,857.1 221.7,856.6 221.4,856.2 221.1,855.9 220.7,855.6 220.2,855.4 219.8,855.3 
		219.3,855.2 198.4,855.2 197.9,855.3 197.5,855.4 197,855.6 196.6,855.9 196.3,856.2 196,856.6 195.8,857.1 195.6,857.6 
		195.6,858.1 195.6,878.9 195.6,879.4 195.8,879.9 196,880.3 196.3,880.7 196.6,881.1 197,881.4 197.5,881.6 197.9,881.7 
		198.4,881.7 219.3,881.7 	"/>
	<polygon class="st0" points="204.2,876.5 199.6,868.5 204.2,860.5 213.5,860.5 218.1,868.5 213.5,876.5 	"/>
	<polygon class="st0" points="91,881.7 91.5,881.6 92,881.4 92.4,881.1 92.7,880.7 93,880.3 93.2,879.9 93.3,879.4 93.4,878.9 
		93.4,858.1 93.3,857.6 93.2,857.1 93,856.6 92.7,856.2 92.4,855.9 92,855.6 91.5,855.4 91,855.3 90.5,855.2 69.7,855.2 69.2,855.3 
		68.7,855.4 68.3,855.6 67.9,855.9 67.5,856.2 67.2,856.6 67,857.1 66.9,857.6 66.9,858.1 66.9,878.9 66.9,879.4 67,879.9 
		67.2,880.3 67.5,880.7 67.9,881.1 68.3,881.4 68.7,881.6 69.2,881.7 69.7,881.7 90.5,881.7 	"/>
	<polygon class="st0" points="75.5,876.5 70.8,868.5 75.5,860.5 84.8,860.5 89.4,868.5 84.8,876.5 	"/>
	<polygon class="st0" points="26.7,881.7 27.1,881.6 27.6,881.4 28,881.1 28.3,880.7 28.6,880.3 28.8,879.9 29,879.4 29,878.9 
		29,858.1 29,857.6 28.8,857.1 28.6,856.6 28.3,856.2 28,855.9 27.6,855.6 27.1,855.4 26.7,855.3 26.2,855.2 5.3,855.2 4.8,855.3 
		4.4,855.4 3.9,855.6 3.5,855.9 3.2,856.2 2.9,856.6 2.7,857.1 2.5,857.6 2.5,858.1 2.5,878.9 2.5,879.4 2.7,879.9 2.9,880.3 
		3.2,880.7 3.5,881.1 3.9,881.4 4.4,881.6 4.8,881.7 5.3,881.7 26.2,881.7 	"/>
	<polygon class="st0" points="11.1,876.5 6.5,868.5 11.1,860.5 20.4,860.5 25,868.5 20.4,876.5 	"/>
	<polygon class="st0" points="155.4,881.7 155.9,881.6 156.3,881.4 156.7,881.1 157.1,880.7 157.4,880.3 157.6,879.9 157.7,879.4 
		157.7,878.9 157.7,858.1 157.7,857.6 157.6,857.1 157.4,856.6 157.1,856.2 156.7,855.9 156.3,855.6 155.9,855.4 155.4,855.3 
		154.9,855.2 134.1,855.2 133.6,855.3 133.1,855.4 132.6,855.6 132.2,855.9 131.9,856.2 131.6,856.6 131.4,857.1 131.3,857.6 
		131.2,858.1 131.2,878.9 131.3,879.4 131.4,879.9 131.6,880.3 131.9,880.7 132.2,881.1 132.6,881.4 133.1,881.6 133.6,881.7 
		134.1,881.7 154.9,881.7 	"/>
	<polygon class="st0" points="139.8,876.5 135.2,868.5 139.8,860.5 149.1,860.5 153.8,868.5 149.1,876.5 	"/>
	<polygon class="st0" points="251.9,929.8 252.4,929.6 252.9,929.4 253.3,929.1 253.6,928.8 253.9,928.4 254.1,927.9 254.2,927.5 
		254.3,927 254.3,906.1 254.2,905.6 254.1,905.2 253.9,904.7 253.6,904.3 253.3,903.9 252.9,903.7 252.4,903.5 251.9,903.3 
		251.5,903.3 248.1,903.3 248.1,892.5 233.9,892.5 233.9,903.3 230.6,903.3 230.1,903.3 229.6,903.5 229.2,903.7 228.8,903.9 
		228.4,904.3 228.2,904.7 227.9,905.2 227.8,905.6 227.8,906.1 227.8,927 227.8,927.5 227.9,927.9 228.2,928.4 228.4,928.8 
		228.8,929.1 229.2,929.4 229.6,929.6 230.1,929.8 230.6,929.8 251.5,929.8 	"/>
	<polygon class="st0" points="187.6,929.8 188.1,929.6 188.5,929.4 188.9,929.1 189.3,928.8 189.5,928.4 189.8,927.9 189.9,927.5 
		189.9,927 189.9,906.1 189.9,905.6 189.8,905.2 189.5,904.7 189.3,904.3 188.9,903.9 188.5,903.7 188.1,903.5 187.6,903.3 
		187.1,903.3 183.8,903.3 183.8,892.5 169.6,892.5 169.6,903.3 166.2,903.3 165.8,903.3 165.3,903.5 164.8,903.7 164.4,903.9 
		164.1,904.3 163.8,904.7 163.6,905.2 163.5,905.6 163.4,906.1 163.4,927 163.5,927.5 163.6,927.9 163.8,928.4 164.1,928.8 
		164.4,929.1 164.8,929.4 165.3,929.6 165.8,929.8 166.2,929.8 187.1,929.8 	"/>
	<polygon class="st0" points="123.2,929.8 123.7,929.6 124.1,929.4 124.5,929.1 124.9,928.8 125.2,928.4 125.4,927.9 125.5,927.5 
		125.6,927 125.6,906.1 125.5,905.6 125.4,905.2 125.2,904.7 124.9,904.3 124.5,903.9 124.1,903.7 123.7,903.5 123.2,903.3 
		122.7,903.3 119.4,903.3 119.4,892.5 105.2,892.5 105.2,903.3 101.9,903.3 101.4,903.3 100.9,903.5 100.5,903.7 100.1,903.9 
		99.7,904.3 99.4,904.7 99.2,905.2 99.1,905.6 99,906.1 99,927 99.1,927.5 99.2,927.9 99.4,928.4 99.7,928.8 100.1,929.1 
		100.5,929.4 100.9,929.6 101.4,929.8 101.9,929.8 122.7,929.8 	"/>
	<polygon class="st0" points="58.9,929.8 59.3,929.6 59.8,929.4 60.2,929.1 60.5,928.8 60.8,928.4 61,927.9 61.2,927.5 61.2,927 
		61.2,906.1 61.2,905.6 61,905.2 60.8,904.7 60.5,904.3 60.2,903.9 59.8,903.7 59.3,903.5 58.9,903.3 58.4,903.3 55,903.3 55,892.5 
		40.9,892.5 40.9,903.3 37.5,903.3 37,903.3 36.5,903.5 36.1,903.7 35.7,903.9 35.3,904.3 35.1,904.7 34.9,905.2 34.7,905.6 
		34.7,906.1 34.7,927 34.7,927.5 34.9,927.9 35.1,928.4 35.3,928.8 35.7,929.1 36.1,929.4 36.5,929.6 37,929.8 37.5,929.8 
		58.4,929.8 	"/>
	<polygon class="st0" points="26.7,929.8 27.1,929.6 27.6,929.4 28,929.1 28.3,928.8 28.6,928.4 28.8,927.9 29,927.5 29,927 
		29,906.1 29,905.6 28.8,905.2 28.6,904.7 28.3,904.3 28,903.9 27.6,903.7 27.1,903.5 26.7,903.3 26.2,903.3 5.3,903.3 4.8,903.3 
		4.4,903.5 3.9,903.7 3.5,903.9 3.2,904.3 2.9,904.7 2.7,905.2 2.5,905.6 2.5,906.1 2.5,927 2.5,927.5 2.7,927.9 2.9,928.4 
		3.2,928.8 3.5,929.1 3.9,929.4 4.4,929.6 4.8,929.8 5.3,929.8 26.2,929.8 	"/>
	<polygon class="st0" points="11.1,924.6 6.5,916.5 11.1,908.5 20.4,908.5 25,916.5 20.4,924.6 	"/>
	<polygon class="st0" points="91,929.8 91.5,929.6 92,929.4 92.4,929.1 92.7,928.8 93,928.4 93.2,927.9 93.3,927.5 93.4,927 
		93.4,906.1 93.3,905.6 93.2,905.2 93,904.7 92.7,904.3 92.4,903.9 92,903.7 91.5,903.5 91,903.3 90.5,903.3 69.7,903.3 69.2,903.3 
		68.7,903.5 68.3,903.7 67.9,903.9 67.5,904.3 67.2,904.7 67,905.2 66.9,905.6 66.9,906.1 66.9,927 66.9,927.5 67,927.9 67.2,928.4 
		67.5,928.8 67.9,929.1 68.3,929.4 68.7,929.6 69.2,929.8 69.7,929.8 90.5,929.8 	"/>
	<polygon class="st0" points="75.5,924.6 70.8,916.5 75.5,908.5 84.8,908.5 89.4,916.5 84.8,924.6 	"/>
	<polygon class="st0" points="155.4,929.8 155.9,929.6 156.3,929.4 156.7,929.1 157.1,928.8 157.4,928.4 157.6,927.9 157.7,927.5 
		157.7,927 157.7,906.1 157.7,905.6 157.6,905.2 157.4,904.7 157.1,904.3 156.7,903.9 156.3,903.7 155.9,903.5 155.4,903.3 
		154.9,903.3 134.1,903.3 133.6,903.3 133.1,903.5 132.6,903.7 132.2,903.9 131.9,904.3 131.6,904.7 131.4,905.2 131.3,905.6 
		131.2,906.1 131.2,927 131.3,927.5 131.4,927.9 131.6,928.4 131.9,928.8 132.2,929.1 132.6,929.4 133.1,929.6 133.6,929.8 
		134.1,929.8 154.9,929.8 	"/>
	<polygon class="st0" points="139.8,924.6 135.2,916.5 139.8,908.5 149.1,908.5 153.8,916.5 149.1,924.6 	"/>
	<polygon class="st0" points="219.8,929.8 220.2,929.6 220.7,929.4 221.1,929.1 221.4,928.8 221.7,928.4 221.9,927.9 222.1,927.5 
		222.1,927 222.1,906.1 222.1,905.6 221.9,905.2 221.7,904.7 221.4,904.3 221.1,903.9 220.7,903.7 220.2,903.5 219.8,903.3 
		219.3,903.3 198.4,903.3 197.9,903.3 197.5,903.5 197,903.7 196.6,903.9 196.3,904.3 196,904.7 195.8,905.2 195.6,905.6 
		195.6,906.1 195.6,927 195.6,927.5 195.8,927.9 196,928.4 196.3,928.8 196.6,929.1 197,929.4 197.5,929.6 197.9,929.8 198.4,929.8 
		219.3,929.8 	"/>
	<polygon class="st0" points="204.2,924.6 199.6,916.5 204.2,908.5 213.5,908.5 218.1,916.5 213.5,924.6 	"/>
</g>
<g>
	<polygon class="st0" points="998.6,1016.3 1000.3,1015.8 1001.9,1015.1 1003.3,1014.1 1004.6,1012.8 1005.6,1011.4 1006.3,1009.8 
		1006.8,1008.1 1006.9,1006.3 1006.8,1004.5 1006.3,1002.8 1005.6,1001.2 1004.6,999.8 1003.3,998.5 1001.9,997.5 1000.3,996.8 
		998.6,996.3 996.8,996.2 995,996.3 993.3,996.8 991.7,997.5 990.3,998.5 989,999.8 988,1001.2 987.3,1002.8 986.8,1004.5 
		986.7,1006.3 986.8,1008.1 987.3,1009.8 988,1011.4 989,1012.8 990.3,1014.1 991.7,1015.1 993.3,1015.8 995,1016.3 996.8,1016.4 	
		"/>
	<polygon class="st0" points="996,1010.7 995.3,1010.5 994.6,1010.2 993.9,1009.7 993.4,1009.2 992.9,1008.5 992.6,1007.8 
		992.4,1007.1 992.3,1006.3 992.4,1005.5 992.6,1004.8 992.9,1004.1 993.4,1003.4 993.9,1002.9 994.6,1002.4 995.3,1002.1 
		996,1001.9 996.8,1001.8 997.6,1001.9 998.3,1002.1 999,1002.4 999.7,1002.9 1000.2,1003.4 1000.7,1004.1 1001,1004.8 
		1001.2,1005.5 1001.3,1006.3 1001.2,1007.1 1001,1007.8 1000.7,1008.5 1000.2,1009.2 999.7,1009.7 999,1010.2 998.3,1010.5 
		997.6,1010.7 996.8,1010.8 	"/>
	<polygon class="st0" points="972.6,1016.3 974.3,1015.8 975.9,1015.1 977.4,1014.1 978.6,1012.8 979.6,1011.4 980.4,1009.8 
		980.8,1008.1 981,1006.3 980.8,1004.5 980.4,1002.8 979.6,1001.2 978.6,999.8 977.4,998.5 975.9,997.5 974.3,996.8 972.6,996.3 
		970.9,996.2 969.1,996.3 967.4,996.8 965.8,997.5 964.4,998.5 963.1,999.8 962.1,1001.2 961.3,1002.8 960.9,1004.5 960.7,1006.3 
		960.9,1008.1 961.3,1009.8 962.1,1011.4 963.1,1012.8 964.4,1014.1 965.8,1015.1 967.4,1015.8 969.1,1016.3 970.9,1016.4 	"/>
	<polygon class="st0" points="970.1,1010.7 969.3,1010.5 968.6,1010.2 968,1009.7 967.4,1009.2 967,1008.5 966.7,1007.8 
		966.5,1007.1 966.4,1006.3 966.5,1005.5 966.7,1004.8 967,1004.1 967.4,1003.4 968,1002.9 968.6,1002.4 969.3,1002.1 970.1,1001.9 
		970.9,1001.8 971.6,1001.9 972.4,1002.1 973.1,1002.4 973.7,1002.9 974.3,1003.4 974.7,1004.1 975.1,1004.8 975.3,1005.5 
		975.3,1006.3 975.3,1007.1 975.1,1007.8 974.7,1008.5 974.3,1009.2 973.7,1009.7 973.1,1010.2 972.4,1010.5 971.6,1010.7 
		970.9,1010.8 	"/>
	<polygon class="st0" points="1050.4,1016.3 1052.1,1015.8 1053.7,1015.1 1055.2,1014.1 1056.4,1012.8 1057.5,1011.4 1058.2,1009.8 
		1058.7,1008.1 1058.8,1006.3 1058.7,1004.5 1058.2,1002.8 1057.5,1001.2 1056.4,999.8 1055.2,998.5 1053.7,997.5 1052.1,996.8 
		1050.4,996.3 1048.7,996.2 1046.9,996.3 1045.2,996.8 1043.6,997.5 1042.2,998.5 1040.9,999.8 1039.9,1001.2 1039.2,1002.8 
		1038.7,1004.5 1038.5,1006.3 1038.7,1008.1 1039.2,1009.8 1039.9,1011.4 1040.9,1012.8 1042.2,1014.1 1043.6,1015.1 1045.2,1015.8 
		1046.9,1016.3 1048.7,1016.4 	"/>
	<polygon class="st0" points="1047.9,1010.7 1047.1,1010.5 1046.4,1010.2 1045.8,1009.7 1045.3,1009.2 1044.8,1008.5 1044.5,1007.8 
		1044.3,1007.1 1044.2,1006.3 1044.3,1005.5 1044.5,1004.8 1044.8,1004.1 1045.3,1003.4 1045.8,1002.9 1046.4,1002.4 1047.1,1002.1 
		1047.9,1001.9 1048.7,1001.8 1049.5,1001.9 1050.2,1002.1 1050.9,1002.4 1051.5,1002.9 1052.1,1003.4 1052.5,1004.1 1052.9,1004.8 
		1053.1,1005.5 1053.1,1006.3 1053.1,1007.1 1052.9,1007.8 1052.5,1008.5 1052.1,1009.2 1051.5,1009.7 1050.9,1010.2 1050.2,1010.5 
		1049.5,1010.7 1048.7,1010.8 	"/>
	<polygon class="st0" points="1024.5,1016.3 1026.2,1015.8 1027.8,1015.1 1029.3,1014.1 1030.5,1012.8 1031.5,1011.4 1032.3,1009.8 
		1032.7,1008.1 1032.9,1006.3 1032.7,1004.5 1032.3,1002.8 1031.5,1001.2 1030.5,999.8 1029.3,998.5 1027.8,997.5 1026.2,996.8 
		1024.5,996.3 1022.7,996.2 1021,996.3 1019.3,996.8 1017.7,997.5 1016.2,998.5 1015,999.8 1014,1001.2 1013.2,1002.8 
		1012.8,1004.5 1012.6,1006.3 1012.8,1008.1 1013.2,1009.8 1014,1011.4 1015,1012.8 1016.2,1014.1 1017.7,1015.1 1019.3,1015.8 
		1021,1016.3 1022.7,1016.4 	"/>
	<polygon class="st0" points="1022,1010.7 1021.2,1010.5 1020.5,1010.2 1019.9,1009.7 1019.3,1009.2 1018.9,1008.5 1018.5,1007.8 
		1018.3,1007.1 1018.3,1006.3 1018.3,1005.5 1018.5,1004.8 1018.9,1004.1 1019.3,1003.4 1019.9,1002.9 1020.5,1002.4 1021.2,1002.1 
		1022,1001.9 1022.7,1001.8 1023.5,1001.9 1024.3,1002.1 1025,1002.4 1025.6,1002.9 1026.2,1003.4 1026.6,1004.1 1026.9,1004.8 
		1027.1,1005.5 1027.2,1006.3 1027.1,1007.1 1026.9,1007.8 1026.6,1008.5 1026.2,1009.2 1025.6,1009.7 1025,1010.2 1024.3,1010.5 
		1023.5,1010.7 1022.7,1010.8 	"/>
	<polygon class="st0" points="972.6,1042.2 974.3,1041.8 975.9,1041 977.4,1040 978.6,1038.8 979.6,1037.3 980.4,1035.7 980.8,1034 
		981,1032.2 980.8,1030.5 980.4,1028.8 979.6,1027.2 978.6,1025.7 977.4,1024.5 975.9,1023.5 974.3,1022.7 972.6,1022.3 
		970.9,1022.1 969.1,1022.3 967.4,1022.7 965.8,1023.5 964.4,1024.5 963.1,1025.7 962.1,1027.2 961.3,1028.8 960.9,1030.5 
		960.7,1032.2 960.9,1034 961.3,1035.7 962.1,1037.3 963.1,1038.8 964.4,1040 965.8,1041 967.4,1041.8 969.1,1042.2 970.9,1042.4 	
		"/>
	<polygon class="st0" points="970.1,1036.6 969.3,1036.4 968.6,1036.1 968,1035.7 967.4,1035.1 967,1034.5 966.7,1033.8 966.5,1033 
		966.4,1032.2 966.5,1031.5 966.7,1030.7 967,1030 967.4,1029.4 968,1028.8 968.6,1028.4 969.3,1028 970.1,1027.8 970.9,1027.8 
		971.6,1027.8 972.4,1028 973.1,1028.4 973.7,1028.8 974.3,1029.4 974.7,1030 975.1,1030.7 975.3,1031.5 975.3,1032.2 975.3,1033 
		975.1,1033.8 974.7,1034.5 974.3,1035.1 973.7,1035.7 973.1,1036.1 972.4,1036.4 971.6,1036.6 970.9,1036.7 	"/>
	<polygon class="st0" points="998.6,1042.2 1000.3,1041.8 1001.9,1041 1003.3,1040 1004.6,1038.8 1005.6,1037.3 1006.3,1035.7 
		1006.8,1034 1006.9,1032.2 1006.8,1030.5 1006.3,1028.8 1005.6,1027.2 1004.6,1025.7 1003.3,1024.5 1001.9,1023.5 1000.3,1022.7 
		998.6,1022.3 996.8,1022.1 995,1022.3 993.3,1022.7 991.7,1023.5 990.3,1024.5 989,1025.7 988,1027.2 987.3,1028.8 986.8,1030.5 
		986.7,1032.2 986.8,1034 987.3,1035.7 988,1037.3 989,1038.8 990.3,1040 991.7,1041 993.3,1041.8 995,1042.2 996.8,1042.4 	"/>
	<polygon class="st0" points="996,1036.6 995.3,1036.4 994.6,1036.1 993.9,1035.7 993.4,1035.1 992.9,1034.5 992.6,1033.8 
		992.4,1033 992.3,1032.2 992.4,1031.5 992.6,1030.7 992.9,1030 993.4,1029.4 993.9,1028.8 994.6,1028.4 995.3,1028 996,1027.8 
		996.8,1027.8 997.6,1027.8 998.3,1028 999,1028.4 999.7,1028.8 1000.2,1029.4 1000.7,1030 1001,1030.7 1001.2,1031.5 
		1001.3,1032.2 1001.2,1033 1001,1033.8 1000.7,1034.5 1000.2,1035.1 999.7,1035.7 999,1036.1 998.3,1036.4 997.6,1036.6 
		996.8,1036.7 	"/>
	<polygon class="st0" points="1024.5,1042.2 1026.2,1041.8 1027.8,1041 1029.3,1040 1030.5,1038.8 1031.5,1037.3 1032.3,1035.7 
		1032.7,1034 1032.9,1032.2 1032.7,1030.5 1032.3,1028.8 1031.5,1027.2 1030.5,1025.7 1029.3,1024.5 1027.8,1023.5 1026.2,1022.7 
		1024.5,1022.3 1022.7,1022.1 1021,1022.3 1019.3,1022.7 1017.7,1023.5 1016.2,1024.5 1015,1025.7 1014,1027.2 1013.2,1028.8 
		1012.8,1030.5 1012.6,1032.2 1012.8,1034 1013.2,1035.7 1014,1037.3 1015,1038.8 1016.2,1040 1017.7,1041 1019.3,1041.8 
		1021,1042.2 1022.7,1042.4 	"/>
	<polygon class="st0" points="1022,1036.6 1021.2,1036.4 1020.5,1036.1 1019.9,1035.7 1019.3,1035.1 1018.9,1034.5 1018.5,1033.8 
		1018.3,1033 1018.3,1032.2 1018.3,1031.5 1018.5,1030.7 1018.9,1030 1019.3,1029.4 1019.9,1028.8 1020.5,1028.4 1021.2,1028 
		1022,1027.8 1022.7,1027.8 1023.5,1027.8 1024.3,1028 1025,1028.4 1025.6,1028.8 1026.2,1029.4 1026.6,1030 1026.9,1030.7 
		1027.1,1031.5 1027.2,1032.2 1027.1,1033 1026.9,1033.8 1026.6,1034.5 1026.2,1035.1 1025.6,1035.7 1025,1036.1 1024.3,1036.4 
		1023.5,1036.6 1022.7,1036.7 	"/>
	<polygon class="st0" points="1050.4,1042.2 1052.1,1041.8 1053.7,1041 1055.2,1040 1056.4,1038.8 1057.5,1037.3 1058.2,1035.7 
		1058.7,1034 1058.8,1032.2 1058.7,1030.5 1058.2,1028.8 1057.5,1027.2 1056.4,1025.7 1055.2,1024.5 1053.7,1023.5 1052.1,1022.7 
		1050.4,1022.3 1048.7,1022.1 1046.9,1022.3 1045.2,1022.7 1043.6,1023.5 1042.2,1024.5 1040.9,1025.7 1039.9,1027.2 1039.2,1028.8 
		1038.7,1030.5 1038.5,1032.2 1038.7,1034 1039.2,1035.7 1039.9,1037.3 1040.9,1038.8 1042.2,1040 1043.6,1041 1045.2,1041.8 
		1046.9,1042.2 1048.7,1042.4 	"/>
	<polygon class="st0" points="1047.9,1036.6 1047.1,1036.4 1046.4,1036.1 1045.8,1035.7 1045.3,1035.1 1044.8,1034.5 1044.5,1033.8 
		1044.3,1033 1044.2,1032.2 1044.3,1031.5 1044.5,1030.7 1044.8,1030 1045.3,1029.4 1045.8,1028.8 1046.4,1028.4 1047.1,1028 
		1047.9,1027.8 1048.7,1027.8 1049.5,1027.8 1050.2,1028 1050.9,1028.4 1051.5,1028.8 1052.1,1029.4 1052.5,1030 1052.9,1030.7 
		1053.1,1031.5 1053.1,1032.2 1053.1,1033 1052.9,1033.8 1052.5,1034.5 1052.1,1035.1 1051.5,1035.7 1050.9,1036.1 1050.2,1036.4 
		1049.5,1036.6 1048.7,1036.7 	"/>
</g>
<g>
	<polygon class="st0" points="262.2,954 248,954 248,943.3 233.9,943.3 233.9,954 219.7,954 219.7,943.3 205.5,943.3 205.5,954 
		191.3,954 191.3,943.3 177.2,943.3 177.2,954 163,954 163,943.3 148.8,943.3 148.8,954 134.6,954 134.6,943.3 120.5,943.3 
		120.5,954 106.3,954 106.3,943.3 92.1,943.3 92.1,954 78,954 78,943.3 63.8,943.3 63.8,954 49.6,954 49.6,1024 262.2,1024 	"/>
	<polygon class="st0" points="76,983.2 75.1,983.1 74.2,982.9 73.4,982.5 72.7,982 72.1,981.4 71.5,980.7 71.2,979.9 70.9,979 
		70.9,978.1 70.9,977.2 71.2,976.4 71.5,975.6 72.1,974.8 72.7,974.2 73.4,973.7 74.2,973.3 75.1,973.1 76,973 235.8,973 
		236.7,973.1 237.6,973.3 238.4,973.7 239.1,974.2 239.8,974.8 240.3,975.6 240.6,976.4 240.9,977.2 240.9,978.1 240.9,979 
		240.6,979.9 240.3,980.7 239.8,981.4 239.1,982 238.4,982.5 237.6,982.9 236.7,983.1 235.8,983.2 	"/>
	<polygon class="st0" points="76,1011.3 75.1,1011.2 74.2,1011 73.4,1010.6 72.7,1010.1 72.1,1009.5 71.5,1008.7 71.2,1007.9 
		70.9,1007.1 70.9,1006.2 70.9,1005.3 71.2,1004.4 71.5,1003.6 72.1,1002.9 72.7,1002.3 73.4,1001.8 74.2,1001.4 75.1,1001.2 
		76,1001.1 235.8,1001.1 236.7,1001.2 237.6,1001.4 238.4,1001.8 239.1,1002.3 239.8,1002.9 240.3,1003.6 240.6,1004.4 
		240.9,1005.3 240.9,1006.2 240.9,1007.1 240.6,1007.9 240.3,1008.7 239.8,1009.5 239.1,1010.1 238.4,1010.6 237.6,1011 
		236.7,1011.2 235.8,1011.3 	"/>
	<polygon class="st0" points="218.8,1073.3 219.2,1073.2 219.7,1073 220.1,1072.7 220.4,1072.4 220.7,1071.9 220.9,1071.5 
		221.1,1071 221.1,1070.5 221.1,1047.9 221.1,1047.4 220.9,1046.9 220.7,1046.4 220.4,1046 220.1,1045.7 219.7,1045.4 219.2,1045.2 
		218.8,1045.1 218.3,1045 93.5,1045 93.1,1045.1 92.6,1045.2 92.1,1045.4 91.7,1045.7 91.4,1046 91.1,1046.4 90.9,1046.9 
		90.8,1047.4 90.7,1047.9 90.7,1070.5 90.8,1071 90.9,1071.5 91.1,1071.9 91.4,1072.4 91.7,1072.7 92.1,1073 92.6,1073.2 
		93.1,1073.3 93.5,1073.4 218.3,1073.4 	"/>
</g>
<g>
	<polygon class="st0" points="1253.3,1120.2 1257,1119.4 1260.2,1118.1 1262.8,1116.3 1264.9,1114.1 1266.4,1111.4 1267.3,1108.3 
		1267.6,1104.7 1267.4,1102.2 1266.7,1100 1265.7,1097.9 1264.2,1096.1 1262.3,1094.6 1260.1,1093.4 1257.6,1092.5 1254.7,1092 
		1254.7,1091.9 1257.3,1091.2 1259.6,1090.2 1261.5,1089 1263.2,1087.5 1264.4,1085.7 1265.3,1083.8 1265.9,1081.5 1266.1,1079 
		1265.8,1075.9 1264.9,1073 1263.5,1070.6 1261.5,1068.5 1259.1,1066.8 1256.1,1065.7 1252.7,1064.9 1248.9,1064.7 1245.3,1064.9 
		1242.1,1065.6 1239.2,1066.8 1236.7,1068.4 1234.5,1070.5 1232.9,1072.9 1231.8,1075.7 1231.2,1078.8 1238.1,1079.4 1238.5,1077.3 
		1239.2,1075.6 1240.1,1074 1241.4,1072.7 1242.9,1071.7 1244.7,1071 1246.6,1070.5 1248.8,1070.4 1251.2,1070.6 1253.2,1071 
		1255,1071.8 1256.4,1072.9 1257.5,1074.3 1258.3,1075.9 1258.8,1077.7 1258.9,1079.8 1258.8,1081.9 1258.2,1083.7 1257.2,1085.3 
		1255.8,1086.6 1254.1,1087.7 1252,1088.5 1249.7,1089 1247,1089.1 1243.2,1089.1 1243.2,1095.1 1247.1,1095.1 1250.2,1095.3 
		1252.8,1095.7 1255.1,1096.5 1257,1097.6 1258.5,1099 1259.5,1100.6 1260.2,1102.4 1260.4,1104.5 1260.2,1106.9 1259.6,1109 
		1258.7,1110.7 1257.4,1112.2 1255.8,1113.3 1253.8,1114.1 1251.7,1114.6 1249.2,1114.7 1244.5,1114.1 1241,1112.3 1238.6,1109.3 
		1237.4,1105.1 1230.2,1105.8 1230.9,1109.2 1232.1,1112.1 1233.9,1114.7 1236.1,1116.7 1238.7,1118.4 1241.8,1119.5 1245.3,1120.2 
		1249.2,1120.5 	"/>
	<polygon class="st0" points="1002.3,1120.3 1005.4,1119.8 1008.3,1119 1011,1117.9 1013.4,1116.5 1015.5,1114.9 1017.3,1112.9 
		1018.9,1110.7 1020.1,1108.2 1021,1105.4 1021.5,1102.5 1021.7,1099.3 1021.7,1065.5 1014.3,1065.5 1014.3,1098.9 1014.1,1102.5 
		1013.3,1105.6 1012.1,1108.3 1010.3,1110.5 1008.1,1112.3 1005.4,1113.5 1002.4,1114.2 998.9,1114.5 995.6,1114.3 992.7,1113.5 
		990.1,1112.3 988,1110.7 986.4,1108.5 985.2,1105.9 984.5,1102.9 984.3,1099.4 984.3,1065.5 976.9,1065.5 976.9,1100 977.1,1103.1 
		977.6,1105.9 978.5,1108.6 979.7,1111 981.2,1113.2 983,1115.1 985,1116.7 987.4,1118 989.9,1119.1 992.7,1119.8 995.7,1120.3 
		999,1120.5 	"/>
	<polygon class="st0" points="1039.4,1083.5 1039.2,1076.3 1039.1,1072 1040.4,1076.2 1042.5,1082.8 1056.7,1119.7 1061.9,1119.7 
		1075.9,1082.8 1076.6,1080.6 1077.5,1078.1 1078.3,1075.3 1079.3,1072 1079.1,1074.8 1079,1077.7 1078.9,1080.6 1078.9,1083.5 
		1078.9,1119.7 1085.5,1119.7 1085.5,1065.5 1076.1,1065.5 1062,1103.1 1061.7,1103.6 1061.5,1104.5 1061.1,1105.6 1060.6,1107 
		1060.2,1108.5 1059.8,1109.8 1059.5,1110.8 1059.3,1111.7 1059.2,1111 1059,1110.2 1058.7,1109.1 1058.4,1107.9 1058,1106.7 
		1057.7,1105.4 1057.3,1104.2 1056.9,1103.1 1042.5,1065.5 1032.9,1065.5 1032.9,1119.7 1039.4,1119.7 	"/>
	<polygon class="st0" points="1164,1065.5 1156.3,1065.5 1141.3,1103.7 1138.1,1113.2 1134.9,1103.7 1119.9,1065.5 1112.2,1065.5 
		1134.3,1119.7 1141.9,1119.7 	"/>
	<polygon class="st0" points="1203,1113.8 1189.9,1113.8 1189.9,1065.5 1183.5,1065.5 1170.7,1074.3 1170.7,1080.9 1182.9,1072.1 
		1182.9,1113.8 1169.1,1113.8 1169.1,1119.7 1203,1119.7 	"/>
	<polygon class="st0" points="1303.9,1107.4 1311.5,1107.4 1311.5,1102 1303.9,1102 1303.9,1065.5 1296.6,1065.5 1271.8,1102 
		1271.8,1107.4 1297.3,1107.4 1297.3,1119.7 1303.9,1119.7 	"/>
	<polygon class="st0" points="1278.2,1102 1278.8,1101.2 1280.9,1098.3 1294.8,1077.9 1295,1077.5 1295.4,1076.9 1295.8,1076.2 
		1296.3,1075.4 1296.7,1074.6 1297,1073.9 1297.2,1073.5 1297.3,1073.3 1297.3,1102 	"/>
	<rect x="1213.1" y="1111.3" class="st0" width="7.5" height="8.4"/>
</g>
</svg>
