  0
SECTION
  2
BLOCKS
  0
ENDSEC
  0
SECTION
  2
ENTITIES
  0
LINE
  8
0
 10
-22.5
 11
-20.295
 20
-1.575
 21
-0.73
  0
LINE
  8
0
 10
-20.295
 11
-18.076
 20
-0.73
 21
-0.017
  0
LINE
  8
0
 10
-18.076
 11
-18.076
 20
-0.017
 21
0.021
  0
LINE
  8
0
 10
-18.076
 11
-19.047
 20
0.021
 21
0.263
  0
LINE
  8
0
 10
-19.047
 11
-18.076
 20
0.263
 21
0.755
  0
LINE
  8
0
 10
-18.076
 11
-19.537
 20
0.755
 21
0.805
  0
LINE
  8
0
 10
-19.537
 11
-19.539
 20
0.805
 21
0.842
  0
LINE
  8
0
 10
-19.539
 11
-19.138
 20
0.842
 21
0.898
  0
LINE
  8
0
 10
-19.138
 11
-18.253
 20
0.898
 21
1.053
  0
LINE
  8
0
 10
-18.253
 11
-17.393
 20
1.053
 21
1.313
  0
LINE
  8
0
 10
-17.393
 11
-14.965
 20
1.313
 21
2.208
  0
LINE
  8
0
 10
-14.965
 11
-12.598
 20
2.208
 21
3.252
  0
LINE
  8
0
 10
-12.598
 11
-9.626
 20
3.252
 21
4.599
  0
LINE
  8
0
 10
-9.626
 11
-9.447
 20
4.599
 21
4.687
  0
LINE
  8
0
 10
-9.447
 11
-9.458
 20
4.687
 21
4.722
  0
LINE
  8
0
 10
-9.458
 11
-12.288
 20
4.722
 21
4.339
  0
LINE
  8
0
 10
-12.288
 11
-12.297
 20
4.339
 21
4.359
  0
LINE
  8
0
 10
-12.297
 11
-12.233
 20
4.359
 21
4.402
  0
LINE
  8
0
 10
-12.233
 11
-9.106
 20
4.402
 21
5.672
  0
LINE
  8
0
 10
-9.106
 11
-7.895
 20
5.672
 21
6.101
  0
LINE
  8
0
 10
-7.895
 11
-6.662
 20
6.101
 21
6.46
  0
LINE
  8
0
 10
-6.662
 11
-4.764
 20
6.46
 21
7.046
  0
LINE
  8
0
 10
-4.764
 11
-2.907
 20
7.046
 21
7.753
  0
LINE
  8
0
 10
-2.907
 11
-0.471
 20
7.753
 21
8.706
  0
LINE
  8
0
 10
-0.471
 11
2.003
 20
8.706
 21
9.554
  0
LINE
  8
0
 10
2.003
 11
3.135
 20
9.554
 21
9.977
  0
LINE
  8
0
 10
3.135
 11
4.218
 20
9.977
 21
10.515
  0
LINE
  8
0
 10
4.218
 11
4.54
 20
10.515
 21
10.707
  0
LINE
  8
0
 10
4.54
 11
4.993
 20
10.707
 21
11.015
  0
LINE
  8
0
 10
4.993
 11
5.373
 20
11.015
 21
11.387
  0
LINE
  8
0
 10
5.373
 11
5.685
 20
11.387
 21
11.817
  0
LINE
  8
0
 10
5.685
 11
5.933
 20
11.817
 21
12.302
  0
LINE
  8
0
 10
5.933
 11
6.389
 20
12.302
 21
13.392
  0
LINE
  8
0
 10
6.389
 11
6.763
 20
13.392
 21
14.158
  0
LINE
  8
0
 10
6.763
 11
7.267
 20
14.158
 21
14.846
  0
LINE
  8
0
 10
7.267
 11
7.875
 20
14.846
 21
15.417
  0
LINE
  8
0
 10
7.875
 11
8.573
 20
15.417
 21
15.872
  0
LINE
  8
0
 10
8.573
 11
9.658
 20
15.872
 21
16.405
  0
LINE
  8
0
 10
9.658
 11
10.784
 20
16.405
 21
16.848
  0
LINE
  8
0
 10
10.784
 11
12.117
 20
16.848
 21
17.143
  0
LINE
  8
0
 10
12.117
 11
12.242
 20
17.143
 21
17.176
  0
LINE
  8
0
 10
12.242
 11
12.806
 20
17.176
 21
17.176
  0
LINE
  8
0
 10
12.806
 11
13.058
 20
17.176
 21
17.124
  0
LINE
  8
0
 10
13.058
 11
13.836
 20
17.124
 21
16.952
  0
LINE
  8
0
 10
13.836
 11
14.595
 20
16.952
 21
16.71
  0
LINE
  8
0
 10
14.595
 11
15.285
 20
16.71
 21
16.47
  0
LINE
  8
0
 10
15.285
 11
15.74
 20
16.47
 21
16.185
  0
LINE
  8
0
 10
15.74
 11
16.071
 20
16.185
 21
15.898
  0
LINE
  8
0
 10
16.071
 11
16.465
 20
15.898
 21
15.702
  0
LINE
  8
0
 10
16.465
 11
19.007
 20
15.702
 21
14.738
  0
LINE
  8
0
 10
19.007
 11
20.082
 20
14.738
 21
14.297
  0
LINE
  8
0
 10
20.082
 11
21.114
 20
14.297
 21
13.763
  0
LINE
  8
0
 10
21.114
 11
21.989
 20
13.763
 21
13.09
  0
LINE
  8
0
 10
21.989
 11
22.265
 20
13.09
 21
12.747
  0
LINE
  8
0
 10
22.265
 11
22.454
 20
12.747
 21
12.35
  0
LINE
  8
0
 10
22.454
 11
22.5
 20
12.35
 21
12.093
  0
LINE
  8
0
 10
22.5
 11
22.316
 20
12.093
 21
12.161
  0
LINE
  8
0
 10
22.316
 11
21.999
 20
12.161
 21
12.269
  0
LINE
  8
0
 10
21.999
 11
21.663
 20
12.269
 21
12.296
  0
LINE
  8
0
 10
21.663
 11
19.317
 20
12.296
 21
12.289
  0
LINE
  8
0
 10
19.317
 11
18.277
 20
12.289
 21
12.244
  0
LINE
  8
0
 10
18.277
 11
17.245
 20
12.244
 21
12.106
  0
LINE
  8
0
 10
17.245
 11
16.465
 20
12.106
 21
11.883
  0
LINE
  8
0
 10
16.465
 11
15.757
 20
11.883
 21
11.537
  0
LINE
  8
0
 10
15.757
 11
15.129
 20
11.537
 21
11.063
  0
LINE
  8
0
 10
15.129
 11
14.584
 20
11.063
 21
10.455
  0
LINE
  8
0
 10
14.584
 11
14.295
 20
10.455
 21
9.88
  0
LINE
  8
0
 10
14.295
 11
14.258
 20
9.88
 21
9.237
  0
LINE
  8
0
 10
14.258
 11
14.231
 20
9.237
 21
8.35
  0
LINE
  8
0
 10
14.231
 11
13.984
 20
8.35
 21
7.497
  0
LINE
  8
0
 10
13.984
 11
13.493
 20
7.497
 21
6.159
  0
LINE
  8
0
 10
13.493
 11
13.039
 20
6.159
 21
4.789
  0
LINE
  8
0
 10
13.039
 11
12.728
 20
4.789
 21
3.38
  0
LINE
  8
0
 10
12.728
 11
12.491
 20
3.38
 21
2.301
  0
LINE
  8
0
 10
12.491
 11
12.258
 20
2.301
 21
1.616
  0
LINE
  8
0
 10
12.258
 11
11.921
 20
1.616
 21
1
  0
LINE
  8
0
 10
11.921
 11
11.48
 20
1
 21
0.454
  0
LINE
  8
0
 10
11.48
 11
10.934
 20
0.454
 21
-0.019
  0
LINE
  8
0
 10
10.934
 11
9.333
 20
-0.019
 21
-1.182
  0
LINE
  8
0
 10
9.333
 11
7.68
 20
-1.182
 21
-2.271
  0
LINE
  8
0
 10
7.68
 11
6.808
 20
-2.271
 21
-2.747
  0
LINE
  8
0
 10
6.808
 11
5.981
 20
-2.747
 21
-3.073
  0
LINE
  8
0
 10
5.981
 11
5.108
 20
-3.073
 21
-3.245
  0
LINE
  8
0
 10
5.108
 11
4.019
 20
-3.245
 21
-3.434
  0
LINE
  8
0
 10
4.019
 11
3.366
 20
-3.434
 21
-3.686
  0
LINE
  8
0
 10
3.366
 11
2.825
 20
-3.686
 21
-4.132
  0
LINE
  8
0
 10
2.825
 11
2.434
 20
-4.132
 21
-4.563
  0
LINE
  8
0
 10
2.434
 11
2
 20
-4.563
 21
-4.977
  0
LINE
  8
0
 10
2
 11
1.492
 20
-4.977
 21
-5.294
  0
LINE
  8
0
 10
1.492
 11
1.103
 20
-5.294
 21
-5.504
  0
LINE
  8
0
 10
1.103
 11
1.153
 20
-5.504
 21
-5.648
  0
LINE
  8
0
 10
1.153
 11
1.695
 20
-5.648
 21
-6.781
  0
LINE
  8
0
 10
1.695
 11
1.992
 20
-6.781
 21
-7.187
  0
LINE
  8
0
 10
1.992
 11
2.326
 20
-7.187
 21
-7.362
  0
LINE
  8
0
 10
2.326
 11
2.696
 20
-7.362
 21
-7.277
  0
LINE
  8
0
 10
2.696
 11
2.984
 20
-7.277
 21
-7.067
  0
LINE
  8
0
 10
2.984
 11
3.275
 20
-7.067
 21
-6.832
  0
LINE
  8
0
 10
3.275
 11
3.675
 20
-6.832
 21
-6.695
  0
LINE
  8
0
 10
3.675
 11
4.065
 20
-6.695
 21
-6.884
  0
LINE
  8
0
 10
4.065
 11
3.402
 20
-6.884
 21
-7.093
  0
LINE
  8
0
 10
3.402
 11
3.117
 20
-7.093
 21
-7.233
  0
LINE
  8
0
 10
3.117
 11
2.971
 20
-7.233
 21
-7.379
  0
LINE
  8
0
 10
2.971
 11
2.931
 20
-7.379
 21
-7.537
  0
LINE
  8
0
 10
2.931
 11
2.994
 20
-7.537
 21
-7.69
  0
LINE
  8
0
 10
2.994
 11
3.159
 20
-7.69
 21
-7.816
  0
LINE
  8
0
 10
3.159
 11
3.467
 20
-7.816
 21
-7.899
  0
LINE
  8
0
 10
3.467
 11
3.783
 20
-7.899
 21
-7.876
  0
LINE
  8
0
 10
3.783
 11
4.57
 20
-7.876
 21
-7.702
  0
LINE
  8
0
 10
4.57
 11
5.172
 20
-7.702
 21
-7.71
  0
LINE
  8
0
 10
5.172
 11
5.43
 20
-7.71
 21
-7.842
  0
LINE
  8
0
 10
5.43
 11
5.66
 20
-7.842
 21
-8.061
  0
LINE
  8
0
 10
5.66
 11
5.784
 20
-8.061
 21
-8.202
  0
LINE
  8
0
 10
5.784
 11
5.817
 20
-8.202
 21
-8.257
  0
LINE
  8
0
 10
5.817
 11
5.769
 20
-8.257
 21
-8.268
  0
LINE
  8
0
 10
5.769
 11
5.014
 20
-8.268
 21
-8.144
  0
LINE
  8
0
 10
5.014
 11
3.945
 20
-8.144
 21
-8.127
  0
LINE
  8
0
 10
3.945
 11
3.475
 20
-8.127
 21
-8.233
  0
LINE
  8
0
 10
3.475
 11
3.344
 20
-8.233
 21
-8.308
  0
LINE
  8
0
 10
3.344
 11
3.293
 20
-8.308
 21
-8.446
  0
LINE
  8
0
 10
3.293
 11
3.368
 20
-8.446
 21
-8.58
  0
LINE
  8
0
 10
3.368
 11
3.514
 20
-8.58
 21
-8.651
  0
LINE
  8
0
 10
3.514
 11
3.699
 20
-8.651
 21
-8.681
  0
LINE
  8
0
 10
3.699
 11
3.979
 20
-8.681
 21
-8.666
  0
LINE
  8
0
 10
3.979
 11
4.612
 20
-8.666
 21
-8.648
  0
LINE
  8
0
 10
4.612
 11
5.211
 20
-8.648
 21
-8.858
  0
LINE
  8
0
 10
5.211
 11
5.593
 20
-8.858
 21
-9.081
  0
LINE
  8
0
 10
5.593
 11
5.223
 20
-9.081
 21
-9.053
  0
LINE
  8
0
 10
5.223
 11
4.945
 20
-9.053
 21
-9.079
  0
LINE
  8
0
 10
4.945
 11
4.371
 20
-9.079
 21
-9.172
  0
LINE
  8
0
 10
4.371
 11
3.795
 20
-9.172
 21
-9.114
  0
LINE
  8
0
 10
3.795
 11
2.45
 20
-9.114
 21
-8.864
  0
LINE
  8
0
 10
2.45
 11
1.48
 20
-8.864
 21
-8.83
  0
LINE
  8
0
 10
1.48
 11
0.1
 20
-8.83
 21
-8.984
  0
LINE
  8
0
 10
0.1
 11
0.003
 20
-8.984
 21
-9.006
  0
LINE
  8
0
 10
0.003
 11
0.049
 20
-9.006
 21
-9.136
  0
LINE
  8
0
 10
0.049
 11
1.128
 20
-9.136
 21
-11.195
  0
LINE
  8
0
 10
1.128
 11
1.763
 20
-11.195
 21
-12.166
  0
LINE
  8
0
 10
1.763
 11
2.476
 20
-12.166
 21
-13.088
  0
LINE
  8
0
 10
2.476
 11
3.418
 20
-13.088
 21
-14.08
  0
LINE
  8
0
 10
3.418
 11
3.759
 20
-14.08
 21
-14.293
  0
LINE
  8
0
 10
3.759
 11
4.155
 20
-14.293
 21
-14.329
  0
LINE
  8
0
 10
4.155
 11
4.656
 20
-14.329
 21
-14.26
  0
LINE
  8
0
 10
4.656
 11
5.644
 20
-14.26
 21
-14.175
  0
LINE
  8
0
 10
5.644
 11
6.601
 20
-14.175
 21
-14.173
  0
LINE
  8
0
 10
6.601
 11
7.245
 20
-14.173
 21
-14.23
  0
LINE
  8
0
 10
7.245
 11
7.86
 20
-14.23
 21
-14.425
  0
LINE
  8
0
 10
7.86
 11
8.383
 20
-14.425
 21
-14.678
  0
LINE
  8
0
 10
8.383
 11
8.159
 20
-14.678
 21
-14.683
  0
LINE
  8
0
 10
8.159
 11
7.947
 20
-14.683
 21
-14.737
  0
LINE
  8
0
 10
7.947
 11
7.294
 20
-14.737
 21
-14.748
  0
LINE
  8
0
 10
7.294
 11
6.64
 20
-14.748
 21
-14.684
  0
LINE
  8
0
 10
6.64
 11
5.895
 20
-14.684
 21
-14.729
  0
LINE
  8
0
 10
5.895
 11
5.324
 20
-14.729
 21
-14.871
  0
LINE
  8
0
 10
5.324
 11
5.781
 20
-14.871
 21
-14.999
  0
LINE
  8
0
 10
5.781
 11
6.138
 20
-14.999
 21
-15.156
  0
LINE
  8
0
 10
6.138
 11
7.119
 20
-15.156
 21
-15.781
  0
LINE
  8
0
 10
7.119
 11
7.278
 20
-15.781
 21
-15.997
  0
LINE
  8
0
 10
7.278
 11
7.369
 20
-15.997
 21
-16.505
  0
LINE
  8
0
 10
7.369
 11
7.177
 20
-16.505
 21
-16.248
  0
LINE
  8
0
 10
7.177
 11
6.97
 20
-16.248
 21
-16.107
  0
LINE
  8
0
 10
6.97
 11
5.837
 20
-16.107
 21
-15.714
  0
LINE
  8
0
 10
5.837
 11
5.276
 20
-15.714
 21
-15.504
  0
LINE
  8
0
 10
5.276
 11
4.696
 20
-15.504
 21
-15.351
  0
LINE
  8
0
 10
4.696
 11
3.82
 20
-15.351
 21
-15.33
  0
LINE
  8
0
 10
3.82
 11
4.33
 20
-15.33
 21
-16.214
  0
LINE
  8
0
 10
4.33
 11
4.56
 20
-16.214
 21
-16.673
  0
LINE
  8
0
 10
4.56
 11
4.723
 20
-16.673
 21
-17.176
  0
LINE
  8
0
 10
4.723
 11
4.58
 20
-17.176
 21
-16.996
  0
LINE
  8
0
 10
4.58
 11
4.362
 20
-16.996
 21
-16.878
  0
LINE
  8
0
 10
4.362
 11
3.916
 20
-16.878
 21
-16.829
  0
LINE
  8
0
 10
3.916
 11
3.609
 20
-16.829
 21
-16.696
  0
LINE
  8
0
 10
3.609
 11
3.425
 20
-16.696
 21
-16.47
  0
LINE
  8
0
 10
3.425
 11
3.176
 20
-16.47
 21
-15.987
  0
LINE
  8
0
 10
3.176
 11
2.823
 20
-15.987
 21
-15.574
  0
LINE
  8
0
 10
2.823
 11
2.47
 20
-15.574
 21
-15.237
  0
LINE
  8
0
 10
2.47
 11
2.098
 20
-15.237
 21
-14.792
  0
LINE
  8
0
 10
2.098
 11
1.855
 20
-14.792
 21
-14.266
  0
LINE
  8
0
 10
1.855
 11
1.649
 20
-14.266
 21
-13.987
  0
LINE
  8
0
 10
1.649
 11
1.048
 20
-13.987
 21
-13.667
  0
LINE
  8
0
 10
1.048
 11
0.38
 20
-13.667
 21
-13.526
  0
LINE
  8
0
 10
0.38
 11
-0.065
 20
-13.526
 21
-13.472
  0
LINE
  8
0
 10
-0.065
 11
-0.287
 20
-13.472
 21
-13.383
  0
LINE
  8
0
 10
-0.287
 11
-0.49
 20
-13.383
 21
-13.164
  0
LINE
  8
0
 10
-0.49
 11
-1.266
 20
-13.164
 21
-13.164
  0
LINE
  8
0
 10
-1.266
 11
-0.807
 20
-13.164
 21
-12.909
  0
LINE
  8
0
 10
-0.807
 11
-0.299
 20
-12.909
 21
-12.823
  0
LINE
  8
0
 10
-0.299
 11
0.666
 20
-12.823
 21
-12.945
  0
LINE
  8
0
 10
0.666
 11
0.942
 20
-12.945
 21
-12.986
  0
LINE
  8
0
 10
0.942
 11
0.907
 20
-12.986
 21
-12.87
  0
LINE
  8
0
 10
0.907
 11
0.111
 20
-12.87
 21
-11.224
  0
LINE
  8
0
 10
0.111
 11
-0.761
 20
-11.224
 21
-9.617
  0
LINE
  8
0
 10
-0.761
 11
-0.942
 20
-9.617
 21
-9.476
  0
LINE
  8
0
 10
-0.942
 11
-1.201
 20
-9.476
 21
-9.371
  0
LINE
  8
0
 10
-1.201
 11
-1.38
 20
-9.371
 21
-9.157
  0
LINE
  8
0
 10
-1.38
 11
-1.637
 20
-9.157
 21
-8.596
  0
LINE
  8
0
 10
-1.637
 11
-1.849
 20
-8.596
 21
-8.035
  0
LINE
  8
0
 10
-1.849
 11
-2.01
 20
-8.035
 21
-7.466
  0
LINE
  8
0
 10
-2.01
 11
-1.96
 20
-7.466
 21
-6.884
  0
LINE
  8
0
 10
-1.96
 11
-1.621
 20
-6.884
 21
-5.695
  0
LINE
  8
0
 10
-1.621
 11
-1.5
 20
-5.695
 21
-5.285
  0
LINE
  8
0
 10
-1.5
 11
-1.703
 20
-5.285
 21
-5.274
  0
LINE
  8
0
 10
-1.703
 11
-3.917
 20
-5.274
 21
-5.233
  0
LINE
  8
0
 10
-3.917
 11
-5.026
 20
-5.233
 21
-5.167
  0
LINE
  8
0
 10
-5.026
 11
-6.22
 20
-5.167
 21
-4.985
  0
LINE
  8
0
 10
-6.22
 11
-5.819
 20
-4.985
 21
-4.777
  0
LINE
  8
0
 10
-5.819
 11
-5.42
 20
-4.777
 21
-4.59
  0
LINE
  8
0
 10
-5.42
 11
-5.427
 20
-4.59
 21
-4.553
  0
LINE
  8
0
 10
-5.427
 11
-7.032
 20
-4.553
 21
-4.432
  0
LINE
  8
0
 10
-7.032
 11
-6.1
 20
-4.432
 21
-4.044
  0
LINE
  8
0
 10
-6.1
 11
-6.649
 20
-4.044
 21
-3.91
  0
LINE
  8
0
 10
-6.649
 11
-5.946
 20
-3.91
 21
-3.411
  0
LINE
  8
0
 10
-5.946
 11
-6.154
 20
-3.411
 21
-3.354
  0
LINE
  8
0
 10
-6.154
 11
-9.474
 20
-3.354
 21
-2.57
  0
LINE
  8
0
 10
-9.474
 11
-10.113
 20
-2.57
 21
-2.357
  0
LINE
  8
0
 10
-10.113
 11
-10.977
 20
-2.357
 21
-2.075
  0
LINE
  8
0
 10
-10.977
 11
-11.872
 20
-2.075
 21
-1.923
  0
LINE
  8
0
 10
-11.872
 11
-12.592
 20
-1.923
 21
-1.86
  0
LINE
  8
0
 10
-12.592
 11
-13.311
 20
-1.86
 21
-1.907
  0
LINE
  8
0
 10
-13.311
 11
-14.904
 20
-1.907
 21
-2.253
  0
LINE
  8
0
 10
-14.904
 11
-17.704
 20
-2.253
 21
-3.028
  0
LINE
  8
0
 10
-17.704
 11
-18.93
 20
-3.028
 21
-3.302
  0
LINE
  8
0
 10
-18.93
 11
-20.177
 20
-3.302
 21
-3.45
  0
LINE
  8
0
 10
-20.177
 11
-21.226
 20
-3.45
 21
-3.434
  0
LINE
  8
0
 10
-21.226
 11
-21.651
 20
-3.434
 21
-3.252
  0
LINE
  8
0
 10
-21.651
 11
-21.786
 20
-3.252
 21
-3.073
  0
LINE
  8
0
 10
-21.786
 11
-21.779
 20
-3.073
 21
-2.853
  0
LINE
  8
0
 10
-21.779
 11
-21.601
 20
-2.853
 21
-2.506
  0
LINE
  8
0
 10
-21.601
 11
-21.252
 20
-2.506
 21
-2.089
  0
LINE
  8
0
 10
-21.252
 11
-21.124
 20
-2.089
 21
-1.911
  0
LINE
  8
0
 10
-21.124
 11
-22.5
 20
-1.911
 21
-1.575
  0
LINE
  8
0
 10
0.296
 11
0.312
 20
-8.456
 21
-8.373
  0
LINE
  8
0
 10
0.312
 11
0.41
 20
-8.373
 21
-7.984
  0
LINE
  8
0
 10
0.41
 11
0.368
 20
-7.984
 21
-7.587
  0
LINE
  8
0
 10
0.368
 11
0.362
 20
-7.587
 21
-6.974
  0
LINE
  8
0
 10
0.362
 11
0.497
 20
-6.974
 21
-6.296
  0
LINE
  8
0
 10
0.497
 11
0.594
 20
-6.296
 21
-6.045
  0
LINE
  8
0
 10
0.594
 11
0.644
 20
-6.045
 21
-6.106
  0
LINE
  8
0
 10
0.644
 11
0.938
 20
-6.106
 21
-6.884
  0
LINE
  8
0
 10
0.938
 11
1.124
 20
-6.884
 21
-7.694
  0
LINE
  8
0
 10
1.124
 11
1.069
 20
-7.694
 21
-8.095
  0
LINE
  8
0
 10
1.069
 11
0.753
 20
-8.095
 21
-8.346
  0
LINE
  8
0
 10
0.753
 11
0.296
 20
-8.346
 21
-8.456
  0
ENDSEC
  0
SECTION
  2
OBJECTS
  0
DICTIONARY
  0
ENDSEC
  0
EOF
