  0
SECTION
  2
BLOCKS
  0
ENDSEC
  0
SECTION
  2
ENTITIES
  0
LINE
  8
0
 10
-29.54
 11
-29.415
 20
-14.605
 21
-13.982
  0
LINE
  8
0
 10
-29.415
 11
-29.072
 20
-13.982
 21
-13.474
  0
LINE
  8
0
 10
-29.072
 11
-28.563
 20
-13.474
 21
-13.131
  0
LINE
  8
0
 10
-28.563
 11
-27.94
 20
-13.131
 21
-13.005
  0
LINE
  8
0
 10
-27.94
 11
-27.318
 20
-13.005
 21
-13.131
  0
LINE
  8
0
 10
-27.318
 11
-26.809
 20
-13.131
 21
-13.474
  0
LINE
  8
0
 10
-26.809
 11
-26.466
 20
-13.474
 21
-13.982
  0
LINE
  8
0
 10
-26.466
 11
-26.34
 20
-13.982
 21
-14.605
  0
LINE
  8
0
 10
-26.34
 11
-26.466
 20
-14.605
 21
-15.228
  0
LINE
  8
0
 10
-26.466
 11
-26.809
 20
-15.228
 21
-15.736
  0
LINE
  8
0
 10
-26.809
 11
-27.318
 20
-15.736
 21
-16.08
  0
LINE
  8
0
 10
-27.318
 11
-27.94
 20
-16.08
 21
-16.205
  0
LINE
  8
0
 10
-27.94
 11
-28.563
 20
-16.205
 21
-16.08
  0
LINE
  8
0
 10
-28.563
 11
-29.072
 20
-16.08
 21
-15.736
  0
LINE
  8
0
 10
-29.072
 11
-29.415
 20
-15.736
 21
-15.228
  0
LINE
  8
0
 10
-29.415
 11
-29.54
 20
-15.228
 21
-14.605
  0
LINE
  8
0
 10
-29.54
 11
-29.414
 20
14.605
 21
15.228
  0
LINE
  8
0
 10
-29.414
 11
-29.071
 20
15.228
 21
15.737
  0
LINE
  8
0
 10
-29.071
 11
-28.563
 20
15.737
 21
16.08
  0
LINE
  8
0
 10
-28.563
 11
-27.94
 20
16.08
 21
16.205
  0
LINE
  8
0
 10
-27.94
 11
-27.317
 20
16.205
 21
16.08
  0
LINE
  8
0
 10
-27.317
 11
-26.809
 20
16.08
 21
15.737
  0
LINE
  8
0
 10
-26.809
 11
-26.466
 20
15.737
 21
15.228
  0
LINE
  8
0
 10
-26.466
 11
-26.34
 20
15.228
 21
14.605
  0
LINE
  8
0
 10
-26.34
 11
-26.466
 20
14.605
 21
13.983
  0
LINE
  8
0
 10
-26.466
 11
-26.809
 20
13.983
 21
13.474
  0
LINE
  8
0
 10
-26.809
 11
-27.317
 20
13.474
 21
13.131
  0
LINE
  8
0
 10
-27.317
 11
-27.94
 20
13.131
 21
13.006
  0
LINE
  8
0
 10
-27.94
 11
-28.563
 20
13.006
 21
13.131
  0
LINE
  8
0
 10
-28.563
 11
-29.071
 20
13.131
 21
13.474
  0
LINE
  8
0
 10
-29.071
 11
-29.414
 20
13.474
 21
13.983
  0
LINE
  8
0
 10
-29.414
 11
-29.54
 20
13.983
 21
14.605
  0
LINE
  8
0
 10
26.34
 11
26.466
 20
-14.605
 21
-13.982
  0
LINE
  8
0
 10
26.466
 11
26.809
 20
-13.982
 21
-13.474
  0
LINE
  8
0
 10
26.809
 11
27.317
 20
-13.474
 21
-13.131
  0
LINE
  8
0
 10
27.317
 11
27.94
 20
-13.131
 21
-13.005
  0
LINE
  8
0
 10
27.94
 11
28.563
 20
-13.005
 21
-13.131
  0
LINE
  8
0
 10
28.563
 11
29.071
 20
-13.131
 21
-13.474
  0
LINE
  8
0
 10
29.071
 11
29.414
 20
-13.474
 21
-13.982
  0
LINE
  8
0
 10
29.414
 11
29.54
 20
-13.982
 21
-14.605
  0
LINE
  8
0
 10
29.54
 11
29.414
 20
-14.605
 21
-15.228
  0
LINE
  8
0
 10
29.414
 11
29.071
 20
-15.228
 21
-15.736
  0
LINE
  8
0
 10
29.071
 11
28.563
 20
-15.736
 21
-16.079
  0
LINE
  8
0
 10
28.563
 11
27.94
 20
-16.079
 21
-16.205
  0
LINE
  8
0
 10
27.94
 11
27.317
 20
-16.205
 21
-16.079
  0
LINE
  8
0
 10
27.317
 11
26.809
 20
-16.079
 21
-15.736
  0
LINE
  8
0
 10
26.809
 11
26.466
 20
-15.736
 21
-15.228
  0
LINE
  8
0
 10
26.466
 11
26.34
 20
-15.228
 21
-14.605
  0
LINE
  8
0
 10
26.34
 11
26.466
 20
14.605
 21
15.228
  0
LINE
  8
0
 10
26.466
 11
26.809
 20
15.228
 21
15.737
  0
LINE
  8
0
 10
26.809
 11
27.317
 20
15.737
 21
16.08
  0
LINE
  8
0
 10
27.317
 11
27.94
 20
16.08
 21
16.205
  0
LINE
  8
0
 10
27.94
 11
28.563
 20
16.205
 21
16.08
  0
LINE
  8
0
 10
28.563
 11
29.071
 20
16.08
 21
15.737
  0
LINE
  8
0
 10
29.071
 11
29.415
 20
15.737
 21
15.228
  0
LINE
  8
0
 10
29.415
 11
29.54
 20
15.228
 21
14.605
  0
LINE
  8
0
 10
29.54
 11
29.415
 20
14.605
 21
13.983
  0
LINE
  8
0
 10
29.415
 11
29.071
 20
13.983
 21
13.474
  0
LINE
  8
0
 10
29.071
 11
28.563
 20
13.474
 21
13.131
  0
LINE
  8
0
 10
28.563
 11
27.94
 20
13.131
 21
13.006
  0
LINE
  8
0
 10
27.94
 11
27.317
 20
13.006
 21
13.131
  0
LINE
  8
0
 10
27.317
 11
26.809
 20
13.131
 21
13.474
  0
LINE
  8
0
 10
26.809
 11
26.466
 20
13.474
 21
13.983
  0
LINE
  8
0
 10
26.466
 11
26.34
 20
13.983
 21
14.605
  0
ENDSEC
  0
SECTION
  2
OBJECTS
  0
DICTIONARY
  0
ENDSEC
  0
EOF
