solid OpenSCAD_Model
  facet normal -0.0298103 -0.999556 0
    outer loop
      vertex 13.2453 -40.7588 0
      vertex 21.2889 -40.9987 0
      vertex 21.2889 -40.9987 4
    endloop
  endfacet
  facet normal -0.0298103 -0.999556 0
    outer loop
      vertex 13.2453 -40.7588 4
      vertex 13.2453 -40.7588 0
      vertex 21.2889 -40.9987 4
    endloop
  endfacet
  facet normal 0 0 -1
    outer loop
      vertex -37.7723 -0.618349 0
      vertex -37.4658 2.0495 0
      vertex -37.881 -3.22862 0
    endloop
  endfacet
  facet normal 0 0 -1
    outer loop
      vertex -37.881 -3.22862 0
      vertex -37.4658 2.0495 0
      vertex -36.9753 4.74839 0
    endloop
  endfacet
  facet normal 0 0 -1
    outer loop
      vertex -37.881 -3.22862 0
      vertex -36.9753 4.74839 0
      vertex -36.3147 7.45236 0
    endloop
  endfacet
  facet normal 0 0 -1
    outer loop
      vertex -37.881 -3.22862 0
      vertex -36.3147 7.45236 0
      vertex -35.4982 10.1346 0
    endloop
  endfacet
  facet normal 0 0 -1
    outer loop
      vertex -37.881 -3.22862 0
      vertex -35.4982 10.1346 0
      vertex -34.54 12.7691 0
    endloop
  endfacet
  facet normal 0 0 -1
    outer loop
      vertex -37.881 -3.22862 0
      vertex -34.54 12.7691 0
      vertex -33.4541 15.3292 0
    endloop
  endfacet
  facet normal 0 0 -1
    outer loop
      vertex -37.881 -3.22862 0
      vertex -33.4541 15.3292 0
      vertex -32.2546 17.7885 0
    endloop
  endfacet
  facet normal 0 0 -1
    outer loop
      vertex -37.881 -3.22862 0
      vertex -32.2546 17.7885 0
      vertex -30.9555 20.1208 0
    endloop
  endfacet
  facet normal 0 0 -1
    outer loop
      vertex -37.881 -3.22862 0
      vertex -30.9555 20.1208 0
      vertex -29.5712 22.2995 0
    endloop
  endfacet
  facet normal 0 0 -1
    outer loop
      vertex -37.881 -3.22862 0
      vertex -29.5712 22.2995 0
      vertex -28.1155 24.2985 0
    endloop
  endfacet
  facet normal 0 0 -1
    outer loop
      vertex -37.881 -3.22862 0
      vertex -28.1155 24.2985 0
      vertex -26.6025 26.0912 0
    endloop
  endfacet
  facet normal 0 0 -1
    outer loop
      vertex -37.881 -3.22862 0
      vertex -26.6025 26.0912 0
      vertex -25.0467 27.6513 0
    endloop
  endfacet
  facet normal 0 0 -1
    outer loop
      vertex -37.881 -3.22862 0
      vertex -25.0467 27.6513 0
      vertex -22.9726 29.4457 0
    endloop
  endfacet
  facet normal 0 0 -1
    outer loop
      vertex -37.881 -3.22862 0
      vertex -22.9726 29.4457 0
      vertex -20.9101 31.0388 0
    endloop
  endfacet
  facet normal 0 0 -1
    outer loop
      vertex -37.881 -3.22862 0
      vertex -20.9101 31.0388 0
      vertex -18.8572 32.44 0
    endloop
  endfacet
  facet normal 0 0 -1
    outer loop
      vertex -37.881 -3.22862 0
      vertex -18.8572 32.44 0
      vertex -16.8125 33.6592 0
    endloop
  endfacet
  facet normal 0 0 -1
    outer loop
      vertex -37.881 -3.22862 0
      vertex -16.8125 33.6592 0
      vertex -14.7743 34.706 0
    endloop
  endfacet
  facet normal 0 0 -1
    outer loop
      vertex -37.881 -3.22862 0
      vertex -14.7743 34.706 0
      vertex -12.7406 35.5899 0
    endloop
  endfacet
  facet normal 0 0 -1
    outer loop
      vertex -37.881 -3.22862 0
      vertex -12.7406 35.5899 0
      vertex -10.7098 36.3212 0
    endloop
  endfacet
  facet normal 0 0 -1
    outer loop
      vertex -37.881 -3.22862 0
      vertex -10.7098 36.3212 0
      vertex -8.67974 36.909 0
    endloop
  endfacet
  facet normal 0 0 -1
    outer loop
      vertex -37.881 -3.22862 0
      vertex -8.67974 36.909 0
      vertex -6.64944 37.3631 0
    endloop
  endfacet
  facet normal 0 0 -1
    outer loop
      vertex -37.881 -3.22862 0
      vertex -6.64944 37.3631 0
      vertex -4.61659 37.6936 0
    endloop
  endfacet
  facet normal 0 0 -1
    outer loop
      vertex -37.881 -3.22862 0
      vertex -4.61659 37.6936 0
      vertex -2.57979 37.9098 0
    endloop
  endfacet
  facet normal 0 0 -1
    outer loop
      vertex -37.881 -3.22862 0
      vertex -2.57979 37.9098 0
      vertex -0.537069 38.0215 0
    endloop
  endfacet
  facet normal 0 0 -1
    outer loop
      vertex -37.881 -3.22862 0
      vertex -0.537069 38.0215 0
      vertex 1.51328 38.0385 0
    endloop
  endfacet
  facet normal 0 0 -1
    outer loop
      vertex -37.881 -3.22862 0
      vertex 1.51328 38.0385 0
      vertex 3.57293 37.9705 0
    endloop
  endfacet
  facet normal 0 0 -1
    outer loop
      vertex -37.881 -3.22862 0
      vertex 3.57293 37.9705 0
      vertex 7.72724 37.618 0
    endloop
  endfacet
  facet normal 0 0 -1
    outer loop
      vertex 7.72724 37.618 0
      vertex 8.32697 41.0512 0
      vertex 37.881 35.8978 0
    endloop
  endfacet
  facet normal 0 0 -1
    outer loop
      vertex 3.17387 11.4972 0
      vertex 37.881 35.8978 0
      vertex 32.7279 6.34097 0
    endloop
  endfacet
  facet normal 0 0 -1
    outer loop
      vertex 7.72724 37.618 0
      vertex 37.881 35.8978 0
      vertex 5.14548 22.7954 0
    endloop
  endfacet
  facet normal 0 0 -1
    outer loop
      vertex 7.72724 37.618 0
      vertex 5.14548 22.7954 0
      vertex 2.04131 23.0045 0
    endloop
  endfacet
  facet normal 0 0 -1
    outer loop
      vertex 7.72724 37.618 0
      vertex 2.04131 23.0045 0
      vertex -0.7874 22.978 0
    endloop
  endfacet
  facet normal 0 0 -1
    outer loop
      vertex 7.72724 37.618 0
      vertex -0.7874 22.978 0
      vertex -3.39288 22.6926 0
    endloop
  endfacet
  facet normal 0 0 -1
    outer loop
      vertex 7.72724 37.618 0
      vertex -3.39288 22.6926 0
      vertex -5.82874 22.1248 0
    endloop
  endfacet
  facet normal 0 0 -1
    outer loop
      vertex 7.72724 37.618 0
      vertex -5.82874 22.1248 0
      vertex -8.14804 21.2522 0
    endloop
  endfacet
  facet normal 0 0 -1
    outer loop
      vertex 7.72724 37.618 0
      vertex -8.14804 21.2522 0
      vertex -10.4033 20.0508 0
    endloop
  endfacet
  facet normal 0 0 -1
    outer loop
      vertex 7.72724 37.618 0
      vertex -10.4033 20.0508 0
      vertex -12.6484 18.4977 0
    endloop
  endfacet
  facet normal 0 0 -1
    outer loop
      vertex 7.72724 37.618 0
      vertex -12.6484 18.4977 0
      vertex -14.9355 16.5701 0
    endloop
  endfacet
  facet normal 0 0 -1
    outer loop
      vertex 7.72724 37.618 0
      vertex -14.9355 16.5701 0
      vertex -37.881 -3.22862 0
    endloop
  endfacet
  facet normal 0 0 -1
    outer loop
      vertex -16.7118 14.5508 0
      vertex -37.881 -3.22862 0
      vertex -15.8324 15.6498 0
    endloop
  endfacet
  facet normal 0 0 -1
    outer loop
      vertex -17.5655 13.298 0
      vertex -37.881 -3.22862 0
      vertex -16.7118 14.5508 0
    endloop
  endfacet
  facet normal 0 0 -1
    outer loop
      vertex -18.3854 11.9154 0
      vertex -37.881 -3.22862 0
      vertex -17.5655 13.298 0
    endloop
  endfacet
  facet normal 0 0 -1
    outer loop
      vertex -19.8905 8.85867 0
      vertex -37.881 -3.22862 0
      vertex -18.3854 11.9154 0
    endloop
  endfacet
  facet normal 0 0 -1
    outer loop
      vertex -21.1607 5.57502 0
      vertex -37.881 -3.22862 0
      vertex -19.8905 8.85867 0
    endloop
  endfacet
  facet normal 0 0 -1
    outer loop
      vertex -15.8324 15.6498 0
      vertex -37.881 -3.22862 0
      vertex -14.9355 16.5701 0
    endloop
  endfacet
  facet normal 0 0 -1
    outer loop
      vertex -22.1302 2.25975 0
      vertex -37.881 -3.22862 0
      vertex -21.1607 5.57502 0
    endloop
  endfacet
  facet normal 0 0 -1
    outer loop
      vertex -22.8755 -2.34752 0
      vertex -37.881 -3.22862 0
      vertex -22.7324 -0.892951 0
    endloop
  endfacet
  facet normal 0 0 -1
    outer loop
      vertex -37.881 -3.22862 0
      vertex -22.1302 2.25975 0
      vertex -22.4813 0.650804 0
    endloop
  endfacet
  facet normal 0 0 -1
    outer loop
      vertex -37.881 -3.22862 0
      vertex -22.4813 0.650804 0
      vertex -22.7324 -0.892951 0
    endloop
  endfacet
  facet normal 0 0 -1
    outer loop
      vertex -37.881 -3.22862 0
      vertex -22.8755 -2.34752 0
      vertex -22.9021 -3.68808 0
    endloop
  endfacet
  facet normal 0 0 -1
    outer loop
      vertex -22.9021 -3.68808 0
      vertex -22.8038 -4.89091 0
      vertex -37.881 -3.22862 0
    endloop
  endfacet
  facet normal 0 0 -1
    outer loop
      vertex -22.8038 -4.89091 0
      vertex -22.5724 -5.93118 0
      vertex -37.881 -3.22862 0
    endloop
  endfacet
  facet normal 0 0 -1
    outer loop
      vertex -22.5724 -5.93118 0
      vertex -21.4209 -9.08868 0
      vertex -37.881 -3.22862 0
    endloop
  endfacet
  facet normal 0 0 -1
    outer loop
      vertex -21.4209 -9.08868 0
      vertex -20.7682 -10.537 0
      vertex -37.881 -3.22862 0
    endloop
  endfacet
  facet normal 0 0 -1
    outer loop
      vertex -20.7682 -10.537 0
      vertex -20.0609 -11.9022 0
      vertex -37.881 -3.22862 0
    endloop
  endfacet
  facet normal 0 0 -1
    outer loop
      vertex -20.0609 -11.9022 0
      vertex -19.2964 -13.186 0
      vertex -37.881 -3.22862 0
    endloop
  endfacet
  facet normal 0 0 -1
    outer loop
      vertex -19.2964 -13.186 0
      vertex -18.4726 -14.3916 0
      vertex -37.881 -3.22862 0
    endloop
  endfacet
  facet normal 0 0 -1
    outer loop
      vertex -18.4726 -14.3916 0
      vertex -17.587 -15.5211 0
      vertex -37.881 -3.22862 0
    endloop
  endfacet
  facet normal 0 0 -1
    outer loop
      vertex -17.587 -15.5211 0
      vertex -16.637 -16.5775 0
      vertex -37.881 -3.22862 0
    endloop
  endfacet
  facet normal 0 0 -1
    outer loop
      vertex -16.637 -16.5775 0
      vertex -15.6202 -17.563 0
      vertex -37.881 -3.22862 0
    endloop
  endfacet
  facet normal 0 0 -1
    outer loop
      vertex -15.6202 -17.563 0
      vertex -14.5342 -18.4802 0
      vertex -37.881 -3.22862 0
    endloop
  endfacet
  facet normal 0 0 -1
    outer loop
      vertex -14.5342 -18.4802 0
      vertex -13.3768 -19.3319 0
      vertex -37.881 -3.22862 0
    endloop
  endfacet
  facet normal 0 0 -1
    outer loop
      vertex -13.3768 -19.3319 0
      vertex 13.2453 -40.7588 0
      vertex -37.881 -3.22862 0
    endloop
  endfacet
  facet normal 0 0 -1
    outer loop
      vertex -9.45021 -21.5178 0
      vertex 29.5464 -41.0512 0
      vertex -10.8371 -20.848 0
    endloop
  endfacet
  facet normal 0 0 -1
    outer loop
      vertex -4.65102 -23.2421 0
      vertex 33.5421 -36.048 0
      vertex -6.43015 -22.6929 0
    endloop
  endfacet
  facet normal 0 0 -1
    outer loop
      vertex -2.78779 -23.7281 0
      vertex 33.5421 -36.048 0
      vertex -4.65102 -23.2421 0
    endloop
  endfacet
  facet normal 0 0 -1
    outer loop
      vertex 1.17263 -24.5271 0
      vertex 29.5473 -31.0535 0
      vertex -2.78779 -23.7281 0
    endloop
  endfacet
  facet normal 0 0 -1
    outer loop
      vertex 5.41415 -25.1198 0
      vertex 29.5473 -31.0535 0
      vertex 1.17263 -24.5271 0
    endloop
  endfacet
  facet normal 0 0 -1
    outer loop
      vertex 9.90007 -25.5369 0
      vertex 29.5473 -31.0535 0
      vertex 5.41415 -25.1198 0
    endloop
  endfacet
  facet normal 0 0 -1
    outer loop
      vertex 14.5929 -25.8087 0
      vertex 29.5473 -31.0535 0
      vertex 9.90007 -25.5369 0
    endloop
  endfacet
  facet normal 0 0 -1
    outer loop
      vertex 19.4561 -25.9653 0
      vertex 29.5473 -31.0535 0
      vertex 14.5929 -25.8087 0
    endloop
  endfacet
  facet normal 0 0 -1
    outer loop
      vertex 29.5458 -26.0545 0
      vertex 29.5473 -31.0535 0
      vertex 19.4561 -25.9653 0
    endloop
  endfacet
  facet normal 0 0 -1
    outer loop
      vertex 29.5473 -31.0535 0
      vertex 33.5376 -31.0492 0
      vertex 33.5421 -36.048 0
    endloop
  endfacet
  facet normal 0 0 -1
    outer loop
      vertex 29.5473 -31.0535 0
      vertex 33.5421 -36.048 0
      vertex -2.78779 -23.7281 0
    endloop
  endfacet
  facet normal 0 0 -1
    outer loop
      vertex -6.43015 -22.6929 0
      vertex 33.5421 -36.048 0
      vertex 29.545 -36.0522 0
    endloop
  endfacet
  facet normal 0 0 -1
    outer loop
      vertex -6.43015 -22.6929 0
      vertex 29.545 -36.0522 0
      vertex 29.5464 -41.0512 0
    endloop
  endfacet
  facet normal 0 0 -1
    outer loop
      vertex -6.43015 -22.6929 0
      vertex 29.5464 -41.0512 0
      vertex -9.45021 -21.5178 0
    endloop
  endfacet
  facet normal 0 0 -1
    outer loop
      vertex -10.8371 -20.848 0
      vertex 29.5464 -41.0512 0
      vertex 21.2889 -40.9987 0
    endloop
  endfacet
  facet normal 0 0 -1
    outer loop
      vertex -10.8371 -20.848 0
      vertex 21.2889 -40.9987 0
      vertex -12.1452 -20.1202 0
    endloop
  endfacet
  facet normal 0 0 -1
    outer loop
      vertex -12.1452 -20.1202 0
      vertex 21.2889 -40.9987 0
      vertex 13.2453 -40.7588 0
    endloop
  endfacet
  facet normal 0 0 -1
    outer loop
      vertex -12.1452 -20.1202 0
      vertex 13.2453 -40.7588 0
      vertex -13.3768 -19.3319 0
    endloop
  endfacet
  facet normal 0 0 -1
    outer loop
      vertex -37.881 -3.22862 0
      vertex 13.2453 -40.7588 0
      vertex 9.33224 -40.5302 0
    endloop
  endfacet
  facet normal 0 0 -1
    outer loop
      vertex -37.881 -3.22862 0
      vertex 9.33224 -40.5302 0
      vertex 5.50672 -40.2088 0
    endloop
  endfacet
  facet normal 0 0 -1
    outer loop
      vertex -37.881 -3.22862 0
      vertex 5.50672 -40.2088 0
      vertex 1.78054 -39.7795 0
    endloop
  endfacet
  facet normal 0 0 -1
    outer loop
      vertex -37.881 -3.22862 0
      vertex 1.78054 -39.7795 0
      vertex -1.83529 -39.2266 0
    endloop
  endfacet
  facet normal 0 0 -1
    outer loop
      vertex -37.881 -3.22862 0
      vertex -1.83529 -39.2266 0
      vertex -4.27567 -38.7607 0
    endloop
  endfacet
  facet normal 0 0 -1
    outer loop
      vertex -37.881 -3.22862 0
      vertex -4.27567 -38.7607 0
      vertex -6.65282 -38.2225 0
    endloop
  endfacet
  facet normal 0 0 -1
    outer loop
      vertex -37.881 -3.22862 0
      vertex -6.65282 -38.2225 0
      vertex -8.96281 -37.6075 0
    endloop
  endfacet
  facet normal 0 0 -1
    outer loop
      vertex -37.881 -3.22862 0
      vertex -8.96281 -37.6075 0
      vertex -11.2037 -36.911 0
    endloop
  endfacet
  facet normal 0 0 -1
    outer loop
      vertex -37.881 -3.22862 0
      vertex -11.2037 -36.911 0
      vertex -13.593 -36.0409 0
    endloop
  endfacet
  facet normal 0 0 -1
    outer loop
      vertex -37.881 -3.22862 0
      vertex -13.593 -36.0409 0
      vertex -15.8744 -35.0698 0
    endloop
  endfacet
  facet normal 0 0 -1
    outer loop
      vertex -37.881 -3.22862 0
      vertex -15.8744 -35.0698 0
      vertex -18.0487 -33.9968 0
    endloop
  endfacet
  facet normal 0 0 -1
    outer loop
      vertex -37.881 -3.22862 0
      vertex -18.0487 -33.9968 0
      vertex -20.1162 -32.821 0
    endloop
  endfacet
  facet normal 0 0 -1
    outer loop
      vertex -37.881 -3.22862 0
      vertex -20.1162 -32.821 0
      vertex -22.0782 -31.542 0
    endloop
  endfacet
  facet normal 0 0 -1
    outer loop
      vertex -37.881 -3.22862 0
      vertex -22.0782 -31.542 0
      vertex -23.935 -30.1591 0
    endloop
  endfacet
  facet normal 0 0 -1
    outer loop
      vertex -37.881 -3.22862 0
      vertex -23.935 -30.1591 0
      vertex -25.6873 -28.6715 0
    endloop
  endfacet
  facet normal 0 0 -1
    outer loop
      vertex -37.881 -3.22862 0
      vertex -25.6873 -28.6715 0
      vertex -27.336 -27.0784 0
    endloop
  endfacet
  facet normal 0 0 -1
    outer loop
      vertex -37.881 -3.22862 0
      vertex -27.336 -27.0784 0
      vertex -28.8818 -25.3788 0
    endloop
  endfacet
  facet normal 0 0 -1
    outer loop
      vertex -37.881 -3.22862 0
      vertex -28.8818 -25.3788 0
      vertex -30.3251 -23.5726 0
    endloop
  endfacet
  facet normal 0 0 -1
    outer loop
      vertex -37.881 -3.22862 0
      vertex -30.3251 -23.5726 0
      vertex -31.6667 -21.6589 0
    endloop
  endfacet
  facet normal 0 0 -1
    outer loop
      vertex -37.881 -3.22862 0
      vertex -31.6667 -21.6589 0
      vertex -32.9077 -19.6367 0
    endloop
  endfacet
  facet normal 0 0 -1
    outer loop
      vertex -37.881 -3.22862 0
      vertex -32.9077 -19.6367 0
      vertex -34.0484 -17.5054 0
    endloop
  endfacet
  facet normal 0 0 -1
    outer loop
      vertex -37.881 -3.22862 0
      vertex -34.0484 -17.5054 0
      vertex -35.0898 -15.2643 0
    endloop
  endfacet
  facet normal 0 0 -1
    outer loop
      vertex -37.881 -3.22862 0
      vertex -35.0898 -15.2643 0
      vertex -36.0322 -12.9125 0
    endloop
  endfacet
  facet normal 0 0 -1
    outer loop
      vertex -37.881 -3.22862 0
      vertex -36.0322 -12.9125 0
      vertex -36.8766 -10.4498 0
    endloop
  endfacet
  facet normal 0 0 -1
    outer loop
      vertex -37.881 -3.22862 0
      vertex -36.8766 -10.4498 0
      vertex -37.4469 -8.17062 0
    endloop
  endfacet
  facet normal 0 0 -1
    outer loop
      vertex -37.881 -3.22862 0
      vertex -37.4469 -8.17062 0
      vertex -37.7771 -5.75479 0
    endloop
  endfacet
  facet normal 0 0 -1
    outer loop
      vertex 5.14548 22.7954 0
      vertex 37.881 35.8978 0
      vertex 3.17387 11.4972 0
    endloop
  endfacet
  facet normal -0.058321 -0.998298 0
    outer loop
      vertex 9.33224 -40.5302 0
      vertex 13.2453 -40.7588 0
      vertex 13.2453 -40.7588 4
    endloop
  endfacet
  facet normal -0.058321 -0.998298 0
    outer loop
      vertex 9.33224 -40.5302 4
      vertex 9.33224 -40.5302 0
      vertex 13.2453 -40.7588 4
    endloop
  endfacet
  facet normal 0 0 1
    outer loop
      vertex -37.881 -3.22862 4
      vertex -37.7771 -5.75479 4
      vertex -37.4469 -8.17062 4
    endloop
  endfacet
  facet normal 0 0 1
    outer loop
      vertex -36.0322 -12.9125 4
      vertex -37.881 -3.22862 4
      vertex -36.8766 -10.4498 4
    endloop
  endfacet
  facet normal 0 0 1
    outer loop
      vertex -36.8766 -10.4498 4
      vertex -37.881 -3.22862 4
      vertex -37.4469 -8.17062 4
    endloop
  endfacet
  facet normal 0 0 1
    outer loop
      vertex -35.0898 -15.2643 4
      vertex -37.881 -3.22862 4
      vertex -36.0322 -12.9125 4
    endloop
  endfacet
  facet normal 0 0 1
    outer loop
      vertex -34.0484 -17.5054 4
      vertex -37.881 -3.22862 4
      vertex -35.0898 -15.2643 4
    endloop
  endfacet
  facet normal 0 0 1
    outer loop
      vertex -32.9077 -19.6367 4
      vertex -37.881 -3.22862 4
      vertex -34.0484 -17.5054 4
    endloop
  endfacet
  facet normal 0 0 1
    outer loop
      vertex -31.6667 -21.6589 4
      vertex -37.881 -3.22862 4
      vertex -32.9077 -19.6367 4
    endloop
  endfacet
  facet normal 0 0 1
    outer loop
      vertex -30.3251 -23.5726 4
      vertex -37.881 -3.22862 4
      vertex -31.6667 -21.6589 4
    endloop
  endfacet
  facet normal 0 0 1
    outer loop
      vertex -28.8818 -25.3788 4
      vertex -37.881 -3.22862 4
      vertex -30.3251 -23.5726 4
    endloop
  endfacet
  facet normal 0 0 1
    outer loop
      vertex -27.336 -27.0784 4
      vertex -37.881 -3.22862 4
      vertex -28.8818 -25.3788 4
    endloop
  endfacet
  facet normal 0 0 1
    outer loop
      vertex -25.6873 -28.6715 4
      vertex -37.881 -3.22862 4
      vertex -27.336 -27.0784 4
    endloop
  endfacet
  facet normal 0 0 1
    outer loop
      vertex -23.935 -30.1591 4
      vertex -37.881 -3.22862 4
      vertex -25.6873 -28.6715 4
    endloop
  endfacet
  facet normal 0 0 1
    outer loop
      vertex -22.0782 -31.542 4
      vertex -37.881 -3.22862 4
      vertex -23.935 -30.1591 4
    endloop
  endfacet
  facet normal 0 0 1
    outer loop
      vertex -20.1162 -32.821 4
      vertex -37.881 -3.22862 4
      vertex -22.0782 -31.542 4
    endloop
  endfacet
  facet normal 0 0 1
    outer loop
      vertex -18.0487 -33.9968 4
      vertex -37.881 -3.22862 4
      vertex -20.1162 -32.821 4
    endloop
  endfacet
  facet normal 0 0 1
    outer loop
      vertex -15.8744 -35.0698 4
      vertex -37.881 -3.22862 4
      vertex -18.0487 -33.9968 4
    endloop
  endfacet
  facet normal 0 0 1
    outer loop
      vertex -13.593 -36.0409 4
      vertex -37.881 -3.22862 4
      vertex -15.8744 -35.0698 4
    endloop
  endfacet
  facet normal 0 0 1
    outer loop
      vertex -11.2037 -36.911 4
      vertex -37.881 -3.22862 4
      vertex -13.593 -36.0409 4
    endloop
  endfacet
  facet normal 0 0 1
    outer loop
      vertex -8.96281 -37.6075 4
      vertex -37.881 -3.22862 4
      vertex -11.2037 -36.911 4
    endloop
  endfacet
  facet normal 0 0 1
    outer loop
      vertex -6.65282 -38.2225 4
      vertex -37.881 -3.22862 4
      vertex -8.96281 -37.6075 4
    endloop
  endfacet
  facet normal 0 0 1
    outer loop
      vertex -4.27567 -38.7607 4
      vertex -37.881 -3.22862 4
      vertex -6.65282 -38.2225 4
    endloop
  endfacet
  facet normal 0 0 1
    outer loop
      vertex -1.83529 -39.2266 4
      vertex -37.881 -3.22862 4
      vertex -4.27567 -38.7607 4
    endloop
  endfacet
  facet normal 0 0 1
    outer loop
      vertex 1.78054 -39.7795 4
      vertex -37.881 -3.22862 4
      vertex -1.83529 -39.2266 4
    endloop
  endfacet
  facet normal 0 0 1
    outer loop
      vertex 5.50672 -40.2088 4
      vertex -37.881 -3.22862 4
      vertex 1.78054 -39.7795 4
    endloop
  endfacet
  facet normal 0 0 1
    outer loop
      vertex 9.33224 -40.5302 4
      vertex -37.881 -3.22862 4
      vertex 5.50672 -40.2088 4
    endloop
  endfacet
  facet normal 0 0 1
    outer loop
      vertex 13.2453 -40.7588 4
      vertex -37.881 -3.22862 4
      vertex 9.33224 -40.5302 4
    endloop
  endfacet
  facet normal 0 0 1
    outer loop
      vertex -13.3768 -19.3319 4
      vertex -37.881 -3.22862 4
      vertex 13.2453 -40.7588 4
    endloop
  endfacet
  facet normal 0 0 1
    outer loop
      vertex -13.3768 -19.3319 4
      vertex -14.5342 -18.4802 4
      vertex -37.881 -3.22862 4
    endloop
  endfacet
  facet normal 0 0 1
    outer loop
      vertex -6.43015 -22.6929 4
      vertex -9.45021 -21.5178 4
      vertex 21.2889 -40.9987 4
    endloop
  endfacet
  facet normal 0 0 1
    outer loop
      vertex 33.5376 -31.0492 4
      vertex 29.5473 -31.0535 4
      vertex 33.5421 -36.048 4
    endloop
  endfacet
  facet normal 0 0 1
    outer loop
      vertex 9.90007 -25.5369 4
      vertex 5.41415 -25.1198 4
      vertex 29.545 -36.0522 4
    endloop
  endfacet
  facet normal 0 0 1
    outer loop
      vertex 7.72724 37.618 4
      vertex -8.14804 21.2522 4
      vertex -5.82874 22.1248 4
    endloop
  endfacet
  facet normal 0 0 1
    outer loop
      vertex 19.4561 -25.9653 4
      vertex 14.5929 -25.8087 4
      vertex 29.5473 -31.0535 4
    endloop
  endfacet
  facet normal 0 0 1
    outer loop
      vertex 29.5473 -31.0535 4
      vertex 14.5929 -25.8087 4
      vertex 33.5421 -36.048 4
    endloop
  endfacet
  facet normal 0 0 1
    outer loop
      vertex 33.5421 -36.048 4
      vertex 9.90007 -25.5369 4
      vertex 29.545 -36.0522 4
    endloop
  endfacet
  facet normal 0 0 1
    outer loop
      vertex 29.545 -36.0522 4
      vertex 5.41415 -25.1198 4
      vertex 29.5464 -41.0512 4
    endloop
  endfacet
  facet normal 0 0 1
    outer loop
      vertex -19.2964 -13.186 4
      vertex -20.0609 -11.9022 4
      vertex -37.881 -3.22862 4
    endloop
  endfacet
  facet normal 0 0 1
    outer loop
      vertex 5.41415 -25.1198 4
      vertex 1.17263 -24.5271 4
      vertex 29.5464 -41.0512 4
    endloop
  endfacet
  facet normal 0 0 1
    outer loop
      vertex 29.5464 -41.0512 4
      vertex -2.78779 -23.7281 4
      vertex 21.2889 -40.9987 4
    endloop
  endfacet
  facet normal 0 0 1
    outer loop
      vertex -2.78779 -23.7281 4
      vertex -4.65102 -23.2421 4
      vertex 21.2889 -40.9987 4
    endloop
  endfacet
  facet normal 0 0 1
    outer loop
      vertex -18.4726 -14.3916 4
      vertex -19.2964 -13.186 4
      vertex -37.881 -3.22862 4
    endloop
  endfacet
  facet normal 0 0 1
    outer loop
      vertex -4.65102 -23.2421 4
      vertex -6.43015 -22.6929 4
      vertex 21.2889 -40.9987 4
    endloop
  endfacet
  facet normal 0 0 1
    outer loop
      vertex 21.2889 -40.9987 4
      vertex -9.45021 -21.5178 4
      vertex 13.2453 -40.7588 4
    endloop
  endfacet
  facet normal 0 0 1
    outer loop
      vertex -9.45021 -21.5178 4
      vertex -10.8371 -20.848 4
      vertex 13.2453 -40.7588 4
    endloop
  endfacet
  facet normal 0 0 1
    outer loop
      vertex -10.8371 -20.848 4
      vertex -12.1452 -20.1202 4
      vertex 13.2453 -40.7588 4
    endloop
  endfacet
  facet normal 0 0 1
    outer loop
      vertex -12.1452 -20.1202 4
      vertex -13.3768 -19.3319 4
      vertex 13.2453 -40.7588 4
    endloop
  endfacet
  facet normal 0 0 1
    outer loop
      vertex -14.5342 -18.4802 4
      vertex -15.6202 -17.563 4
      vertex -37.881 -3.22862 4
    endloop
  endfacet
  facet normal 0 0 1
    outer loop
      vertex -15.6202 -17.563 4
      vertex -16.637 -16.5775 4
      vertex -37.881 -3.22862 4
    endloop
  endfacet
  facet normal 0 0 1
    outer loop
      vertex -16.637 -16.5775 4
      vertex -17.587 -15.5211 4
      vertex -37.881 -3.22862 4
    endloop
  endfacet
  facet normal 0 0 1
    outer loop
      vertex -17.587 -15.5211 4
      vertex -18.4726 -14.3916 4
      vertex -37.881 -3.22862 4
    endloop
  endfacet
  facet normal 0 0 1
    outer loop
      vertex -20.0609 -11.9022 4
      vertex -20.7682 -10.537 4
      vertex -37.881 -3.22862 4
    endloop
  endfacet
  facet normal 0 0 1
    outer loop
      vertex 1.17263 -24.5271 4
      vertex -2.78779 -23.7281 4
      vertex 29.5464 -41.0512 4
    endloop
  endfacet
  facet normal 0 0 1
    outer loop
      vertex -20.7682 -10.537 4
      vertex -21.4209 -9.08868 4
      vertex -37.881 -3.22862 4
    endloop
  endfacet
  facet normal 0 0 1
    outer loop
      vertex 14.5929 -25.8087 4
      vertex 9.90007 -25.5369 4
      vertex 33.5421 -36.048 4
    endloop
  endfacet
  facet normal 0 0 1
    outer loop
      vertex -21.4209 -9.08868 4
      vertex -22.5724 -5.93118 4
      vertex -37.881 -3.22862 4
    endloop
  endfacet
  facet normal 0 0 1
    outer loop
      vertex -22.8038 -4.89091 4
      vertex -37.881 -3.22862 4
      vertex -22.5724 -5.93118 4
    endloop
  endfacet
  facet normal 0 0 1
    outer loop
      vertex -22.9021 -3.68808 4
      vertex -37.881 -3.22862 4
      vertex -22.8038 -4.89091 4
    endloop
  endfacet
  facet normal 0 0 1
    outer loop
      vertex -22.8755 -2.34752 4
      vertex -37.881 -3.22862 4
      vertex -22.9021 -3.68808 4
    endloop
  endfacet
  facet normal 0 0 1
    outer loop
      vertex -22.7324 -0.892951 4
      vertex -37.881 -3.22862 4
      vertex -22.8755 -2.34752 4
    endloop
  endfacet
  facet normal 0 0 1
    outer loop
      vertex -22.4813 0.650804 4
      vertex -37.881 -3.22862 4
      vertex -22.7324 -0.892951 4
    endloop
  endfacet
  facet normal 0 0 1
    outer loop
      vertex -22.1302 2.25975 4
      vertex -37.881 -3.22862 4
      vertex -22.4813 0.650804 4
    endloop
  endfacet
  facet normal 0 0 1
    outer loop
      vertex -21.1607 5.57502 4
      vertex -37.881 -3.22862 4
      vertex -22.1302 2.25975 4
    endloop
  endfacet
  facet normal 0 0 1
    outer loop
      vertex -19.8905 8.85867 4
      vertex -37.881 -3.22862 4
      vertex -21.1607 5.57502 4
    endloop
  endfacet
  facet normal 0 0 1
    outer loop
      vertex -18.3854 11.9154 4
      vertex -37.881 -3.22862 4
      vertex -19.8905 8.85867 4
    endloop
  endfacet
  facet normal 0 0 1
    outer loop
      vertex -17.5655 13.298 4
      vertex -37.881 -3.22862 4
      vertex -18.3854 11.9154 4
    endloop
  endfacet
  facet normal 0 0 1
    outer loop
      vertex -16.7118 14.5508 4
      vertex -37.881 -3.22862 4
      vertex -17.5655 13.298 4
    endloop
  endfacet
  facet normal 0 0 1
    outer loop
      vertex -15.8324 15.6498 4
      vertex -37.881 -3.22862 4
      vertex -16.7118 14.5508 4
    endloop
  endfacet
  facet normal 0 0 1
    outer loop
      vertex -14.9355 16.5701 4
      vertex -37.881 -3.22862 4
      vertex -15.8324 15.6498 4
    endloop
  endfacet
  facet normal 0 0 1
    outer loop
      vertex 3.17387 11.4972 4
      vertex 32.7279 6.34097 4
      vertex 5.14548 22.7954 4
    endloop
  endfacet
  facet normal 0 0 1
    outer loop
      vertex 37.881 35.8978 4
      vertex -5.82874 22.1248 4
      vertex -3.39288 22.6926 4
    endloop
  endfacet
  facet normal 0 0 1
    outer loop
      vertex 7.72724 37.618 4
      vertex -10.4033 20.0508 4
      vertex -8.14804 21.2522 4
    endloop
  endfacet
  facet normal 0 0 1
    outer loop
      vertex 37.881 35.8978 4
      vertex -3.39288 22.6926 4
      vertex -0.7874 22.978 4
    endloop
  endfacet
  facet normal 0 0 1
    outer loop
      vertex 7.72724 37.618 4
      vertex -12.6484 18.4977 4
      vertex -10.4033 20.0508 4
    endloop
  endfacet
  facet normal 0 0 1
    outer loop
      vertex 37.881 35.8978 4
      vertex -0.7874 22.978 4
      vertex 2.04131 23.0045 4
    endloop
  endfacet
  facet normal 0 0 1
    outer loop
      vertex 37.881 35.8978 4
      vertex 2.04131 23.0045 4
      vertex 5.14548 22.7954 4
    endloop
  endfacet
  facet normal 0 0 1
    outer loop
      vertex 37.881 35.8978 4
      vertex 5.14548 22.7954 4
      vertex 32.7279 6.34097 4
    endloop
  endfacet
  facet normal 0 0 1
    outer loop
      vertex 7.72724 37.618 4
      vertex -5.82874 22.1248 4
      vertex 37.881 35.8978 4
    endloop
  endfacet
  facet normal 0 0 1
    outer loop
      vertex 8.32697 41.0512 4
      vertex 7.72724 37.618 4
      vertex 37.881 35.8978 4
    endloop
  endfacet
  facet normal 0 0 1
    outer loop
      vertex 1.51328 38.0385 4
      vertex -37.881 -3.22862 4
      vertex 3.57293 37.9705 4
    endloop
  endfacet
  facet normal 0 0 1
    outer loop
      vertex -0.537069 38.0215 4
      vertex -37.881 -3.22862 4
      vertex 1.51328 38.0385 4
    endloop
  endfacet
  facet normal 0 0 1
    outer loop
      vertex -2.57979 37.9098 4
      vertex -37.881 -3.22862 4
      vertex -0.537069 38.0215 4
    endloop
  endfacet
  facet normal 0 0 1
    outer loop
      vertex -4.61659 37.6936 4
      vertex -37.881 -3.22862 4
      vertex -2.57979 37.9098 4
    endloop
  endfacet
  facet normal 0 0 1
    outer loop
      vertex -6.64944 37.3631 4
      vertex -37.881 -3.22862 4
      vertex -4.61659 37.6936 4
    endloop
  endfacet
  facet normal 0 0 1
    outer loop
      vertex -8.67974 36.909 4
      vertex -37.881 -3.22862 4
      vertex -6.64944 37.3631 4
    endloop
  endfacet
  facet normal 0 0 1
    outer loop
      vertex -10.7098 36.3212 4
      vertex -37.881 -3.22862 4
      vertex -8.67974 36.909 4
    endloop
  endfacet
  facet normal 0 0 1
    outer loop
      vertex -12.7406 35.5899 4
      vertex -37.881 -3.22862 4
      vertex -10.7098 36.3212 4
    endloop
  endfacet
  facet normal 0 0 1
    outer loop
      vertex -14.7743 34.706 4
      vertex -37.881 -3.22862 4
      vertex -12.7406 35.5899 4
    endloop
  endfacet
  facet normal 0 0 1
    outer loop
      vertex -16.8125 33.6592 4
      vertex -37.881 -3.22862 4
      vertex -14.7743 34.706 4
    endloop
  endfacet
  facet normal 0 0 1
    outer loop
      vertex -18.8572 32.44 4
      vertex -37.881 -3.22862 4
      vertex -16.8125 33.6592 4
    endloop
  endfacet
  facet normal 0 0 1
    outer loop
      vertex -20.9101 31.0388 4
      vertex -37.881 -3.22862 4
      vertex -18.8572 32.44 4
    endloop
  endfacet
  facet normal 0 0 1
    outer loop
      vertex -22.9726 29.4457 4
      vertex -37.881 -3.22862 4
      vertex -20.9101 31.0388 4
    endloop
  endfacet
  facet normal 0 0 1
    outer loop
      vertex -25.0467 27.6513 4
      vertex -37.881 -3.22862 4
      vertex -22.9726 29.4457 4
    endloop
  endfacet
  facet normal 0 0 1
    outer loop
      vertex -26.6025 26.0912 4
      vertex -37.881 -3.22862 4
      vertex -25.0467 27.6513 4
    endloop
  endfacet
  facet normal 0 0 1
    outer loop
      vertex -28.1155 24.2985 4
      vertex -37.881 -3.22862 4
      vertex -26.6025 26.0912 4
    endloop
  endfacet
  facet normal 0 0 1
    outer loop
      vertex -29.5712 22.2995 4
      vertex -37.881 -3.22862 4
      vertex -28.1155 24.2985 4
    endloop
  endfacet
  facet normal 0 0 1
    outer loop
      vertex -30.9555 20.1208 4
      vertex -37.881 -3.22862 4
      vertex -29.5712 22.2995 4
    endloop
  endfacet
  facet normal 0 0 1
    outer loop
      vertex -32.2546 17.7885 4
      vertex -37.881 -3.22862 4
      vertex -30.9555 20.1208 4
    endloop
  endfacet
  facet normal 0 0 1
    outer loop
      vertex -33.4541 15.3292 4
      vertex -37.881 -3.22862 4
      vertex -32.2546 17.7885 4
    endloop
  endfacet
  facet normal 0 0 1
    outer loop
      vertex -34.54 12.7691 4
      vertex -37.881 -3.22862 4
      vertex -33.4541 15.3292 4
    endloop
  endfacet
  facet normal 0 0 1
    outer loop
      vertex -35.4982 10.1346 4
      vertex -37.881 -3.22862 4
      vertex -34.54 12.7691 4
    endloop
  endfacet
  facet normal 0 0 1
    outer loop
      vertex -36.3147 7.45236 4
      vertex -37.881 -3.22862 4
      vertex -35.4982 10.1346 4
    endloop
  endfacet
  facet normal 0 0 1
    outer loop
      vertex -36.9753 4.74839 4
      vertex -37.881 -3.22862 4
      vertex -36.3147 7.45236 4
    endloop
  endfacet
  facet normal 0 0 1
    outer loop
      vertex -37.4658 2.0495 4
      vertex -37.881 -3.22862 4
      vertex -36.9753 4.74839 4
    endloop
  endfacet
  facet normal 0 0 1
    outer loop
      vertex -37.7723 -0.618349 4
      vertex -37.881 -3.22862 4
      vertex -37.4658 2.0495 4
    endloop
  endfacet
  facet normal 0 0 1
    outer loop
      vertex 29.5473 -31.0535 4
      vertex 29.5458 -26.0545 4
      vertex 19.4561 -25.9653 4
    endloop
  endfacet
  facet normal 0 0 1
    outer loop
      vertex 7.72724 37.618 4
      vertex -14.9355 16.5701 4
      vertex -12.6484 18.4977 4
    endloop
  endfacet
  facet normal 0 0 1
    outer loop
      vertex 7.72724 37.618 4
      vertex -37.881 -3.22862 4
      vertex -14.9355 16.5701 4
    endloop
  endfacet
  facet normal 0 0 1
    outer loop
      vertex 7.72724 37.618 4
      vertex 3.57293 37.9705 4
      vertex -37.881 -3.22862 4
    endloop
  endfacet
  facet normal -0.00635689 -0.99998 0
    outer loop
      vertex 21.2889 -40.9987 0
      vertex 29.5464 -41.0512 0
      vertex 29.5464 -41.0512 4
    endloop
  endfacet
  facet normal -0.00635689 -0.99998 0
    outer loop
      vertex 21.2889 -40.9987 4
      vertex 21.2889 -40.9987 0
      vertex 29.5464 -41.0512 4
    endloop
  endfacet
  facet normal -0.999135 0.0415901 0
    outer loop
      vertex -37.881 -3.22862 4
      vertex -37.7723 -0.618349 4
      vertex -37.881 -3.22862 0
    endloop
  endfacet
  facet normal -0.999135 0.0415901 0
    outer loop
      vertex -37.881 -3.22862 0
      vertex -37.7723 -0.618349 4
      vertex -37.7723 -0.618349 0
    endloop
  endfacet
  facet normal -0.999156 -0.041078 0
    outer loop
      vertex -37.7771 -5.75479 0
      vertex -37.7771 -5.75479 4
      vertex -37.881 -3.22862 0
    endloop
  endfacet
  facet normal -0.999156 -0.041078 0
    outer loop
      vertex -37.881 -3.22862 0
      vertex -37.7771 -5.75479 4
      vertex -37.881 -3.22862 4
    endloop
  endfacet
  facet normal -0.990788 -0.135423 0
    outer loop
      vertex -37.4469 -8.17062 0
      vertex -37.4469 -8.17062 4
      vertex -37.7771 -5.75479 0
    endloop
  endfacet
  facet normal -0.990788 -0.135423 0
    outer loop
      vertex -37.7771 -5.75479 0
      vertex -37.4469 -8.17062 4
      vertex -37.7771 -5.75479 4
    endloop
  endfacet
  facet normal -0.970086 -0.242762 0
    outer loop
      vertex -36.8766 -10.4498 0
      vertex -36.8766 -10.4498 4
      vertex -37.4469 -8.17062 0
    endloop
  endfacet
  facet normal -0.970086 -0.242762 0
    outer loop
      vertex -37.4469 -8.17062 0
      vertex -36.8766 -10.4498 4
      vertex -37.4469 -8.17062 4
    endloop
  endfacet
  facet normal -0.945938 -0.324346 0
    outer loop
      vertex -36.0322 -12.9125 0
      vertex -36.0322 -12.9125 4
      vertex -36.8766 -10.4498 0
    endloop
  endfacet
  facet normal -0.945938 -0.324346 0
    outer loop
      vertex -36.8766 -10.4498 0
      vertex -36.0322 -12.9125 4
      vertex -36.8766 -10.4498 4
    endloop
  endfacet
  facet normal -0.928254 -0.371948 0
    outer loop
      vertex -35.0898 -15.2643 0
      vertex -35.0898 -15.2643 4
      vertex -36.0322 -12.9125 0
    endloop
  endfacet
  facet normal -0.928254 -0.371948 0
    outer loop
      vertex -36.0322 -12.9125 0
      vertex -35.0898 -15.2643 4
      vertex -36.0322 -12.9125 4
    endloop
  endfacet
  facet normal -0.906873 -0.421403 0
    outer loop
      vertex -34.0484 -17.5054 0
      vertex -34.0484 -17.5054 4
      vertex -35.0898 -15.2643 0
    endloop
  endfacet
  facet normal -0.906873 -0.421403 0
    outer loop
      vertex -35.0898 -15.2643 0
      vertex -34.0484 -17.5054 4
      vertex -35.0898 -15.2643 4
    endloop
  endfacet
  facet normal -0.88166 -0.471884 0
    outer loop
      vertex -32.9077 -19.6367 0
      vertex -32.9077 -19.6367 4
      vertex -34.0484 -17.5054 0
    endloop
  endfacet
  facet normal -0.88166 -0.471884 0
    outer loop
      vertex -34.0484 -17.5054 0
      vertex -32.9077 -19.6367 4
      vertex -34.0484 -17.5054 4
    endloop
  endfacet
  facet normal -0.852307 -0.523042 0
    outer loop
      vertex -31.6667 -21.6589 0
      vertex -31.6667 -21.6589 4
      vertex -32.9077 -19.6367 0
    endloop
  endfacet
  facet normal -0.852307 -0.523042 0
    outer loop
      vertex -32.9077 -19.6367 0
      vertex -31.6667 -21.6589 4
      vertex -32.9077 -19.6367 4
    endloop
  endfacet
  facet normal -0.818818 -0.574054 0
    outer loop
      vertex -30.3251 -23.5726 0
      vertex -30.3251 -23.5726 4
      vertex -31.6667 -21.6589 0
    endloop
  endfacet
  facet normal -0.818818 -0.574054 0
    outer loop
      vertex -31.6667 -21.6589 0
      vertex -30.3251 -23.5726 4
      vertex -31.6667 -21.6589 4
    endloop
  endfacet
  facet normal -0.781226 -0.624248 0
    outer loop
      vertex -28.8818 -25.3788 0
      vertex -28.8818 -25.3788 4
      vertex -30.3251 -23.5726 0
    endloop
  endfacet
  facet normal -0.781226 -0.624248 0
    outer loop
      vertex -30.3251 -23.5726 0
      vertex -28.8818 -25.3788 4
      vertex -30.3251 -23.5726 4
    endloop
  endfacet
  facet normal -0.73979 -0.672838 0
    outer loop
      vertex -27.336 -27.0784 0
      vertex -27.336 -27.0784 4
      vertex -28.8818 -25.3788 0
    endloop
  endfacet
  facet normal -0.73979 -0.672838 0
    outer loop
      vertex -28.8818 -25.3788 0
      vertex -27.336 -27.0784 4
      vertex -28.8818 -25.3788 4
    endloop
  endfacet
  facet normal -0.694878 -0.719128 0
    outer loop
      vertex -27.336 -27.0784 0
      vertex -25.6873 -28.6715 0
      vertex -25.6873 -28.6715 4
    endloop
  endfacet
  facet normal -0.694878 -0.719128 0
    outer loop
      vertex -27.336 -27.0784 4
      vertex -27.336 -27.0784 0
      vertex -25.6873 -28.6715 4
    endloop
  endfacet
  facet normal -0.647174 -0.762342 0
    outer loop
      vertex -25.6873 -28.6715 0
      vertex -23.935 -30.1591 0
      vertex -23.935 -30.1591 4
    endloop
  endfacet
  facet normal -0.647174 -0.762342 0
    outer loop
      vertex -25.6873 -28.6715 4
      vertex -25.6873 -28.6715 0
      vertex -23.935 -30.1591 4
    endloop
  endfacet
  facet normal -0.597325 -0.802 0
    outer loop
      vertex -23.935 -30.1591 0
      vertex -22.0782 -31.542 0
      vertex -22.0782 -31.542 4
    endloop
  endfacet
  facet normal -0.597325 -0.802 0
    outer loop
      vertex -23.935 -30.1591 4
      vertex -23.935 -30.1591 0
      vertex -22.0782 -31.542 4
    endloop
  endfacet
  facet normal -0.546106 -0.837716 0
    outer loop
      vertex -22.0782 -31.542 0
      vertex -20.1162 -32.821 0
      vertex -20.1162 -32.821 4
    endloop
  endfacet
  facet normal -0.546106 -0.837716 0
    outer loop
      vertex -22.0782 -31.542 4
      vertex -22.0782 -31.542 0
      vertex -20.1162 -32.821 4
    endloop
  endfacet
  facet normal -0.494323 -0.869278 0
    outer loop
      vertex -20.1162 -32.821 0
      vertex -18.0487 -33.9968 0
      vertex -18.0487 -33.9968 4
    endloop
  endfacet
  facet normal -0.494323 -0.869278 0
    outer loop
      vertex -20.1162 -32.821 4
      vertex -20.1162 -32.821 0
      vertex -18.0487 -33.9968 4
    endloop
  endfacet
  facet normal -0.442552 -0.896743 0
    outer loop
      vertex -18.0487 -33.9968 0
      vertex -15.8744 -35.0698 0
      vertex -15.8744 -35.0698 4
    endloop
  endfacet
  facet normal -0.442552 -0.896743 0
    outer loop
      vertex -18.0487 -33.9968 4
      vertex -18.0487 -33.9968 0
      vertex -15.8744 -35.0698 4
    endloop
  endfacet
  facet normal -0.391652 -0.920114 0
    outer loop
      vertex -15.8744 -35.0698 0
      vertex -13.593 -36.0409 0
      vertex -13.593 -36.0409 4
    endloop
  endfacet
  facet normal -0.391652 -0.920114 0
    outer loop
      vertex -15.8744 -35.0698 4
      vertex -15.8744 -35.0698 0
      vertex -13.593 -36.0409 4
    endloop
  endfacet
  facet normal -0.34218 -0.939635 0
    outer loop
      vertex -13.593 -36.0409 0
      vertex -11.2037 -36.911 0
      vertex -11.2037 -36.911 4
    endloop
  endfacet
  facet normal -0.34218 -0.939635 0
    outer loop
      vertex -13.593 -36.0409 4
      vertex -13.593 -36.0409 0
      vertex -11.2037 -36.911 4
    endloop
  endfacet
  facet normal -0.296823 -0.954933 0
    outer loop
      vertex -11.2037 -36.911 0
      vertex -8.96281 -37.6075 0
      vertex -8.96281 -37.6075 4
    endloop
  endfacet
  facet normal -0.296823 -0.954933 0
    outer loop
      vertex -11.2037 -36.911 4
      vertex -11.2037 -36.911 0
      vertex -8.96281 -37.6075 4
    endloop
  endfacet
  facet normal -0.257258 -0.966343 0
    outer loop
      vertex -8.96281 -37.6075 0
      vertex -6.65282 -38.2225 0
      vertex -6.65282 -38.2225 4
    endloop
  endfacet
  facet normal -0.257258 -0.966343 0
    outer loop
      vertex -8.96281 -37.6075 4
      vertex -8.96281 -37.6075 0
      vertex -6.65282 -38.2225 4
    endloop
  endfacet
  facet normal -0.220815 -0.975316 0
    outer loop
      vertex -6.65282 -38.2225 0
      vertex -4.27567 -38.7607 0
      vertex -4.27567 -38.7607 4
    endloop
  endfacet
  facet normal -0.220815 -0.975316 0
    outer loop
      vertex -6.65282 -38.2225 4
      vertex -6.65282 -38.2225 0
      vertex -4.27567 -38.7607 4
    endloop
  endfacet
  facet normal -0.187545 -0.982256 0
    outer loop
      vertex -4.27567 -38.7607 0
      vertex -1.83529 -39.2266 0
      vertex -1.83529 -39.2266 4
    endloop
  endfacet
  facet normal -0.187545 -0.982256 0
    outer loop
      vertex -4.27567 -38.7607 4
      vertex -4.27567 -38.7607 0
      vertex -1.83529 -39.2266 4
    endloop
  endfacet
  facet normal -0.151147 -0.988511 0
    outer loop
      vertex -1.83529 -39.2266 0
      vertex 1.78054 -39.7795 0
      vertex 1.78054 -39.7795 4
    endloop
  endfacet
  facet normal -0.151147 -0.988511 0
    outer loop
      vertex -1.83529 -39.2266 4
      vertex -1.83529 -39.2266 0
      vertex 1.78054 -39.7795 4
    endloop
  endfacet
  facet normal -0.114444 -0.99343 0
    outer loop
      vertex 1.78054 -39.7795 0
      vertex 5.50672 -40.2088 0
      vertex 5.50672 -40.2088 4
    endloop
  endfacet
  facet normal -0.114444 -0.99343 0
    outer loop
      vertex 1.78054 -39.7795 4
      vertex 1.78054 -39.7795 0
      vertex 5.50672 -40.2088 4
    endloop
  endfacet
  facet normal -0.0837329 -0.996488 0
    outer loop
      vertex 5.50672 -40.2088 0
      vertex 9.33224 -40.5302 0
      vertex 9.33224 -40.5302 4
    endloop
  endfacet
  facet normal -0.0837329 -0.996488 0
    outer loop
      vertex 5.50672 -40.2088 4
      vertex 5.50672 -40.2088 0
      vertex 9.33224 -40.5302 4
    endloop
  endfacet
  facet normal 1 0.000282279 0
    outer loop
      vertex 29.545 -36.0522 0
      vertex 29.545 -36.0522 4
      vertex 29.5464 -41.0512 4
    endloop
  endfacet
  facet normal 1 0.000282279 0
    outer loop
      vertex 29.5464 -41.0512 0
      vertex 29.545 -36.0522 0
      vertex 29.5464 -41.0512 4
    endloop
  endfacet
  facet normal 0.0010591 -0.999999 0
    outer loop
      vertex 29.545 -36.0522 0
      vertex 33.5421 -36.048 0
      vertex 33.5421 -36.048 4
    endloop
  endfacet
  facet normal 0.0010591 -0.999999 0
    outer loop
      vertex 29.545 -36.0522 4
      vertex 29.545 -36.0522 0
      vertex 33.5421 -36.048 4
    endloop
  endfacet
  facet normal 1 0.000903342 0
    outer loop
      vertex 33.5376 -31.0492 0
      vertex 33.5376 -31.0492 4
      vertex 33.5421 -36.048 4
    endloop
  endfacet
  facet normal 1 0.000903342 0
    outer loop
      vertex 33.5421 -36.048 0
      vertex 33.5376 -31.0492 0
      vertex 33.5421 -36.048 4
    endloop
  endfacet
  facet normal -0.00106089 0.999999 0
    outer loop
      vertex 29.5473 -31.0535 4
      vertex 33.5376 -31.0492 4
      vertex 29.5473 -31.0535 0
    endloop
  endfacet
  facet normal -0.00106089 0.999999 0
    outer loop
      vertex 29.5473 -31.0535 0
      vertex 33.5376 -31.0492 4
      vertex 33.5376 -31.0492 0
    endloop
  endfacet
  facet normal 1 0.000282279 0
    outer loop
      vertex 29.5458 -26.0545 0
      vertex 29.5458 -26.0545 4
      vertex 29.5473 -31.0535 4
    endloop
  endfacet
  facet normal 1 0.000282279 0
    outer loop
      vertex 29.5473 -31.0535 0
      vertex 29.5458 -26.0545 0
      vertex 29.5473 -31.0535 4
    endloop
  endfacet
  facet normal 0.00883857 0.999961 0
    outer loop
      vertex 19.4561 -25.9653 4
      vertex 29.5458 -26.0545 4
      vertex 19.4561 -25.9653 0
    endloop
  endfacet
  facet normal 0.00883857 0.999961 0
    outer loop
      vertex 19.4561 -25.9653 0
      vertex 29.5458 -26.0545 4
      vertex 29.5458 -26.0545 0
    endloop
  endfacet
  facet normal 0.0321908 0.999482 0
    outer loop
      vertex 14.5929 -25.8087 4
      vertex 19.4561 -25.9653 4
      vertex 14.5929 -25.8087 0
    endloop
  endfacet
  facet normal 0.0321908 0.999482 0
    outer loop
      vertex 14.5929 -25.8087 0
      vertex 19.4561 -25.9653 4
      vertex 19.4561 -25.9653 0
    endloop
  endfacet
  facet normal 0.0578175 0.998327 0
    outer loop
      vertex 9.90007 -25.5369 4
      vertex 14.5929 -25.8087 4
      vertex 9.90007 -25.5369 0
    endloop
  endfacet
  facet normal 0.0578175 0.998327 0
    outer loop
      vertex 9.90007 -25.5369 0
      vertex 14.5929 -25.8087 4
      vertex 14.5929 -25.8087 0
    endloop
  endfacet
  facet normal 0.0925858 0.995705 0
    outer loop
      vertex 5.41415 -25.1198 4
      vertex 9.90007 -25.5369 4
      vertex 5.41415 -25.1198 0
    endloop
  endfacet
  facet normal 0.0925858 0.995705 0
    outer loop
      vertex 5.41415 -25.1198 0
      vertex 9.90007 -25.5369 4
      vertex 9.90007 -25.5369 0
    endloop
  endfacet
  facet normal 0.138385 0.990378 0
    outer loop
      vertex 1.17263 -24.5271 4
      vertex 5.41415 -25.1198 4
      vertex 1.17263 -24.5271 0
    endloop
  endfacet
  facet normal 0.138385 0.990378 0
    outer loop
      vertex 1.17263 -24.5271 0
      vertex 5.41415 -25.1198 4
      vertex 5.41415 -25.1198 0
    endloop
  endfacet
  facet normal 0.197755 0.980252 0
    outer loop
      vertex -2.78779 -23.7281 4
      vertex 1.17263 -24.5271 4
      vertex -2.78779 -23.7281 0
    endloop
  endfacet
  facet normal 0.197755 0.980252 0
    outer loop
      vertex -2.78779 -23.7281 0
      vertex 1.17263 -24.5271 4
      vertex 1.17263 -24.5271 0
    endloop
  endfacet
  facet normal 0.252386 0.967627 0
    outer loop
      vertex -4.65102 -23.2421 4
      vertex -2.78779 -23.7281 4
      vertex -4.65102 -23.2421 0
    endloop
  endfacet
  facet normal 0.252386 0.967627 0
    outer loop
      vertex -4.65102 -23.2421 0
      vertex -2.78779 -23.7281 4
      vertex -2.78779 -23.7281 0
    endloop
  endfacet
  facet normal 0.294959 0.95551 0
    outer loop
      vertex -6.43015 -22.6929 4
      vertex -4.65102 -23.2421 4
      vertex -6.43015 -22.6929 0
    endloop
  endfacet
  facet normal 0.294959 0.95551 0
    outer loop
      vertex -6.43015 -22.6929 0
      vertex -4.65102 -23.2421 4
      vertex -4.65102 -23.2421 0
    endloop
  endfacet
  facet normal 0.362635 0.931931 0
    outer loop
      vertex -9.45021 -21.5178 4
      vertex -6.43015 -22.6929 4
      vertex -9.45021 -21.5178 0
    endloop
  endfacet
  facet normal 0.362635 0.931931 0
    outer loop
      vertex -9.45021 -21.5178 0
      vertex -6.43015 -22.6929 4
      vertex -6.43015 -22.6929 0
    endloop
  endfacet
  facet normal 0.434857 0.9005 0
    outer loop
      vertex -10.8371 -20.848 4
      vertex -9.45021 -21.5178 4
      vertex -10.8371 -20.848 0
    endloop
  endfacet
  facet normal 0.434857 0.9005 0
    outer loop
      vertex -10.8371 -20.848 0
      vertex -9.45021 -21.5178 4
      vertex -9.45021 -21.5178 0
    endloop
  endfacet
  facet normal 0.486219 0.873837 0
    outer loop
      vertex -12.1452 -20.1202 4
      vertex -10.8371 -20.848 4
      vertex -12.1452 -20.1202 0
    endloop
  endfacet
  facet normal 0.486219 0.873837 0
    outer loop
      vertex -12.1452 -20.1202 0
      vertex -10.8371 -20.848 4
      vertex -10.8371 -20.848 0
    endloop
  endfacet
  facet normal 0.539059 0.842268 0
    outer loop
      vertex -13.3768 -19.3319 4
      vertex -12.1452 -20.1202 4
      vertex -13.3768 -19.3319 0
    endloop
  endfacet
  facet normal 0.539059 0.842268 0
    outer loop
      vertex -13.3768 -19.3319 0
      vertex -12.1452 -20.1202 4
      vertex -12.1452 -20.1202 0
    endloop
  endfacet
  facet normal 0.592717 0.805411 0
    outer loop
      vertex -14.5342 -18.4802 4
      vertex -13.3768 -19.3319 4
      vertex -14.5342 -18.4802 0
    endloop
  endfacet
  facet normal 0.592717 0.805411 0
    outer loop
      vertex -14.5342 -18.4802 0
      vertex -13.3768 -19.3319 4
      vertex -13.3768 -19.3319 0
    endloop
  endfacet
  facet normal 0.645248 0.763973 0
    outer loop
      vertex -15.6202 -17.563 4
      vertex -14.5342 -18.4802 4
      vertex -15.6202 -17.563 0
    endloop
  endfacet
  facet normal 0.645248 0.763973 0
    outer loop
      vertex -15.6202 -17.563 0
      vertex -14.5342 -18.4802 4
      vertex -14.5342 -18.4802 0
    endloop
  endfacet
  facet normal 0.695959 0.718081 0
    outer loop
      vertex -16.637 -16.5775 4
      vertex -15.6202 -17.563 4
      vertex -16.637 -16.5775 0
    endloop
  endfacet
  facet normal 0.695959 0.718081 0
    outer loop
      vertex -16.637 -16.5775 0
      vertex -15.6202 -17.563 4
      vertex -15.6202 -17.563 0
    endloop
  endfacet
  facet normal 0.743561 0.668668 0
    outer loop
      vertex -17.587 -15.5211 0
      vertex -17.587 -15.5211 4
      vertex -16.637 -16.5775 4
    endloop
  endfacet
  facet normal 0.743561 0.668668 0
    outer loop
      vertex -16.637 -16.5775 0
      vertex -17.587 -15.5211 0
      vertex -16.637 -16.5775 4
    endloop
  endfacet
  facet normal 0.786932 0.61704 0
    outer loop
      vertex -18.4726 -14.3916 0
      vertex -18.4726 -14.3916 4
      vertex -17.587 -15.5211 4
    endloop
  endfacet
  facet normal 0.786932 0.61704 0
    outer loop
      vertex -17.587 -15.5211 0
      vertex -18.4726 -14.3916 0
      vertex -17.587 -15.5211 4
    endloop
  endfacet
  facet normal 0.825663 0.564164 0
    outer loop
      vertex -19.2964 -13.186 0
      vertex -19.2964 -13.186 4
      vertex -18.4726 -14.3916 4
    endloop
  endfacet
  facet normal 0.825663 0.564164 0
    outer loop
      vertex -18.4726 -14.3916 0
      vertex -19.2964 -13.186 0
      vertex -18.4726 -14.3916 4
    endloop
  endfacet
  facet normal 0.859188 0.51166 0
    outer loop
      vertex -20.0609 -11.9022 0
      vertex -20.0609 -11.9022 4
      vertex -19.2964 -13.186 4
    endloop
  endfacet
  facet normal 0.859188 0.51166 0
    outer loop
      vertex -19.2964 -13.186 0
      vertex -20.0609 -11.9022 0
      vertex -19.2964 -13.186 4
    endloop
  endfacet
  facet normal 0.88791 0.460017 0
    outer loop
      vertex -20.7682 -10.537 0
      vertex -20.7682 -10.537 4
      vertex -20.0609 -11.9022 4
    endloop
  endfacet
  facet normal 0.88791 0.460017 0
    outer loop
      vertex -20.0609 -11.9022 0
      vertex -20.7682 -10.537 0
      vertex -20.0609 -11.9022 4
    endloop
  endfacet
  facet normal 0.911682 0.410896 0
    outer loop
      vertex -21.4209 -9.08868 0
      vertex -21.4209 -9.08868 4
      vertex -20.7682 -10.537 4
    endloop
  endfacet
  facet normal 0.911682 0.410896 0
    outer loop
      vertex -20.7682 -10.537 0
      vertex -21.4209 -9.08868 0
      vertex -20.7682 -10.537 4
    endloop
  endfacet
  facet normal 0.939479 0.342606 0
    outer loop
      vertex -22.5724 -5.93118 0
      vertex -22.5724 -5.93118 4
      vertex -21.4209 -9.08868 4
    endloop
  endfacet
  facet normal 0.939479 0.342606 0
    outer loop
      vertex -21.4209 -9.08868 0
      vertex -22.5724 -5.93118 0
      vertex -21.4209 -9.08868 4
    endloop
  endfacet
  facet normal 0.976137 0.217155 0
    outer loop
      vertex -22.8038 -4.89091 0
      vertex -22.8038 -4.89091 4
      vertex -22.5724 -5.93118 4
    endloop
  endfacet
  facet normal 0.976137 0.217155 0
    outer loop
      vertex -22.5724 -5.93118 0
      vertex -22.8038 -4.89091 0
      vertex -22.5724 -5.93118 4
    endloop
  endfacet
  facet normal 0.996683 0.081381 0
    outer loop
      vertex -22.9021 -3.68808 0
      vertex -22.9021 -3.68808 4
      vertex -22.8038 -4.89091 4
    endloop
  endfacet
  facet normal 0.996683 0.081381 0
    outer loop
      vertex -22.8038 -4.89091 0
      vertex -22.9021 -3.68808 0
      vertex -22.8038 -4.89091 4
    endloop
  endfacet
  facet normal 0.999804 -0.0197856 0
    outer loop
      vertex -22.9021 -3.68808 0
      vertex -22.8755 -2.34752 0
      vertex -22.8755 -2.34752 4
    endloop
  endfacet
  facet normal 0.999804 -0.0197856 0
    outer loop
      vertex -22.9021 -3.68808 4
      vertex -22.9021 -3.68808 0
      vertex -22.8755 -2.34752 4
    endloop
  endfacet
  facet normal 0.995196 -0.0978977 0
    outer loop
      vertex -22.8755 -2.34752 0
      vertex -22.7324 -0.892951 0
      vertex -22.7324 -0.892951 4
    endloop
  endfacet
  facet normal 0.995196 -0.0978977 0
    outer loop
      vertex -22.8755 -2.34752 4
      vertex -22.8755 -2.34752 0
      vertex -22.7324 -0.892951 4
    endloop
  endfacet
  facet normal 0.987021 -0.160594 0
    outer loop
      vertex -22.7324 -0.892951 0
      vertex -22.4813 0.650804 0
      vertex -22.4813 0.650804 4
    endloop
  endfacet
  facet normal 0.987021 -0.160594 0
    outer loop
      vertex -22.7324 -0.892951 4
      vertex -22.7324 -0.892951 0
      vertex -22.4813 0.650804 4
    endloop
  endfacet
  facet normal 0.977011 -0.213191 0
    outer loop
      vertex -22.4813 0.650804 0
      vertex -22.1302 2.25975 0
      vertex -22.1302 2.25975 4
    endloop
  endfacet
  facet normal 0.977011 -0.213191 0
    outer loop
      vertex -22.4813 0.650804 4
      vertex -22.4813 0.650804 0
      vertex -22.1302 2.25975 4
    endloop
  endfacet
  facet normal 0.959807 -0.280662 0
    outer loop
      vertex -22.1302 2.25975 0
      vertex -21.1607 5.57502 0
      vertex -21.1607 5.57502 4
    endloop
  endfacet
  facet normal 0.959807 -0.280662 0
    outer loop
      vertex -22.1302 2.25975 4
      vertex -22.1302 2.25975 0
      vertex -21.1607 5.57502 4
    endloop
  endfacet
  facet normal 0.932646 -0.360794 0
    outer loop
      vertex -21.1607 5.57502 0
      vertex -19.8905 8.85867 0
      vertex -19.8905 8.85867 4
    endloop
  endfacet
  facet normal 0.932646 -0.360794 0
    outer loop
      vertex -21.1607 5.57502 4
      vertex -21.1607 5.57502 0
      vertex -19.8905 8.85867 4
    endloop
  endfacet
  facet normal 0.897144 -0.441738 0
    outer loop
      vertex -19.8905 8.85867 0
      vertex -18.3854 11.9154 0
      vertex -18.3854 11.9154 4
    endloop
  endfacet
  facet normal 0.897144 -0.441738 0
    outer loop
      vertex -19.8905 8.85867 4
      vertex -19.8905 8.85867 0
      vertex -18.3854 11.9154 4
    endloop
  endfacet
  facet normal 0.860146 -0.510048 0
    outer loop
      vertex -18.3854 11.9154 0
      vertex -17.5655 13.298 0
      vertex -17.5655 13.298 4
    endloop
  endfacet
  facet normal 0.860146 -0.510048 0
    outer loop
      vertex -18.3854 11.9154 4
      vertex -18.3854 11.9154 0
      vertex -17.5655 13.298 4
    endloop
  endfacet
  facet normal 0.826365 -0.563135 0
    outer loop
      vertex -17.5655 13.298 0
      vertex -16.7118 14.5508 0
      vertex -16.7118 14.5508 4
    endloop
  endfacet
  facet normal 0.826365 -0.563135 0
    outer loop
      vertex -17.5655 13.298 4
      vertex -17.5655 13.298 0
      vertex -16.7118 14.5508 4
    endloop
  endfacet
  facet normal 0.780791 -0.624793 0
    outer loop
      vertex -16.7118 14.5508 0
      vertex -15.8324 15.6498 0
      vertex -15.8324 15.6498 4
    endloop
  endfacet
  facet normal 0.780791 -0.624793 0
    outer loop
      vertex -16.7118 14.5508 4
      vertex -16.7118 14.5508 0
      vertex -15.8324 15.6498 4
    endloop
  endfacet
  facet normal 0.716162 -0.697934 0
    outer loop
      vertex -15.8324 15.6498 0
      vertex -14.9355 16.5701 0
      vertex -14.9355 16.5701 4
    endloop
  endfacet
  facet normal 0.716162 -0.697934 0
    outer loop
      vertex -15.8324 15.6498 4
      vertex -15.8324 15.6498 0
      vertex -14.9355 16.5701 4
    endloop
  endfacet
  facet normal 0.644444 -0.764652 0
    outer loop
      vertex -14.9355 16.5701 0
      vertex -12.6484 18.4977 0
      vertex -12.6484 18.4977 4
    endloop
  endfacet
  facet normal 0.644444 -0.764652 0
    outer loop
      vertex -14.9355 16.5701 4
      vertex -14.9355 16.5701 0
      vertex -12.6484 18.4977 4
    endloop
  endfacet
  facet normal 0.568909 -0.822401 0
    outer loop
      vertex -12.6484 18.4977 0
      vertex -10.4033 20.0508 0
      vertex -10.4033 20.0508 4
    endloop
  endfacet
  facet normal 0.568909 -0.822401 0
    outer loop
      vertex -12.6484 18.4977 4
      vertex -12.6484 18.4977 0
      vertex -10.4033 20.0508 4
    endloop
  endfacet
  facet normal 0.47017 -0.882576 0
    outer loop
      vertex -10.4033 20.0508 0
      vertex -8.14804 21.2522 0
      vertex -8.14804 21.2522 4
    endloop
  endfacet
  facet normal 0.47017 -0.882576 0
    outer loop
      vertex -10.4033 20.0508 4
      vertex -10.4033 20.0508 0
      vertex -8.14804 21.2522 4
    endloop
  endfacet
  facet normal 0.352147 -0.935945 0
    outer loop
      vertex -8.14804 21.2522 0
      vertex -5.82874 22.1248 0
      vertex -5.82874 22.1248 4
    endloop
  endfacet
  facet normal 0.352147 -0.935945 0
    outer loop
      vertex -8.14804 21.2522 4
      vertex -8.14804 21.2522 0
      vertex -5.82874 22.1248 4
    endloop
  endfacet
  facet normal 0.227026 -0.973889 0
    outer loop
      vertex -5.82874 22.1248 0
      vertex -3.39288 22.6926 0
      vertex -3.39288 22.6926 4
    endloop
  endfacet
  facet normal 0.227026 -0.973889 0
    outer loop
      vertex -5.82874 22.1248 4
      vertex -5.82874 22.1248 0
      vertex -3.39288 22.6926 4
    endloop
  endfacet
  facet normal 0.10886 -0.994057 0
    outer loop
      vertex -3.39288 22.6926 0
      vertex -0.7874 22.978 0
      vertex -0.7874 22.978 4
    endloop
  endfacet
  facet normal 0.10886 -0.994057 0
    outer loop
      vertex -3.39288 22.6926 4
      vertex -3.39288 22.6926 0
      vertex -0.7874 22.978 4
    endloop
  endfacet
  facet normal 0.00937802 -0.999956 0
    outer loop
      vertex -0.7874 22.978 0
      vertex 2.04131 23.0045 0
      vertex 2.04131 23.0045 4
    endloop
  endfacet
  facet normal 0.00937802 -0.999956 0
    outer loop
      vertex -0.7874 22.978 4
      vertex -0.7874 22.978 0
      vertex 2.04131 23.0045 4
    endloop
  endfacet
  facet normal -0.0672174 -0.997738 0
    outer loop
      vertex 2.04131 23.0045 0
      vertex 5.14548 22.7954 0
      vertex 5.14548 22.7954 4
    endloop
  endfacet
  facet normal -0.0672174 -0.997738 0
    outer loop
      vertex 2.04131 23.0045 4
      vertex 2.04131 23.0045 0
      vertex 5.14548 22.7954 4
    endloop
  endfacet
  facet normal -0.985113 0.171908 0
    outer loop
      vertex 3.17387 11.4972 4
      vertex 5.14548 22.7954 4
      vertex 3.17387 11.4972 0
    endloop
  endfacet
  facet normal -0.985113 0.171908 0
    outer loop
      vertex 3.17387 11.4972 0
      vertex 5.14548 22.7954 4
      vertex 5.14548 22.7954 0
    endloop
  endfacet
  facet normal -0.171871 -0.98512 0
    outer loop
      vertex 3.17387 11.4972 0
      vertex 32.7279 6.34097 0
      vertex 32.7279 6.34097 4
    endloop
  endfacet
  facet normal -0.171871 -0.98512 0
    outer loop
      vertex 3.17387 11.4972 4
      vertex 3.17387 11.4972 0
      vertex 32.7279 6.34097 4
    endloop
  endfacet
  facet normal 0.98514 -0.171754 0
    outer loop
      vertex 32.7279 6.34097 0
      vertex 37.881 35.8978 0
      vertex 37.881 35.8978 4
    endloop
  endfacet
  facet normal 0.98514 -0.171754 0
    outer loop
      vertex 32.7279 6.34097 4
      vertex 32.7279 6.34097 0
      vertex 37.881 35.8978 4
    endloop
  endfacet
  facet normal 0.171779 0.985135 0
    outer loop
      vertex 8.32697 41.0512 4
      vertex 37.881 35.8978 4
      vertex 8.32697 41.0512 0
    endloop
  endfacet
  facet normal 0.171779 0.985135 0
    outer loop
      vertex 8.32697 41.0512 0
      vertex 37.881 35.8978 4
      vertex 37.881 35.8978 0
    endloop
  endfacet
  facet normal -0.985084 0.172076 0
    outer loop
      vertex 7.72724 37.618 4
      vertex 8.32697 41.0512 4
      vertex 7.72724 37.618 0
    endloop
  endfacet
  facet normal -0.985084 0.172076 0
    outer loop
      vertex 7.72724 37.618 0
      vertex 8.32697 41.0512 4
      vertex 8.32697 41.0512 0
    endloop
  endfacet
  facet normal 0.0845467 0.99642 0
    outer loop
      vertex 3.57293 37.9705 4
      vertex 7.72724 37.618 4
      vertex 3.57293 37.9705 0
    endloop
  endfacet
  facet normal 0.0845467 0.99642 0
    outer loop
      vertex 3.57293 37.9705 0
      vertex 7.72724 37.618 4
      vertex 7.72724 37.618 0
    endloop
  endfacet
  facet normal 0.0330048 0.999455 0
    outer loop
      vertex 1.51328 38.0385 4
      vertex 3.57293 37.9705 4
      vertex 1.51328 38.0385 0
    endloop
  endfacet
  facet normal 0.0330048 0.999455 0
    outer loop
      vertex 1.51328 38.0385 0
      vertex 3.57293 37.9705 4
      vertex 3.57293 37.9705 0
    endloop
  endfacet
  facet normal -0.00825849 0.999966 0
    outer loop
      vertex -0.537069 38.0215 4
      vertex 1.51328 38.0385 4
      vertex -0.537069 38.0215 0
    endloop
  endfacet
  facet normal -0.00825849 0.999966 0
    outer loop
      vertex -0.537069 38.0215 0
      vertex 1.51328 38.0385 4
      vertex 1.51328 38.0385 0
    endloop
  endfacet
  facet normal -0.0546295 0.998507 0
    outer loop
      vertex -2.57979 37.9098 4
      vertex -0.537069 38.0215 4
      vertex -2.57979 37.9098 0
    endloop
  endfacet
  facet normal -0.0546295 0.998507 0
    outer loop
      vertex -2.57979 37.9098 0
      vertex -0.537069 38.0215 4
      vertex -0.537069 38.0215 0
    endloop
  endfacet
  facet normal -0.105545 0.994414 0
    outer loop
      vertex -4.61659 37.6936 4
      vertex -2.57979 37.9098 4
      vertex -4.61659 37.6936 0
    endloop
  endfacet
  facet normal -0.105545 0.994414 0
    outer loop
      vertex -4.61659 37.6936 0
      vertex -2.57979 37.9098 4
      vertex -2.57979 37.9098 0
    endloop
  endfacet
  facet normal -0.160464 0.987042 0
    outer loop
      vertex -6.64944 37.3631 4
      vertex -4.61659 37.6936 4
      vertex -6.64944 37.3631 0
    endloop
  endfacet
  facet normal -0.160464 0.987042 0
    outer loop
      vertex -6.64944 37.3631 0
      vertex -4.61659 37.6936 4
      vertex -4.61659 37.6936 0
    endloop
  endfacet
  facet normal -0.218266 0.975889 0
    outer loop
      vertex -8.67974 36.909 4
      vertex -6.64944 37.3631 4
      vertex -8.67974 36.909 0
    endloop
  endfacet
  facet normal -0.218266 0.975889 0
    outer loop
      vertex -8.67974 36.909 0
      vertex -6.64944 37.3631 4
      vertex -6.64944 37.3631 0
    endloop
  endfacet
  facet normal -0.278159 0.960535 0
    outer loop
      vertex -10.7098 36.3212 4
      vertex -8.67974 36.909 4
      vertex -10.7098 36.3212 0
    endloop
  endfacet
  facet normal -0.278159 0.960535 0
    outer loop
      vertex -10.7098 36.3212 0
      vertex -8.67974 36.909 4
      vertex -8.67974 36.909 0
    endloop
  endfacet
  facet normal -0.33877 0.940869 0
    outer loop
      vertex -12.7406 35.5899 4
      vertex -10.7098 36.3212 4
      vertex -12.7406 35.5899 0
    endloop
  endfacet
  facet normal -0.33877 0.940869 0
    outer loop
      vertex -12.7406 35.5899 0
      vertex -10.7098 36.3212 4
      vertex -10.7098 36.3212 0
    endloop
  endfacet
  facet normal -0.398614 0.917119 0
    outer loop
      vertex -14.7743 34.706 4
      vertex -12.7406 35.5899 4
      vertex -14.7743 34.706 0
    endloop
  endfacet
  facet normal -0.398614 0.917119 0
    outer loop
      vertex -14.7743 34.706 0
      vertex -12.7406 35.5899 4
      vertex -12.7406 35.5899 0
    endloop
  endfacet
  facet normal -0.456844 0.889547 0
    outer loop
      vertex -16.8125 33.6592 4
      vertex -14.7743 34.706 4
      vertex -16.8125 33.6592 0
    endloop
  endfacet
  facet normal -0.456844 0.889547 0
    outer loop
      vertex -16.8125 33.6592 0
      vertex -14.7743 34.706 4
      vertex -14.7743 34.706 0
    endloop
  endfacet
  facet normal -0.51214 0.858902 0
    outer loop
      vertex -18.8572 32.44 4
      vertex -16.8125 33.6592 4
      vertex -18.8572 32.44 0
    endloop
  endfacet
  facet normal -0.51214 0.858902 0
    outer loop
      vertex -18.8572 32.44 0
      vertex -16.8125 33.6592 4
      vertex -16.8125 33.6592 0
    endloop
  endfacet
  facet normal -0.56376 0.825939 0
    outer loop
      vertex -20.9101 31.0388 4
      vertex -18.8572 32.44 4
      vertex -20.9101 31.0388 0
    endloop
  endfacet
  facet normal -0.56376 0.825939 0
    outer loop
      vertex -20.9101 31.0388 0
      vertex -18.8572 32.44 4
      vertex -18.8572 32.44 0
    endloop
  endfacet
  facet normal -0.611306 0.791395 0
    outer loop
      vertex -22.9726 29.4457 4
      vertex -20.9101 31.0388 4
      vertex -22.9726 29.4457 0
    endloop
  endfacet
  facet normal -0.611306 0.791395 0
    outer loop
      vertex -22.9726 29.4457 0
      vertex -20.9101 31.0388 4
      vertex -20.9101 31.0388 0
    endloop
  endfacet
  facet normal -0.654276 0.756256 0
    outer loop
      vertex -25.0467 27.6513 4
      vertex -22.9726 29.4457 4
      vertex -25.0467 27.6513 0
    endloop
  endfacet
  facet normal -0.654276 0.756256 0
    outer loop
      vertex -25.0467 27.6513 0
      vertex -22.9726 29.4457 4
      vertex -22.9726 29.4457 0
    endloop
  endfacet
  facet normal -0.708067 0.706145 0
    outer loop
      vertex -26.6025 26.0912 4
      vertex -25.0467 27.6513 4
      vertex -26.6025 26.0912 0
    endloop
  endfacet
  facet normal -0.708067 0.706145 0
    outer loop
      vertex -26.6025 26.0912 0
      vertex -25.0467 27.6513 4
      vertex -25.0467 27.6513 0
    endloop
  endfacet
  facet normal -0.764203 0.644976 0
    outer loop
      vertex -28.1155 24.2985 4
      vertex -26.6025 26.0912 4
      vertex -28.1155 24.2985 0
    endloop
  endfacet
  facet normal -0.764203 0.644976 0
    outer loop
      vertex -28.1155 24.2985 0
      vertex -26.6025 26.0912 4
      vertex -26.6025 26.0912 0
    endloop
  endfacet
  facet normal -0.808371 0.588674 0
    outer loop
      vertex -29.5712 22.2995 4
      vertex -28.1155 24.2985 4
      vertex -29.5712 22.2995 0
    endloop
  endfacet
  facet normal -0.808371 0.588674 0
    outer loop
      vertex -29.5712 22.2995 0
      vertex -28.1155 24.2985 4
      vertex -28.1155 24.2985 0
    endloop
  endfacet
  facet normal -0.844044 0.536274 0
    outer loop
      vertex -30.9555 20.1208 4
      vertex -29.5712 22.2995 4
      vertex -30.9555 20.1208 0
    endloop
  endfacet
  facet normal -0.844044 0.536274 0
    outer loop
      vertex -30.9555 20.1208 0
      vertex -29.5712 22.2995 4
      vertex -29.5712 22.2995 0
    endloop
  endfacet
  facet normal -0.873623 0.486603 0
    outer loop
      vertex -32.2546 17.7885 4
      vertex -30.9555 20.1208 4
      vertex -32.2546 17.7885 0
    endloop
  endfacet
  facet normal -0.873623 0.486603 0
    outer loop
      vertex -32.2546 17.7885 0
      vertex -30.9555 20.1208 4
      vertex -30.9555 20.1208 0
    endloop
  endfacet
  facet normal -0.898798 0.438363 0
    outer loop
      vertex -33.4541 15.3292 4
      vertex -32.2546 17.7885 4
      vertex -33.4541 15.3292 0
    endloop
  endfacet
  facet normal -0.898798 0.438363 0
    outer loop
      vertex -33.4541 15.3292 0
      vertex -32.2546 17.7885 4
      vertex -32.2546 17.7885 0
    endloop
  endfacet
  facet normal -0.920593 0.390524 0
    outer loop
      vertex -34.54 12.7691 4
      vertex -33.4541 15.3292 4
      vertex -34.54 12.7691 0
    endloop
  endfacet
  facet normal -0.920593 0.390524 0
    outer loop
      vertex -34.54 12.7691 0
      vertex -33.4541 15.3292 4
      vertex -33.4541 15.3292 0
    endloop
  endfacet
  facet normal -0.939779 0.341783 0
    outer loop
      vertex -35.4982 10.1346 4
      vertex -34.54 12.7691 4
      vertex -35.4982 10.1346 0
    endloop
  endfacet
  facet normal -0.939779 0.341783 0
    outer loop
      vertex -35.4982 10.1346 0
      vertex -34.54 12.7691 4
      vertex -34.54 12.7691 0
    endloop
  endfacet
  facet normal -0.95666 0.291206 0
    outer loop
      vertex -36.3147 7.45236 4
      vertex -35.4982 10.1346 4
      vertex -36.3147 7.45236 0
    endloop
  endfacet
  facet normal -0.95666 0.291206 0
    outer loop
      vertex -36.3147 7.45236 0
      vertex -35.4982 10.1346 4
      vertex -35.4982 10.1346 0
    endloop
  endfacet
  facet normal -0.971423 0.237355 0
    outer loop
      vertex -36.9753 4.74839 4
      vertex -36.3147 7.45236 4
      vertex -36.9753 4.74839 0
    endloop
  endfacet
  facet normal -0.971423 0.237355 0
    outer loop
      vertex -36.9753 4.74839 0
      vertex -36.3147 7.45236 4
      vertex -36.3147 7.45236 0
    endloop
  endfacet
  facet normal -0.983883 0.178813 0
    outer loop
      vertex -37.4658 2.0495 4
      vertex -36.9753 4.74839 4
      vertex -37.4658 2.0495 0
    endloop
  endfacet
  facet normal -0.983883 0.178813 0
    outer loop
      vertex -37.4658 2.0495 0
      vertex -36.9753 4.74839 4
      vertex -36.9753 4.74839 0
    endloop
  endfacet
  facet normal -0.993465 0.114133 0
    outer loop
      vertex -37.7723 -0.618349 4
      vertex -37.4658 2.0495 4
      vertex -37.7723 -0.618349 0
    endloop
  endfacet
  facet normal -0.993465 0.114133 0
    outer loop
      vertex -37.7723 -0.618349 0
      vertex -37.4658 2.0495 4
      vertex -37.4658 2.0495 0
    endloop
  endfacet
endsolid OpenSCAD_Model
