<?xml version="1.0" encoding="UTF-8" standalone="no"?>
<svg width="717.82" xmlns="http://www.w3.org/2000/svg" xmlns:xlink="http://www.w3.org/1999/xlink" height="1032.9">
 <g id="layer1" fill="#422105" stroke="#351a02" fill-rule="evenodd">
  <path id="path2316-4" d="m454.74 130.48c3.409-0.4738 5.9152 0.39932 8.0244 1.922v0.000015c1.1618 0.74153 2.1259 1.7531 2.9816 2.8668 0.85571 1.1137 1.6021 2.3327 2.2216 3.5653 1.2389 2.4652 1.9386 5.0249 1.5202 7.0235-0.25153 1.2015 0.20074 2.0089 0.59805 2.4659 0.95557 0.45683 2.1617 0.75667 3.588 0.82326 1.4263 0.066605 3.0742-0.1037 4.885-0.5941 1.9582-0.53806 4.1566-1.7839 6.3121-3.9822v-0.000015c2.0419-2.2524 3.4194-5.1422 3.9587-8.2706 0.095428-0.46585 0.17728-0.92894 0.24616-1.3872 0.42621-8.0882-2.2488-16.042-7.7169-22.175-7.74-7.723-17.458-10.912-26.248-10.559-10.732 0.072182-20.989 4.6678-28.455 12.763v0.000015c-6.3978 6.7536-10.664 16.054-11.285 26.459-0.009918 0.43454-0.013916 0.86764-0.012177 1.2993 0.025726 5.3692 0.92459 10.621 2.6053 15.556 1.6808 4.9351 4.1434 9.5538 7.2452 13.624 2.862 3.9875 6.3699 7.6421 10.467 10.707 4.0968 3.0652 8.7828 5.5408 13.976 7.1346 5.3381 1.4984 10.853 2.0184 16.313 1.579 5.4598-0.43939 10.864-1.8381 15.946-4.153 9.6474-4.3336 18.169-11.718 24.019-21.415 5.8758-9.8794 8.8827-21.488 8.6718-33.188-0.172-11.327-3.3324-22.692-9.4199-32.417-7.7992-12.238-19.515-21.219-32.614-25.777-12.911-4.5339-27.068-4.9893-40.208-1.0871-9.6377 2.8817-18.531 8.1313-25.851 15.177-7.683 7.443-13.527 16.529-17.71 26.158-5.3027 12.278-8.2772 25.198-9.6352 38.156s-1.1039 25.953 0.061462 38.429c1.6338 17.995 5.0431 35.412 9.9222 51.691 4.8792 16.279 11.227 31.416 18.615 45.069v0.000031c5.3585 9.8946 11.22 18.976 17.129 27.399 2.1754 3.1008 4.3493 6.0961 6.4199 9.0647 1.4308 2.0615 2.8218 4.0092 3.8376 6.0455l-9.7555 5.4186c-0.45679-1.0185-1.5758-2.487-3.0095-4.6136-2.035-2.9068-4.2096-5.9-6.4224-9.0595v-0.000031c-6.3658-9.0798-12.385-18.6-17.763-28.667-0.000031 0-0.000031-0.000031-0.000031-0.000031-16.599-31.222-26.1-66.181-28.766-101.56v-0.000031c-2.2662-26.625 0.023285-55.189 11.659-81.305 4.7338-10.482 11.406-20.359 20.13-28.56 8.3772-7.768 18.405-13.425 29.254-16.45 14.662-4.0291 30.179-3.262 44.364 2.032 14.205 5.2169 26.869 15.249 35.405 29.075 6.4853 10.804 9.8083 23.264 9.7856 35.801v0.000046c0.030762 12.574-3.347 25.123-10.022 35.989-6.4534 10.309-15.702 18.25-26.442 22.873-10.808 4.7455-23.115 5.7534-35.024 2.2698-11-3.5767-20.004-10.671-26.191-19.558-6.5715-8.7584-10.567-20.23-10.244-32.922 0.78067-11.363 5.2648-21.369 12.078-28.724v-0.000023c7.9898-8.8988 18.956-14.167 30.841-14.592 9.5225-0.77734 20.368 2.5157 29.757 11.244 0.22906 0.24718 0.45419 0.49696 0.67548 0.74923 2.0047 2.2856 3.5777 4.6379 4.8194 6.9795s2.152 4.6737 2.8084 6.9568c1.3128 4.5662 1.6278 8.9238 1.3297 13.013-0.42264 4.5964-1.9754 8.5602-4.3522 11.894-2.6667 3.4412-5.2495 5.6625-7.6228 6.9479-2.7708 1.5418-5.3643 2.6613-7.8315 3.4739-2.4673 0.81253-4.8122 1.3125-6.99 1.5368-1.7257 0.26154-3.504 0.46948-5.3546 0.62412-3.0395 0.25398-5.9177 0.044525-8.4641-0.54388-3.3901-0.74329-6.1627-2.1289-8.2738-4.0613-1.0556-0.9662-1.9477-2.074-2.6468-3.3359-0.69919-1.2619-1.2057-2.6789-1.4499-4.267-0.25769-1.6753-0.32547-3.4586-0.12116-5.2394 0.20428-1.7808 0.68399-3.5593 1.4958-5.2132 0.81183-1.6538 1.9582-3.1815 3.4236-4.4568 1.4655-1.2752 3.2477-2.2937 5.2548-2.9654 1.0234-0.34082 2.1119-0.59384 3.257-0.75302l0.000061 0.000015z"/>
  <path id="path3114-9" d="m275.59 205.97c1.2699-1.3794 2.5431-2.1573 3.8568-2.5864v-0.000015c1.2445-0.52951 2.4851-0.48605 3.7444-0.28787 1.2594 0.19817 2.544 0.55234 3.8017 0.95212 1.2578 0.39978 2.4862 0.85986 3.5358 1.4432 1.0496 0.58331 1.9141 1.3041 2.4179 2.1693 0.51993 0.89288 1.246 1.0999 1.7522 1.1114 0.82388-0.35234 1.7154-0.9778 2.6111-1.9279 0.99899-1.0764 1.9264-2.7363 2.3753-5.2024 0.31064-2.1849 0.019775-4.5917-1.0305-6.8857-0.94724-2.3683-2.3919-4.5483-4.0253-6.2595-3.027-2.5969-6.7023-4.3524-10.766-5.027h-0.000061c-8.3527-0.83266-15.772 2.0665-20.984 6.6804-6.574 5.4285-10.816 13.356-11.795 22.096v0.000015c-0.92828 7.3562 0.5903 15.242 4.8946 22.119 3.4114 4.9896 7.7822 8.7698 12.565 11.273 2.3518 1.2284 4.8304 2.1762 7.3763 2.8194 3.5764 1.0331 7.4098 1.5341 11.355 1.3699 3.9454-0.16423 8.003-0.99374 11.995-2.6324 4.0014-1.7685 7.6667-4.2245 10.86-7.2496 3.1932-3.0251 5.9142-6.6191 8.0144-10.629 3.9973-7.5286 5.9221-16.386 5.1277-25.385-0.86408-9.0629-4.2677-17.755-9.7375-24.902-5.2454-6.9024-12.36-12.346-20.594-15.318-8.8857-3.2091-18.797-4.0489-28.409-1.6627-7.3874 1.7876-14.624 5.7732-20.14 12.147-5.3835 6.4339-9.0065 14.249-10.69 22.467-1.7716 8.7273-1.5368 17.669 0.19511 26.121 2.1328 10.267 6.1962 19.813 11.573 28.392 5.3767 8.5786 12.064 16.188 19.411 22.614 5.4934 4.84 11.406 9.1405 17.673 12.699 5.7087 3.2364 11.666 5.8238 17.719 7.8291 12.404 4.0912 24.948 5.8443 37.004 7.4884 7.4062 1.0177 14.687 2.0394 21.787 3.2409 7.1004 1.2015 14.02 2.5833 20.71 4.2771 19.566 4.9469 37.182 12.358 52.253 20.482l-4.285 8.7786c-16.046-8.5629-32.902-15.35-50.233-19.89-13.304-3.5161-27.245-5.6577-41.511-7.839-12.328-1.8252-25.309-3.9442-38.326-8.4325v-0.000031c-6.5157-2.2784-12.886-5.1927-18.974-8.7824-6.7485-3.9983-12.999-8.723-18.721-13.96-15.601-13.989-27.969-33.194-32.34-55.65-1.7475-9.243-1.8114-19.085 0.31479-28.817 2.0206-9.1114 6.2115-17.748 12.412-24.929 6.5766-7.245 14.767-11.667 23.073-13.456 10.608-2.39 21.385-1.371 31.065 2.3495 8.9343 3.4166 16.65 9.4272 22.338 17.176 5.7421 7.7426 9.3628 17.183 10.194 27.27 0.70834 9.6497-1.3878 19.218-5.9268 27.498-4.5253 8.4019-11.694 15.234-20.703 19.116h-0.000031c-8.5212 3.3521-17.353 3.5148-25.24 1.1216h-0.000061c-8.0807-2.0939-15.811-7.2148-21.486-15.319-4.7634-7.5479-6.58-16.067-5.702-24.11 0.89555-9.6366 5.3135-18.49 12.555-24.828 3.8067-3.6649 8.9272-6.4326 15.015-7.5946 2.9748-0.56776 5.9506-0.71582 8.861-0.53908 2.4148 0.34987 4.5802 0.98099 6.5286 1.7917 1.9484 0.8107 3.6804 1.8018 5.2289 2.9118 3.0971 2.2198 5.4693 4.8959 7.3147 7.8502 1.8881 3.1566 2.8136 6.5513 2.8587 10.066-0.096863 3.5467-0.69012 6.3685-1.64 8.4637-1.0119 2.2968-2.121 4.3174-3.3018 6.087s-2.437 3.2873-3.7022 4.513v0.000015c-0.48352 0.51808-0.98032 1.0338-1.4911 1.5476-2.2997 2.3133-4.7625 3.9995-7.1259 5.0359-2.491 1.1309-4.8473 1.5399-7.0441 1.3061-2.1968-0.23383-4.2677-1.099-6.0449-2.8435-1.9092-1.8739-3.5433-4.4038-4.1585-7.3342-0.30762-1.4652-0.36142-3.0255-0.11948-4.5973 0.24188-1.5718 0.7804-3.1516 1.5884-4.6332 0.60941-1.1072 1.3784-2.1694 2.291-3.1606 0.000031 0 0.000031 0 0.000031-0.000015z"/>
  <path id="path3133-3" d="m401.08 398.27c-0.88019 2.4425-1.1401 4.2312-0.99905 5.8992 0.14099 1.668 0.67746 3.2081 1.4675 4.6831 0.78998 1.475 1.8436 2.8648 3.0297 3.9928s2.5092 1.98 3.7309 2.4092c1.0612 0.37292 2.7282 0.65714 4.2482 1.0298 1.52 0.37265 2.8975 0.86075 3.2284 1.9624 0.14081 0.46884-0.094513 1.3753-0.64661 2.5369-0.55209 1.1615-1.4262 2.5733-2.5408 4.0281-1.0116 1.2465-2.1952 2.4892-3.4289 3.6177s-2.5161 2.1427-3.6928 2.9956c-1.3979 1.0133-3.6464 2.7079-7.0497 4.4332-1.7017 0.86267-3.6934 1.7257-5.9987 2.4573-2.3054 0.73157-4.9255 1.3318-7.8512 1.6305-4.6375 0.45312-9.9459 0.2273-15.591-1.2104-5.645-1.4378-11.632-4.0995-17.257-8.3784-3.3343-2.5705-6.51-5.6113-9.398-9.1084s-5.4878-7.4514-7.6673-11.796c-2.432-4.8482-4.0305-9.4644-5.1155-13.751-0.8916-3.4756-1.303-6.7744-1.3884-9.8762-0.085388-3.1019 0.1564-6.0087 0.62882-8.7334 0.47241-2.7247 1.1762-5.2685 2.059-7.6573 0.88278-2.3888 1.9451-4.6233 3.1693-6.7287 2.6802-4.4495 5.8088-8.2456 9.5265-11.724 3.7176-3.4781 8.0468-6.6466 13.263-9.4092 3.8773-2.0919 8.2635-4.03 13.34-5.5979 5.0764-1.568 10.853-2.7729 17.419-3.1432 4.8289-0.27872 10.085-0.084442 15.706 0.88623 5.6207 0.97067 11.613 2.7153 17.736 5.6691l3.8558-8.8143c-11.939-5.7492-25.042-8.1442-37.969-7.1276-11.881 0.90173-23.575 4.6219-34.05 11.06-9.4547 5.6262-18 14.165-23.829 25.478-5.5497 11.275-6.795 24.427-3.2036 36.963 4.0051 13.85 11.986 26.85 23.778 36.419 9.8313 7.8496 22.114 12.321 35.121 12.142 4.7692-0.10187 9.4892-0.9375 14.017-2.4771 2.375-0.8092 4.499-1.7323 6.4222-2.7065 1.9232-0.97415 3.6459-2.0001 5.2164-3.049 3.141-2.0978 5.6816-4.2707 7.9323-6.5622 2.1879-2.4513 4.0071-4.8922 5.662-7.601 1.6549-2.7087 3.1483-5.6911 4.4347-9.2665 0.88791-2.4679 1.2571-5.2975 1.0794-8.0546-0.1778-2.7571-0.89743-5.4359-2.0015-7.7104s-2.5828-4.1444-4.2141-5.4403c-1.6315-1.296-3.4091-2.0221-5.1778-2.1361-1.5144-0.097687-3.2136-0.062622-4.9334 0.15781-1.7197 0.2204-3.46 0.62372-5.0689 1.2305-1.609 0.60672-3.0858 1.4132-4.2911 2.4542s-2.1301 2.3123-2.7085 3.9242z"/>
  <path id="path3167-8" d="m402.65 483.56c0.62769-0.129 1.0788-0.12988 1.4634 0.017792 0.6134 0.22537 1.1283 0.70102 1.5923 1.3739 0.46405 0.67294 0.86777 1.5369 1.1747 2.4684 0.30695 0.93149 0.51251 1.9299 0.59796 2.8428 0.085388 0.91293 0.049438 1.7393-0.063782 2.3094-0.11554 0.58197-0.39914 1.4038-0.60812 2.1898-0.20908 0.78604-0.33679 1.5425-0.001648 2.0027 0.66306 0.91095 2.0302 1.1851 3.5728 1.0245 1.5427-0.16068 3.2247-0.76388 4.649-1.328 0.19989-0.079315 0.39029-0.15897 0.57263-0.23932 0.83203-0.35938 1.5042-0.72479 2.153-1.14 0.64883-0.41525 1.2753-0.88089 1.9911-1.4863 0.71579-0.6055 1.5238-1.3491 2.4825-2.3749 0.95868-1.0259 2.0751-2.3323 3.2814-4.1467 0.97116-1.4654 1.9855-3.2552 2.8823-5.4962 0.89676-2.2409 1.6828-4.9402 2.0083-8.1676 0.17523-2.1063 0.014343-4.3232-0.57419-6.5472-0.58856-2.224-1.6071-4.4585-3.1088-6.4926-1.2947-1.7526-2.8332-3.3964-4.602-4.8898-1.7689-1.4934-3.7698-2.8359-5.9333-3.9937-3.7234-2.0393-8.0465-3.7875-12.974-4.8976-4.9273-1.1101-10.468-1.5854-16.425-0.91931l-0.5679-5.6677c11.121-1.2694 22.519 0.98154 32.477 6.5671 4.3149 2.2993 8.6172 5.7478 12.164 10.622h0.000061c3.2666 4.4904 4.9629 10.405 4.3554 16.904-0.74289 5.7525-2.9174 11.186-6.3172 15.771-2.1345 2.8606-4.6822 5.3253-7.5407 7.3134-1.5259 1.0592-2.9347 1.8591-4.2361 2.5051-1.3211 0.67322-2.5446 1.175-3.7089 1.5736-1.1643 0.39859-2.2707 0.69348-3.3815 0.91376-1.1108 0.22024-2.2267 0.36606-3.4212 0.42944-1.1944 0.063507-2.4682 0.045715-3.8965-0.10702-0.34656-0.038391-0.70029-0.086517-1.0616-0.1459-1.4023-0.2305-2.7295-0.84103-3.8462-1.692-1.1167-0.85114-2.0224-1.9389-2.6658-3.0954-0.6434-1.1566-1.0254-2.3789-1.1759-3.5236-0.15048-1.1447-0.071686-2.2108 0.15033-3.1104 0.36737-1.4887 1.0937-2.5849 1.8885-3.4382 0.79495-0.85327 1.662-1.4736 2.4753-1.9871 0.81329-0.51352 1.5769-0.92072 2.2699-1.2485 0.69299-0.32773 1.3179-0.57138 1.9089-0.69284l-0.0002 0.0001z"/>
  <path id="path3207-2" d="m433.52 264.27s-0.46954 0.46237-1.2948 1.3553c-0.82526 0.89291-2.0058 2.2215-3.3802 4.0085s-2.942 4.0362-4.5024 6.7585-3.1112 5.9196-4.4396 9.5479c-1.2783 3.8012-2.1641 7.8253-2.579 11.855-0.41482 4.03-0.36023 8.0624 0.10443 11.883 0.61316 4.8134 1.6551 9.1506 2.816 12.858 1.161 3.7077 2.4319 6.7909 3.519 9.187 1.0174 2.2842 1.8588 3.998 2.3713 5.0298 1.0114 2.0368 2.521 3.9331 4.3419 5.483 1.8209 1.5498 3.9516 2.7547 6.2073 3.4864 4.5114 1.4634 9.4937 1.04 13.724-1.9611 4.2308-3.0012 5.8111-6.9453 5.7936-10.626-0.008667-1.8406-0.418-3.6216-1.1233-5.2464-0.70535-1.6248-1.7062-3.0953-2.9344-4.3444-0.69415-0.70599-1.6307-1.3774-2.7399-2.054-2.5381-1.5683-6.054-3.0971-9.5515-5.1026-1.7487-1.0028-3.4899-2.1238-5.0922-3.3833-1.6024-1.2595-3.0652-2.6588-4.264-4.1555-0.71884-0.90109-1.338-1.8393-1.831-2.7867-1.3958-2.6813-2.4191-5.6088-3.0269-8.6292-0.60776-3.0205-0.79999-6.1328-0.61887-9.1872 0.28094-3.7805 1.0457-7.2788 1.981-10.303 0.9353-3.024 2.0393-5.5779 3.0499-7.6094 1.0107-2.0315 1.9278-3.5466 2.5584-4.5557 0.63062-1.009 0.97464-1.5181 0.91089-1.5078z"/>
  <path id="path3917-5" d="m283.91 939.21c4.5099-41.211 13.136-81.335 24.515-120.12 11.588-39.534 25.969-77.8 42.239-114.88 0-0.000061 0.000031-0.000061 0.000031-0.000061 31.238-71.171 69.239-138.24 111.03-202.05 32.371-49.428 67.078-96.972 103.84-142.49v-0.000031c10.912-13.509 21.999-26.831 33.329-39.874 3.0604-3.5231 6.1326-7.019 9.2288-10.473 0 0 0.000061 0 0.000061-0.000031 0.80322-0.896 1.6049-1.7853 2.4064-2.6657 0.20319-0.22302 0.4046-0.44339 0.60449-0.66086-0.16248 0.14633-0.32538 0.29306-0.48871 0.44022 17.872-12.087 35.653-24.087 53.343-36-1.8038 7.7395-3.4921 15.368-5.0651 22.887l-36.217 27.04 2.0418-1.9067c-0.16821 0.20334-0.34235 0.41473-0.5224 0.63397-0.71991 0.87628-1.4481 1.7712-2.1863 2.683-2.8453 3.5142-5.6804 7.0865-8.5189 10.704-10.507 13.391-20.778 27.064-30.891 40.937 0 0.000031 0 0.000031-0.000061 0.000031-34.068 46.745-65.932 95.252-95.336 145.33-37.939 64.673-71.777 131.75-98.488 201.59-13.906 36.35-25.862 73.346-34.974 110.92-6.1288 25.312-11.009 50.85-14.22 76.467-18.804 9.2995-37.394 19.734-55.672 31.478z"/>
  <path id="path3921-7" d="m424.29 323.27c12.151 4.5783 23.758 11.106 34.036 19.71 10.613 8.8972 19.659 20.015 26.287 32.739 14.482 28.234 16.07 62.301 8.5558 93.186v0.000061c-6.2077 26.359-15.537 52.397-29.518 76.213-3.7094 6.3114-7.8306 12.536-12.526 18.488-0.067017 0.0849-0.13431 0.16992-0.20184 0.25507-5.612-2.6573-11.129-5.5031-16.353-8.752-1.4204-0.8833-2.808-1.8068-4.1326-2.8041-0.33691-0.25366-0.65927-0.52191-0.96326-0.80902-0.066772-0.082458-0.12628-0.17188-0.17804-0.26874 2.6189 3.089 5.2611 6.2064 7.9267 9.3524 0.002472 0.002502 0.004883 0.005859 0.007294 0.008728-0.002411-0.002563-0.004822-0.00592-0.007294-0.008728-2.6657-3.146-5.3316-6.2912-7.9977-9.4357-0.017334 0.016479-0.027924 0.026306-0.031616 0.029663 0.027588-0.026306 0.068268-0.066406 0.12244-0.11987 0.21298-0.2102 0.4476-0.45264 0.70642-0.72406h0.000061c1.0067-1.0554 2.018-2.2119 3.0544-3.4446 3.9537-4.7016 7.5858-9.8876 11.041-15.358 13.038-20.613 22.191-44.168 28.804-68.626 6.8784-26.463 6.8523-55.464-4.6448-78.442v-0.000031c-5.0827-10.541-12.351-20.028-21.015-27.768-9.1587-8.2134-20.055-14.523-31.667-18.992 2.7717-4.8724 5.6703-9.6852 8.6957-14.43h0.000061z"/>
  <path id="path3931-9" d="m165.12 647.02c1.4116-0.68884 2.5152-1.3106 3.4175-1.9118 2.0421-1.3467 3.0489-2.6008 4.4444-3.8089 0.69777-0.604 1.4957-1.1909 2.5842-1.7278 1.0884-0.53699 2.4686-1.0264 4.3248-1.3865 4.8981-0.90765 9.8805-1.3735 14.863-1.4603 10.524-0.17737 21.058 1.3959 31.128 4.5253 11.097 3.4494 21.632 8.8268 31.061 15.799 10.641 7.8614 19.869 17.785 27.396 28.935 9.0094 13.333 15.592 28.432 20.225 44.137v0.000061c5.8502 19.841 8.5831 40.662 9.3943 61.56 1.0422 27.056-1.1997 54.231-5.2643 81.117l11.137 1.7103c3.6242-27.53 5.3478-55.486 3.7373-83.364-1.239-21.541-4.5416-43.111-11.048-63.731-5.1548-16.343-12.429-32.069-22.231-45.992-8.2065-11.648-18.206-21.933-29.662-30.039-10.153-7.1786-21.399-12.608-33.178-15.991-10.679-3.0682-21.789-4.4709-32.845-4.045-5.2294 0.19836-10.462 0.80634-15.611 1.8809-3.6926 0.75604-6.0619 0.90247-8.1302 0.84497-2.0683-0.057556-3.8234-0.30658-6.1504 0.006775-1.2593 0.16357-2.69 0.49719-4.4044 1.182-1.0425 0.41644-2.5465 1.3644-4.1653 2.6871-1.6188 1.3226-3.3442 3.0237-4.8554 4.853-1.5112 1.8294-2.8025 3.7831-3.6934 5.5216-0.89101 1.7384-1.388 3.2538-1.4557 4.2064 0.78172 0.023315 2.1271-0.39136 3.7637-0.92529 1.6366-0.53394 3.5697-1.1783 5.5306-1.7607 1.9609-0.58246 3.9491-1.1082 5.666-1.5687 1.7169-0.46051 3.1616-0.86408 4.0206-1.254v-0.000122z"/>
  <path id="path3935-7" d="m389.99 705.83c21.766-2.7993 25.297-16.184 28.058-22.284-11.53 7.2373-20.591-2.309-27.109 9.2966"/>
  <path id="path3938-2" d="m446.86 565.29c38.337-4.9305 44.556-28.506 49.419-39.249-20.308 12.747-36.268-4.067-47.748 16.374"/>
  <path id="path3940-7" d="m482.17 749.14c1.4575 0.95886 2.5301 2.0265 3.3327 3.1769 0.80258 1.1503 1.3368 2.3855 1.6884 3.6786 0.44629 1.3497 0.57654 2.7752 0.56134 4.2067-0.015167 1.4316-0.17844 2.8711-0.44778 4.2361-0.26929 1.365-0.65079 2.6552-1.1614 3.7648-0.51062 1.1096-1.1556 2.0372-1.9224 2.6674-0.92194 0.75775-1.0625 1.683-1.0332 2.3013 0.91965 1.9842 3.0067 4.1817 6.3927 5.851 1.8355 0.89661 4.285 1.4085 7.2787 1.1574 2.9388-0.36884 5.7516-1.674 8.0629-3.7244 0.3558-0.29517 0.69949-0.59741 1.0303-0.90454 5.2294-5.9495 7.9867-13.872 7.4878-22.262-1.287-11.137-6.8456-20.103-13.835-25.718-8.3164-7.1314-19.008-10.458-29.668-9.2174-9.0239 0.92157-17.948 5.234-24.731 12.839-0.27097 0.32825-0.5365 0.65948-0.79669 0.99335-3.2334 4.1562-5.7225 8.8063-7.4171 13.736-1.6946 4.9298-2.5948 10.139-2.6702 15.354-0.20993 4.9904 0.27978 10.157 1.5807 15.263 1.3009 5.1064 3.413 10.153 6.4506 14.859 3.207 4.7299 7.1432 8.824 11.618 12.142 4.475 3.3177 9.4887 5.8589 14.808 7.4771 10.063 3.1202 21.106 3.1343 31.491-0.42273 10.516-3.6807 19.868-10.616 26.794-19.776 6.7309-8.847 11.18-19.724 12.38-31.297 1.4031-14.657-2.1861-29.426-9.5222-41.712-7.2053-12.141-17.843-21.973-30.336-27.765-9.1754-4.2328-19.212-6.1418-29.123-5.6125-10.432 0.59222-20.443 3.6823-29.502 8.3044-11.528 5.9138-21.648 13.881-30.547 22.96-8.8986 9.0796-16.576 19.267-23.238 29.665-9.6443 14.966-17.57 30.675-23.672 46.492-6.1026 15.816-10.382 31.736-12.959 47.208v0.000061c-1.8648 11.216-2.8494 22.142-3.3973 32.592-0.202 3.847-0.34103 7.6119-0.54361 11.287-0.14618 2.5472-0.25406 4.98-0.70486 7.2301l-10.803-2.3562c0.26495-1.0909 0.29218-2.9724 0.47556-5.5717 0.19254-3.6037 0.32996-7.3672 0.53854-11.285v-0.000061c0.59451-11.262 1.723-22.632 3.677-33.994 6.1223-35.184 19.981-68.495 39.365-97.555 14.386-22.042 33.458-42.527 58.252-54.866 10-4.9101 21.128-8.0558 32.822-8.5352h0.000061c11.164-0.37793 22.322 1.9768 32.518 6.9097 13.744 6.7133 25.24 17.696 32.967 31.276 7.7892 13.534 11.472 29.749 9.6754 46.123-1.5474 12.672-6.535 24.502-14.149 34.151-7.5949 9.713-17.803 17.125-29.532 21.031-11.221 3.6249-23.162 3.5527-34.242-0.075806-11.207-3.5801-21.304-11.045-28.374-21.706-6.3124-10.124-8.9546-21.623-8.3384-32.616 0.24115-11.152 4.1121-22.67 12.051-32.238 7.4868-8.2364 17.006-12.947 26.715-14.054v-0.000061c11.551-1.509 23.196 1.7741 32.616 9.4048 7.8115 5.7779 14.176 15.579 16.125 28.596 0.026794 0.34399 0.049072 0.68732 0.06665 1.03 0.16046 3.1044-0.052185 5.9711-0.51386 8.6076-0.46167 2.6366-1.173 5.044-2.0505 7.2435-1.7547 4.399-4.1523 7.9692-6.8597 10.922-3.1108 3.2602-6.7095 5.2758-10.562 6.2539-4.1407 0.86682-7.4777 0.84943-10.086 0.25098-3.0701-0.66705-5.7476-1.541-8.1419-2.5668-2.3942-1.0259-4.5048-2.211-6.3195-3.4964-1.4887-0.95416-2.9855-1.9847-4.5058-3.1049-2.4969-1.8397-4.5886-3.9286-6.195-6.0875-2.163-2.8433-3.4607-5.7682-3.9172-8.6716-0.22824-1.4517-0.24472-2.9031-0.019012-4.3441 0.22565-1.4409 0.69379-2.8724 1.4678-4.2602 0.81647-1.464 1.8448-2.884 3.0813-4.12s2.6839-2.2857 4.3118-3.0168c1.6278-0.7312 3.4372-1.1412 5.3396-1.1428 1.9024-0.001648 3.8933 0.40674 5.8475 1.2331 0.99536 0.42261 1.9878 0.9566 2.967 1.6008v-0.000061z"/>
  <path id="path3943-2" d="m319.28 330.57s0.026276 0.36676 0.11554 1.0378c0.089661 0.67096 0.24521 1.6491 0.56268 2.8617 0.31699 1.2126 0.79852 2.6606 1.5662 4.2245 0.76727 1.564 1.8242 3.2418 3.2722 4.8714 1.5252 1.5222 3.3162 2.7641 5.2314 3.6268 1.9145 0.86227 3.9477 1.3448 5.9219 1.4555 2.7421 0.15244 5.2297-0.17148 7.258-0.64313 2.0282-0.47217 3.6007-1.0808 4.6349-1.5245 0.34116-0.14044 0.62735-0.26388 0.85477-0.36365 1.1368-0.49985 2.2547-1.2825 3.203-2.2443 0.94778-0.96219 1.7244-2.1021 2.2331-3.2876 0.50861-1.1859 0.74972-2.4144 0.68362-3.564-0.06662-1.15-0.43967-2.2187-1.1238-3.1374-0.68408-0.91834-1.49-1.4877-2.3234-1.8173-0.83362-0.32895-1.6962-0.41876-2.5377-0.34576-0.84146 0.072937-1.6624 0.30826-2.4312 0.65774-0.76923 0.3501-1.4869 0.81448-2.1277 1.3706-0.39929 0.34653-0.79837 0.82373-1.2251 1.3867-0.83282 1.0639-1.7327 2.4837-2.8673 3.832-0.56732 0.67438-1.1925 1.3284-1.8751 1.9076-0.68262 0.57919-1.4232 1.0827-2.1947 1.4651-0.70065 0.34906-1.4347 0.58701-2.1415 0.69128-1.2394 0.18286-2.5237 0.14548-3.7708-0.11868-1.2472-0.2641-2.4565-0.75409-3.5684-1.4379-1.632-1.0713-2.9272-2.4185-3.9209-3.7387-0.99371-1.3202-1.6904-2.6138-2.183-3.7032-0.49268-1.0893-0.78516-1.9777-0.96936-2.5771-0.18451-0.59878-0.26291-0.91321-0.27734-0.88565z"/>
  <path id="path3950-0" d="m515.65 375.24s-0.51032 0.11072-1.4224 0.33307c-0.91186 0.2229-2.2266 0.55808-3.8334 1.042-3.2132 0.96692-7.6038 2.5503-12.126 5.0496-2.2776 1.2476-4.5717 2.7884-6.7032 4.5828-2.1307 1.7946-4.0949 3.8442-5.7714 6.0002-2.0334 2.6843-3.4786 5.4377-4.4485 7.7835-0.96982 2.3458-1.4808 4.2788-1.7487 5.3944-0.11343 0.47351-0.20538 0.96359-0.27332 1.4645-0.23541 1.8994-0.13144 3.9044 0.29443 5.7543 0.42618 1.8503 1.1706 3.5432 2.1315 4.9041 0.96124 1.3615 2.1342 2.392 3.4017 3.0081 1.2672 0.61545 2.6259 0.81778 4.0111 0.58527 1.4757-0.24756 2.6376-0.88324 3.5552-1.6968 0.91763-0.81357 1.5929-1.808 2.0843-2.8509 0.49081-1.0425 0.79843-2.1324 0.96658-3.2002 0.1676-1.0674 0.19784-2.1142 0.10892-3.1338-0.015076-0.17615-0.039581-0.35867-0.07251-0.54825-0.23514-1.1813-0.79425-2.7254-1.2286-4.6369-0.43402-1.911-0.72641-4.1873-0.56854-6.496 0.1698-2.5227 0.87695-5.0448 1.9455-6.9458 1.2747-2.2672 2.8608-4.3126 4.5276-6.0571 1.8521-1.9473 3.7926-3.565 5.6151-4.8885 1.8224-1.3236 3.5275-2.3543 4.9654-3.1479 1.4376-0.7941 2.6085-1.3529 3.4055-1.7246s1.2206-0.55731 1.1836-0.57513h-0.000061z"/>
  <path id="path2404-5" d="m147.77 841.59c-0.93346 1.5209-1.4722 2.9674-1.7366 4.3693-0.25717 1.3982-0.2391 2.7541-0.036591 4.0835 0.14478 1.4198 0.60489 2.7671 1.1992 4.0555 0.59425 1.2884 1.323 2.5187 2.1165 3.6346 0.8008 1.1122 1.6663 2.1101 2.5755 2.8865 0.9092 0.77661 1.8689 1.3274 2.8177 1.5548 1.1463 0.27032 1.6451 1.0463 1.8662 1.6203-0.029007 2.207-1.023 5.1272-3.4136 8.1541-1.2944 1.6309-3.3068 3.1913-6.1173 4.3035-2.807 0.98029-5.8832 1.0598-8.8018 0.23639-0.44072-0.10834-0.87698-0.22638-1.3006-0.3562-7.1399-3.0442-12.844-8.9786-15.788-16.795-3.3478-10.651-1.9472-21.252 2.1096-29.464 4.6331-10.172 12.968-17.969 23.115-21.616 8.5356-3.2027 18.357-3.2933 27.576 0.55243 0.37382 0.17792 0.74869 0.35803 1.1249 0.54138 4.6032 2.317 8.7415 5.4084 12.271 9.1114 3.5291 3.7029 6.4488 8.0167 8.6331 12.7 2.2101 4.4217 3.8565 9.3173 4.7484 14.519 0.8918 5.2021 1.0219 10.714 0.17493 16.334-0.98364 5.7133-2.889 11.18-5.598 16.186-2.7018 5.0021-6.2142 9.5472-10.37 13.391-7.8415 7.3252-17.831 12.281-28.668 13.708-11.004 1.3737-22.273-0.71765-32.254-5.9053-9.6709-4.9948-18.097-12.847-23.87-22.782-7.2042-12.635-9.9347-27.606-8.2716-42.005 1.6043-14.211 7.2467-27.866 16.211-38.7 6.5878-7.9351 14.897-14.154 24.078-18.109 9.6805-4.1316 19.992-5.8165 30.063-5.6876 12.827 0.19165 25.209 2.8742 36.938 7.1081 11.729 4.234 22.797 10.019 33.037 16.446 14.784 9.2286 28.321 19.895 40.244 31.478s22.245 24.072 30.838 36.92c6.2275 9.3156 11.541 18.762 16.269 27.972 1.74 3.3907 3.3884 6.7365 5.0586 9.9715 1.1699 2.2364 2.2498 4.3908 3.5698 6.225l8.8222-6.9665c-0.68262-0.86798-1.4661-2.5596-2.6863-4.8284-1.6343-3.1748-3.2821-6.5191-5.0579-9.97-5.0998-9.9238-10.718-19.711-17.092-29.115-19.779-29.101-45.808-53.042-75.11-70.667-21.942-13.508-47.495-23.511-74.927-23.582-11.042 0.033386-22.383 2.1658-33.156 6.9634-10.258 4.6543-19.402 11.778-26.626 20.802-9.7233 12.226-15.681 27.309-17.17 43.054-1.5735 15.735 1.6615 32.053 9.9117 46.069 6.532 10.774 15.833 19.247 26.632 24.571 10.803 5.3922 23.047 7.5285 35.237 5.8173 11.623-1.742 22.4-7.1505 30.955-15.391 8.6917-8.2546 14.811-19.529 16.89-32.339 1.6109-11.984-0.64955-23.574-5.6627-33.244-4.7339-9.983-12.894-18.676-23.952-23.782-10.11-4.1028-20.632-4.105-29.864-0.76343-11.066 3.8044-20.272 11.985-25.711 23.106-4.7282 8.7235-6.5206 20.441-3.0106 33.09 0.10977 0.32526 0.23432 0.64337 0.35114 0.96436 1.1182 2.8779 2.4684 5.3776 3.9522 7.5582 1.4835 2.1798 3.1079 4.0369 4.7868 5.6373 3.3726 3.1935 6.9865 5.352 10.635 6.8108 4.1306 1.5599 8.2033 1.7741 12.089 0.93341 4.0965-1.0677 7.1047-2.5748 9.2282-4.2857 2.5041-1.976 4.5744-3.9652 6.3274-5.9662 1.7459-1.9967 3.179-4.015 4.3015-5.99 0.95709-1.5278 1.8978-3.132 2.8169-4.8246 1.5185-2.7841 2.564-5.6088 3.1429-8.2808 0.80565-3.5405 0.79669-6.7691 0.037369-9.6023-0.38318-1.4144-0.9561-2.735-1.7441-3.9379-0.78751-1.2023-1.7906-2.2886-3.0534-3.1977-1.3301-0.9602-2.8396-1.783-4.457-2.3489-1.6175-0.56598-3.3495-0.87006-5.1203-0.80243-1.7709 0.067688-3.5722 0.50562-5.296 1.3561-1.7238 0.85052-3.362 2.1114-4.794 3.7335-0.72697 0.82629-1.409 1.7532-2.0314 2.7734z"/>
  <path id="path2451-0" d="m290.76 622.38c-0.090027-0.095581-0.17413-0.18866-0.25299-0.27924-0.5224-0.59753-0.99725-0.89569-1.4876-1.0472-0.49039-0.15137-0.9978-0.16675-1.571-0.18597-1.6075-0.000854-3.876-0.62817-6.1743-0.87158-1.1491-0.1217-2.3072-0.15137-3.3878-0.018433s-2.0833 0.43066-2.9032 0.88452c-0.50757 0.28094-1.109 0.70844-1.7373 1.2118-0.62836 0.50342-1.282 1.0839-1.9204 1.62-0.63843 0.53607-1.2629 1.0268-1.863 1.2985-0.60007 0.27173-1.1816 0.32129-1.7102-0.047302-0.46637-0.3252-1.0439-1.5156-1.4518-3.307-0.40793-1.7913-0.61877-4.1815-0.39862-6.7596 0.17975-2.0642 0.60056-4.2135 1.2126-6.2373 0.61209-2.0237 1.4124-3.9198 2.2426-5.5477 0.34372-0.67407 0.76791-1.4815 1.3065-2.3976 0.91815-1.5674 2.154-3.4627 3.882-5.495 1.7279-2.0324 3.9528-4.2051 6.8256-6.1913 2.1142-1.4517 4.5359-2.8008 7.2636-3.9025 2.7278-1.1016 5.7628-1.9555 9.0516-2.3964 6.4501-0.69763 13.597-0.14636 20.857 2.0704 3.6298 1.1084 7.2817 2.6259 10.849 4.545 3.5676 1.9192 7.0504 4.241 10.324 6.903 4.9806 3.8301 9.679 8.5817 13.74 14.23 4.358 6.0611 7.2959 12.08 9.3344 17.762 1.4597 4.167 2.4563 8.079 3.163 11.778 0.70679 3.6996 1.1219 7.1882 1.3457 10.537 0.22372 3.3488 0.25488 6.5588 0.14398 9.711-0.11087 3.1523-0.36456 6.2475-0.74652 9.3655-0.77286 6.4049-1.9862 12.949-3.8841 20.35-1.898 7.4008-4.4942 15.674-8.3465 25.277-2.6922 6.7325-5.9914 14.146-10.212 22.342-4.2203 8.1961-9.3702 17.178-15.765 26.941l7.6053 5.4951c10.429-15.859 19.577-33.031 26.407-51.525 5.622-15.11 9.561-31.445 10.474-48.546v-0.000061c0.80521-14.208-1.0126-29.127-6.49-43.344-5.2163-13.174-13.755-24.718-24.738-33.277-11.316-9.462-26.689-16.428-44.439-15.728-6.4348 0.48071-12.878 2.442-18.88 5.9393-1.8368 1.0815-3.5961 2.3121-5.2634 3.6838-3.4944 2.8773-6.1942 6.0065-8.3482 9.1412-2.0046 2.9017-3.4631 5.8295-4.5514 8.7182s-1.8067 5.7428-2.2466 8.6005c-0.48447 3.2303-0.52692 6.389-0.15262 9.5779 0.37439 3.1889 1.1648 6.4136 2.5302 9.752 1.4653 3.2964 3.3808 6.4605 5.9168 9.3745 2.049 2.3544 4.6575 4.2753 7.466 5.5059 2.7506 1.1532 5.5262 1.7361 8.0708 1.8004 2.5447 0.064331 4.859-0.38153 6.8002-1.1615 1.9413-0.77997 3.5125-1.8867 4.656-3.1458 1.1434-1.259 1.8614-2.6682 2.1388-4.1314 0.29666-1.5649 0.46509-3.3434 0.43124-5.1732-0.033783-1.8298-0.27048-3.7121-0.71481-5.4858-0.4444-1.7737-1.0984-3.4353-1.8776-4.8311-0.38959-0.69794-0.80884-1.3294-1.2372-1.8901-0.42834-0.56055-0.86557-1.0485-1.2862-1.4932z"/>
  <path id="path2426-1" d="m399.62 276.43c-2.9803-3.4942-4.9464-7.5507-6.6655-11.838-1.7192-4.2874-3.2026-8.8146-5.1098-13.087-0.46808-1.0486-0.97345-2.0884-1.5157-3.117-1.8853-3.5538-4.2305-6.9439-6.9718-10.038-2.7414-3.0939-5.8786-5.8907-9.3063-8.2714-2.8491-1.9545-5.7947-3.5656-8.755-4.8668s-5.9353-2.2934-8.876-3.0367c-2.7515-0.69804-5.4535-1.1857-8.1131-1.5472-1.7772 0.013992-3.601-0.074646-5.3798 0.000717-1.779 0.075409-3.5158 0.31189-5.1452 1.0061 2.4466 1.7067 4.7684 3.4931 6.9865 5.3887s4.3299 3.8975 6.3178 5.981c4.3559 4.579 8.0581 9.5921 11.12 14.466 1.7337 2.7298 3.3474 5.4519 5.0323 8.0992 1.685 2.6473 3.4425 5.2193 5.4796 7.7128 0.16428 0.20111 0.33102 0.3992 0.50015 0.59448 2.9623 3.4089 6.6804 6.0349 10.845 8.2038 4.1643 2.169 8.7582 3.8608 13.215 5.0955 1.2813 0.35498 2.4735 1.4973 3.1371 2.8746"/>
  <path id="path2430-7" d="m123.49 573.23c2.6799-0.27692 4.5943-0.6203 6.1404-1.0395 1.5461-0.41907 2.7221-0.90778 3.9153-1.3721 1.1932-0.46423 2.4042-0.90418 4.0222-1.1664 1.618-0.26215 3.6476-0.35211 6.4433-0.013733 1.5726 0.20148 3.1408 0.43787 4.7029 0.70904 16.532 2.8609 32.388 9.4433 46.983 18.198 15.681 9.4125 29.951 21.338 42.872 34.668 13.594 14.031 25.681 29.647 36.3 46.28 10.659 16.702 19.83 34.43 27.258 52.902 7.0616 17.576 12.569 35.806 15.803 54.417 2.916 16.854 4.0399 34.003 2.1142 50.673-0.87472 7.6193-2.3726 15.115-4.646 22.281-2.177 6.8631-5.0507 13.443-8.6684 19.466l9.5899 6.1945c4.02-6.9841 7.1464-14.465 9.44-22.172 2.3914-8.0373 3.9077-16.296 4.7109-24.577 1.7436-18.083 0.28406-36.25-3.0858-53.797-3.7106-19.385-9.7194-38.174-17.295-56.132-7.9604-18.883-17.677-36.916-28.88-53.834-11.156-16.851-23.818-32.636-37.997-46.782-13.47-13.447-28.372-25.443-44.712-34.879-15.215-8.7923-31.782-15.292-49.042-17.982-1.6346-0.25391-3.2742-0.47119-4.9174-0.65186-2.8663-0.32428-5.033-0.68182-6.8368-1.0991-1.8037-0.41724-3.2431-0.88971-4.6428-1.353-1.3998-0.46332-2.7599-0.91705-4.4043-1.244-1.6444-0.32703-3.5756-0.53046-6.0989-0.42023-1.3062 0.057129-3.3112 0.46374-5.5937 1.1634-2.2824 0.69958-4.8381 1.6962-7.2644 2.8567-2.4262 1.1605-4.7212 2.4835-6.5483 3.7418-1.827 1.2584-3.1887 2.4464-3.8106 3.3013 0.79044 0.36829 2.4335 0.57031 4.5043 0.72717s4.5695 0.27564 7.0969 0.41406c2.5274 0.13837 5.0836 0.29626 7.2958 0.41669 2.2123 0.12054 4.0826 0.19824 5.2521 0.10388z"/>
 </g>
 <g stroke-width="5" stroke="#2b0d4c" fill="#481c8e">
  <circle id="svg_1" cy="538.14" cx="115.18" r="8.544"/>
  <circle id="svg_3" cy="654.14" cx="319.66" r="16.044" transform="rotate(146.22 319.66 654.14)"/>
  <circle id="svg_8" cy="486.14" cx="355.68" r="8.544"/>
  <circle id="svg_17" cy="664.64" cx="444.68" r="5.044"/>
  <circle id="svg_21" cy="559.14" cx="272.68" r="5.044"/>
  <circle id="svg_12" cy="453.14" cx="325.68" r="16.044"/>
  <circle id="svg_38" cy="316.14" cx="505.68" r="16.044"/>
  <circle id="svg_4" cy="362.14" cx="535.68" r="8.544"/>
  <circle id="svg_33" cy="281.14" cx="450.68" r="5.044"/>
  <circle id="svg_47" cy="205.14" cx="343.68" r="5.044"/>
  <circle id="svg_26" cy="273.14" cx="477.68" r="8.544"/>
  <circle id="svg_16" cy="644.14" cx="439.68" r="8.544"/>
  <circle id="svg_15" cy="843.14" cx="156.68" r="16.044"/>
  <circle id="svg_2" cy="626.14" cx="137.68" r="8.544"/>
  <circle id="svg_5" cy="510.14" cx="379.68" r="8.544"/>
  <circle id="svg_6" cy="470.14" cx="381.68" r="8.544"/>
  <circle id="svg_7" cy="590.14" cx="90.679" r="8.544"/>
  <circle id="svg_9" cy="672.14" cx="158.68" r="8.544"/>
  <circle id="svg_10" cy="554.14" cx="79.179" r="15.409"/>
  <circle id="svg_13" cy="658.64" cx="124.18" r="12.544"/>
  <circle id="svg_14" cy="567.14" cx="235.68" r="16.044"/>
  <circle id="svg_18" cy="533.14" cx="257.68" r="8.544"/>
  <circle id="svg_19" cy="620.14" cx="330.68" r="6.544"/>
  <circle id="svg_20" cy="605.14" cx="305.68" r="8.544"/>
  <circle id="svg_22" cy="672.14" cx="421.68" r="5.044"/>
  <circle id="svg_23" cy="707.14" cx="449.68" r="5.044"/>
  <circle id="svg_24" cy="832.14" cx="183.68" r="5.044"/>
  <circle id="svg_25" cy="412.14" cx="447.68" r="8.544"/>
  <circle id="svg_27" cy="362.14" cx="306.68" r="8.544"/>
  <circle id="svg_28" cy="415.14" cx="385.68" r="8.544"/>
  <circle id="svg_29" cy="387.14" cx="526.68" r="5.044"/>
  <circle id="svg_30" cy="407.14" cx="361.68" r="5.044"/>
  <circle id="svg_31" cy="382.14" cx="391.68" r="5.044"/>
  <circle id="svg_32" cy="363.14" cx="508.68" r="5.044"/>
  <circle id="svg_34" cy="436.14" cx="442.68" r="5.044"/>
  <circle id="svg_35" cy="335.14" cx="304.68" r="5.044"/>
  <circle id="svg_36" cy="391.14" cx="372.68" r="5.044"/>
  <circle id="svg_37" cy="341.14" cx="266.68" r="16.044"/>
  <circle id="svg_39" cy="242.14" cx="452.68" r="16.044"/>
  <circle id="svg_40" cy="144.14" cx="455.68" r="16.044"/>
  <circle id="svg_41" cy="216.14" cx="282.68" r="16.044"/>
  <circle id="svg_42" cy="247.14" cx="672.68" r="16.044"/>
  <circle id="svg_43" cy="247.14" cx="336.68" r="8.544"/>
  <circle id="svg_44" cy="339.14" cx="644.68" r="8.544"/>
  <circle id="svg_45" cy="262.14" cx="636.68" r="8.544"/>
  <circle id="svg_46" cy="283.14" cx="680.68" r="8.544"/>
  <circle id="svg_48" cy="244.14" cx="488.68" r="5.044"/>
  <circle id="svg_49" cy="331.14" cx="542.68" r="5.044"/>
  <circle id="svg_50" cy="174.14" cx="471.68" r="5.044"/>
  <circle id="svg_51" cy="228.14" cx="639.68" r="5.044"/>
  <circle id="svg_52" cy="267.14" cx="698.68" r="5.044"/>
  <circle id="svg_53" cy="174.14" cx="328.68" r="5.044"/>
  <circle id="svg_54" cy="230.14" cx="705.68" r="5.044"/>
  <circle id="svg_55" cy="271.14" cx="349.68" r="5.044"/>
  <circle id="svg_56" cy="518.14" cx="515.68" r="5.044"/>
  <circle id="svg_57" cy="372.14" cx="675.68" r="5.044"/>
  <circle id="svg_58" cy="138.14" cx="425.68" r="5.044"/>
  <circle id="svg_59" cy="174.14" cx="442.68" r="8.544"/>
  <circle id="svg_60" cy="338.14" cx="679.68" r="8.544"/>
  <circle id="svg_61" cy="139.14" cx="314.68" r="8.544"/>
  <circle id="svg_62" cy="177.14" cx="353.68" r="8.544"/>
  <circle id="svg_63" cy="201.14" cx="668.68" r="8.544"/>
  <circle id="svg_64" cy="558.14" cx="503.68" r="8.544"/>
  <circle id="svg_65" cy="544.14" cx="535.68" r="16.044"/>
  <circle id="svg_11" cy="761.64" cx="472.18" r="11.544"/>
  <circle id="svg_66" cy="842.64" cx="157.68" r="15.044"/>
  <circle id="svg_67" cy="403.64" cx="414.18" r="10.544"/>
  <circle id="svg_68" cy="633.14" cx="283.68" r="11.044"/>
  <circle id="svg_69" cy="493.14" cx="401.68" r="5.044"/>
 </g>
</svg>
