<?xml version="1.0" encoding="UTF-8" standalone="no"?>
<svg width="640" xmlns="http://www.w3.org/2000/svg" height="480">
 <g id="layer1">
  <g fill="#3f3f3f">
   <g fill-rule="evenodd">
    <path id="path4092" d="m13.334 478.99c0.025902-1.967 0.0354-3.9353 0-5.9375-0.027298-1.4055-0.094902-2.8294-0.15625-4.25-0.37658-8.7242-1.4134-17.108-3.1875-24.781-1.7741-7.6733-4.2697-14.642-7.3125-20.719-2.778-5.6408-6.0008-10.512-9.25-14.531s-6.5368-7.1776-9.4375-9.6562c-6.5572-4.3742-10.313-7.3737-9.9688-8.2188 0.36408-0.83423 4.8508 0.5968 12.625 3.9375 3.5686 2.0856 7.6468 5.0774 11.75 9.125 4.1032 4.0477 8.209 9.1796 11.781 15.312 3.76 6.536 6.902 14.115 9.125 22.438 2.223 8.3228 3.541 17.375 3.9062 26.688 0.059502 1.5164 0.082001 3.0369 0.093704 4.5312 0.019493 2.0485-0.011002 4.0555-0.0625 6.0625h-9.9062 0.000046z"/>
    <path id="path4090" d="m45.924 478.99c0.21168-1.9487 0.4476-3.9003 0.62495-5.8746 1.0514-11.705 1.3852-23.067 1.0833-33.79-0.34976-12.553-1.5865-24.245-3.2498-34.665-1.6634-10.42-3.738-19.546-5.6664-27.124-1.9284-7.5779-3.6763-13.611-4.7497-17.832-1.0734-4.2208-1.4787-6.6373-0.79163-6.958 0.68707-0.32062 2.3946 1.4847 4.7497 5.2498 2.3551 3.765 5.3756 9.5021 8.4579 16.999s6.1972 16.774 8.7495 27.54 4.5125 23.013 5.2914 36.248c0.66113 11.282 0.5145 23.258-0.5833 35.54-0.1403 1.5695-0.29036 3.114-0.45831 4.6664h-13.458z"/>
    <path id="path4088" d="m74.334 478.99c2.6703-8.2386 5.4302-16.085 7.9688-23.438 2.7355-7.9226 5.2069-15.312 7.2188-22.094 1.1734-3.9622 2.1996-7.704 3.0312-11.188 0.83164-3.4835 1.461-6.7053 1.9375-9.6562 0.46651-2.9155 0.77016-5.5644 0.96875-7.875 0.19861-2.3106 0.28305-4.2756 0.34375-5.9062 0.060699-1.6306 0.11896-2.925 0.21875-3.8125 0.099808-0.88745 0.25645-1.3757 0.53125-1.4375 0.2748-0.061768 0.66112 0.31152 1.0938 1.125 0.43265 0.81354 0.92197 2.0805 1.375 3.75 0.45303 1.6696 0.85115 3.7465 1.125 6.2188 0.27386 2.4724 0.39439 5.3186 0.3125 8.4688-0.078094 3.1838-0.33997 6.689-0.84375 10.438-0.50378 3.7486-1.2329 7.7624-2.1562 11.938-1.5744 7.137-3.6818 14.855-6.1562 22.969-2.0066 6.58-4.2755 13.46-6.5312 20.5h-10.438z"/>
    <path id="path4086" d="m118.02 478.99c0.058014-1.4746 0.13562-2.9319 0.1875-4.4249 0.006012-0.14752-0.005005-0.30231 0-0.45001 0.42306-12.603 0.62372-24.628 0.86249-35.625 0.2388-10.997 0.54108-20.964 0.97501-29.325 0.43393-8.3603 0.99469-15.119 1.6875-19.8 0.69281-4.6808 1.497-7.275 2.325-7.275s1.6196 2.5785 2.3625 7.2374c0.74289 4.659 1.4479 11.388 2.1 19.725 0.6521 8.3367 1.2449 18.292 1.6125 29.362 0.36752 11.07 0.50104 23.271 0.074982 36.112-0.005005 0.15045 0.005005 0.29974 0 0.45001-0.045197 1.3525-0.12912 2.6732-0.1875 4.0124h-12z"/>
    <path id="path4038" d="m149.43 478.99c0.25287-6.3087 0.79102-12.361 1.6207-17.905 1.0052-6.7162 2.4185-12.694 3.9875-17.571 1.569-4.8771 3.2686-8.6604 4.6821-11.165 1.4135-2.5047 2.514-3.7372 3.0356-3.5245 0.52158 0.21277 0.41769 1.8534-0.051392 4.6049-0.46915 2.7515-1.2702 6.6222-2.0581 11.448s-1.5455 10.602-2.0838 17.082c-0.43707 5.2613-0.7135 11.01-0.90039 17.03h-8.2324z"/>
    <path id="path4082" d="m254.3 376.95c-0.30991-0.005005-0.8118 0.38403-1.4688 1.1875-0.75079 0.91821-1.7049 2.379-2.75 4.3438s-2.1741 4.4385-3.25 7.4375-2.0891 6.5303-2.875 10.5c-0.71948 3.6408-1.2332 7.6498-1.5 11.969-0.26675 4.3189-0.27188 8.9488 0.031189 13.781 0.45172 7.1347 1.4928 14.72 3.125 22.562 1.6322 7.8429 3.8487 15.937 6.375 24.125 0.51511 1.6694 1.0369 3.3018 1.5625 4.9375 0.20584 0.64398 0.41788 1.2672 0.625 1.9062h10.438c-0.52585-1.641-1.04-3.2428-1.5625-4.9062-0.50546-1.6182-0.99695-3.2362-1.5-4.875-2.4673-8.038-4.6938-15.858-6.4688-23.312-1.775-7.4544-3.0878-14.544-3.875-21.219-0.53476-4.5064-0.8522-8.8227-0.9375-12.844-0.085297-4.0211 0.059692-7.7549 0.34375-11.188 0.61435-7.4694 1.9465-13.45 2.9062-17.594 0.47986-2.0718 0.84885-3.699 1.0312-4.8438 0.18243-1.1448 0.16598-1.7978-0.125-1.9375-0.036407-0.017395-0.080688-0.030518-0.125-0.031189l0.0001-0.0001z"/>
    <path id="path4080" d="m203.75 377.67c-0.11322-0.022583-0.26517 0.020386-0.37445 0.18726-0.10928 0.16681-0.16061 0.48804-0.18722 0.71143-0.056091 0.39496-0.061096 0.90753 0 1.4978 0.12058 1.1668 0.47061 2.735 0.97357 4.6058 1.0008 3.7186 2.6886 8.8284 4.7181 15.053 4.0065 12.283 9.446 29.154 13.668 49.054 2.0501 9.6731 3.7636 20.075 4.9428 30.93h12.095c-1.283-11.859-3.4439-23.157-6.0662-33.514-2.5942-10.254-5.6422-19.597-8.7622-27.859-3.12-8.2625-6.3003-15.437-9.2116-21.344-2.9607-6.009-5.6042-10.666-7.6388-13.93-1.032-1.6602-1.8791-2.9219-2.5463-3.8195-0.341-0.46338-0.62753-0.79456-0.86124-1.0485-0.15176-0.23358-0.33145-0.2663-0.44937-0.33698-0.11789-0.07074-0.18643-0.16461-0.29956-0.18726z"/>
    <path id="path4078" d="m181.77 397.49c-0.63556 0.21399-0.41458 2.7958 0.40625 7.2812s2.2306 10.896 3.875 18.812c1.6444 7.9161 3.5167 17.317 4.9375 27.812 1.1873 8.7705 2.0558 18.31 2.1875 28.312h9.9062c-0.27274-10.621-1.4806-20.654-3.1562-29.75-1.9922-10.815-4.6014-20.341-7.1562-28.188-2.5549-7.8464-5.0494-13.993-7-18.156-1.9506-4.1634-3.3645-6.339-4-6.125z"/>
    <path id="path4076" d="m282.03 399.5c-0.73947 0-1.4332 2.0774-2.1099 5.7604-0.67667 3.6829-1.3505 8.9863-2.0094 15.573-0.65894 6.5868-1.2854 14.441-1.775 23.209-0.48962 8.7676-0.82849 18.454-0.63632 28.668 0.006012 0.33929 0.025909 0.66638 0.033417 1.0047 0.0354 1.7626 0.097778 3.5213 0.16745 5.258h10.717c-0.056396-1.8157-0.12503-3.6409-0.16745-5.4924-0.007019-0.32965-0.0271-0.64044-0.033417-0.97125-0.1926-9.9582-0.18179-19.514-0.23444-28.232-0.052582-8.7183-0.15842-16.599-0.46884-23.242-0.31046-6.643-0.80148-12.022-1.4066-15.74-0.60513-3.7187-1.337-5.7939-2.0764-5.7939z"/>
    <path id="path4068" d="m291.87 407.77c-0.65717 0.20361-0.60599 2.4323-0.15625 6.2812 0.44974 3.849 1.302 9.3268 2.1875 16.094 0.8855 6.7669 1.7809 14.839 2.5 23.844 0.63354 7.9337 1.1111 16.618 1.4688 25.719h10c-0.41138-9.4385-1.185-18.483-2.3125-26.719-1.2608-9.2097-2.9362-17.43-4.75-24.219-1.8138-6.7887-3.7588-12.149-5.375-15.75-1.6162-3.6012-2.9054-5.4536-3.5625-5.25z"/>
   </g>
   <rect id="rect4094" y="466.69" width="638.82" height="13.011" x="2.1306"/>
   <g fill-rule="evenodd">
    <path id="path2886" d="m13.334 478.99c0.025902-1.967 0.0354-3.9353 0-5.9375-0.027298-1.4055-0.094902-2.8294-0.15625-4.25-0.37658-8.7242-1.4134-17.108-3.1875-24.781-1.7741-7.6733-4.2697-14.642-7.3125-20.719-2.778-5.6408-6.0008-10.512-9.25-14.531s-6.5368-7.1776-9.4375-9.6562c-6.5572-4.3742-10.313-7.3737-9.9688-8.2188 0.36408-0.83423 4.8508 0.5968 12.625 3.9375 3.5686 2.0856 7.6468 5.0774 11.75 9.125 4.1032 4.0477 8.209 9.1796 11.781 15.312 3.76 6.536 6.902 14.115 9.125 22.438 2.223 8.3228 3.541 17.375 3.9062 26.688 0.059502 1.5164 0.082001 3.0369 0.093704 4.5312 0.019493 2.0485-0.011002 4.0555-0.0625 6.0625h-9.9062 0.000046z"/>
    <path id="path2888" d="m45.924 478.99c0.21168-1.9487 0.4476-3.9003 0.62495-5.8746 1.0514-11.705 1.3852-23.067 1.0833-33.79-0.34976-12.553-1.5865-24.245-3.2498-34.665-1.6634-10.42-3.738-19.546-5.6664-27.124-1.9284-7.5779-3.6763-13.611-4.7497-17.832-1.0734-4.2208-1.4787-6.6373-0.79163-6.958 0.68707-0.32062 2.3946 1.4847 4.7497 5.2498 2.3551 3.765 5.3756 9.5021 8.4579 16.999s6.1972 16.774 8.7495 27.54 4.5125 23.013 5.2914 36.248c0.66113 11.282 0.5145 23.258-0.5833 35.54-0.1403 1.5695-0.29036 3.114-0.45831 4.6664h-13.458z"/>
    <path id="path2890" d="m74.334 478.99c2.6703-8.2386 5.4302-16.085 7.9688-23.438 2.7355-7.9226 5.2069-15.312 7.2188-22.094 1.1734-3.9622 2.1996-7.704 3.0312-11.188 0.83164-3.4835 1.461-6.7053 1.9375-9.6562 0.46651-2.9155 0.77016-5.5644 0.96875-7.875 0.19861-2.3106 0.28305-4.2756 0.34375-5.9062 0.060699-1.6306 0.11896-2.925 0.21875-3.8125 0.099808-0.88745 0.25645-1.3757 0.53125-1.4375 0.2748-0.061768 0.66112 0.31152 1.0938 1.125 0.43265 0.81354 0.92197 2.0805 1.375 3.75 0.45303 1.6696 0.85115 3.7465 1.125 6.2188 0.27386 2.4724 0.39439 5.3186 0.3125 8.4688-0.078094 3.1838-0.33997 6.689-0.84375 10.438-0.50378 3.7486-1.2329 7.7624-2.1562 11.938-1.5744 7.137-3.6818 14.855-6.1562 22.969-2.0066 6.58-4.2755 13.46-6.5312 20.5h-10.438z"/>
    <path id="path2892" d="m118.02 478.99c0.058014-1.4746 0.13562-2.9319 0.1875-4.4249 0.006012-0.14752-0.005005-0.30231 0-0.45001 0.42306-12.603 0.62372-24.628 0.86249-35.625 0.2388-10.997 0.54108-20.964 0.97501-29.325 0.43393-8.3603 0.99469-15.119 1.6875-19.8 0.69281-4.6808 1.497-7.275 2.325-7.275s1.6196 2.5785 2.3625 7.2374c0.74289 4.659 1.4479 11.388 2.1 19.725 0.6521 8.3367 1.2449 18.292 1.6125 29.362 0.36752 11.07 0.50104 23.271 0.074982 36.112-0.005005 0.15045 0.005005 0.29974 0 0.45001-0.045197 1.3525-0.12912 2.6732-0.1875 4.0124h-12z"/>
    <path id="path2894" d="m149.43 478.99c0.25287-6.3087 0.79102-12.361 1.6207-17.905 1.0052-6.7162 2.4185-12.694 3.9875-17.571 1.569-4.8771 3.2686-8.6604 4.6821-11.165 1.4135-2.5047 2.514-3.7372 3.0356-3.5245 0.52158 0.21277 0.41769 1.8534-0.051392 4.6049-0.46915 2.7515-1.2702 6.6222-2.0581 11.448s-1.5455 10.602-2.0838 17.082c-0.43707 5.2613-0.7135 11.01-0.90039 17.03h-8.2324z"/>
    <path id="path2896" d="m254.3 376.95c-0.30991-0.005005-0.8118 0.38403-1.4688 1.1875-0.75079 0.91821-1.7049 2.379-2.75 4.3438s-2.1741 4.4385-3.25 7.4375-2.0891 6.5303-2.875 10.5c-0.71948 3.6408-1.2332 7.6498-1.5 11.969-0.26675 4.3189-0.27188 8.9488 0.031189 13.781 0.45172 7.1347 1.4928 14.72 3.125 22.562 1.6322 7.8429 3.8487 15.937 6.375 24.125 0.51511 1.6694 1.0369 3.3018 1.5625 4.9375 0.20584 0.64398 0.41788 1.2672 0.625 1.9062h10.438c-0.52585-1.641-1.04-3.2428-1.5625-4.9062-0.50546-1.6182-0.99695-3.2362-1.5-4.875-2.4673-8.038-4.6938-15.858-6.4688-23.312-1.775-7.4544-3.0878-14.544-3.875-21.219-0.53476-4.5064-0.8522-8.8227-0.9375-12.844-0.085297-4.0211 0.059692-7.7549 0.34375-11.188 0.61435-7.4694 1.9465-13.45 2.9062-17.594 0.47986-2.0718 0.84885-3.699 1.0312-4.8438 0.18243-1.1448 0.16598-1.7978-0.125-1.9375-0.036407-0.017395-0.080688-0.030518-0.125-0.031189l0.0001-0.0001z"/>
    <path id="path2898" d="m203.75 377.67c-0.11322-0.022583-0.26517 0.020386-0.37445 0.18726-0.10928 0.16681-0.16061 0.48804-0.18722 0.71143-0.056091 0.39496-0.061096 0.90753 0 1.4978 0.12058 1.1668 0.47061 2.735 0.97357 4.6058 1.0008 3.7186 2.6886 8.8284 4.7181 15.053 4.0065 12.283 9.446 29.154 13.668 49.054 2.0501 9.6731 3.7636 20.075 4.9428 30.93h12.095c-1.283-11.859-3.4439-23.157-6.0662-33.514-2.5942-10.254-5.6422-19.597-8.7622-27.859-3.12-8.2625-6.3003-15.437-9.2116-21.344-2.9607-6.009-5.6042-10.666-7.6388-13.93-1.032-1.6602-1.8791-2.9219-2.5463-3.8195-0.341-0.46338-0.62753-0.79456-0.86124-1.0485-0.15176-0.23358-0.33145-0.2663-0.44937-0.33698-0.11789-0.07074-0.18643-0.16461-0.29956-0.18726z"/>
    <path id="path2900" d="m181.77 397.49c-0.63556 0.21399-0.41458 2.7958 0.40625 7.2812s2.2306 10.896 3.875 18.812c1.6444 7.9161 3.5167 17.317 4.9375 27.812 1.1873 8.7705 2.0558 18.31 2.1875 28.312h9.9062c-0.27274-10.621-1.4806-20.654-3.1562-29.75-1.9922-10.815-4.6014-20.341-7.1562-28.188-2.5549-7.8464-5.0494-13.993-7-18.156-1.9506-4.1634-3.3645-6.339-4-6.125z"/>
    <path id="path2902" d="m282.03 399.5c-0.73947 0-1.4332 2.0774-2.1099 5.7604-0.67667 3.6829-1.3505 8.9863-2.0094 15.573-0.65894 6.5868-1.2854 14.441-1.775 23.209-0.48962 8.7676-0.82849 18.454-0.63632 28.668 0.006012 0.33929 0.025909 0.66638 0.033417 1.0047 0.0354 1.7626 0.097778 3.5213 0.16745 5.258h10.717c-0.056396-1.8157-0.12503-3.6409-0.16745-5.4924-0.007019-0.32965-0.0271-0.64044-0.033417-0.97125-0.1926-9.9582-0.18179-19.514-0.23444-28.232-0.052582-8.7183-0.15842-16.599-0.46884-23.242-0.31046-6.643-0.80148-12.022-1.4066-15.74-0.60513-3.7187-1.337-5.7939-2.0764-5.7939z"/>
    <path id="path2904" d="m291.87 407.77c-0.65717 0.20361-0.60599 2.4323-0.15625 6.2812 0.44974 3.849 1.302 9.3268 2.1875 16.094 0.8855 6.7669 1.7809 14.839 2.5 23.844 0.63354 7.9337 1.1111 16.618 1.4688 25.719h10c-0.41138-9.4385-1.185-18.483-2.3125-26.719-1.2608-9.2097-2.9362-17.43-4.75-24.219-1.8138-6.7887-3.7588-12.149-5.375-15.75-1.6162-3.6012-2.9054-5.4536-3.5625-5.25z"/>
    <path id="path2906" d="m21.395 468.97c0.026596-2.0201 0.0364-4.0414 0-6.0976-0.028-1.4434-0.097504-2.9057-0.16046-4.3646-0.38673-8.9594-1.4515-17.569-3.2734-25.449-1.8219-7.8801-4.3848-15.036-7.5096-21.277-2.8528-5.7928-6.1626-10.796-9.4994-14.923-3.3368-4.1274-6.713-7.3711-9.6919-9.9166-6.734-4.4921-10.591-7.5726-10.238-8.4403 0.37389-0.85675 4.9816 0.61285 12.965 4.0436 3.6648 2.1418 7.8529 5.2142 12.067 9.371 4.2138 4.1567 8.4303 9.427 12.099 15.725 3.8613 6.7122 7.0881 14.495 9.371 23.042 2.2829 8.5471 3.6364 17.843 4.0116 27.407 0.061104 1.5572 0.084198 3.1187 0.096199 4.6534 0.020004 2.1036-0.011299 4.1648-0.064201 6.226h-10.173 0.000092z"/>
    <path id="path2908" d="m54.862 468.97c0.21739-2.0013 0.45967-4.0056 0.6418-6.033 1.0798-12.02 1.4226-23.689 1.1125-34.701-0.35918-12.891-1.6292-24.899-3.3374-35.599s-3.8387-20.072-5.8191-27.855c-1.9804-7.7822-3.7754-13.978-4.8778-18.313-1.1024-4.3347-1.5186-6.8162-0.81296-7.1455 0.7056-0.32928 2.4592 1.5247 4.8778 5.3912s5.5205 9.7582 8.6859 17.457c3.1654 7.699 6.3642 17.227 8.9854 28.282 2.6211 11.056 4.6341 23.634 5.434 37.225 0.67896 11.586 0.52838 23.885-0.59901 36.498-0.14407 1.6119-0.29819 3.1979-0.47067 4.7922h-13.82z"/>
    <path id="path2910" d="m84.039 468.97c2.7423-8.4607 5.5766-16.519 8.1836-24.069 2.8092-8.1361 5.3473-15.725 7.4133-22.689 1.205-4.0691 2.2589-7.9117 3.113-11.489 0.85406-3.5774 1.5003-6.886 1.9898-9.9166 0.47906-2.9941 0.79092-5.7144 0.99484-8.0873 0.20395-2.3728 0.29068-4.3909 0.35303-6.0654 0.062286-1.6746 0.12216-3.0039 0.22464-3.9153 0.10248-0.91138 0.26337-1.4128 0.54559-1.4763 0.28217-0.063477 0.67892 0.31988 1.1232 1.1553 0.44428 0.83545 0.94681 2.1366 1.412 3.8511 0.46527 1.7145 0.87412 3.8474 1.1553 6.3864 0.28125 2.5389 0.40503 5.4619 0.32092 8.697-0.0802 3.2696-0.34915 6.8693-0.86649 10.719-0.51736 3.8496-1.2662 7.9717-2.2144 12.259-1.6168 7.3294-3.7811 15.255-6.3222 23.588-2.0607 6.7574-4.3908 13.823-6.7073 21.053h-10.719z"/>
    <path id="path2912" d="m128.9 468.97c0.059601-1.5144 0.13928-3.011 0.19257-4.5442 0.006012-0.15149-0.005005-0.31049 0-0.46216 0.43448-12.943 0.64053-25.291 0.88574-36.585 0.24524-11.294 0.55566-21.53 1.0012-30.115 0.44565-8.5857 1.0216-15.527 1.733-20.334 0.71146-4.807 1.5374-7.471 2.3877-7.471 0.85031 0 1.6632 2.648 2.4262 7.4325 0.76291 4.7846 1.4869 11.695 2.1566 20.257 0.66971 8.5614 1.2785 18.785 1.656 30.154 0.37744 11.368 0.51456 23.899 0.076996 37.086-0.005005 0.15448 0.005005 0.30774 0 0.4621-0.046387 1.389-0.13263 2.7452-0.19254 4.1207h-12.323z"/>
    <path id="path2914" d="m161.16 468.97c0.2597-6.4788 0.81235-12.695 1.6644-18.388 1.0323-6.8972 2.4837-13.036 4.095-18.044 1.6113-5.0087 3.3567-8.8939 4.8084-11.466s2.5818-3.8379 3.1175-3.6194c0.53564 0.21851 0.42896 1.9034-0.052795 4.7291-0.48178 2.8257-1.3044 6.8007-2.1136 11.757-0.80914 4.9559-1.5871 10.888-2.14 17.542-0.44888 5.4031-0.73273 11.307-0.92468 17.49h-8.4542z"/>
    <path id="path2916" d="m268.86 364.18c-0.31827-0.005005-0.83368 0.39441-1.5084 1.2195-0.77103 0.94299-1.7508 2.443-2.8241 4.4608-1.0732 2.0178-2.2327 4.5582-3.3376 7.638s-2.1454 6.7063-2.9525 10.783c-0.73886 3.7389-1.2664 7.8561-1.5404 12.291-0.27393 4.4353-0.2792 9.1901 0.031982 14.153 0.46393 7.327 1.533 15.116 3.2093 23.171 1.6762 8.0544 3.9524 16.366 6.5468 24.775 0.52896 1.7145 1.0648 3.3908 1.6046 5.0706 0.2114 0.66132 0.42914 1.3013 0.64185 1.9576h10.719c-0.54001-1.6853-1.068-3.3302-1.6046-5.0385-0.5191-1.6617-1.0238-3.3234-1.5404-5.0064-2.5338-8.2547-4.8203-16.286-6.6431-23.941-1.8228-7.6553-3.171-14.936-3.9795-21.791-0.54919-4.6278-0.87518-9.0606-0.96277-13.19-0.087616-4.1295 0.06131-7.9639 0.353-11.489 0.63092-7.6706 1.999-13.813 2.9846-18.068 0.49277-2.1277 0.8717-3.7986 1.059-4.9743 0.18732-1.1757 0.17044-1.8464-0.12839-1.9898-0.037384-0.017883-0.082886-0.031311-0.12836-0.031982l0.0001-0.0001z"/>
    <path id="path2918" d="m216.94 364.91c-0.1163-0.023193-0.27234 0.020935-0.38455 0.19232-0.11224 0.17133-0.16498 0.50122-0.19229 0.73065-0.057587 0.40552-0.062683 0.93195 0 1.5382 0.12381 1.1982 0.48331 2.8087 0.99985 4.7299 1.0277 3.8188 2.7611 9.0664 4.8453 15.459 4.1145 12.614 9.7006 29.94 14.036 50.376 2.1054 9.9338 3.8651 20.617 5.076 31.764h12.421c-1.3176-12.178-3.5367-23.781-6.2297-34.417-2.6641-10.531-5.7943-20.125-8.9984-28.61-3.2041-8.4853-6.4702-15.854-9.4599-21.919-3.0405-6.171-5.7553-10.953-7.8448-14.305-1.0598-1.705-1.9297-3.0007-2.6149-3.9224-0.35019-0.47583-0.64444-0.81598-0.88443-1.0767-0.15585-0.23987-0.34039-0.2735-0.46149-0.34607-0.12106-0.072632-0.19147-0.16901-0.30762-0.19232z"/>
    <path id="path2920" d="m194.37 385.27c-0.65268 0.21973-0.42575 2.8712 0.41721 7.4775s2.2907 11.19 3.9795 19.32c1.6888 8.1295 3.6115 17.784 5.0706 28.562 1.2193 9.007 2.1112 18.803 2.2465 29.076h10.173c-0.28006-10.907-1.5206-21.211-3.2413-30.552-2.046-11.106-4.7255-20.89-7.3492-28.947-2.6237-8.0579-5.1855-14.37-7.1887-18.646-2.0032-4.2756-3.4551-6.5098-4.1078-6.2901z"/>
    <path id="path2922" d="m297.34 387.33c-0.7594 0-1.4719 2.1335-2.1668 5.9156-0.69492 3.7822-1.3869 9.2285-2.0636 15.993-0.6767 6.7643-1.32 14.831-1.8228 23.835-0.50284 9.0039-0.85086 18.951-0.6535 29.441 0.006012 0.34839 0.026611 0.68433 0.034302 1.0317 0.036407 1.8102 0.10043 3.6163 0.172 5.3998h11.006c-0.057892-1.8646-0.12839-3.7391-0.17197-5.6405-0.006989-0.33856-0.027802-0.65772-0.034302-0.99744-0.19778-10.227-0.18671-20.04-0.24075-28.994-0.053986-8.9532-0.16269-17.047-0.48151-23.869-0.31882-6.8221-0.82309-12.346-1.4445-16.165-0.62143-3.8189-1.373-5.95-2.1324-5.95z"/>
    <path id="path2924" d="m307.43 395.83c-0.6749 0.20911-0.62234 2.4979-0.16046 6.4506 0.46185 3.9527 1.3371 9.5782 2.2465 16.528 0.90939 6.9493 1.8289 15.239 2.5674 24.486 0.65064 8.1476 1.141 17.066 1.5084 26.412h10.27c-0.42246-9.6929-1.217-18.981-2.3748-27.439-1.2948-9.458-3.0154-17.9-4.878-24.872-1.8626-6.9717-3.8601-12.476-5.5199-16.175-1.6597-3.6983-2.9837-5.6006-3.6585-5.3915z"/>
    <path id="path2926" d="m41.481 472.07c0.022903-1.7413 0.031403-3.4836 0-5.256-0.024094-1.2442-0.084-2.5046-0.13831-3.7622-0.33336-7.7228-1.2512-15.144-2.8216-21.937-1.5705-6.7925-3.7796-12.961-6.4731-18.341-2.4591-4.9933-5.312-9.3055-8.1882-12.863-2.8762-3.5577-5.7864-6.3537-8.3542-8.5478-5.8045-3.8721-9.1292-6.5274-8.8245-7.2754 0.3223-0.73852 4.294 0.52826 11.176 3.4855 3.159 1.8462 6.769 4.4946 10.401 8.0776 3.6322 3.583 7.2668 8.1258 10.429 13.555 3.3284 5.7858 6.1098 12.495 8.0776 19.862 1.9678 7.3674 3.1345 15.38 3.4579 23.624 0.052689 1.3424 0.072586 2.6883 0.082886 4.0112 0.017212 1.8133-0.009995 3.59-0.055298 5.3666h-8.7692 0.000061z"/>
    <path id="path2928" d="m70.329 472.07c0.18739-1.7251 0.39622-3.4527 0.55322-5.2004 0.93076-10.361 1.2262-20.42 0.95894-29.911-0.30962-11.112-1.4044-21.462-2.8768-30.686-1.4724-9.2236-3.3089-17.302-5.016-24.01-1.707-6.7081-3.2543-12.049-4.2045-15.786-0.95023-3.7363-1.309-5.8754-0.70076-6.1592 0.6082-0.28388 2.1198 1.3142 4.2045 4.6471 2.0848 3.3329 4.7585 8.4114 7.487 15.048 2.7285 6.6364 5.4858 14.849 7.7452 24.379 2.2593 9.5298 3.9945 20.372 4.684 32.087 0.58524 9.9868 0.45544 20.589-0.51636 31.46-0.12418 1.3893-0.25702 2.7565-0.4057 4.1308h-11.913z"/>
    <path id="path2930" d="m95.479 472.07c2.3638-7.293 4.8069-14.239 7.054-20.747 2.4215-7.0132 4.6092-13.555 6.3901-19.558 1.0387-3.5074 1.9472-6.8197 2.6833-9.9033 0.73618-3.0837 1.2933-5.9356 1.7151-8.5479 0.41293-2.5809 0.68176-4.9257 0.85754-6.9711 0.17581-2.0453 0.25055-3.7848 0.30429-5.2283 0.053711-1.4434 0.10532-2.5893 0.19363-3.3749 0.088318-0.78558 0.22705-1.2178 0.47028-1.2725 0.24326-0.054688 0.58524 0.27576 0.9682 0.99585 0.383 0.72015 0.81613 1.8417 1.2172 3.3196 0.40103 1.4778 0.75345 3.3164 0.99585 5.5049 0.24243 2.1885 0.34912 4.7081 0.27664 7.4966-0.069092 2.8184-0.30096 5.9211-0.74692 9.2394-0.44595 3.3183-1.0914 6.8714-1.9087 10.567-1.3937 6.3178-3.2592 13.15-5.4496 20.332-1.7763 5.8248-3.7848 11.915-5.7816 18.147h-9.2394z"/>
    <path id="path2932" d="m134.15 472.07c0.051392-1.3054 0.12006-2.5954 0.16596-3.917 0.005005-0.13062-0.003998-0.26764 0-0.39838 0.37451-11.156 0.55216-21.801 0.76349-31.536 0.2114-9.7349 0.47897-18.558 0.8631-25.959 0.38412-7.4007 0.88052-13.384 1.4938-17.527 0.61328-4.1435 1.3252-6.4399 2.0581-6.4399 0.73297 0 1.4337 2.2825 2.0913 6.4067 0.65762 4.1242 1.2817 10.081 1.859 17.461 0.57724 7.3798 1.102 16.192 1.4274 25.992 0.32535 9.7994 0.44354 20.6 0.066406 31.967-0.003998 0.13318 0.003998 0.26526 0 0.39832-0.040009 1.1973-0.11432 2.3663-0.16596 3.5519h-10.622z"/>
    <path id="path2934" d="m161.95 472.07c0.22385-5.5846 0.70023-10.942 1.4347-15.85 0.88977-5.9453 2.1409-11.237 3.5298-15.554 1.3889-4.3173 2.8934-7.6663 4.1447-9.8835s2.2255-3.3082 2.6872-3.1199c0.4617 0.18829 0.36975 1.6406-0.045502 4.0764-0.41531 2.4357-1.1244 5.8621-1.8218 10.134-0.69745 4.2719-1.3681 9.3849-1.8446 15.121-0.38693 4.6574-0.63159 9.7463-0.79706 15.076h-7.2874z"/>
    <path id="path2936" d="m254.79 381.75c-0.27432-0.004028-0.71863 0.3399-1.3002 1.0512-0.66461 0.81287-1.5092 2.1059-2.4344 3.8452-0.92511 1.7393-1.9245 3.9291-2.8769 6.5838-0.95239 2.6548-1.8493 5.7807-2.545 9.2948-0.63687 3.2228-1.0916 6.7717-1.3278 10.595-0.23612 3.8231-0.24066 7.9217 0.027618 12.199 0.39987 6.3158 1.3214 13.03 2.7663 19.973 1.4448 6.9427 3.4069 14.108 5.6432 21.356 0.45596 1.4778 0.91785 2.9228 1.3832 4.3708 0.18222 0.57007 0.3699 1.1217 0.55325 1.6874h9.2394c-0.46548-1.4527-0.92062-2.8706-1.3832-4.3431-0.44745-1.4324-0.88254-2.8647-1.3278-4.3154-2.1841-7.1154-4.155-14.038-5.7263-20.637-1.5712-6.5988-2.7333-12.875-3.4302-18.783-0.47339-3.9891-0.75436-7.81-0.82986-11.37-0.0755-3.5595 0.052795-6.8648 0.30426-9.9034 0.54385-6.6119 1.7231-11.906 2.5727-15.574 0.42474-1.834 0.75137-3.2744 0.91284-4.2878 0.1615-1.0134 0.14694-1.5915-0.11063-1.7151-0.032196-0.015381-0.071503-0.027039-0.11066-0.027588l0.0001-0.0001z"/>
    <path id="path2938" d="m210.04 382.38c-0.10022-0.02002-0.23474 0.018005-0.33148 0.16571-0.09671 0.1477-0.14218 0.43207-0.16574 0.62982-0.049591 0.34961-0.053986 0.80334 0 1.3259 0.10672 1.0328 0.4166 2.421 0.86185 4.0772 0.8859 3.2917 2.38 7.815 4.1765 13.325 3.5466 10.873 8.3617 25.808 12.099 43.423 1.8148 8.5627 3.3316 17.771 4.3755 27.38h10.706c-1.1357-10.498-3.0486-20.499-5.3698-29.667-2.2964-9.0772-4.9946-17.347-7.7565-24.662-2.7619-7.3142-5.5771-13.665-8.1542-18.894-2.6209-5.3192-4.9609-9.4415-6.762-12.331-0.91357-1.4697-1.6633-2.5865-2.254-3.381-0.30185-0.41016-0.55551-0.70337-0.76239-0.9281-0.13431-0.20673-0.2934-0.23578-0.39777-0.29834-0.10437-0.062561-0.16504-0.14569-0.26517-0.16571z"/>
    <path id="path2940" d="m190.58 399.92c-0.56262 0.18939-0.367 2.4749 0.35962 6.4455 0.72659 3.9705 1.9745 9.6457 3.4302 16.653 1.4557 7.0074 3.113 15.33 4.3707 24.62 1.0511 7.7638 1.8198 16.208 1.9364 25.063h8.7692c-0.24142-9.4016-1.3107-18.283-2.794-26.335-1.7636-9.5736-4.0732-18.006-6.3348-24.952-2.2616-6.9458-4.4698-12.387-6.1965-16.072-1.7267-3.6856-2.9782-5.6113-3.5408-5.4219z"/>
    <path id="path2942" d="m279.34 401.7c-0.6546 0-1.2687 1.839-1.8677 5.0992-0.599 3.2601-1.1955 7.9548-1.7788 13.786-0.58328 5.8307-1.1378 12.784-1.5712 20.545-0.43344 7.7612-0.73343 16.335-0.56329 25.377 0.005005 0.30035 0.022888 0.5899 0.029602 0.8894 0.031403 1.5603 0.086578 3.1171 0.14822 4.6545h9.4868c-0.049896-1.6073-0.11066-3.223-0.14822-4.862-0.006012-0.29181-0.024017-0.56696-0.029602-0.85974-0.1705-8.8152-0.16095-17.274-0.20752-24.992-0.0466-7.7175-0.14026-14.694-0.41507-20.574-0.27481-5.8805-0.70947-10.642-1.2452-13.934-0.53564-3.2918-1.1835-5.1288-1.8381-5.1288h0.000031z"/>
    <path id="path2944" d="m288.04 409.02c-0.58173 0.18024-0.53644 2.1531-0.13834 5.5602 0.39813 3.4072 1.1526 8.2562 1.9364 14.246 0.78384 5.9902 1.5765 13.136 2.213 21.107 0.56085 7.0231 0.98355 14.71 1.3002 22.767h8.8521c-0.36414-8.3551-1.049-16.361-2.0471-23.652-1.1161-8.1526-2.5992-15.429-4.2048-21.439-1.6056-6.0095-3.3274-10.754-4.758-13.942-1.4307-3.1878-2.5719-4.8276-3.1536-4.6473z"/>
    <path id="path2948" d="m184.54 472.07c-0.18738-1.7251-0.39621-3.4527-0.55319-5.2004-0.93079-10.361-1.2262-20.42-0.95895-29.911 0.3096-11.112 1.4044-21.462 2.8768-30.686 1.4724-9.2236 3.3089-17.302 5.0159-24.01 1.7071-6.7081 3.2543-12.049 4.2045-15.786 0.95023-3.7363 1.309-5.8754 0.70078-6.1592-0.60822-0.28388-2.1198 1.3142-4.2045 4.6471-2.0848 3.3329-4.7585 8.4114-7.487 15.048-2.7285 6.6364-5.4859 14.849-7.7452 24.379-2.2593 9.5298-3.9945 20.372-4.684 32.087-0.58524 9.9868-0.45541 20.589 0.51636 31.46 0.12421 1.3893 0.25705 2.7565 0.4057 4.1308h11.913z"/>
    <path id="path2956" d="m149.08 381.75c0.27432-0.004028 0.7186 0.3399 1.3001 1.0512 0.66464 0.81287 1.5092 2.1059 2.4344 3.8452 0.92514 1.7393 1.9246 3.9291 2.877 6.5838 0.95239 2.6548 1.8493 5.7807 2.545 9.2948 0.6369 3.2228 1.0917 6.7717 1.3278 10.595 0.23614 3.8231 0.24069 7.9217-0.027588 12.199-0.39987 6.3158-1.3214 13.03-2.7663 19.973-1.4448 6.9427-3.4069 14.108-5.6432 21.356-0.45596 1.4778-0.91785 2.9228-1.3832 4.3708-0.18222 0.57007-0.3699 1.1217-0.55325 1.6874h-9.2394c0.46548-1.4527 0.92062-2.8706 1.3832-4.3431 0.44745-1.4324 0.88251-2.8647 1.3278-4.3154 2.1841-7.1154 4.155-14.038 5.7262-20.637 1.5713-6.5988 2.7334-12.875 3.4302-18.783 0.47336-3.9891 0.75436-7.81 0.82986-11.37 0.0755-3.5595-0.052795-6.8648-0.30429-9.9034-0.54382-6.6119-1.7231-11.906-2.5727-15.574-0.42477-1.834-0.75137-3.2744-0.91287-4.2878-0.16147-1.0134-0.14694-1.5915 0.11066-1.7151 0.032196-0.015381 0.071503-0.027039 0.11066-0.027588l-0.0001-0.0001z"/>
    <path id="path2958" d="m278.83 387.38c0.10022-0.02002 0.23474 0.018005 0.33148 0.16571 0.09671 0.1477 0.14218 0.43207 0.16574 0.62982 0.049591 0.34961 0.053986 0.80334 0 1.3259-0.10672 1.0328-0.4166 2.421-0.86185 4.0772-0.8859 3.2917-2.38 7.815-4.1765 13.325-3.5466 10.873-8.3617 25.808-12.099 43.423-1.8148 8.5627-3.3316 17.771-4.3755 27.38h-10.706c1.1357-10.498 3.0486-20.499 5.3698-29.667 2.2964-9.0772 4.9946-17.347 7.7565-24.662 2.7619-7.3142 5.5771-13.665 8.1542-18.894 2.6209-5.3192 4.9609-9.4415 6.762-12.331 0.9136-1.4697 1.6634-2.5865 2.254-3.381 0.30185-0.41016 0.55548-0.70337 0.76239-0.9281 0.13431-0.20673 0.2934-0.23578 0.39777-0.29834 0.10437-0.062561 0.16504-0.14569 0.26517-0.16571z"/>
    <path id="path2960" d="m324.28 399.92c0.56262 0.18939 0.367 2.4749-0.35962 6.4455-0.72662 3.9705-1.9745 9.6457-3.4302 16.653-1.4557 7.0074-3.113 15.33-4.3707 24.62-1.0511 7.7638-1.8198 16.208-1.9364 25.063h-8.7692c0.24142-9.4016 1.3107-18.283 2.794-26.335 1.7636-9.5736 4.0732-18.006 6.3348-24.952 2.2616-6.9458 4.4698-12.387 6.1965-16.072 1.7267-3.6856 2.9783-5.6113 3.5409-5.4219z"/>
    <path id="path2962" d="m103.53 398.7c0.6546 0 1.2687 1.839 1.8677 5.0992 0.599 3.2601 1.1954 7.9548 1.7788 13.786 0.58328 5.8307 1.1378 12.784 1.5712 20.545 0.43344 7.7612 0.7334 16.335 0.56329 25.377-0.005005 0.30035-0.022888 0.5899-0.029602 0.8894-0.031403 1.5603-0.086609 3.1171-0.14825 4.6545h-9.4868c0.049896-1.6073 0.11069-3.223 0.14824-4.862 0.005997-0.29181 0.024002-0.56696 0.029602-0.85974 0.1705-8.8152 0.16095-17.274 0.20754-24.992 0.0466-7.7175 0.14024-14.694 0.41504-20.574 0.27481-5.8805 0.70949-10.642 1.2452-13.934 0.53567-3.2918 1.1835-5.1288 1.8381-5.1288z"/>
    <path id="path2964" d="m168.82 405.02c0.58173 0.18024 0.53644 2.1531 0.13834 5.5602-0.39813 3.4072-1.1526 8.2562-1.9364 14.246-0.78384 5.9902-1.5765 13.136-2.213 21.107-0.56085 7.0231-0.98355 14.71-1.3002 22.767h-8.8522c0.36417-8.3551 1.049-16.361 2.0471-23.652 1.1161-8.1526 2.5992-15.429 4.2048-21.439 1.6056-6.0095 3.3274-10.754 4.7581-13.942 1.4307-3.1878 2.5719-4.8276 3.1536-4.6473z"/>
    <path id="path2966" d="m313.33 478.99c0.025879-1.967 0.0354-3.9353 0-5.9375-0.027313-1.4055-0.09491-2.8294-0.15625-4.25-0.37659-8.7242-1.4134-17.108-3.1875-24.781-1.7741-7.6733-4.2697-14.642-7.3125-20.719-2.778-5.6408-6.0008-10.512-9.25-14.531s-6.5368-7.1776-9.4375-9.6562c-6.5572-4.3742-10.313-7.3737-9.9688-8.2188 0.36408-0.83423 4.8508 0.5968 12.625 3.9375 3.5686 2.0856 7.6468 5.0774 11.75 9.125 4.1032 4.0477 8.209 9.1796 11.781 15.312 3.76 6.536 6.902 14.115 9.125 22.438 2.223 8.3228 3.5409 17.375 3.9062 26.688 0.059479 1.5164 0.082001 3.0369 0.093689 4.5312 0.019501 2.0485-0.011017 4.0555-0.0625 6.0625h-9.9062 0.000061z"/>
    <path id="path2968" d="m345.92 478.99c0.21167-1.9487 0.4476-3.9003 0.62494-5.8746 1.0514-11.705 1.3852-23.067 1.0833-33.79-0.34976-12.553-1.5864-24.245-3.2498-34.665s-3.738-19.546-5.6664-27.124c-1.9284-7.5779-3.6763-13.611-4.7497-17.832-1.0734-4.2208-1.4787-6.6373-0.79163-6.958 0.68707-0.32062 2.3946 1.4847 4.7498 5.2498 2.3551 3.765 5.3756 9.5021 8.4578 16.999 3.0823 7.4969 6.1972 16.774 8.7495 27.54s4.5125 23.013 5.2914 36.248c0.66113 11.282 0.5145 23.258-0.58331 35.54-0.14029 1.5695-0.29034 3.114-0.45831 4.6664h-13.458z"/>
    <path id="path2970" d="m374.33 478.99c2.6703-8.2386 5.4302-16.085 7.9688-23.438 2.7354-7.9226 5.2069-15.312 7.2188-22.094 1.1734-3.9622 2.1996-7.704 3.0312-11.188 0.8316-3.4835 1.4609-6.7053 1.9375-9.6562 0.46649-2.9155 0.77014-5.5644 0.96875-7.875 0.19858-2.3106 0.28305-4.2756 0.34375-5.9062 0.060699-1.6306 0.11893-2.925 0.21875-3.8125 0.099792-0.88745 0.25644-1.3757 0.53125-1.4375 0.27478-0.061768 0.6611 0.31152 1.0938 1.125 0.43262 0.81354 0.92194 2.0805 1.375 3.75 0.45303 1.6696 0.85114 3.7465 1.125 6.2188 0.27383 2.4724 0.39438 5.3186 0.3125 8.4688-0.078125 3.1838-0.34 6.689-0.84375 10.438-0.50378 3.7486-1.2329 7.7624-2.1562 11.938-1.5744 7.137-3.6818 14.855-6.1562 22.969-2.0066 6.58-4.2755 13.46-6.5312 20.5h-10.438z"/>
    <path id="path2972" d="m521.21 478.99c-0.057983-1.4746-0.13562-2.9319-0.1875-4.4249-0.005981-0.14752 0.005005-0.30231 0-0.45001-0.42304-12.603-0.62366-24.628-0.86249-35.625-0.23877-10.997-0.54108-20.964-0.97498-29.325-0.4339-8.3603-0.99469-15.119-1.6875-19.8-0.69275-4.6808-1.497-7.275-2.325-7.275s-1.6196 2.5785-2.3625 7.2374c-0.74286 4.659-1.4479 11.388-2.1 19.725-0.6521 8.3367-1.2449 18.292-1.6125 29.362-0.36755 11.07-0.50104 23.271-0.075012 36.112 0.005005 0.15045-0.005005 0.29974 0 0.45001 0.045166 1.3525 0.12915 2.6732 0.1875 4.0124h12z"/>
    <path id="path2974" d="m489.8 478.99c-0.25287-6.3087-0.79102-12.361-1.6207-17.905-1.0051-6.7162-2.4185-12.694-3.9875-17.571-1.569-4.8771-3.2686-8.6604-4.6821-11.165-1.4136-2.5047-2.514-3.7372-3.0356-3.5245-0.52154 0.21277-0.41766 1.8534 0.051392 4.6049 0.46918 2.7515 1.2702 6.6222 2.0581 11.448s1.5454 10.602 2.0838 17.082c0.43707 5.2613 0.71344 11.01 0.90039 17.03h8.2323z"/>
    <path id="path2976" d="m554.3 376.95c-0.30988-0.005005-0.81177 0.38403-1.4688 1.1875-0.75079 0.91821-1.705 2.379-2.75 4.3438-1.0451 1.9648-2.1741 4.4385-3.25 7.4375s-2.0891 6.5303-2.875 10.5c-0.71948 3.6408-1.2332 7.6498-1.5 11.969-0.26672 4.3189-0.27185 8.9488 0.031189 13.781 0.45172 7.1347 1.4928 14.72 3.125 22.562 1.6322 7.8429 3.8487 15.937 6.375 24.125 0.51508 1.6694 1.0369 3.3018 1.5625 4.9375 0.20587 0.64398 0.41785 1.2672 0.625 1.9062h10.438c-0.52582-1.641-1.04-3.2428-1.5625-4.9062-0.50549-1.6182-0.99695-3.2362-1.5-4.875-2.4673-8.038-4.6937-15.858-6.4688-23.312-1.775-7.4544-3.0878-14.544-3.875-21.219-0.53473-4.5064-0.85217-8.8227-0.9375-12.844-0.085266-4.0211 0.059692-7.7549 0.34375-11.188 0.61432-7.4694 1.9465-13.45 2.9062-17.594 0.47986-2.0718 0.84882-3.699 1.0312-4.8438 0.18243-1.1448 0.16602-1.7978-0.125-1.9375-0.036377-0.017395-0.080688-0.030518-0.125-0.031189l0.0001-0.0001z"/>
    <path id="path2978" d="m435.48 377.67c0.11322-0.022583 0.2652 0.020386 0.37445 0.18726 0.10925 0.16681 0.16064 0.48804 0.18726 0.71143 0.056091 0.39496 0.061096 0.90753 0 1.4978-0.1206 1.1668-0.47064 2.735-0.97363 4.6058-1.0007 3.7186-2.6886 8.8284-4.7181 15.053-4.0065 12.283-9.446 29.154-13.668 49.054-2.0501 9.6731-3.7636 20.075-4.9428 30.93h-12.095c1.283-11.859 3.4439-23.157 6.0661-33.514 2.5942-10.254 5.6422-19.597 8.7622-27.859 3.12-8.2625 6.3003-15.437 9.2116-21.344 2.9607-6.009 5.6042-10.666 7.6388-13.93 1.032-1.6602 1.879-2.9219 2.5463-3.8195 0.341-0.46338 0.62756-0.79456 0.86127-1.0485 0.15173-0.23358 0.33142-0.2663 0.44934-0.33698 0.11792-0.07074 0.18646-0.16461 0.29956-0.18726z"/>
    <path id="path2980" d="m457.46 397.49c0.63556 0.21399 0.41455 2.7958-0.40625 7.2812-0.82086 4.4854-2.2306 10.896-3.875 18.812-1.6445 7.9161-3.5167 17.317-4.9375 27.812-1.1873 8.7705-2.0558 18.31-2.1875 28.312h-9.9062c0.2727-10.621 1.4806-20.654 3.1562-29.75 1.9922-10.815 4.6014-20.341 7.1562-28.188 2.5548-7.8464 5.0494-13.993 7-18.156 1.9506-4.1634 3.3644-6.339 4-6.125z"/>
    <path id="path2982" d="m582.03 399.5c-0.7395 0-1.4332 2.0774-2.1099 5.7604-0.6767 3.6829-1.3505 8.9863-2.0095 15.573-0.65894 6.5868-1.2853 14.441-1.775 23.209-0.48962 8.7676-0.82849 18.454-0.63629 28.668 0.005981 0.33929 0.025879 0.66638 0.033386 1.0047 0.0354 1.7626 0.097778 3.5213 0.16742 5.258h10.717c-0.056396-1.8157-0.125-3.6409-0.16748-5.4924-0.006958-0.32965-0.0271-0.64044-0.033386-0.97125-0.19263-9.9582-0.18182-19.514-0.23444-28.232-0.052612-8.7183-0.15839-16.599-0.46887-23.242-0.31042-6.643-0.80145-12.022-1.4066-15.74-0.60516-3.7187-1.337-5.7939-2.0764-5.7939z"/>
    <path id="path2984" d="m591.87 407.77c-0.65717 0.20361-0.60602 2.4323-0.15625 6.2812 0.44977 3.849 1.302 9.3268 2.1875 16.094 0.8855 6.7669 1.7809 14.839 2.5 23.844 0.63354 7.9337 1.1111 16.618 1.4688 25.719h10c-0.41138-9.4385-1.185-18.483-2.3125-26.719-1.2608-9.2097-2.9362-17.43-4.75-24.219-1.8138-6.7887-3.7588-12.149-5.375-15.75-1.6162-3.6012-2.9053-5.4536-3.5625-5.25z"/>
    <path id="path2986" d="m313.33 478.99c0.025879-1.967 0.0354-3.9353 0-5.9375-0.027313-1.4055-0.09491-2.8294-0.15625-4.25-0.37659-8.7242-1.4134-17.108-3.1875-24.781-1.7741-7.6733-4.2697-14.642-7.3125-20.719-2.778-5.6408-6.0008-10.512-9.25-14.531s-6.5368-7.1776-9.4375-9.6562c-6.5572-4.3742-10.313-7.3737-9.9688-8.2188 0.36408-0.83423 4.8508 0.5968 12.625 3.9375 3.5686 2.0856 7.6468 5.0774 11.75 9.125 4.1032 4.0477 8.209 9.1796 11.781 15.312 3.76 6.536 6.902 14.115 9.125 22.438 2.223 8.3228 3.5409 17.375 3.9062 26.688 0.059479 1.5164 0.082001 3.0369 0.093689 4.5312 0.019501 2.0485-0.011017 4.0555-0.0625 6.0625h-9.9062 0.000061z"/>
    <path id="path2988" d="m345.92 478.99c0.21167-1.9487 0.4476-3.9003 0.62494-5.8746 1.0514-11.705 1.3852-23.067 1.0833-33.79-0.34976-12.553-1.5864-24.245-3.2498-34.665s-3.738-19.546-5.6664-27.124c-1.9284-7.5779-3.6763-13.611-4.7497-17.832-1.0734-4.2208-1.4787-6.6373-0.79163-6.958 0.68707-0.32062 2.3946 1.4847 4.7498 5.2498 2.3551 3.765 5.3756 9.5021 8.4578 16.999 3.0823 7.4969 6.1972 16.774 8.7495 27.54s4.5125 23.013 5.2914 36.248c0.66113 11.282 0.5145 23.258-0.58331 35.54-0.14029 1.5695-0.29034 3.114-0.45831 4.6664h-13.458z"/>
    <path id="path2990" d="m374.33 478.99c2.6703-8.2386 5.4302-16.085 7.9688-23.438 2.7354-7.9226 5.2069-15.312 7.2188-22.094 1.1734-3.9622 2.1996-7.704 3.0312-11.188 0.8316-3.4835 1.4609-6.7053 1.9375-9.6562 0.46649-2.9155 0.77014-5.5644 0.96875-7.875 0.19858-2.3106 0.28305-4.2756 0.34375-5.9062 0.060699-1.6306 0.11893-2.925 0.21875-3.8125 0.099792-0.88745 0.25644-1.3757 0.53125-1.4375 0.27478-0.061768 0.6611 0.31152 1.0938 1.125 0.43262 0.81354 0.92194 2.0805 1.375 3.75 0.45303 1.6696 0.85114 3.7465 1.125 6.2188 0.27383 2.4724 0.39438 5.3186 0.3125 8.4688-0.078125 3.1838-0.34 6.689-0.84375 10.438-0.50378 3.7486-1.2329 7.7624-2.1562 11.938-1.5744 7.137-3.6818 14.855-6.1562 22.969-2.0066 6.58-4.2755 13.46-6.5312 20.5h-10.438z"/>
    <path id="path2992" d="m521.21 478.99c-0.057983-1.4746-0.13562-2.9319-0.1875-4.4249-0.005981-0.14752 0.005005-0.30231 0-0.45001-0.42304-12.603-0.62366-24.628-0.86249-35.625-0.23877-10.997-0.54108-20.964-0.97498-29.325-0.4339-8.3603-0.99469-15.119-1.6875-19.8-0.69275-4.6808-1.497-7.275-2.325-7.275s-1.6196 2.5785-2.3625 7.2374c-0.74286 4.659-1.4479 11.388-2.1 19.725-0.6521 8.3367-1.2449 18.292-1.6125 29.362-0.36755 11.07-0.50104 23.271-0.075012 36.112 0.005005 0.15045-0.005005 0.29974 0 0.45001 0.045166 1.3525 0.12915 2.6732 0.1875 4.0124h12z"/>
    <path id="path2994" d="m489.8 478.99c-0.25287-6.3087-0.79102-12.361-1.6207-17.905-1.0051-6.7162-2.4185-12.694-3.9875-17.571-1.569-4.8771-3.2686-8.6604-4.6821-11.165-1.4136-2.5047-2.514-3.7372-3.0356-3.5245-0.52154 0.21277-0.41766 1.8534 0.051392 4.6049 0.46918 2.7515 1.2702 6.6222 2.0581 11.448s1.5454 10.602 2.0838 17.082c0.43707 5.2613 0.71344 11.01 0.90039 17.03h8.2323z"/>
    <path id="path2996" d="m554.3 376.95c-0.30988-0.005005-0.81177 0.38403-1.4688 1.1875-0.75079 0.91821-1.705 2.379-2.75 4.3438-1.0451 1.9648-2.1741 4.4385-3.25 7.4375s-2.0891 6.5303-2.875 10.5c-0.71948 3.6408-1.2332 7.6498-1.5 11.969-0.26672 4.3189-0.27185 8.9488 0.031189 13.781 0.45172 7.1347 1.4928 14.72 3.125 22.562 1.6322 7.8429 3.8487 15.937 6.375 24.125 0.51508 1.6694 1.0369 3.3018 1.5625 4.9375 0.20587 0.64398 0.41785 1.2672 0.625 1.9062h10.438c-0.52582-1.641-1.04-3.2428-1.5625-4.9062-0.50549-1.6182-0.99695-3.2362-1.5-4.875-2.4673-8.038-4.6937-15.858-6.4688-23.312-1.775-7.4544-3.0878-14.544-3.875-21.219-0.53473-4.5064-0.85217-8.8227-0.9375-12.844-0.085266-4.0211 0.059692-7.7549 0.34375-11.188 0.61432-7.4694 1.9465-13.45 2.9062-17.594 0.47986-2.0718 0.84882-3.699 1.0312-4.8438 0.18243-1.1448 0.16602-1.7978-0.125-1.9375-0.036377-0.017395-0.080688-0.030518-0.125-0.031189l0.0001-0.0001z"/>
    <path id="path2998" d="m435.48 377.67c0.11322-0.022583 0.2652 0.020386 0.37445 0.18726 0.10925 0.16681 0.16064 0.48804 0.18726 0.71143 0.056091 0.39496 0.061096 0.90753 0 1.4978-0.1206 1.1668-0.47064 2.735-0.97363 4.6058-1.0007 3.7186-2.6886 8.8284-4.7181 15.053-4.0065 12.283-9.446 29.154-13.668 49.054-2.0501 9.6731-3.7636 20.075-4.9428 30.93h-12.095c1.283-11.859 3.4439-23.157 6.0661-33.514 2.5942-10.254 5.6422-19.597 8.7622-27.859 3.12-8.2625 6.3003-15.437 9.2116-21.344 2.9607-6.009 5.6042-10.666 7.6388-13.93 1.032-1.6602 1.879-2.9219 2.5463-3.8195 0.341-0.46338 0.62756-0.79456 0.86127-1.0485 0.15173-0.23358 0.33142-0.2663 0.44934-0.33698 0.11792-0.07074 0.18646-0.16461 0.29956-0.18726z"/>
    <path id="path3000" d="m457.46 397.49c0.63556 0.21399 0.41455 2.7958-0.40625 7.2812-0.82086 4.4854-2.2306 10.896-3.875 18.812-1.6445 7.9161-3.5167 17.317-4.9375 27.812-1.1873 8.7705-2.0558 18.31-2.1875 28.312h-9.9062c0.2727-10.621 1.4806-20.654 3.1562-29.75 1.9922-10.815 4.6014-20.341 7.1562-28.188 2.5548-7.8464 5.0494-13.993 7-18.156 1.9506-4.1634 3.3644-6.339 4-6.125z"/>
    <path id="path3002" d="m582.03 399.5c-0.7395 0-1.4332 2.0774-2.1099 5.7604-0.6767 3.6829-1.3505 8.9863-2.0095 15.573-0.65894 6.5868-1.2853 14.441-1.775 23.209-0.48962 8.7676-0.82849 18.454-0.63629 28.668 0.005981 0.33929 0.025879 0.66638 0.033386 1.0047 0.0354 1.7626 0.097778 3.5213 0.16742 5.258h10.717c-0.056396-1.8157-0.125-3.6409-0.16748-5.4924-0.006958-0.32965-0.0271-0.64044-0.033386-0.97125-0.19263-9.9582-0.18182-19.514-0.23444-28.232-0.052612-8.7183-0.15839-16.599-0.46887-23.242-0.31042-6.643-0.80145-12.022-1.4066-15.74-0.60516-3.7187-1.337-5.7939-2.0764-5.7939z"/>
    <path id="path3004" d="m591.87 407.77c-0.65717 0.20361-0.60602 2.4323-0.15625 6.2812 0.44977 3.849 1.302 9.3268 2.1875 16.094 0.8855 6.7669 1.7809 14.839 2.5 23.844 0.63354 7.9337 1.1111 16.618 1.4688 25.719h10c-0.41138-9.4385-1.185-18.483-2.3125-26.719-1.2608-9.2097-2.9362-17.43-4.75-24.219-1.8138-6.7887-3.7588-12.149-5.375-15.75-1.6162-3.6012-2.9053-5.4536-3.5625-5.25z"/>
    <path id="path3006" d="m321.39 468.97c0.026611-2.0201 0.036407-4.0414 0-6.0976-0.027985-1.4434-0.097473-2.9057-0.16046-4.3646-0.38672-8.9594-1.4515-17.569-3.2734-25.449-1.8219-7.8801-4.3848-15.036-7.5096-21.277-2.8528-5.7928-6.1625-10.796-9.4993-14.923-3.3368-4.1274-6.713-7.3711-9.6919-9.9166-6.7339-4.4921-10.591-7.5726-10.238-8.4403 0.37387-0.85675 4.9816 0.61285 12.965 4.0436 3.6648 2.1418 7.8529 5.2142 12.067 9.371 4.2138 4.1567 8.4303 9.427 12.099 15.725 3.8613 6.7122 7.0881 14.495 9.371 23.042 2.2829 8.5471 3.6364 17.843 4.0115 27.407 0.061096 1.5572 0.084198 3.1187 0.096222 4.6534 0.019989 2.1036-0.011322 4.1648-0.064209 6.226h-10.173 0.000092z"/>
    <path id="path3008" d="m351.67 468.97c0.26279-2.2791 0.55566-4.5615 0.77582-6.8704 1.3052-13.689 1.7196-26.977 1.3448-39.517-0.43417-14.68-1.9694-28.355-4.0342-40.54-2.0648-12.186-4.6401-22.858-7.034-31.721-2.3939-8.8624-4.5636-15.919-5.8962-20.855-1.3325-4.9363-1.8356-7.7623-0.9827-8.1373s2.9726 1.7363 5.8962 6.1395 6.673 11.113 10.499 19.88c3.8263 8.7676 7.693 19.618 10.861 32.208 3.1683 12.59 5.6016 26.914 6.5685 42.392 0.82071 13.194 0.6387 27.201-0.72406 41.564-0.17416 1.8355-0.36047 3.6417-0.56894 5.4573h-16.706z"/>
    <path id="path3010" d="m384.04 468.97c2.7423-8.4607 5.5766-16.519 8.1836-24.069 2.8092-8.1361 5.3473-15.725 7.4134-22.689 1.205-4.0691 2.2589-7.9117 3.113-11.489 0.85406-3.5774 1.5004-6.886 1.9898-9.9166 0.47906-2.9941 0.79092-5.7144 0.99487-8.0873 0.20395-2.3728 0.29068-4.3909 0.353-6.0654 0.062317-1.6746 0.12216-3.0039 0.22464-3.9153 0.10251-0.91138 0.2634-1.4128 0.54559-1.4763 0.2822-0.063477 0.67892 0.31988 1.1232 1.1553 0.4443 0.83545 0.94681 2.1366 1.4121 3.8511 0.46524 1.7145 0.87408 3.8474 1.1553 6.3864 0.28125 2.5389 0.40503 5.4619 0.32092 8.697-0.0802 3.2696-0.34912 6.8693-0.86649 10.719-0.51736 3.8496-1.2662 7.9717-2.2144 12.259-1.6168 7.3294-3.7811 15.255-6.3222 23.588-2.0607 6.7574-4.3908 13.823-6.7073 21.053h-10.719z"/>
    <path id="path3012" d="m510.33 468.97c-0.05957-1.5144-0.13922-3.011-0.1925-4.5442-0.006042-0.15149 0.005005-0.31049 0-0.46216-0.43451-12.943-0.64056-25.291-0.88574-36.585-0.24524-11.294-0.55566-21.53-1.0013-30.115-0.44562-8.5857-1.0216-15.527-1.733-20.334-0.71149-4.807-1.5374-7.471-2.3877-7.471-0.85028 0-1.6632 2.648-2.4262 7.4325-0.76288 4.7846-1.4869 11.695-2.1566 20.257-0.66968 8.5614-1.2784 18.785-1.6559 30.154-0.37744 11.368-0.51453 23.899-0.077026 37.086 0.005005 0.15448-0.004944 0.30774 0 0.4621 0.046448 1.389 0.13263 2.7452 0.19257 4.1207h12.323-0.000061z"/>
    <path id="path3014" d="m478.07 468.97c-0.25964-6.4788-0.81232-12.695-1.6644-18.388-1.0323-6.8972-2.4837-13.036-4.095-18.044-1.6113-5.0087-3.3567-8.8939-4.8084-11.466s-2.5818-3.8379-3.1175-3.6194c-0.53558 0.21851-0.42889 1.9034 0.052856 4.7291s1.3044 6.8007 2.1135 11.757c0.80914 4.9559 1.5871 10.888 2.14 17.542 0.44891 5.4031 0.73273 11.307 0.92468 17.49h8.4542z"/>
    <path id="path3016" d="m568.86 364.18c-0.31824-0.005005-0.83362 0.39441-1.5083 1.2195-0.77106 0.94299-1.7509 2.443-2.8242 4.4608-1.0732 2.0178-2.2327 4.5582-3.3376 7.638s-2.1454 6.7063-2.9525 10.783c-0.73889 3.7389-1.2665 7.8561-1.5405 12.291-0.27393 4.4353-0.27918 9.1901 0.032043 14.153 0.46387 7.327 1.533 15.116 3.2092 23.171 1.6762 8.0544 3.9524 16.366 6.5469 24.775 0.52893 1.7145 1.0648 3.3908 1.6046 5.0706 0.21136 0.66132 0.42908 1.3013 0.64185 1.9576h10.719c-0.53998-1.6853-1.068-3.3302-1.6046-5.0385-0.5191-1.6617-1.0238-3.3234-1.5404-5.0064-2.5338-8.2547-4.8203-16.286-6.6431-23.941-1.8228-7.6553-3.171-14.936-3.9795-21.791-0.54913-4.6278-0.87512-9.0606-0.96277-13.19-0.087585-4.1295 0.06134-7.9639 0.35303-11.489 0.63092-7.6706 1.999-13.813 2.9846-18.068 0.4928-2.1277 0.8717-3.7986 1.059-4.9743 0.18738-1.1757 0.17047-1.8464-0.12836-1.9898-0.037415-0.017883-0.082886-0.031311-0.12836-0.031982l0.0001-0.0001z"/>
    <path id="path3018" d="m516.94 364.91c-0.11627-0.023193-0.27228 0.020935-0.38452 0.19232-0.11224 0.17133-0.16498 0.50122-0.19226 0.73065-0.057617 0.40552-0.062744 0.93195 0 1.5382 0.12378 1.1982 0.48328 2.8087 0.99982 4.7299 1.0278 3.8188 2.761 9.0664 4.8453 15.459 4.1145 12.614 9.7006 29.94 14.036 50.376 2.1054 9.9338 3.8651 20.617 5.076 31.764h12.421c-1.3176-12.178-3.5367-23.781-6.2297-34.417-2.6641-10.531-5.7944-20.125-8.9985-28.61-3.204-8.4853-6.4701-15.854-9.4598-21.919-3.0405-6.171-5.7553-10.953-7.8448-14.305-1.0599-1.705-1.9297-3.0007-2.6149-3.9224-0.35016-0.47583-0.64441-0.81598-0.88446-1.0767-0.15582-0.23987-0.34039-0.2735-0.46143-0.34607-0.12109-0.072632-0.19147-0.16901-0.30768-0.19232z"/>
    <path id="path3020" d="m444.86 385.27c0.65265 0.21973 0.42572 2.8712-0.41724 7.4775s-2.2906 11.19-3.9794 19.32c-1.6888 8.1295-3.6115 17.784-5.0706 28.562-1.2193 9.007-2.1112 18.803-2.2465 29.076h-10.173c0.28003-10.907 1.5206-21.211 3.2413-30.552 2.046-11.106 4.7254-20.89 7.3491-28.947 2.6237-8.0579 5.1856-14.37 7.1887-18.646 2.0032-4.2756 3.4551-6.5098 4.1078-6.2901z"/>
    <path id="path3022" d="m597.34 387.33c-0.7594 0-1.4719 2.1335-2.1668 5.9156-0.69495 3.7822-1.3869 9.2285-2.0636 15.993-0.67676 6.7643-1.3201 14.831-1.8229 23.835-0.50281 9.0039-0.85083 18.951-0.65344 29.441 0.005981 0.34839 0.02655 0.68433 0.034302 1.0317 0.036377 1.8102 0.1004 3.6163 0.17194 5.3998h11.006c-0.057861-1.8646-0.12842-3.7391-0.17194-5.6405-0.007019-0.33856-0.027832-0.65772-0.034302-0.99744-0.19782-10.227-0.18677-20.04-0.24078-28.994-0.054016-8.9532-0.16266-17.047-0.48151-23.869-0.31879-6.8221-0.82306-12.346-1.4445-16.165-0.62146-3.8189-1.373-5.95-2.1324-5.95z"/>
    <path id="path3024" d="m607.43 395.83c-0.67487 0.20911-0.62231 2.4979-0.16046 6.4506 0.46191 3.9527 1.3371 9.5782 2.2465 16.528 0.90942 6.9493 1.8289 15.239 2.5674 24.486 0.65064 8.1476 1.141 17.066 1.5083 26.412h10.27c-0.42248-9.6929-1.217-18.981-2.3748-27.439-1.2948-9.458-3.0154-17.9-4.878-24.872-1.8627-6.9717-3.8602-12.476-5.5199-16.175-1.6598-3.6983-2.9837-5.6006-3.6586-5.3915z"/>
    <path id="path3026" d="m341.48 472.07c0.022919-1.7413 0.031403-3.4836 0-5.256-0.024078-1.2442-0.083984-2.5046-0.13831-3.7622-0.33334-7.7228-1.2512-15.144-2.8216-21.937-1.5705-6.7925-3.7796-12.961-6.4731-18.341-2.4591-4.9933-5.312-9.3055-8.1882-12.863-2.8762-3.5577-5.7864-6.3537-8.3542-8.5478-5.8045-3.8721-9.1292-6.5274-8.8245-7.2754 0.3223-0.73852 4.2941 0.52826 11.176 3.4855 3.159 1.8462 6.769 4.4946 10.401 8.0776 3.6323 3.583 7.2668 8.1258 10.429 13.555 3.3284 5.7858 6.1098 12.495 8.0776 19.862 1.9678 7.3674 3.1345 15.38 3.4579 23.624 0.052704 1.3424 0.072601 2.6883 0.082916 4.0112 0.017181 1.8133-0.01001 3.59-0.055298 5.3666h-8.7692 0.000031z"/>
    <path id="path3028" d="m371.33 472.07c0.18741-1.7251 0.39624-3.4527 0.55322-5.2004 0.93079-10.361 1.2262-20.42 0.95895-29.911-0.3096-11.112-1.4044-21.462-2.8768-30.686-1.4724-9.2236-3.3089-17.302-5.0159-24.01-1.7071-6.7081-3.2543-12.049-4.2045-15.786-0.95023-3.7363-1.309-5.8754-0.70078-6.1592 0.60822-0.28388 2.1198 1.3142 4.2045 4.6471 2.0848 3.3329 4.7586 8.4114 7.487 15.048 2.7285 6.6364 5.4858 14.849 7.7452 24.379 2.2593 9.5298 3.9945 20.372 4.684 32.087 0.58527 9.9868 0.45544 20.589-0.51633 31.46-0.12421 1.3893-0.25705 2.7565-0.4057 4.1308h-11.913z"/>
    <path id="path3030" d="m395.48 472.07c2.3638-7.293 4.8069-14.239 7.054-20.747 2.4215-7.0132 4.6092-13.555 6.3902-19.558 1.0387-3.5074 1.9471-6.8197 2.6833-9.9033 0.73621-3.0837 1.2933-5.9356 1.7151-8.5479 0.41296-2.5809 0.68176-4.9257 0.85754-6.9711 0.17581-2.0453 0.25058-3.7848 0.30429-5.2283 0.053711-1.4434 0.10532-2.5893 0.19366-3.3749 0.088287-0.78558 0.22702-1.2178 0.47028-1.2725 0.24322-0.054688 0.5852 0.27576 0.9682 0.99585 0.38296 0.72015 0.81613 1.8417 1.2172 3.3196 0.40103 1.4778 0.75345 3.3164 0.99588 5.5049s0.34912 4.7081 0.27661 7.4966c-0.069092 2.8184-0.30096 5.9211-0.74689 9.2394-0.44595 3.3183-1.0914 6.8714-1.9088 10.567-1.3937 6.3178-3.2592 13.15-5.4496 20.332-1.7763 5.8248-3.7847 11.915-5.7816 18.147h-9.2394z"/>
    <path id="path3032" d="m505.08 472.07c-0.051392-1.3054-0.12006-2.5954-0.16596-3.917-0.005005-0.13062 0.003967-0.26764 0-0.39838-0.37451-11.156-0.55212-21.801-0.76349-31.536-0.21136-9.7349-0.479-18.558-0.8631-25.959-0.38409-7.4007-0.88049-13.384-1.4938-17.527-0.61328-4.1435-1.3252-6.4399-2.0581-6.4399-0.73297 0-1.4337 2.2825-2.0913 6.4067-0.65759 4.1242-1.2817 10.081-1.859 17.461-0.57727 7.3798-1.102 16.192-1.4274 25.992-0.32532 9.7994-0.44348 20.6-0.066406 31.967 0.004028 0.13318-0.003967 0.26526 0 0.39832 0.040039 1.1973 0.11438 2.3663 0.16602 3.5519h10.622z"/>
    <path id="path3034" d="m477.28 472.07c-0.22388-5.5846-0.70026-10.942-1.4347-15.85-0.88983-5.9453-2.1409-11.237-3.5298-15.554-1.3889-4.3173-2.8934-7.6663-4.1446-9.8835-1.2513-2.2172-2.2255-3.3082-2.6872-3.1199-0.46173 0.18829-0.36975 1.6406 0.045471 4.0764 0.41528 2.4357 1.1244 5.8621 1.8218 10.134 0.69745 4.2719 1.3681 9.3849 1.8446 15.121 0.3869 4.6574 0.63159 9.7463 0.79706 15.076h7.2875z"/>
    <path id="path3036" d="m554.79 381.75c-0.27429-0.004028-0.71857 0.3399-1.3001 1.0512-0.66467 0.81287-1.5092 2.1059-2.4344 3.8452-0.92511 1.7393-1.9246 3.9291-2.877 6.5838-0.95239 2.6548-1.8493 5.7807-2.545 9.2948-0.6369 3.2228-1.0916 6.7717-1.3278 10.595-0.23608 3.8231-0.24066 7.9217 0.027588 12.199 0.3999 6.3158 1.3215 13.03 2.7663 19.973 1.4449 6.9427 3.4069 14.108 5.6432 21.356 0.45599 1.4778 0.91785 2.9228 1.3832 4.3708 0.18219 0.57007 0.36987 1.1217 0.55328 1.6874h9.2394c-0.46545-1.4527-0.92059-2.8706-1.3831-4.3431-0.44745-1.4324-0.88251-2.8647-1.3278-4.3154-2.1841-7.1154-4.155-14.038-5.7263-20.637-1.5712-6.5988-2.7333-12.875-3.4302-18.783-0.47339-3.9891-0.7544-7.81-0.8299-11.37-0.0755-3.5595 0.052795-6.8648 0.30426-9.9034 0.54382-6.6119 1.7232-11.906 2.5727-15.574 0.42474-1.834 0.7514-3.2744 0.91284-4.2878 0.1615-1.0134 0.14697-1.5915-0.11066-1.7151-0.032166-0.015381-0.071472-0.027039-0.11066-0.027588l0.0001-0.0001z"/>
    <path id="path3038" d="m510.04 382.38c-0.10022-0.02002-0.23474 0.018005-0.33148 0.16571-0.09668 0.1477-0.14215 0.43207-0.16571 0.62982-0.049622 0.34961-0.054016 0.80334 0 1.3259 0.10675 1.0328 0.41663 2.421 0.86182 4.0772 0.88592 3.2917 2.38 7.815 4.1766 13.325 3.5466 10.873 8.3617 25.808 12.099 43.423 1.8148 8.5627 3.3316 17.771 4.3754 27.38h10.706c-1.1357-10.498-3.0486-20.499-5.3699-29.667-2.2964-9.0772-4.9946-17.347-7.7564-24.662-2.7619-7.3142-5.5772-13.665-8.1542-18.894-2.6208-5.3192-4.9609-9.4415-6.762-12.331-0.91357-1.4697-1.6634-2.5865-2.254-3.381-0.30188-0.41016-0.55548-0.70337-0.76239-0.9281-0.13434-0.20673-0.2934-0.23578-0.39777-0.29834-0.10437-0.062561-0.16504-0.14569-0.2652-0.16571z"/>
    <path id="path3040" d="m448.65 399.92c0.56262 0.18939 0.367 2.4749-0.35962 6.4455-0.72662 3.9705-1.9746 9.6457-3.4302 16.653-1.4557 7.0074-3.113 15.33-4.3707 24.62-1.051 7.7638-1.8198 16.208-1.9364 25.063h-8.7692c0.24139-9.4016 1.3107-18.283 2.794-26.335 1.7636-9.5736 4.0732-18.006 6.3348-24.952 2.2616-6.9458 4.4698-12.387 6.1965-16.072 1.7268-3.6856 2.9783-5.6113 3.5409-5.4219z"/>
    <path id="path3042" d="m579.34 401.7c-0.6546 0-1.2687 1.839-1.8677 5.0992-0.599 3.2601-1.1955 7.9548-1.7788 13.786-0.58331 5.8307-1.1378 12.784-1.5712 20.545-0.43341 7.7612-0.7334 16.335-0.56329 25.377 0.005005 0.30035 0.022888 0.5899 0.029602 0.8894 0.031372 1.5603 0.086609 3.1171 0.14825 4.6545h9.4868c-0.049927-1.6073-0.11072-3.223-0.14825-4.862-0.005981-0.29181-0.023987-0.56696-0.029602-0.85974-0.17053-8.8152-0.16095-17.274-0.20752-24.992-0.046631-7.7175-0.14026-14.694-0.41504-20.574-0.27484-5.8805-0.70953-10.642-1.2452-13.934-0.53564-3.2918-1.1835-5.1288-1.8381-5.1288z"/>
    <path id="path3044" d="m588.04 409.02c-0.58173 0.18024-0.53644 2.1531-0.13831 5.5602 0.39813 3.4072 1.1525 8.2562 1.9364 14.246 0.78388 5.9902 1.5765 13.136 2.2131 21.107 0.56079 7.0231 0.98352 14.71 1.3002 22.767h8.8521c-0.36414-8.3551-1.049-16.361-2.0471-23.652-1.1161-8.1526-2.5992-15.429-4.2048-21.439-1.6055-6.0095-3.3273-10.754-4.7581-13.942-1.4306-3.1878-2.5718-4.8276-3.1536-4.6473z"/>
    <path id="path3046" d="m454.69 472.07c0.18744-1.7251 0.39624-3.4527 0.55322-5.2004 0.93079-10.361 1.2263-20.42 0.95898-29.911-0.30963-11.112-1.4044-21.462-2.8768-30.686-1.4724-9.2236-3.3088-17.302-5.0159-24.01-1.707-6.7081-3.2543-12.049-4.2045-15.786-0.9502-3.7363-1.309-5.8754-0.70074-6.1592 0.60822-0.28388 2.1198 1.3142 4.2045 4.6471 2.0848 3.3329 4.7586 8.4114 7.487 15.048 2.7285 6.6364 5.4858 14.849 7.7452 24.379 2.2593 9.5298 3.9945 20.372 4.684 32.087 0.58527 9.9868 0.45544 20.589-0.5163 31.46-0.12421 1.3893-0.25708 2.7565-0.4057 4.1308h-11.913z"/>
    <path id="path3048" d="m490.15 381.75c-0.27435-0.004028-0.71863 0.3399-1.3002 1.0512-0.66461 0.81287-1.5092 2.1059-2.4344 3.8452-0.92508 1.7393-1.9245 3.9291-2.8769 6.5838-0.95233 2.6548-1.8493 5.7807-2.545 9.2948-0.63684 3.2228-1.0916 6.7717-1.3278 10.595-0.23608 3.8231-0.24066 7.9217 0.027649 12.199 0.39984 6.3158 1.3214 13.03 2.7663 19.973 1.4448 6.9427 3.4069 14.108 5.6432 21.356 0.45593 1.4778 0.91785 2.9228 1.3831 4.3708 0.18219 0.57007 0.36993 1.1217 0.55328 1.6874h9.2394c-0.46552-1.4527-0.92065-2.8706-1.3832-4.3431-0.44745-1.4324-0.88251-2.8647-1.3278-4.3154-2.1841-7.1154-4.155-14.038-5.7263-20.637-1.5712-6.5988-2.7333-12.875-3.4302-18.783-0.47339-3.9891-0.7544-7.81-0.8299-11.37-0.0755-3.5595 0.052795-6.8648 0.30426-9.9034 0.54382-6.6119 1.7231-11.906 2.5727-15.574 0.42474-1.834 0.7514-3.2744 0.91284-4.2878 0.1615-1.0134 0.14697-1.5915-0.1106-1.7151-0.032227-0.015381-0.071533-0.027039-0.11066-0.027588l0.0001-0.0001z"/>
    <path id="path3050" d="m578.83 387.38c0.10022-0.02002 0.23474 0.018005 0.33148 0.16571 0.09668 0.1477 0.14221 0.43207 0.16571 0.62982 0.049622 0.34961 0.054016 0.80334 0 1.3259-0.10669 1.0328-0.41656 2.421-0.86182 4.0772-0.88586 3.2917-2.38 7.815-4.1765 13.325-3.5466 10.873-8.3618 25.808-12.099 43.423-1.8148 8.5627-3.3317 17.771-4.3754 27.38h-10.706c1.1357-10.498 3.0486-20.499 5.3698-29.667 2.2964-9.0772 4.9946-17.347 7.7565-24.662 2.7618-7.3142 5.5772-13.665 8.1542-18.894 2.6208-5.3192 4.9609-9.4415 6.762-12.331 0.91357-1.4697 1.6633-2.5865 2.254-3.381 0.30182-0.41016 0.55548-0.70337 0.76233-0.9281 0.13434-0.20673 0.2934-0.23578 0.39777-0.29834 0.10437-0.062561 0.1651-0.14569 0.2652-0.16571z"/>
    <path id="path3052" d="m624.28 399.92c0.56262 0.18939 0.367 2.4749-0.35962 6.4455-0.72662 3.9705-1.9746 9.6457-3.4302 16.653-1.4557 7.0074-3.113 15.33-4.3707 24.62-1.051 7.7638-1.8198 16.208-1.9364 25.063h-8.7692c0.24139-9.4016 1.3107-18.283 2.794-26.335 1.7636-9.5736 4.0732-18.006 6.3348-24.952 2.2616-6.9458 4.4698-12.387 6.1965-16.072 1.7268-3.6856 2.9783-5.6113 3.5409-5.4219z"/>
    <path id="path3054" d="m535.7 398.7c-0.65454 0-1.2687 1.839-1.8677 5.0992-0.599 3.2601-1.1955 7.9548-1.7788 13.786-0.58331 5.8307-1.1378 12.784-1.5712 20.545-0.43341 7.7612-0.7334 16.335-0.56329 25.377 0.005005 0.30035 0.022888 0.5899 0.029602 0.8894 0.031433 1.5603 0.086609 3.1171 0.14825 4.6545h9.4868c-0.049927-1.6073-0.11066-3.223-0.14825-4.862-0.005981-0.29181-0.023987-0.56696-0.029602-0.85974-0.17047-8.8152-0.16095-17.274-0.20752-24.992-0.046631-7.7175-0.14026-14.694-0.41504-20.574-0.27484-5.8805-0.70947-10.642-1.2452-13.934-0.53564-3.2918-1.1835-5.1288-1.8381-5.1288z"/>
    <path id="path3056" d="m470.41 405.02c-0.58179 0.18024-0.53644 2.1531-0.13837 5.5602 0.39813 3.4072 1.1526 8.2562 1.9364 14.246 0.78388 5.9902 1.5765 13.136 2.2131 21.107 0.56085 7.0231 0.98352 14.71 1.3002 22.767h8.8521c-0.36414-8.3551-1.049-16.361-2.0471-23.652-1.1161-8.1526-2.5992-15.429-4.2048-21.439-1.6055-6.0095-3.3273-10.754-4.758-13.942-1.4307-3.1878-2.5719-4.8276-3.1536-4.6473z"/>
   </g>
   <g id="g3234">
    <g fill-rule="evenodd">
     <path id="path3196" d="m60.351 459.14c4.1794 0.82959 11.009 7.5737 11.025-0.98462 24.794-71.931 35.38-149.21 26.991-225.03-3.5785-50.442 3.7489-103.76 33.367-146.03 11.498-17.257 25.218-32.885 39.257-48.095-32.514 32.457-61.916 70.932-71.414 116.82-9.0818 37.945-6.0396 77.18-4.2502 115.73 0.43372 63.911-12.225 127.96-34.976 187.59z"/>
     <path id="path3202" d="m176.15 100.47c-31.518 26.594-60.853 58.992-73.417 100.1-4.1761 12.337-6.962 24.986-8.9063 37.796 1.084 0.59668 2.1798 1.1771 3.2915 1.7212 4.9145-36.192 16.933-71.477 40.163-99.355 11.679-14.697 25.15-27.688 38.869-40.266z"/>
    </g>
    <rect id="rect3207" transform="rotate(36.384)" rx="7.25" ry="7.25" height="63" width="14.5" y="-57.808" x="150.67"/>
    <rect id="rect3209" transform="rotate(43.174)" rx="6.0317" ry="6.0317" height="52.413" width="12.063" y="-33.146" x="189.17"/>
    <path id="path3216" d="m18.34 287.08c-0.000702 0.01828 0.014587 0.042389 0.014099 0.060883-11.533 5.9584-21.839 12.771-23.386 16.612 3.909 1.7358 15.94 0.48498 28.396-2.1825 10.117 19.965 32.871 50.712 43.486 53.409 4.6667 0.94391 9.347 1.9053 13.762 3.7412l0.3093 0.0887 0.2343 0.0421c0.80502-1.6988-1.555-13.506-0.84923-16.131-2.1139-12.861-50.247-55.602-61.966-55.64v0.000031z"/>
    <path id="path3223" d="m107.66 312.68c2.694-1.7062 5.6717-2.8709 8.6324-4.0193 8.7798-3.9134 25.899-42.142 24.212-50.109-7.6988 1.3509-34.508 34.882-34.443 43.575 0.76077 1.6451 0.54007 9.6728 1.2614 10.698l0.1504-0.0523 0.1862-0.0927z"/>
    <path id="path3227" d="m71.022 340.34c-1.8301 0.44836-3.5565 1.076-5.1562 1.8438 8.3701 9.595 16.28 19.826 22.688 30.812 2.259-0.90344 4.2874-2.0638 6.0312-3.4688-6.6682-10.548-14.751-20.266-23.562-29.188z"/>
    <path id="path3232" d="m113.1 298.34c1.4939 0.36603 2.903 0.87836 4.2089 1.505-6.8323 7.8322-13.289 16.183-18.519 25.151-1.844-0.73749-3.4996-1.6846-4.9231-2.8314 5.443-8.61 12.041-16.543 19.233-23.825z"/>
   </g>
  </g>
  <g id="g3403">
   <g fill="#3f3f3f">
    <g fill-rule="evenodd">
     <path id="path3247" d="m57.275 126.74c-8.431 21.897-13.934 44.023-12.653 66.885 0.77121 35.682 13.809 68.983 25.427 102.05 16.771 55.558 20.685 115.01 13.556 173.53 4.3229-0.4838 12.755 3.4318 10.582-4.0293 5.991-69.829-3.3366-140.23-30.977-203.86-16.133-42.167-22.617-89.784-5.4594-134.48-0.37926-0.1967-0.10845 0.12963-0.47571-0.09864z"/>
     <path id="path3249" d="m105.78 123.29c-24.198 32.269-44.766 68.965-46.611 108.41-0.95238 11.954-0.45797 23.779 0.9058 35.501 1.2188 0.20691 2.445 0.39624 3.6775 0.54935-4.4218-32.951-1.6241-67.164 14.094-98.159 7.7281-16.177 17.656-31.384 27.933-46.304z"/>
    </g>
    <path id="path3338" d="m90.15 172.41c-0.89568 2.5725-2.4457 5.1331-5.6363 8.8203-6.6244 4.0307-17.397 7.8011-16.438 15.896-0.072556 0.11301-0.10444 0.18787-0.1486 0.27212-1.3404 1.6211-2.6422 3.2791-3.8763 4.9804 0.40109 0.50687 0.90735 0.96205 1.4906 1.328 1.0876-1.6315 2.2476-3.229 3.4285-4.8074 9.8526-0.50606 12.69-10.108 16.74-16.421 3.6628-3.3363 6.2128-4.979 8.7862-5.9438-2.0122 0.55049-4.5563 1.6677-7.246 3.1239 1.3745-2.6977 2.4005-5.2407 2.899-7.2483z"/>
    <path id="path3346" d="m93.091 246.76c0.025879 0.25113 0.037712 0.47969 0.060661 0.72342-10.663 10.465-13.032 31.685-13.982 50.222-0.90697 1.4738 0.004799 6.0584 0.98996 8.7372-0.79573 2.2096-1.5653 4.4376-2.2628 6.6992 0.79546 0.71719 1.7206 1.3092 2.7161 1.7204 0.69128-2.5758 1.4592-5.1057 2.2622-7.6409 1.4825-0.58481 2.1576-2.4461 4.2125-5.2808 6.0802-17.689 12.322-39.2 6.2625-54.484 0.063583-0.12149 0.11864-0.22971 0.18399-0.35295-0.081184 0.076248-0.15738 0.15561-0.23765 0.23302-0.07518-0.18718-0.12632-0.39104-0.20525-0.57629zm0.0749 1.0491c0.75494 8.4098-0.41188 13.031-5.3373 28.043 0.9546-15.999 1.537-20.681 5.3373-28.043z"/>
    <path id="path3364" d="m69.038 148.05c-0.59694 2.8371-1.8809 5.7413-4.7338 10.04-6.404 5.0818-17.188 10.393-15.109 18.86-0.061005 0.12868-0.084473 0.21194-0.11957 0.30667-1.1889 1.8824-2.3326 3.7992-3.3995 5.7537 0.48737 0.4886 1.078 0.90955 1.7375 1.2265 0.92278-1.8627 1.926-3.698 2.9535-5.5157 10.253-1.7378 11.951-12.265 15.356-19.453 3.394-3.9844 5.8471-6.0372 8.4146-7.374-2.0347 0.82902-4.5512 2.3239-7.1754 4.1959 1.0819-3.0282 1.8193-5.8499 2.0751-8.0396z"/>
    <path id="path3366" d="m30.7 127.94c1.9812 2.1167 3.6231 4.8345 5.5072 9.6377 0.48778 8.1608-1.3494 20.041 6.7778 23.195 0.070366 0.12381 0.12511 0.1908 0.18255 0.27388 0.85957 2.0538 1.7734 4.0903 2.762 6.0856 0.67979-0.11882 1.3635-0.36105 2.0014-0.71938-0.99611-1.8245-1.9237-3.6992-2.8229-5.5837 4.4593-9.3944-3.1884-16.825-7.122-23.739-1.316-5.0658-1.5898-8.2528-1.2116-11.123-0.48841 2.1421-0.70796 5.061-0.68036 8.2843-1.8594-2.6235-3.7474-4.8464-5.394-6.3123z"/>
    <path id="path3368" d="m27.266 193.17c2.7563 1.863 5.2863 4.4851 8.6189 9.3785 2.6266 9.006 3.6003 22.766 13.497 24.223 0.11022 0.1206 0.18863 0.18156 0.2741 0.25987 1.4854 2.0786 3.027 4.124 4.6418 6.1043 0.73029-0.30623 1.4334-0.7516 2.0558-1.3152-1.5797-1.7872-3.0955-3.6482-4.5821-5.5272 2.5937-11.648-7.8574-18.011-14.021-24.743-2.764-5.3321-3.883-8.828-4.1916-12.135-0.000237 2.5212 0.49838 5.8428 1.3512 9.442-2.7493-2.4611-5.4284-4.4667-7.6444-5.6869z"/>
    <path id="path3370" d="m92.886 198.42c-1.4378 2.2958-3.4825 4.3889-7.32 7.1235-7.1175 2.0749-18.039 2.6813-19.043 11.007-0.094154 0.09111-0.14139 0.15625-0.20229 0.22711-1.629 1.2204-3.2308 2.4888-4.7796 3.82 0.25483 0.62076 0.6198 1.2208 1.0775 1.7546 1.3959-1.3046 2.8514-2.5541 4.3218-3.7786 9.2988 2.3697 14.194-6.3464 19.448-11.44 4.1952-2.2481 6.9564-3.1374 9.5803-3.346-2.004-0.039581-4.6364 0.32912-7.484 0.99223 1.9133-2.2806 3.4656-4.509 4.4009-6.3592z"/>
    <path id="path3372" d="m64.108 130.1c-3.9147 3.3769-7.7828 6.8482-11.588 10.375 0.14362 0.082153 0.30456 0.15715 0.4544 0.23422 3.6685-3.5766 7.3898-7.1037 11.134-10.609z"/>
   </g>
   <g id="g3374" fill="#00892c">
    <path id="path3378" fill-rule="evenodd" fill="#3f3f3f" d="m105.78 123.29c-24.198 32.269-44.766 68.965-46.611 108.41-0.95239 11.954-0.45798 23.779 0.9058 35.501 1.2188 0.20691 2.445 0.39627 3.6775 0.54932-4.4218-32.951-1.6241-67.164 14.094-98.159 7.7281-16.177 17.656-31.384 27.933-46.304z"/>
   </g>
   <path id="path3401" fill="#3f3f3f" d="m31.959 244.73c0.074192 0.22354 0.15206 0.42194 0.22577 0.63798 14.516 3.9796 25.182 20.806 33.408 36.015 1.4645 0.83093 2.3812 5.1142 2.4758 7.8228 1.6459 1.5024 3.2735 3.0322 4.844 4.6233-0.493 0.96704-1.1617 1.8874-1.9702 2.6874-1.6883-1.859-3.4331-3.6443-5.2144-5.4181-1.6755 0.18103-3.0666-1.0824-6.1861-2.5394-12.893-12.159-27.448-27.47-27.561-43.124-0.10985-0.073578-0.20611-0.13985-0.31836-0.21411 0.10919 0.027435 0.2147 0.059723 0.32344 0.088501-0.000366-0.19217-0.030888-0.38739-0.026871-0.57967v0.0001zm0.3401 0.9194c2.576 7.4396 5.5332 10.808 16.247 21.234-7.231-13.065-9.6428-16.751-16.247-21.234z"/>
  </g>
 </g>
</svg>
