<?xml version="1.0" encoding="UTF-8" standalone="no"?>
<!DOCTYPE svg  PUBLIC '-//W3C//DTD SVG 1.1//EN'  'http://www.w3.org/Graphics/SVG/1.1/DTD/svg11.dtd'>
<svg style="shape-rendering:geometricPrecision;text-rendering:geometricPrecision;image-rendering:optimizeQuality" xmlns="http://www.w3.org/2000/svg" fill-rule="evenodd" xml:space="preserve" height="11in" width="8.5in" version="1.1" clip-rule="evenodd" xmlns:xlink="http://www.w3.org/1999/xlink" viewBox="0 0 8500 11000">
 <defs>
  <style type="text/css">
   <![CDATA[
    .fil0 {fill:black}
   ]]>
  </style>
 </defs>
 <g id="Layer_x0020_1">
  <path class="fil0" d="m3065 5962c-89 22-166 44-248 65-12-62-10-122-17-187-7-84 17-87 67-131 39-31 176-143 238-156 2 131-10 290-41 408zm-1308 2740h-593c-106-284-24-592 36-895 17-84 41-165 70-246 24-62 77-175 89-237-190-190-600-168-737 56-34 56-84 299-24 359 36 37 94 44 147 41 2-62-5-97 29-137 108-128 291 94 132 218-214 168-465-44-465-156v-37-37-131c5-97 34-178 147-268 53-44 178-100 248-122 106-34 207-44 323-22 142 25 181 90 267 122 125-262 202-302 347-493 22-28 41-37 63-65l-53-72c-99 44-147 87-260-19-166-156 43-362 48-552 5-100 2-224 99-281l58 25c0 41-178 299 89 711 31 47 63 78 84 122 82-34 226-159 301-224 82-72 63-53 113-147 29-59 79-109 104-162-19-62-99-156-135-187-243-200-544-374-870-412-79-9-214-16-279-50-92-44-161-296 224-296 352 0 747 306 935 552 79 103 123 181 188 312l169-190c-51-109-77-200-142-290-39-53-48-69-80-137-70-153-171-262-248-408-29-56-65-87-60-156 5-72 51-103 130-103 120 0 217 153 279 228 166 206 195 465 246 714 14 62 10 22 164-84 48-34 123-59 169-90 0-243-82-518-154-736-145-443-414-754-781-1004-200-137-412-212-718-212-429 0-689 511-455 776 89 106 397 128 477-9-152 37-299-56-198-234 48-81 219-109 282-25 149 206-22 443-323 443-34 0-176-41-207-56-234-122-251-552-75-730 53-53 79-100 125-134 323-240 858-90 1137 112 87 62 181 128 255 203 241 249 424 455 544 826 58 175 113 355 145 542 10 62 12 147 27 203l166-56c67-399 17-945-164-1256-92-159-181-302-260-477-82-171-154-458-154-658 0-81 104-446 185-355 58 56-92 109-87 377 2 94 14 131 67 178 137 125 296 153 410 327 270 421 7 730 5 767-2 19 31 106 39 140 70 302 75 620 46 935 463-112 870 34 1171 249 145 103 270 224 431 321 84 50 140 103 217 153 116 69 229 50 212 153-111 25-291-90-366-140-149-97-272-41-453-41-217 0-470-137-530-337-34-112-7-168-7-265-67-41-226-59-311-59-84 0-308 28-371 53-10 16-113 433-125 493 518-16 793 53 1231 243 53 22 92 53 135 84 234 156 258 190 412 427 217 337 320 1057-106 1303-116 69-306 112-419 16-246-212-41-605 176-527 140 47 125 234-31 246-106 6-94-34-135-90-79 125-17 343 159 343 152 0 258-75 344-187 267-346 58-948-169-1241-55-72-123-115-195-175-272-218-742-362-1113-362l-328 6c-89 209-253 427-282 617 70-9 137-34 214-44 77-12 173-16 243-12 520 22 879 231 879 767 0 387-369 624-405 175-22-268-169-539-381-692-87-62-123-103-258-106-92 0-241 19-325 37-34 50-72 171-87 234 84 41 183 72 253 118 207 140 422 380 547 595 436 761 867 452 937 577-51 19-183 22-251 16 41 212-328 212-236-50l-164-84c-31 41-10 37-51 56-123 56-217-47-164-168l34-50c0-3 2-3 5-6-51-50-111-153-149-218-39 12-55 37-108 31-34-3-75-31-94-59-55-90 19-162 36-218-60-56-118-134-183-190-48 31-29 69-130 69-82 0-108-25-130-90-27-84 12-109 39-150l-212-94c-36 44-53 106-79 156-29 56-55 100-84 147-39 56 2 87 26 156 123 355-137 689-390 895-147 115-361 218-566 281zm1580-3245c-2 59-46 209-63 268-12 41-24 84-36 128-17 65-10 87-75 87l31-436 142-47zm-783 683l-29-56c17-41 108-165 149-184 17 31 31 134 31 171l-152 69zm491-87c-12 72-77 327-108 371-43 65-169 212-229 249 12-81 51-178 70-268 24-106 24-184 39-293l229-59zm-980 695c-39-12-72-59-94-97 36-34 145-118 195-147l-101 243zm662-595c31 215-104 533-202 648 82-399 19-318 29-561l173-87zm-246 312c0 90-22 215-43 299-31 115-29 153-132 196-31-19-145-112-159-131-2-44 94-259 120-315 17-37 48-118 75-143 26-22 99-78 132-69l7 162zm301 489l-181-34c51-44 164-100 238-125l-58 159zm-723 203l51-234c39 12 94 65 116 97l-166 137zm429-140c31 41-5 122 108 115 123-6 67-94 123-97 99-9-63 184-99 277-27-22-29-34-46-62l-142-165c14-53 7-62 55-69zm-458-168c-2 62-34 159-46 234-17 100-14 181-60 224-99 94-161 215-253 309-51-118-116-240-181-334 29-134 289-465 412-561 36 34 92 94 128 128zm284 293c-14 87-104 259-140 340-41 94-99 228-149 309-46-115-39-343 22-427 48-72 202-193 267-221zm-393 377c0 399 87 306-10 449-58 84-185 249-260 299 137-524-24-312 140-574 29-47 89-150 130-175zm636-115c-67 140-450 599-588 708-58 47-152 153-229 193 53-62 159-171 205-237 238-340 287-471 450-876 43 19 53 44 94 100 27 37 48 69 67 112zm-1125 0c75 62 111 165 142 284 22 72-60 168-120 277-51 94-89 181-137 290-48 112-67 190-106 309-65-168 89-910 205-1135 2-3 2-6 5-9 0 0 2-3 5-6l7-9zm193 567c-31 112 19 134-92 337-31 53-161 212-202 221 22-53 36-94 60-147 29-56 48-94 75-143 26-44 128-249 159-268zm973-458c10 6 5 0 19 22 5 9 10 22 14 31 60 171 12 284-67 433-77 143-176 256-304 352-190 143-682 362-942 340 111-31 289-181 371-237 132-87 393-318 501-436 48-53 89-97 142-162l265-343z"/>
 </g>
</svg>
