<?xml version="1.0" encoding="UTF-8" standalone="no"?>
<svg width="1280" xmlns="http://www.w3.org/2000/svg" height="1024">
 <path id="path3801" fill="#520" d="m760.79 287.23c-21.717 0.16516-42.58 18.716-46.431 45.385-2.5544 17.692-0.10547 29.902 9.1234 45.927 3.5615 6.4366 12.623 21.325 20.358 28.436 0.91034 0.83679 0.88214 3.1503-1.046 2.46-13.482-3.5542-28.678-2.8754-46.353 0.54236l3.4866 2.092c43.268-6.4906 74.137 16.446 91.796 44.707 1.3201-0.097137 2.6647-0.15497 4.0096-0.15497 0.44952 0 0.89044 0.008026 1.3366 0.019348-0.009521-0.30994-0.019348-0.61752-0.019348-0.92978 0-1.6635 0.14459-3.2921 0.4068-4.8814-6.6538-9.2421-14.625-18.194-23.806-26.382-11.811-10.535-34.992-47.963-22.721-58.227 12.373-10.351 32.558 1.2069 27.274 15.845-2.3911 6.6239-10.306 7.5124-8.1549 2.3244 2.5245-6.0901-4.1939-11.777-11.487-6.0436-5.3118 4.1761 1.1992 12.827 7.5157 14.315 9.0592 2.1341 17.498-5.7641 16.717-16.581-0.88855-12.308-20.729-21.984-32.039-13.172-11.309 8.812-5.069 26.918 1.1041 40.504 2.9912 6.5827 0.14453 6.2497-3.9709 2.0339-11.212-11.485-16.063-18.054-22.586-30.973-4.7641-9.4364-5.1964-18.731-3.1961-23.574 3.1884-7.7191 9.0151-9.5672 13.036-4.1452 3.9117 5.2744 6.9401 6.0489 8.6198 2.2663 1.9631-4.4206-4.9248-11.217-10.596-10.46-8.4134 1.1231-13.325 5.3712-14.431 12.533l-1.0848 6.9346-1.2203-8.891c-1.5765-11.344 2.2944-23.98 8.9298-29.21 7.4128-5.8428 17.782-2.9212 25.046 7.0702 6.2036 8.5324 11.485 10.719 13.734 5.6562 3.2256-7.2636-11.677-20.768-23.496-21.288-5.4331-0.23908-8.8004 0.65604-12.765 3.4286-8.6533 6.051-8.1829 3.3152 1.046-6.1017 13.934-14.218 26.439-15.395 43.486-4.029 10.455 6.9705 17.04 5.6484 15.612-3.1574-0.085571-0.52792-0.1919-1.0362-0.32935-1.5109-0.96136-3.3232-3.3143-5.4764-8.8135-8.3486-5.8621-3.0618-12.011-4.4627-18.092-4.4164v0.000031zm171.06 169.45c-1.2884 0.017273-2.6229 0.23746-3.9709 0.65857-2.7406 1.1067-5.3018 3.1089-7.1284 5.4044-4.8483 6.093-6.1969 22.115-5.0169 35.312 3.1135 34.821 5.6368 34.132-5.6949 52.9-12.502 20.706-31.064 19.456-59.796 17.704-8.9141-0.5434-16.336-2.1957-28.339-2.3826-12.775-0.74225-21.882 1.7036-31.961 4.2809 2.7809-2.0665 5.3693-4.2605 7.7869-6.5666-0.66632 0.024536-1.3229 0.038757-1.9952 0.038757-3.4491 0-6.8237-0.32782-10.092-0.94916-6.3898 5.713-14.238 10.623-23.768 14.044 1.1254 2.0642 1.9996 4.2745 2.5956 6.6054 4.2846-1.4316 8.3458-3.0996 12.165-4.9976 0.007751-0.003723 0.011658-0.015564 0.019348-0.019348 14.454-2.7241 30.168-4.3993 45.656-1.5303 14.307 2.1844 25.491 13.247 33.976 24.349 2.5101 3.634 4.723 8.7506 5.6562 12.92 0.49921 2.2304 1.1538 6.1356 1.0266 7.7288-0.29773 3.7304-3.2198 4.516-5.6561 5.9855-3.0288 1.8268-6.5227 3.884-8.4067 6.4503-2.6506 3.6107-1.992 7.2872 1.0847 9.4334 3.5856 2.3007 11.072 2.371 13.075-0.21307 1.5418-1.9885-0.33191-4.1944-6.3535-2.8475-6.2867 1.4063-5.0023-3.5558-2.5569-6.6246 1.7941-2.2515 4.7006-3.8082 6.8184-4.707 5.6212-2.3856 5.637-4.3192 4.8426-7.477-0.50769-2.0178-0.087341-2.0656 1.259-0.34863 11.296 14.43 20.984 23.05 29.675 25.259 8.6918 2.2094 12.04 2.2438 16.717 1.7434 4.6766-0.50049 8.5696-3.2899 9.0653-8.891 0.57507-6.4972-11.864-11.539-18.034-8.6199-1.2637 0.59802-1.838 2.83-0.38739 4.8039 2.4083 3.2768 6.6472 2.6007 6.1598-0.38739-0.47846-2.9326 2.5446-1.8224 5.3462 0.77478 3.2217 2.9867 2.2319 5.6583-1.1428 7.9418-2.2705 1.5364-4.3156 1.8147-11.138 1.4334-8.9578-1.4908-14.167-4.6504-18.789-8.5423-5.1699-4.3528-9.4332-9.7358-13.772-16.93-3.3556-5.5634-6.3589-11.684-12.029-21.462-0.4491-0.77448-2.7114-4.0176-4.2228-5.54-2.1308-2.1462-4.9106-4.6934-7.69-7.1283 0.49799 0.29486 0.99585 0.58154 1.4915 0.89105 38.943 17.93 20.878 17.24 100.67 48.058 78.345 30.26 100.57 13.01 172.49 1.1235 26.868-5.2753 59.509-18.726 67.603-23.399 38.248-22.083 43.205-2.8666 58.595 0.50366 2.5369 0.47278 5.3265 0.68353 7.7289 0.42615 5.0883-0.54529 10.005-0.91211 15.399-10.847 3.9802-7.3295 0.7522-13.8-6.3922-16.368-6.9006-2.48-8.438 0.99603-3.7966 8.5617 6.8086 13.291-1.9618 16.347-13.404 13.792-9.2487-2.0654-7.8088-3.9867-17.201-8.0774-19.31-8.4105-31.468 4.7016-25.394-3.3898 12.6-16.784 32.898-39.748 38.489-62.218 3.2723-13.152 0.81494-34.382-4.9587-42.809-4.2956-6.2682-10.273-13.049-21.152-12.998-1.1255 0.005554-2.3112 0.09256-3.5448 0.2518-16.607 2.1437-25.919 22.14-12.436 26.46 3.1193 0.99918 7.6206 2.2759 11.545-0.60052 6.5145-4.7752 2.7689-11.585-4.029-10.034-6.6716 1.5226-7.2144-1.995-2.4988-7.2445 5.4226-6.0368 13.864-6.8024 20.939-1.8402 18.994 16.892 15.163 48.99 0.56177 71.845-6.955 10.886-18.036 22.862-23.826 31.438-4.3994 6.5162-26.732 23.402-30.257 23.69-0.80579 0.065918 4.5656-9.1677 6.5472-15.128 6.2053-18.665 4.0149-39.352-9.2009-45.269-3.3743-1.5106-7.2562-2.3542-17.801 1.3947 12.731-2.4426 23.144 2.6762 25.646 15.07 3.6368 18.009-4.8112 34.306-14.431 43.196-15.058 13.917-93.051 30.261-132.92 29.579-5.0802-0.087036-8.4528-0.71576-2.5763-4.3196 21.864-10.997 32.164-20.913 38.198-36.688 2.3903-6.248 2.7959-12.279 3.5642-21.366 0.15247-2.5458 2.4706-10.695 5.4624-15.361 14.84-20.485 48.679-21.498 52.513-5.5593 6.2341 17.074-6.9281 35.283-20.32 27.06-7.6952-4.7253-7.0387-18.209 0.8523-17.782 4.8824 0.2644 6.0165 3.5924 2.402 6.8958-2.1152 1.9332-2.3014 2.8317-0.65857 2.9056 3.6642 0.16473 7.0774-4.2859 6.276-8.213-1.173-5.7477-8.7244-6.9317-14.354-2.247-11.383 9.4729-1.9379 26.564 13.676 24.794 6.3839-0.72363 11.275-4.7832 15.361-12.591 6.2623-17.816-0.16956-35.272-20.513-36.901-5.6467-0.45209-13.862 0.87341-18.518 3.1186 5.7571-8.564 13.554-16.603 18.867-20.087 6.7811-4.4465 9.2418-5.2743 15.38-5.2494 7.7052 0.031311 13.172 3.8922 14.237 9.7627 1.348 7.433-8.6599 13.106-12.862 7.6319-2.5745-3.3536 1.6809-5.5111 2.5375-3.3123 0.53406 1.3708 2.863 0.77399 3.2736-1.201 1.2648-6.0844-4.9561-7.0895-7.6512-1.3753-2.9625 7.2619 3.2999 10.5 8.8523 9.1816 11.36-3.4196 10.632-17.09-1.201-22.547-3.8765-1.7876-8.9163-1.9919-14.179-0.83295-7.8484 2.0048-16.818 10.194-22.276 16.116-8.4508 9.1698-16.816 16.223-24.775 24.697-2.7399 3.0142-4.528 7.1453-4.5908 8.5424-0.070801 1.5741-2.853-9.69-7.5544-16.446-8.1749-11.747-14.847-15.892-23.109-17.956-6.0004-1.5657-14.333-0.30676-11.738 5.6561 2.0051 4.6082 4.7539 1.5966 14.741 3.0024 6.585 0.92694 11.511 3.4628 16.213 9.1816 8.2839 10.075 9.567 21.872 8.3486 34.983 1.0796 23.995-20.32 39.86-43.68 49.666-35.495 14.11-103.37-17.46-139.33-38.237-11.064-6.3918-18.883-10.967-26.46-14.857-6.1477-3.1562-12.136-5.8622-19.564-8.7167-0.57983-0.14606-2.2894-1.1589 0.15497-0.81354 70.531 5.1064 69.504-5.7436 93.733-49.356 12.456-18.985 37.422-14.63 37.54 2.7894 0.047607 7.042-6.1401 11.504-6.2179 5.8886-0.091309-6.592-9.2853-9.3715-13.714-1.2203-3.2258 5.937 6.1817 11.302 12.571 10.169 9.1641-1.6248 13.352-11.99 8.7941-21.83-4.2416-9.1572-10.772-11.488-20.978-10.867-11.556 0.70312-19.121 8.6096-26.596 22.353 0.18585-22.857-6.9502-41.2-1.6852-58.44 2.1656-7.0915 3.7782-9.5629 6.5278-11.274 4.0867-2.5425 8.9581-2.5066 10.983 1.8208 1.7608 3.763 0.44385 5.8776-2.7118 4.3196-3.2155-1.5876-6.4111 4.0129-3.6998 7.6319 1.6332 2.1798 5.6929 2.4936 7.3608 2.1307 4.911-1.0685 6.0952-9.0503 3.1961-14.722-2.2251-3.848-5.6841-5.6499-9.5496-5.598z"/>
 <path id="path3839" fill="#9e1225" d="m743.76 567.19c-1.4764 2.4274-3.0184 4.8063-4.6683 7.1089 8.0739 1.2237 14.257 8.1838 14.257 16.6 0 9.2802-7.514 16.794-16.794 16.794-7.9474 0-14.601-5.5078-16.349-12.92-2.1645 1.8343-4.4022 3.58-6.7022 5.2494 3.6312 9.1699 12.585 15.651 23.051 15.651 13.688 0 24.775-11.086 24.775-24.775 0-11.177-7.4042-20.621-17.569-23.709z"/>
 <path id="path3841" fill="#520" d="m736.55 578.14c-0.12305 0-0.24579 0.01593-0.36804 0.019348-3.7578 4.7988-7.905 9.2748-12.378 13.404 0.000366 0.006592-0.000305 0.012817 0 0.019348 0.35199 6.7291 5.9298 12.087 12.746 12.087 7.0427 0 12.765-5.7224 12.765-12.765s-5.7224-12.765-12.765-12.765v0.000061zm0 9.5884c1.7607 0 3.1768 1.4161 3.1768 3.1767 0 1.7607-1.4161 3.1768-3.1768 3.1768-1.7606 0-3.1768-1.4161-3.1768-3.1768 0-1.7606 1.4161-3.1767 3.1768-3.1767z"/>
 <path id="path3649" fill="#7f3f00" d="m795.73 460.39c-15.987 0-30.22 7.5228-39.361 19.215 1.6235 6.1143 2.7361 12.43 3.3123 18.906 4.968-15.158 19.23-26.111 36.048-26.111 2.3483 0 4.6462 0.23065 6.8765 0.63922-2.6256-3.6683-4.4531-7.9627-5.1912-12.61-0.55701-0.018402-1.1238-0.038727-1.6852-0.038727zm42.034 23.031c-3.3865 1.3382-7.0626 2.0726-10.925 2.0726-0.86316 0-1.7318-0.04425-2.5762-0.11621 5.8398 6.6713 9.3946 15.387 9.3946 24.949 0 20.946-16.982 37.927-37.927 37.927-17.111 0-31.577-11.336-36.3-26.906-0.72266 6.4522-1.9941 12.732-3.7578 18.809 9.105 12.209 23.662 20.106 40.058 20.106 27.573 0 49.918-22.364 49.918-49.937 0-9.911-2.9048-19.137-7.8837-26.906z"/>
 <path id="path3664" fill="#9e1225" d="m622.99 310.15c-13.688 0-24.774 11.086-24.774 24.774s11.086 24.774 24.774 24.774 24.774-11.086 24.774-24.774-11.086-24.774-24.774-24.774zm0 7.9763c9.2802 0 16.798 7.5178 16.798 16.798s-7.5178 16.798-16.798 16.798-16.798-7.5178-16.798-16.798c0-9.2801 7.5178-16.798 16.798-16.798z"/>
 <path id="path3666" fill="#520" d="m622.99 322.16c-7.0427 0-12.762 5.7192-12.762 12.762 0 7.0426 5.7191 12.762 12.762 12.762 7.0426 0 12.762-5.7192 12.762-12.762 0-7.0426-5.7191-12.762-12.762-12.762zm0 9.5888c1.7606 0 3.173 1.4124 3.173 3.173s-1.4124 3.173-3.173 3.173c-1.7607 0-3.1731-1.4124-3.1731-3.173s1.4124-3.173 3.1731-3.173z"/>
 <path id="path3072" fill="#9e1225" d="m526.49 686.82c12.42-11.001 13.57-29.975 2.5693-42.395s-29.975-13.57-42.395-2.5692c-10.745 9.5171-13.056 25.003-6.3609 37.048 3.8488-1.3818 8.0334-1.4348 11.879-0.17297-0.28864-0.28918-0.56375-0.59021-0.83823-0.90008-7.4584-8.4207-6.6798-21.268 1.7408-28.726 8.4206-7.4583 21.268-6.6798 28.726 1.7409 7.4584 8.4206 6.6798 21.268-1.7409 28.726-5.7599 5.1016-13.595 6.3649-20.36 3.9488 0.14365 0.15131 0.29126 0.28253 0.4306 0.43988 2.6598 3.003 4.1327 6.6453 4.4899 10.354 7.7114 0.50092 15.615-1.9628 21.86-7.4946z"/>
 <path id="path3074" fill="#7f3f00" d="m516.84 675.93c6.3903-5.6601 6.9834-15.446 1.3233-21.836-5.66-6.3904-15.446-6.9834-21.836-1.3233-6.3904 5.66-6.9834 15.446-1.3234 21.836 5.6601 6.3904 15.446 6.9834 21.836 1.3234zm-7.7064-8.7007c-1.5975 1.415-4.0141 1.2686-5.4291-0.32898s-1.2686-4.0142 0.32895-5.4292 4.0142-1.2686 5.4293 0.32898c1.415 1.5976 1.2686 4.0142-0.32907 5.4292z"/>
 <g id="g3076" transform="matrix(-.89387 .79172 -.79172 -.89387 1806.2 743.82)">
  <path id="path3078" fill="#520" d="m800.86 749.06c-7.5605 0-13.693 6.1326-13.693 13.693 0 7.5605 6.1326 13.693 13.693 13.693 7.5605 0 13.693-6.1326 13.693-13.693 0-7.5605-6.1326-13.693-13.693-13.693zm0 3.1904c5.7964 0 10.503 4.7063 10.503 10.503 0 5.7964-4.7063 10.503-10.503 10.503-5.7964 0-10.503-4.7064-10.503-10.503 0-5.7964 4.7063-10.503 10.503-10.503z"/>
  <path id="path3080" fill="#9e1225" d="m804.59 762.75c0 2.0615-1.6712 3.7327-3.7327 3.7327s-3.7327-1.6712-3.7327-3.7327 1.6712-3.7327 3.7327-3.7327 3.7327 1.6712 3.7327 3.7327z"/>
 </g>
 <g fill="#502d16">
  <g id="g2935" transform="matrix(.99431 0 0 .99431 94.468 -170.31)">
   <path id="path3789" d="m297.23 698.37c-8.6495 0-15.653 7.0034-15.653 15.653 0 8.6495 7.0034 15.69 15.653 15.69 8.6495 0 15.653-7.0407 15.653-15.69 0-8.6495-7.0034-15.653-15.653-15.653zm0 3.0187c6.9861 0 12.634 5.6481 12.634 12.634 0 6.9861-5.648 12.671-12.634 12.671-6.9861 0-12.634-5.6853-12.634-12.671 0-6.9861 5.648-12.634 12.634-12.634z"/>
   <path id="path3793" d="m301.74 714.04c0 2.495-2.0226 4.5176-4.5177 4.5176s-4.5177-2.0226-4.5177-4.5176c0-2.4951 2.0226-4.5177 4.5177-4.5177 2.495 0 4.5177 2.0226 4.5177 4.5177z"/>
  </g>
  <g id="g2942" transform="matrix(.99431 0 0 .99431 -207.47 -80.144)">
   <path id="path3785" d="m383.49 576.61c-5.9354 0-10.75 4.8144-10.75 10.75 0 5.9355 4.8144 10.75 10.75 10.75 5.9354 0 10.75-4.8144 10.75-10.75 0-5.9354-4.8144-10.75-10.75-10.75zm0 2.5046c4.5505 0 8.2453 3.6948 8.2453 8.2452 0 4.5505-3.6948 8.2453-8.2453 8.2453s-8.2453-3.6948-8.2453-8.2453 3.6948-8.2452 8.2453-8.2452z"/>
   <g id="g2939">
    <path id="path3787" d="m385.13 587.36c0 0.9082-0.73624 1.6445-1.6444 1.6445-0.9082 0-1.6444-0.73627-1.6444-1.6445 0-0.9082 0.73624-1.6444 1.6444-1.6444 0.9082 0 1.6444 0.73621 1.6444 1.6444z"/>
   </g>
  </g>
 </g>
 <g fill="#520">
  <g id="g2957" transform="matrix(.99431 0 0 .99431 -60.164 -133.14)">
   <path id="path3779" d="m539.35 542.28c-6.9341 0-12.559 5.6245-12.559 12.559 0 6.9341 5.6246 12.559 12.559 12.559 6.9341 0 12.559-5.6246 12.559-12.559 0-6.9341-5.6245-12.559-12.559-12.559zm0 2.926c5.3162 0 9.6326 4.3165 9.6326 9.6326 0 5.3162-4.3165 9.6326-9.6326 9.6326-5.3162 0-9.6326-4.3164-9.6326-9.6326s4.3165-9.6326 9.6326-9.6326z"/>
   <path id="path3781" fill="#9e1225" d="m541.58 554.84c0 1.2339-1.0002 2.2341-2.2341 2.2341-1.2338 0-2.2341-1.0002-2.2341-2.2341s1.0002-2.2341 2.2341-2.2341 2.2341 1.0002 2.2341 2.2341z"/>
  </g>
  <path id="path3773" d="m635.61 375.2c-6.173 0-11.18 5.0071-11.18 11.18 0 6.173 5.0072 11.18 11.18 11.18 6.173 0 11.18-5.0071 11.18-11.18 0-6.173-5.0071-11.18-11.18-11.18zm0 2.6049c4.7326 0 8.5753 3.8426 8.5753 8.5753 0 4.7326-3.8426 8.5753-8.5753 8.5753s-8.5754-3.8426-8.5754-8.5753 3.8426-8.5753 8.5754-8.5753z"/>
 </g>
 <path id="path3726" fill="#9e1225" d="m516.93 474.47c-22.839 0-41.355 18.516-41.355 41.356 0 6.2073 1.3663 12.1 3.8168 17.38 1.2525-0.72174 2.6751-1.1488 4.2245-1.1488 4.7136 0 8.5602 3.8466 8.5602 8.5602 0 2.4327-1.035 4.5967-2.6681 6.1514 7.3 6.4672 16.897 10.376 27.422 10.376 9.8961 0 18.968-3.5103 26.088-9.3013-1.5727-4.1705-2.8958-8.4671-3.9651-12.859-5.3719 6.1787-13.285 10.08-22.123 10.08-16.178 0-29.312-13.06-29.312-29.238s13.134-29.312 29.312-29.312c7.6596 0 14.642 2.968 19.862 7.782 0.57587-4.5059 1.4222-8.9454 2.5199-13.266-6.4529-4.1616-14.136-6.5591-22.382-6.5591z"/>
 <g fill="#520">
  <path id="path3728" d="m516.93 491.67c-13.323 0-24.124 10.838-24.124 24.161s10.801 24.087 24.124 24.087c8.794 0 16.496-4.688 20.715-11.71-1.1348-6.3773-1.7416-12.937-1.7416-19.64 0-2.4468 0.104-4.8926 0.2594-7.3002-4.4093-5.8065-11.385-9.5978-19.232-9.5978zm0 10.672c7.4228 0 13.415 6.066 13.415 13.489 0 7.4227-5.9918 13.415-13.415 13.415-7.4227 0-13.415-5.9919-13.415-13.415 0-7.4227 5.9919-13.489 13.415-13.489z"/>
  <g id="g2996" transform="matrix(.99431 0 0 .99431 -60.164 -133.14)">
   <path id="path3686" d="m671.14 750.17c-9.9802 0-18.075 8.0952-18.075 18.075 0 9.9802 8.0953 18.075 18.075 18.075 9.9802 0 18.075-8.0952 18.075-18.075 0-9.9802-8.0952-18.075-18.075-18.075zm0 4.2114c7.6514 0 13.864 6.2126 13.864 13.864 0 7.6515-6.2126 13.864-13.864 13.864-7.6515 0-13.864-6.2126-13.864-13.864s6.2125-13.864 13.864-13.864z"/>
   <path id="path3690" d="m676.86 768.25c0 3.1604-2.562 5.7224-5.7224 5.7224s-5.7224-2.562-5.7224-5.7224 2.562-5.7224 5.7224-5.7224 5.7224 2.562 5.7224 5.7224z"/>
  </g>
  <path id="path3678" d="m567.33 552.29c-19.847 0-35.945 16.098-35.945 35.945s16.098 35.908 35.945 35.908 35.945-16.061 35.945-35.908-16.098-35.945-35.945-35.945zm0 10.487c14.058 0 25.458 11.4 25.458 25.458s-11.4 25.421-25.458 25.421-25.458-11.363-25.458-25.421 11.4-25.458 25.458-25.458z"/>
 </g>
 <path id="path3682" fill="#9e1225" d="m567.33 567.26c-11.577 0-20.974 9.3969-20.974 20.974s9.3969 20.937 20.974 20.937 20.974-9.3598 20.974-20.937-9.3969-20.974-20.974-20.974zm0 9.2642c6.4503 0 11.673 5.2598 11.673 11.71s-5.2227 11.673-11.673 11.673c-6.4502 0-11.673-5.2227-11.673-11.673 0-6.4502 5.2227-11.71 11.673-11.71z"/>
 <path id="path3670" fill="#7f3f00" d="m664.33 577.16c-19.985 0-36.17 16.185-36.17 36.17 0 19.984 16.185 36.17 36.17 36.17 19.984 0 36.17-16.185 36.17-36.17 0-19.984-16.185-36.17-36.17-36.17zm0 11.645c13.549 0 24.524 10.976 24.524 24.525s-10.976 24.525-24.524 24.525c-13.549 0-24.525-10.976-24.525-24.525s10.976-24.525 24.525-24.525z"/>
 <path id="path3672" fill="#9e1225" d="m664.33 594.69c-10.282 0-18.632 8.3498-18.632 18.632s8.3498 18.632 18.632 18.632 18.632-8.3498 18.632-18.632-8.3498-18.632-18.632-18.632zm0 13.999c2.5704 0 4.6324 2.062 4.6324 4.6326 0 2.5705-2.062 4.6325-4.6324 4.6325-2.5706 0-4.6325-2.062-4.6325-4.6325 0-2.5706 2.062-4.6326 4.6325-4.6326z"/>
 <path id="path2849" fill="#7f3f00" d="m558.65 345.66c-34.401 0-62.293 27.892-62.293 62.293s27.892 62.293 62.293 62.293 62.293-27.892 62.293-62.293-27.892-62.293-62.293-62.293zm0 18.566c24.147 0 43.727 19.58 43.727 43.727s-19.58 43.69-43.727 43.69-43.727-19.543-43.727-43.69 19.58-43.727 43.727-43.727z"/>
 <g fill="#9e1225">
  <path id="path3625" d="m558.65 370.2c-20.839 0-37.761 16.922-37.761 37.761s16.922 37.724 37.761 37.724 37.724-16.885 37.724-37.724-16.885-37.761-37.724-37.761zm0 17.38c11.246 0 20.344 9.1348 20.344 20.381s-9.0977 20.344-20.344 20.344-20.381-9.0977-20.381-20.344 9.1348-20.381 20.381-20.381z"/>
  <path id="path3629" d="m647.29 401.36c-7.0226 0-13.884 0.67505-20.53 1.964 0.10284 1.5323 0.1853 3.0738 0.1853 4.6321 0 10.277-2.3069 20.014-6.3738 28.756 8.3246-3.0981 17.315-4.8174 26.718-4.8174 42.34 0 76.671 34.331 76.671 76.671 0 30.148-17.417 56.217-42.727 68.74 9.7173 4.6923 17.23 13.176 20.678 23.531 31.481-18.677 52.584-53.012 52.584-92.272 0-59.21-47.996-107.21-107.21-107.21zm-67.925 71.668c-6.5339 2.0782-13.492 3.224-20.715 3.224-4.5164 0-8.9208-0.4602-13.192-1.297-3.4873 10.572-5.3732 21.87-5.3732 33.611 0 15.8 3.4218 30.818 9.5607 44.32 5.3252-2.6715 11.312-4.1874 17.676-4.1874 6.1989 0 12.047 1.4219 17.268 3.9651-8.7975-12.472-13.97-27.672-13.97-44.098 0-12.83 3.1734-24.911 8.7454-35.538zm23.605 98.09c2.4888 5.1766 3.8909 10.955 3.8909 17.083 0 6.4108-1.5529 12.47-4.2615 17.824 6.6291 3.0441 13.627 5.4288 20.9 7.0778 0.1225-11.298 4.9174-21.484 12.525-28.719-12.182-1.795-23.443-6.4512-33.055-13.266z"/>
 </g>
 <g fill="#520">
  <path id="path3639" d="m647.29 443.87c-35.724 0-64.701 28.977-64.701 64.701s28.977 64.664 64.701 64.664 64.664-28.94 64.664-64.664-28.94-64.701-64.664-64.701zm0 30.572c18.854 0 34.129 15.275 34.129 34.129s-15.275 34.129-34.129 34.129-34.166-15.275-34.166-34.129 15.312-34.129 34.166-34.129z"/>
  <path id="path2983" d="m221.51 266.02c-2.2986-0.026764-4.5201 0.52377-6.3728 1.8789-6.836 5.0003-3.7808 19.097 3.506 17.937 1.6857-0.2684 3.8813-2.1019 4.6102-4.7264 1.21-4.3572-1.9401-6.096-4.3583-3.4479-2.3732 2.5988-4.3786 1.1046-4.1065-3.0411 0.31287-4.7675 3.7141-7.4104 8.4455-6.5278 3.1834 0.59381 5.6145 1.5633 9.9564 7.5738 19.227 26.616 8.2321 41.516 30.373 78.837-11.96-10.085-21.87-14.704-32.891-11.157-9.7329 3.1323-14.971 7.6706-15.593 17.743-0.66821 10.824 6.9884 18.961 16.116 17.143 6.3643-1.268 13.183-9.6857 8.0193-14.044-7.0894-5.9829-14.651-0.053009-12.339 6.121 1.9694 5.2594-5.4063 3.3619-7.9225-3.2155-6.2241-16.27 15.45-29.408 33.956-16.252 25.544 21.096 38.384 36.594 56.775 48.93 15.089 10.121 43.413 23.784 59.041 31.69 15.903 7.9883 33.583 12.266 54.741 13.249 3.0331 0.14096 2.5799 0.48706-2.9056 2.1308-19.278 5.7766-35.077 12.879-51.022 22.993-30.552 19.277-91.438 57.508-132.18 45.404-30.366-9.0202-45.359-23.532-74.072-56.639-6.2167-7.1679-4.4177-11.605-2.8281-20.416 1.821-10.094 4.2215-15.565 10.828-19.215 6.36-3.5141 12.744-6.4312 12.474-9.259-0.46462-4.8732-9.2712-2.7278-16.29 4.0097-5.6451 5.4184-9.8641 16.844-10.712 28.997-0.41261 5.9155-1.0962 8.9822-1.7821 8.0774-0.60866-0.80289-3.4226-2.2349-6.2179-3.1961-23.413-13.307-44.448 9.412-61.54 12.881-14.56 2.9554-27.811 1.0723-37.83-13.579-7.8754-12.044-18.84-36.384 0.8523-43.312l3.661-0.2131-3.7191 1.4721c-6.7415 2.6634-5.6037 11.328 1.4915 11.37 5.0659 0.030487 7.8404-2.9696 7.3607-8-0.52194-5.4743-4.1436-8.7617-9.0847-8.2905-0.94669 0.090271-1.8258 0.30655-2.6731 0.61984-5.931 2.1932-11.509 9.1254-10.344 20.726 3.8128 37.972 36.076 54.691 67.525 35.951 12.33-7.3475 24.06-9.9187 15.07-3.3898-11.065 9.7032-8.0764 22.27 2.9249 30.276 5.6167 2.9598 10.174 3.3635 14.257 1.1816 9.9845-5.3364 8.6112-19.337-2.0145-20.3-5.2548-0.47623-9.2483 3.317-7.5932 7.2058 1.1309 2.6571 4.9836 3.9015 7.0896 2.3051 0.94415-0.71573 0.45691-1.1713-1.5884-1.4528-3.495-0.48099-4.1823-2.9212-1.3947-5.075 4.5055-3.481 10.399 4.2387 7.7675 10.189-4.5795 10.354-19.823 4.9482-23.109-7.7288-4.2448-11.022 16.233-24.269 33.414-18.188 3.683 1.5437 8.3988 5.4285 9.5304 6.8762 27.574 35.273 51.868 54.21 80.368 61.017 8.5675 2.0463 16.546 3.0572 24.019 3.2542-71.446 15.034-140.09-20.449-177.88-26.247-13.866-2.1275-17.247-0.87082-22.198 0.32932-25.207 6.1095-23.43-18.996-35.583-19.796-2.4155-0.15915-3.0021-0.27216-4.6102-0.23245-2.0674 0.051025-3.8595 0.99805-5.8692 2.9056-3.3141 3.1455-3.8133 8.0857-1.1235 11.022 2.5978 2.8357 4.1787 1.0697 3.9128-4.3583 0.25378-14.668 14.434-5.2946 19.041 3.6223 6.5664 12.709 18.501 8.9521 13.114 12.978-10.097 7.5453-25.335 17.263-33.588 29.579-4.8309 7.2085-9.0242 20.373-8.4455 26.537 0.47503 5.0599 1.7605 10.885 8.3293 12.455 8.2898 1.9818 17.664-8.1196 12.455-13.346-1.2049-1.209-2.9763-2.8644-5.5304-1.918-4.2402 1.5713-4.2016 6.3614-0.63892 6.7704 3.4964 0.40143 2.8512 2.6251-0.66843 4.8328-4.0474 2.5388-8.1716 1.33-10.228-3.0218-1.3832-2.9279-1.3473-5.2396 0.30993-12.474 1.1189-4.8848 3.53-11.518 5.3269-14.741 6.1163-10.969 20.886-25.469 31.496-30.876 4.4877-2.2873 18.642-7.4374 19.738-7.1864 0.40734 0.093262-2.2559 2.272-5.908 4.8426-8.3201 5.8562-15.864 17.889-18.15 28.939l-1.4915 7.2058 2.3051-6.1792c3.9165-10.568 8.8366-18.176 14.954-23.09 11.11-8.9243 19.32-10.885 41.976-6.1016 29.124 6.1494 114.81 45.358 193.47 12.261 32.171-11.033 53.72-35.962 77.327-43.448-32.321 25.304-46.554 71.64-78.643 99.176-8.4247 7.2292-18.658 10.146-24.058 10.441-5.4006 0.29443-9.9051-2.1788-11.428-6.7602-1.4282-4.2949 0.59045-10.698 4.3777-13.927 2.97-2.5321 4.8051-6.614 3.6416-8.0774-2.5622-3.2225-9.5193 1.5825-11.913 8.2324-2.3747 6.5978-1.437 12.03 2.8281 16.465 2.1078 2.1919 3.2741 4.1141 2.5763 4.2615-1.7517 0.36987-9.8576-2.0818-15.496-8.1743-5.6387-6.0924-8.9386-19.647-2.983-23.651 5.901-3.968 5.9564-8.457 2.3826-9.7434-8.0962-2.9141-15.742 12.45-6.0242 29.482 9.7179 17.032 29.302 18.957 50.906 9.3367 21.598-9.6175 52.113-68.203 82.672-97.414 11.92-13.945 22.868-14.64 15.052-3.1768-41.621 73.098-88.337 130.28-160.52 156.98-19.318 7.1442-45.77 1.4188-57.278-8.6392-9.3686-7.6063-6.2956-21.4 1.4915-31.148-25.841 27.214 2.4864 47.624 33.356 46.218 7.7485-1.1983 4.5103-0.027405-6.431 3.3511-31.683 5.9909-86.753-1.8754-88.968-42.363-0.24133-8.2565 4.5819-15.72 10.867-16.794 6.3135-1.0794 10.027 8.4526 3.9903 10.247-3.4861 1.0362-4.8117-0.29297-1.937-1.9564 1.76-1.0184 1.8383-1.5566 0.34867-2.5762-2.7013-1.8489-5.6386 1.4446-3.661 4.1065 2.1958 2.9558 8.1934 1.708 9.3172-1.937 1.0755-3.4882-0.91168-7.6278-3.6709-8.8232-16.014-6.9385-25.067 15.536-14.692 35.089 10.374 19.554 45.581 31.98 73.762 29.114 133.92-13.571 191.16-141.9 221.52-181.75 25.958-16.016 55.975-22.668 81.937-18.169 12.066 2.0908 12.477 2.0884 11.797-0.40677-0.66962-2.4554-1.5297-2.7667-16.62-5.5399-16.9-3.1058-27.867-3.878-47.07-3.3511-7.2123 0.19788-18.794-0.6835-29.52-2.2664-16.667-2.4594-18.218-2.8779-27.835-7.5544-16.759-8.1494-25.957-18.856-24.116-28.087 1.1884-5.9593 4.9384-8.1491 11.177-6.4697 5.7345 1.5438 7.903 0.68399 8.2324-3.293 0.271-3.272-4.7923-6.5945-9.8789-6.4891-8.123 0.16846-15.249 9.3812-13.792 17.84 1.0487 6.0874 2.719 9.0834 8.1356 14.605 5.4818 5.5884 4.3503 5.4558-2.5763-0.30994-20.409-16.989-26.478-37.72-14.218-48.445 5.6355-4.9299 11.099-5.5088 22.993-2.4794 6.55 1.6684 9.9287 1.9857 12.203 1.1428 4.0671-1.5071 4.7726-4.8228 1.8014-8.5036-3.7815-4.6848-8.8323-6.2316-18.111-5.54-15.361 1.145-26.434 10.705-27.603 23.806-0.64624 7.2454-2.0512 4.9135-2.5763-4.2615-0.64853-11.332 2.4325-23.872 7.3608-29.985 6.0843-7.5467 14.834-11.61 26.731-12.455 10.368-0.73618 17.311-3.7185 18.247-7.8062 0.74683-3.2605-3.5177-8.8736-7.3995-9.7627-1.2808-0.29336-2.7113-0.46262-4.2034-0.48425-0.40414-0.006165-0.82382-0.013428-1.2397 0-6.2382 0.20129-13.693 2.5518-19.816 6.3922-18.018 11.302-26.723 29.874-24.058 51.428 1.8286 14.789 7.416 27.648 18.189 40.523-15.857-5.421-46.244-25.405-64.91-44.959-19.901-20.876-22.433-36.997-32.194-70.566-3.6993-12.723-11.958-27.342-17.375-30.334-2.5677-1.4186-5.6451-2.4062-8.6004-2.4407z"/>
  <path id="path2929" d="m568.23 631.45c-2.0687 0.014038-3.6918 1.0201-6.2373 3.7191-12.404 13.152-5.7334 35.401 13.114 43.777 9.7682 4.3411 17.192 4.9194 27.913 2.2082 15.603-3.9456 27.91-11.851 39.826-25.569 7.0929-8.1656 4.1011-2.6546-4.3196 7.9419-16.073 20.226-39.269 33.433-63.147 35.951-9.813 1.0348-26.271-0.92432-38.508-4.5908-4.3976-1.3176-8.6836-2.8077-11.68-3.506-1.3087 0.90308-2.6547 1.7115-4.0484 2.4019 0.074951 0.055298 0.13178 0.095459 0.21307 0.15497 3.2775 2.3966 23.024 9.5678 31.012 10.731 14.532 2.1166 27.948 0.9198 44.223-3.9516 25.344-7.5859 43.423-22.267 58.692-47.69 0.53168-0.88513-0.7052-1.8968-3.4092-2.7893l-4.2421-1.3947-8.8911 9.5883c-7.6758 8.2623-10.544 10.409-20.784 15.535-10.756 5.3847-12.639 5.9467-19.913 5.9467-6.3317 0-8.6948-0.52295-11.157-2.46-3.9254-3.0877-4.0443-6.7398-0.27118-8.1743 3.6704-1.3955 4.6163-3.0102 2.7118-4.5908-2.2257-1.8472-7.2637 1.0104-7.7482 4.397-0.71887 5.0246 0.93903 8.5453 4.8814 10.344l3.8159 1.7433-5.3268-0.7361c-6.7851-0.93353-13.427-5.2112-15.361-9.8789-2.1599-5.2145 1.2062-10.709 8.1356-13.269 5.9175-2.1859 8.0309-4.8772 5.4818-6.9927-3.6571-3.0352-13.841 3.3546-16.058 10.073-1.0192 3.0883-1.0492 5.1713-0.096802 7.9031 2.0784 5.9623 0.57123 5.2514-3.3511-1.5884-5.9221-10.327-4.5624-17.718 4.7457-25.685 5.7084-4.8861 6.0164-8.8839 0.71668-9.4914-0.31769-0.036438-0.63422-0.06012-0.92975-0.058105z"/>
  <path id="path2925" d="m363.92 583.44c2.2353 5.8585-0.80981 23.564-6.3141 36.712-0.45471 1.0863-0.67956 0.36292-0.52408-1.6863 0.2326-3.0654-0.56961-4.6078-5.5031-10.58-3.1764-3.8455-7.8736-9.6599-10.438-12.922l-4.6622-5.9299 1.565-8.4247c0.86075-4.6336 1.9281-8.6971 2.3718-9.0302 0.44379-0.33295 3.1443 1.9015 6.0011 4.9654 4.6644 5.0025 6.4894 7.8627 9.6681 15.152 0.53586 1.2287 0.7786-0.28778 0.53946-3.3699-0.36758-4.7376-1.3021-6.7867-6.0447-13.255l-5.6099-7.6508 5.7493 3.0985c7.1841 3.8718 11.277 7.8774 13.201 12.92h-0.000031 0.000031z"/>
  <path id="path2921" d="m527.45 591.14c-22.825 6.567-33.745 21.786-36.107 44.145 1.9935-1.0482 4.0589-1.8717 6.1791-2.4794 2.7102-12.676 9.9972-27.474 38.295-20.746-7.5633-6.4365-7.6426-18.102-8.3677-20.92z"/>
 </g>
 <g fill="#7f3f00">
  <path id="path2919" d="m187.58 661.48c-0.90692 2.3256-1.3407 7.1367-0.96397 10.691l0.685 6.4629 1.4005-2.8244c0.77026-1.5535 2.9138-3.6501 4.7633-4.6592 4.8597-2.6514 7.299-6.4673 6.8447-10.707-0.50487-4.7114-1.6062-4.9943-4.9725-1.2772-1.4838 1.6384-3.2224 3.2436-3.8637 3.5672-1.8579 0.93732 2.2213-5.1157 4.2171-6.2576 3.4445-1.971 0.64316-3.1005-2.8978-1.1685-2.2686 1.2377-4.1628 3.4808-5.2125 6.1726z"/>
  <path id="path2917" d="m298.87 645.2c-0.49582 10.85-0.98395 12.655-2.2654 8.3779-0.68576-2.2889-3.0249-4.4933-8.2658-7.7894-4.0201-2.5284-8.0735-5.4308-9.0075-6.4499-1.8382-2.0056-3.0191-13.573-1.5291-14.978 1.0162-0.95868 11.635 7.4544 13.028 10.322 0.80353 1.654 0.91354 1.6179 1.1009-0.36212 0.25061-2.6478-3.3991-7.119-8.909-10.915-3.7146-2.5588-3.7743-2.6722-1.3337-2.5333 1.4052 0.079956 4.8839 1.2615 7.7304 2.6256 7.3727 3.5331 10.006 9.5784 9.4514 21.702z"/>
 </g>
 <path id="path2913" fill="#502d16" d="m221.47 458.87c3.7235 0.51703 11.584 3.2011 10.054 8.2532-1.7845 5.8924-8.6438 0.81458-12.266-4.7116-29.041-5.0933-33.907 29.252-5.835 45.322-31.565-14.069-29.956-56.763 8.0468-48.864z"/>
 <g fill="#520">
  <path id="path2909" d="m228.98 627.54c-3.8837-2.3682-6.8807-8.3259-8.1593-16.22-0.41466-2.56-1.0191-5.9307-1.3432-7.4905-0.55641-2.6775-0.42098-2.6359 2.4234 0.74445 1.8798 2.234 4.9493 4.068 8.1622 4.877 2.8322 0.7132 6.5621 2.4079 8.2887 3.766 3.2022 2.5189 6.6499 11.142 5.0817 12.71-0.47647 0.47644-4.0611-0.8092-7.966-2.8571-6.2824-3.2947-6.9068-3.4328-5.4242-1.1998 0.92149 1.3879 3.971 3.7373 6.7767 5.221l5.1012 2.6976-4.6333-0.0049c-2.5483-0.001831-6.2869-1.0127-8.3078-2.2451v0.000549z"/>
  <path id="path2907" d="m226.14 666.73c-1.4437-9.6739-6.7126-14.968-15.078-15.149l-4.1494-0.09 5.028 2.6005c2.7654 1.4302 5.5342 3.5876 6.1527 4.7942 0.90813 1.7714-0.17775 1.478-5.64-1.5241-7.5858-4.169-8.6873-3.4553-6.3389 4.1069 1.4514 4.6737 4.554 7.1219 11.6 9.1535 2.7338 0.78821 5.9911 2.4904 7.2384 3.7826 2.6293 2.7239 2.6847 2.365 1.1864-7.6749v0.000122z"/>
 </g>
 <path id="path2905" fill="#502d16" d="m432.75 587.53c-5.9479-0.007935-11.462 1.2816-15.516 3.9322-12.373 8.0912-11.481 22.014 1.4721 22.954 6.2869 0.10406 12.769-4.5442 8.6005-11.196-3.6816-5.154-10.402-2.761-8.2518 3.0799 0.69791 1.896 3.3391 1.9805 3.7579 0.48425 0.67172-2.3998 5.6383-1.1691 3.2155 2.77-3.9548 6.4296-15.692 2.9296-15.128-4.8426 0.44562-6.1384 5.976-11.232 14.47-12.959 6.7665-1.3753 9.5774-1.082 17.608 1.8983 7.7532 2.8774 11.226 5.6298 18.402 14.605 4.8633 6.083 11.459 15.5 14.373 20.988 2.7144 5.1124 2.9792 6.3209 6.7669 12.379 1.1893-0.97369 2.3806-1.9482 3.5766-2.9162-6.9443-18.383-13.015-28.36-29.772-42.595-6.1116-5.1916-15.927-8.5714-23.574-8.5816z"/>
 <path id="path2903" fill="#520" d="m487.99 535.92c2.5576 3.0381 1.9882 6.7328 0.14175 8.7542-1.4264 1.5615-3.7529 3.2448-7.7545 3.3163-9.2708 0.16571-20.005-10.783-21.06-24.119-1.8031-22.794 13.75-50.053 39.269-63.942 9.845-5.3583 8.743-2.6511-1.8497 4.5443-12.491 8.485-22.053 18.655-26.706 28.405-4.6304 9.7021-5.9884 15.934-6.0237 27.643-0.02356 7.7905 0.48975 10.58 2.7274 14.823 3.4805 6.5992 9.1863 10.562 15.206 10.562 9.391-0.20129 6.324-12.084 1.0734-8.9983-1.5295 0.89893 0.29056 0.48798 1.6809 1.7788 1.3896 1.2902-0.63913 2.7242-2.2287 2.4763-2.7938-0.43597-3.0103-3.2485-1.1461-5.3961 1.4017-1.6147 5.2436-1.5526 6.6708 0.15326z"/>
 <g fill="#7f3f00">
  <path id="path2901" d="m310.16 460.18c-3.7946-1.6518-29.394-6.5545-30.141-5.7724-0.15259 0.15973 1.2163 0.97018 3.042 1.801 4.3142 1.9632 7.8278 7.7288 11.177 18.341 1.403 4.445 3.651 9.1328 4.9957 10.417 3.043 2.9066 11.637 5.7539 16.562 5.4871l3.7097-0.201-3.7501-8.0225c-2.0625-4.4124-5.3863-9.6078-7.3861-11.545-2.9788-2.8861-3.1961-3.4173-1.2022-2.9382 4.2116 1.0118 9.5652 7.0563 13 14.678 1.8219 4.0427 3.4888 6.933 3.704 6.4229 0.77179-1.8285-1.2056-14.815-2.8226-18.538-2.0398-4.6963-5.2335-7.6672-10.888-10.129z"/>
  <path id="path2899" d="m412.87 505.28c-3.8813-2.5851-7.09-7.6942-8.741-13.918-0.65176-2.457 0.090393-2.0162 4.3343 2.5743 4.944 5.3477 10.068 8.8825 11.214 7.7364 0.3046-0.3046-0.87772-1.6798-2.6273-3.056-3.3045-2.5993-9.8972-10.742-9.9549-12.294-0.058258-1.5706 11.829-0.94809 15.202 0.79611 1.7926 0.92703 4.6994 4.2622 6.4595 7.4114 4.5351 8.1144 5.886 9.6142 10.44 11.591 3.8771 1.6827 3.5246 1.7521-9.1324 1.7967-11.742 0.041351-13.6-0.24359-17.194-2.6374z"/>
 </g>
 <g fill="#520">
  <path id="path2897" d="m439.31 408.14c-5.0006-7.7645-12.455-11.616-35.538-18.359l-9.5241-2.7823 4.3908 3.0155c5.5861 3.8364 7.8375 8.0558 9.946 18.64 2.7093 13.6 5.1792 18.618 11.248 22.853 2.8864 2.0142 8.0232 4.3424 11.415 5.1739l6.1669 1.5118-0.2653-2.283c-0.42941-3.6915-6.338-19.257-8.6458-22.776-1.1686-1.7821-3.2837-4.2928-4.7002-5.5793l-2.5755-2.3392 3.7511 2.011c7.3588 3.9451 12.655 12.232 16.86 26.382l1.402 4.7173 0.3302-4.3713c0.69009-9.1352-1.3054-21.227-4.2602-25.815l-0.0003 0.0001z"/>
  <path id="path2895" d="m534.46 254.52c-1.2088 0.025162-2.4178 0.082321-3.6222 0.17433-16.588 2.5218-31.271 8.851-44.397 19.39-43.678 36.183-36.882 89.836-3.1188 128.35 3.3624 2.6078 6.5311 4.7457 7.0315 4.7457 2.1438 0 0.63748-5.1007-2.1889-7.4382-15.764-14.654-25.256-33.025-27.177-52.92 4.22-21.076 16.379-42.773 26.189-43.448 4.6319-0.31851 6.5891-0.43875 8.1937 2.3244 1.0381 1.7877 0.89935 2.7278-0.75543 4.7458-2.6906 3.2812-1.356 6.3518 2.0726 4.7651 3.3649-1.5572 3.8124-7.4775 0.8523-11.196-2.3671-2.9736-2.7643-3.1169-7.6126-2.5569-2.811 0.32471-5.0597 0.40854-4.9976 0.17432 0.062134-0.23419 2.7929-1.3878 6.0629-2.5569 10.669-3.8144 20.037-0.89532 21.036 6.5472 0.43329 3.2284-0.062012 4.7228-2.9831 9.1816-5.0602 7.7239-4 11.536 2.1889 7.9419 2.0504-1.1907 3.303-3.2094 4.2808-6.8959 1.8251-6.8804 0.44604-12.468-3.874-15.787-4.7067-3.6158-4.1806-4.2703 1.4721-1.8014 11.306 4.9379 15.206 11.446 13.152 21.985-1.962 10.069-1.8718 12.13 0.52295 12.765 7.2067 1.9116 10.193-11.29 4.9976-22.082-3.7765-7.8449-9.1346-12.08-18.46-14.586-33.49-5.0455-42.395 14.588-52.668 40.678-0.29926-13.102 3.4343-25.699 9.2397-37.249 16.195-28.197 50.004-44.658 73.84-40.949 16.445 2.5594 28.589 13.9 32.591 27.049 3.507 11.522 1.8842 19.58-12.706 24.986-9.6365 3.5701-17.456 17.125-7.0897 21.638 11.627 2.3087 19.252-4.6169 24.947-14.217 18.331-34.602-9.5494-64.534-47.021-63.755z"/>
 </g>
 <path id="path2889" fill="#7f3f00" d="m446.75 313.97c-0.51126-0.43835-2.571-2.7103-4.5771-5.0487-4.2367-4.9387-10.863-8.1194-17.49-8.3952-3.839-0.15973-26.006 5.5887-26.144 6.7798-0.031647 0.27264 1.359 0.35226 3.0904 0.17697 3.7967-0.3844 8.8577 2.4569 16.398 9.2056 7.9668 7.131 11.345 9.1997 15.949 9.7669 4.7695 0.58758 14.853-2.2098 13.746-3.8137-1.5975-2.3162-14.468-10.782-18.823-12.382-5.4226-1.9918-4.8038-2.9214 1.2906-1.9387 2.7631 0.44553 7.0396 2.5698 12.229 6.0746 4.3892 2.9642 8.2526 5.4864 8.5854 5.6049 0.71359 0.25406-2.9019-4.8714-4.2539-6.0304v0.000031z"/>
 <g fill="#502d16">
  <path id="path2955" d="m254.48 489.47c3.1055-0.52319 7.2054-2.4818 10.149 2.1563 2.0805 3.2781-6.189 4.206-10.502 0.86395-24.495 3.2676-20.048 27.664 6.7466 25.336-29.32 7.6194-38.764-25.027-6.3938-28.356z"/>
  <g id="g2961" transform="matrix(1.1943 0 0 1.1943 -286.52 -219.64)">
   <path id="path2963" d="m539.35 547.05c-6.9341 0-12.559 5.6245-12.559 12.559 0 6.9341 5.6246 12.559 12.559 12.559 6.9341 0 12.559-5.6246 12.559-12.559 0-6.9341-5.6245-12.559-12.559-12.559zm0 2.926c5.3162 0 9.6326 4.3165 9.6326 9.6326 0 5.3162-4.3165 9.6326-9.6326 9.6326-5.3162 0-9.6326-4.3164-9.6326-9.6326s4.3165-9.6326 9.6326-9.6326z"/>
   <path id="path2965" d="m542.45 559.61c0 1.7145-1.3898 3.1042-3.1043 3.1042-1.7144 0-3.1042-1.3898-3.1042-3.1042s1.3898-3.1042 3.1042-3.1042c1.7145 0 3.1043 1.3898 3.1043 3.1042z"/>
  </g>
 </g>
 <path id="path2967" fill="#7f3f00" d="m122.13 516.01c-0.41306 0.26721-2.4622 1.1656-4.5536 1.9967-4.4169 1.755-7.8683 6.0946-9.1093 11.453-0.71897 3.1046 0.2049 23.372 1.0896 23.904 0.20252 0.1217 0.47957-0.99524 0.61562-2.4822 0.29839-3.2607 3.2478-6.4305 9.556-10.27 6.6654-4.0568 8.7652-6.1121 9.9132-9.7034 1.1893-3.7205 0.63016-13.004-0.76236-12.656-2.011 0.50244-10.455 8.1275-12.35 11.152-2.3594 3.7655-2.9703 2.9298-1.2742-1.7428 0.76899-2.1185 3.0508-4.894 6.525-7.9367 2.9384-2.5734 5.4587-4.8691 5.6006-5.1016 0.3044-0.49841-4.158 0.67975-5.2503 1.3861v-0.000061z"/>
 <g fill="#520">
  <path id="path2986" d="m194.96 543.94c2.01 4.9206-0.72816 19.791-5.6775 30.835-0.40886 0.91235-0.61104 0.30481-0.47121-1.4163 0.20914-2.5747-0.51222-3.8701-4.9484-8.8865-2.8562-3.2297-7.0799-8.1133-9.3853-10.853l-4.1922-4.9806 1.4072-7.0759c0.77399-3.8917 1.7337-7.3048 2.1328-7.5844 0.39902-0.27966 2.8272 1.597 5.3961 4.1704 4.1941 4.2016 5.8352 6.6039 8.6934 12.726 0.48181 1.032 0.70006-0.2417 0.48506-2.8304-0.33055-3.9791-1.1708-5.7002-5.4354-11.133l-5.0443-6.426 5.1697 2.6025c6.4598 3.2519 10.14 6.6163 11.87 10.852v0.000061-0.000061z"/>
  <path id="path3006" d="m454.35 646.18c-4.7643 2.1287-19.617 0.41876-30.797-3.5456-0.92364-0.32752-0.33304-0.54779 1.3768-0.51355 2.5579 0.051208 3.8022-0.68677 8.5362-5.0627 3.048-2.8174 7.6617-6.9897 10.253-9.2712l4.7112-4.1486 7.0726 0.9102c3.8899 0.50049 7.3158 1.1991 7.613 1.5524 0.29724 0.35333-1.4342 2.7006-3.8477 5.2164-3.9405 4.1073-6.2325 5.7563-12.142 8.7351-0.99612 0.50214 0.27518 0.63361 2.825 0.29211 3.9194-0.5249 5.5788-1.3964 10.733-5.6366l6.0972-5.0157-2.3082 4.9207c-2.8842 6.1486-6.023 9.7347-10.124 11.567h-0.000031 0.000031z"/>
 </g>
 <path id="path3008" fill="#7f3f00" d="m451.05 567.84c3.5508-2.6858 16.226-4.1214 26.282-2.9766 0.83078 0.094543 0.38223 0.3913-1.0457 0.69171-2.136 0.4494-3.0285 1.3022-6.1219 5.8503-1.9917 2.9283-5.0243 7.2839-6.7395 9.6789l-3.1182 4.3546-6.0541 0.6039c-3.3297 0.33215-6.3119 0.41046-6.6269 0.17395-0.31503-0.23651 0.67276-2.5208 2.195-5.0762 2.4854-4.1722 4.0735-5.9838 8.4124-9.5966 0.73142-0.60901-0.35062-0.47369-2.4045 0.3006-3.157 1.1902-4.3688 2.2338-7.8378 6.75l-4.1035 5.3421 0.9722-4.5343c1.2148-5.6658 3.1341-9.2505 6.1906-11.562z"/>
 <g fill="#520">
  <path id="path3010" d="m427.13 569.36c0.59146-6.3388 0.92737-7.3821 1.5589-4.8422 0.33798 1.3591 1.6463 2.7147 4.6233 4.79 2.2836 1.5919 4.5762 3.4038 5.0947 4.0263 1.0206 1.2253 1.3909 8.0305 0.47952 8.8121-0.62161 0.53308-6.6052-4.6874-7.3411-6.4048-0.42456-0.99072-0.48993-0.9726-0.65463 0.18146-0.22022 1.5433 1.7925 4.2624 4.9132 6.6376 2.1038 1.6013 2.1356 1.6693 0.71051 1.5202-0.8205-0.085815-2.8244-0.87415-4.4532-1.7518-4.2185-2.2732-5.5921-5.8857-4.9312-12.969z"/>
  <path id="path3036" d="m128.67 420.85c-3.1256-6.4649-8.3034-10.652-24.683-19.961l-6.7584-3.8409 2.9995 2.9936c3.8162 3.8083 5.1748 7.2296 6.0023 15.114 1.0633 10.131 2.5277 14.159 6.6687 18.344 1.9696 1.9904 5.5593 4.6459 7.9768 5.9013l4.3955 2.2825-0.0403-1.6633c-0.065521-2.6896-3.3299-14.838-4.7767-17.776-0.73263-1.4879-2.1065-3.6765-3.0532-4.8636l-1.7211-2.1584 2.6004 2.1585c5.1015 4.2346 8.4073 11.126 10.525 21.94l0.7059 3.6052 0.534-3.0195c1.1161-6.3103 0.47212-15.236-1.3748-19.056l-0.0002-0.0001z"/>
  <path id="path3046" d="m284.37 349.92c3.4685-1.7243 14.616-1.0654 23.115 1.3662 0.70215 0.20087 0.27045 0.38312-1.0064 0.42484-1.9101 0.062439-2.8087 0.64438-6.1645 3.9923-2.1607 2.1556-5.4348 5.3516-7.2763 7.1019l-3.3479 3.1826-5.3123-0.383c-2.9218-0.21069-5.5053-0.58258-5.7412-0.82648s0.96152-2.0084 2.661-3.9211c2.7746-3.1229 4.4182-4.4042 8.7065-6.7877 0.7229-0.40179-0.23068-0.44739-2.119-0.10141-2.9026 0.53192-4.1055 1.2265-7.7804 4.4927l-4.347 3.8635 1.5244-3.6475c1.9048-4.5577 4.1023-7.2726 7.088-8.7569z"/>
 </g>
 <path id="path3048" fill="#7f3f00" d="m295.77 399.42c-0.33243 0.36261-2.0892 1.7483-3.9038 3.0794-3.8324 2.8111-6.0794 7.8801-5.9305 13.379 0.086304 3.1856 6.0857 22.567 7.0759 22.859 0.22665 0.066803 0.21338-1.084-0.02951-2.5572-0.53262-3.2307 1.5232-7.0412 6.6609-12.346 5.4286-5.605 6.9429-8.1229 7.1493-11.888 0.21374-3.9002-2.6658-12.743-3.9257-12.055-1.8196 0.9928-8.0709 10.499-9.143 13.903-1.3348 4.2384-2.1365 3.5836-1.6721-1.3656 0.21054-2.2439 1.7196-5.5046 4.3154-9.3244 2.1954-3.2306 4.0561-6.0872 4.135-6.3478 0.16901-0.55899-3.8527 1.7052-4.7318 2.6639v-0.0001z"/>
 <g fill="#520">
  <path id="path3050" d="m271.83 376.58c-0.44183 0.12796-2.4683 0.36706-4.5032 0.53152-4.2976 0.34738-8.8064 3.367-11.9 7.9698-1.7922 2.6666-8.8926 21.699-8.3742 22.448 0.11868 0.17126 0.77856-0.78281 1.4664-2.1202 1.5084-2.9327 5.1526-5.0145 11.807-6.7445 7.0312-1.8281 9.5476-3.1237 11.88-6.1168 2.4163-3.1008 5.557-11.858 4.2817-11.938-1.8416-0.11649-11.713 4.5009-14.437 6.753-3.3919 2.804-3.5683 1.8536-0.36792-1.9822 1.451-1.7391 4.3956-3.6488 8.4204-5.4611 3.404-1.5327 6.3579-2.9293 6.5642-3.1034 0.44244-0.37344-3.6687-0.5734-4.837-0.23529v-0.0001h0.000061z"/>
  <path id="path3775" d="m637.6 386.38c0 1.0984-0.89044 1.9889-1.9889 1.9889-1.0984 0-1.9889-0.89047-1.9889-1.9889s0.8905-1.9889 1.9889-1.9889 1.9889 0.89044 1.9889 1.9889z"/>
 </g>
 <path id="path3813" fill="#9e1225" d="m795.73 477.63c-18.056 0-32.697 14.641-32.697 32.697s14.641 32.697 32.697 32.697 32.697-14.641 32.697-32.697-14.641-32.697-32.697-32.697zm0 14.315c10.157 0 18.382 8.2256 18.382 18.382 0 10.157-8.2256 18.382-18.382 18.382-10.157 0-18.402-8.2256-18.402-18.382 0-10.157 8.2449-18.382 18.402-18.382z"/>
 <path id="path3948" fill="#520" d="m958.46 602.65c4.5045-4.9348 9.7485-6.337 24.999-6.6848l6.2924-0.1435-3.231 1.4019c-4.1105 1.7836-6.2764 4.5632-9.5682 12.279-4.2297 9.9148-6.68 13.264-11.158 15.254-2.1301 0.94617-5.6814 1.6616-7.8919 1.5898l-4.0191-0.1304 0.5953-1.7042c0.96301-2.7555 7.5028-13.513 9.5693-15.741 1.0465-1.1282 2.8044-2.6192 3.9066-3.3134l2.0038-1.262-2.6526 0.762c-5.2038 1.4949-9.9863 6.7702-15.226 16.795l-1.7468 3.3419 0.6329-3.4391c1.3225-7.1873 4.833-16.089 7.4947-19.005l0.0002 0.0001z"/>
 <path id="path3956" fill="#9e1225" d="m802.06 581.95c-18.664 0-33.796 15.132-33.796 33.796s15.132 33.796 33.796 33.796 33.796-15.132 33.796-33.796-15.132-33.796-33.796-33.796zm0 10.072c13.101 0 23.724 10.623 23.724 23.724s-10.623 23.703-23.724 23.703-23.724-10.603-23.724-23.703c0-13.101 10.623-23.724 23.724-23.724z"/>
 <g fill="#520">
  <path id="path3958" d="m802.06 595.26c-11.306 0-20.487 9.1807-20.487 20.487s9.1807 20.467 20.487 20.467 20.467-9.1606 20.467-20.467-9.1606-20.487-20.467-20.487zm0 9.4291c6.1016 0 11.038 4.9559 11.038 11.058 0 6.1016-4.9358 11.038-11.038 11.038-6.1016 0-11.058-4.9358-11.058-11.038 0-6.1017 4.956-11.058 11.058-11.058z"/>
  <path id="path3960" d="m944.22 646.24c-7.7927 2.8103-11.011 7.718-15.341 23.395l-1.7868 6.4686 2.7081-2.821c3.4449-3.5891 7.7403-4.787 18.975-5.2922 14.436-0.64923 19.572-1.9273 23.387-5.8199 1.8149-1.8515 3.6784-5.2634 4.1414-7.5818l0.8417-4.2154-2.4479-0.025c-3.9582-0.039795-20.115 2.6865-23.642 3.9894-1.7858 0.65973-4.2408 1.9204-5.4556 2.8012l-2.2086 1.6017 1.6988-2.4626c3.3328-4.831 11.655-7.8012 26.495-9.4561l4.9471-0.5516-4.7962-0.6397c-10.023-1.3368-22.912-1.0515-27.517 0.60901v0.000061z"/>
  <g id="g3962" transform="matrix(.75564 0 0 .75564 991.53 86.873)">
   <path id="path3964" d="m297.23 689.36c-8.6495 0-15.653 7.0034-15.653 15.653 0 8.6495 7.0034 15.69 15.653 15.69 8.6495 0 15.653-7.0407 15.653-15.69 0-8.6495-7.0034-15.653-15.653-15.653zm0 3.0187c6.9861 0 12.634 5.6481 12.634 12.634 0 6.9861-5.648 12.671-12.634 12.671-6.9861 0-12.634-5.6853-12.634-12.671 0-6.9861 5.648-12.634 12.634-12.634z"/>
   <path id="path3966" d="m302.6 705.03c0 2.9694-2.4071 5.3765-5.3765 5.3765s-5.3765-2.4072-5.3765-5.3765c0-2.9694 2.4072-5.3765 5.3765-5.3765 2.9694 0 5.3765 2.4072 5.3765 5.3765z"/>
  </g>
  <path id="path3982" d="m1098.9 644.81c-3.0164 2.7343-6.6599 14.113-7.5552 23.594 0.69751-1.4144 4.4374-4.1303 7.0679-5.2971 5.1388-1.7105 6.8502-2.389 11.046-4.5074 1.2689-0.56915 3.3223-2.5847 3.7015-3.8234 0.34753-1.1352 1.0427-3.4058 1.0427-3.4058 0.91785-2.9981 1.5485-5.7268 1.4011-6.0635-4.7233-0.088745-9.0066 2.6843-12.521 5.5869-0.039551-3.1791 2.53-5.0677 5.7914-6.764l5.4416-2.7156-4.1455-0.0056c-5.18-0.006775-8.6743 1.0478-11.271 3.4016v0.000183z"/>
 </g>
 <path id="path3984" fill="#7f3f00" d="m1148.4 643.2c6.3837 3.6963 9.0756 8.929 12.832 24.945l1.5502 6.6083-2.2457-3.1089c-2.8571-3.9551-6.3705-5.6453-15.522-7.4667-11.758-2.3402-15.957-4.2084-19.12-8.5074-1.5045-2.0449-3.0718-5.6388-3.483-7.9864l-0.7477-4.2685 1.9918 0.2633c3.2208 0.42621 16.41 5.0234 19.3 6.7269 1.4631 0.86267 3.4799 2.3982 4.4814 3.4125l1.8213 1.8441-1.4192-2.6356c-2.7841-5.1705-9.601-9.0873-21.703-12.47l-4.0344-1.1277 3.8939-0.0685c8.1376-0.14325 18.631 1.655 22.403 3.839l-0.0001 0.0002z"/>
 <g id="g3994" fill="#520" transform="matrix(.99431 0 0 .99431 541.11 69.122)">
  <path id="path3996" d="m539.35 542.28c-6.9341 0-12.559 5.6245-12.559 12.559 0 6.9341 5.6246 12.559 12.559 12.559 6.9341 0 12.559-5.6246 12.559-12.559 0-6.9341-5.6245-12.559-12.559-12.559zm0 2.926c5.3162 0 9.6326 4.3165 9.6326 9.6326 0 5.3162-4.3165 9.6326-9.6326 9.6326-5.3162 0-9.6326-4.3164-9.6326-9.6326s4.3165-9.6326 9.6326-9.6326z"/>
  <path id="path3998" d="m541.58 554.84c0 1.2339-1.0002 2.2341-2.2341 2.2341-1.2338 0-2.2341-1.0002-2.2341-2.2341s1.0002-2.2341 2.2341-2.2341 2.2341 1.0002 2.2341 2.2341z"/>
 </g>
 <g fill="#008000">
  <g id="g4012" transform="matrix(1.1552 0 0 1.1552 352.25 -446.8)">
   <path id="path4014" fill="#9e1225" d="m297.23 702.34c-8.6495 0-15.653 7.0034-15.653 15.653 0 8.6495 7.0034 15.69 15.653 15.69 8.6495 0 15.653-7.0407 15.653-15.69 0-8.6495-7.0034-15.653-15.653-15.653zm0 3.0187c6.9861 0 12.634 5.6481 12.634 12.634 0 6.9861-5.648 12.671-12.634 12.671-6.9861 0-12.634-5.6853-12.634-12.671 0-6.9861 5.648-12.634 12.634-12.634z"/>
   <path id="path4016" fill="#520" d="m301.74 718.01c0 2.4951-2.0226 4.5176-4.5177 4.5176s-4.5177-2.0226-4.5177-4.5176c0-2.4951 2.0226-4.5177 4.5177-4.5177 2.495 0 4.5177 2.0226 4.5177 4.5177z"/>
  </g>
  <g id="g4018" transform="matrix(-1.3988 1.2389 -1.2389 -1.3988 2892.1 514.4)">
   <path id="path4020" fill="#520" d="m806.55 742.64c-7.5605 0-13.693 6.1326-13.693 13.693 0 7.5605 6.1326 13.693 13.693 13.693 7.5605 0 13.693-6.1326 13.693-13.693 0-7.5605-6.1326-13.693-13.693-13.693zm0 3.1904c5.7964 0 10.503 4.7063 10.503 10.503 0 5.7964-4.7063 10.503-10.503 10.503-5.7964 0-10.503-4.7064-10.503-10.503 0-5.7964 4.7063-10.503 10.503-10.503z"/>
   <path id="path4022" fill="#9e1225" d="m812.44 756.33c0 3.2543-2.6382 5.8926-5.8926 5.8926s-5.8926-2.6382-5.8926-5.8926 2.6382-5.8926 5.8926-5.8926 5.8926 2.6382 5.8926 5.8926z"/>
  </g>
 </g>
 <path id="path4034" fill="#7f3f00" d="m788.26 408.57c4.3033-1.1419 16.578 2.3274 25.453 7.1937 0.73315 0.40201 0.20563 0.5069-1.2297 0.24442-2.1473-0.39258-3.2961 0.058899-7.8809 3.0975-2.952 1.9564-7.4076 4.84-9.9018 6.4074l-4.5347 2.8502-5.8322-1.7328c-3.2077-0.953-5.9976-2.0094-6.1996-2.3476-0.20203-0.33814 1.5769-2.0785 3.9532-3.8675 3.8799-2.9209 6.0355-3.9965 11.419-5.6979 0.90753-0.28684-0.14514-0.5712-2.3393-0.63199-3.3727-0.093445-4.8893 0.41379-9.8098 3.2807l-5.8203 3.3912 2.6163-3.8288c3.2692-4.7843 6.4025-7.3757 10.107-8.3586v0.000031z"/>
 <path id="path4036" fill="#520" d="m758.28 437.14c-2.6141 2.2896-5.4622 11.483-5.9055 19.063-0.036682 0.62619 0.2597 0.33164 0.69092-0.68671 0.64502-1.5234 1.4434-2.0766 5.4769-3.7949 2.597-1.1063 6.4693-2.8037 8.6049-3.7723l3.8831-1.7608 1.2953-4.4015c0.71246-2.4208 1.1762-4.6163 1.0305-4.8789-0.14563-0.26257-2.0953 0.18195-4.3326 0.98779-3.6528 1.3157-5.3072 2.2633-8.7646 5.0198-0.58282 0.46463-0.32953-0.31857 0.5628-1.7405 1.3716-2.1857 2.3647-2.9511 6.4234-4.9512l4.801-2.3658-3.737 0.1513c-4.6696 0.18912-7.7788 1.1597-10.029 3.1306v0.000031-0.000031z"/>
 <path id="path4050" fill="#7f3f00" d="m1033.4 571.52c-4.0751 0.72229-28.115 10.794-28.305 11.859-0.038818 0.21747 1.5499 0.13568 3.5305-0.18176 4.6801-0.75012 10.796 2.1105 19.455 9.0998 3.6271 2.9276 8.0924 5.5902 9.9231 5.9166 4.1428 0.73895 12.878-1.6414 16.834-4.5874l2.9797-2.2189-7.561-4.6102c-4.1586-2.5356-9.801-5.0262-12.539-5.5347-4.0779-0.75726-4.5526-1.0796-2.6265-1.7832 4.0684-1.4861 11.872 0.58948 18.948 5.0399 3.7537 2.3607 6.7407 3.847 6.6381 3.3029-0.36816-1.9503-9.1976-11.677-12.604-13.884-4.2966-2.7848-8.6005-3.4939-14.673-2.4176z"/>
 <g fill="#520">
  <path id="path4063" d="m883.12 536.2c-7.2541-1.3384-12.7 0.88989-25.963 10.623l-5.4723 4.0159 3.7271-0.9039c4.7417-1.15 8.5106-0.15161 16.65 4.4101 10.458 5.8615 14.864 7.1697 20.061 5.9571 2.4723-0.57678 5.9989-2.2901 7.837-3.8074l3.3419-2.7587-1.6852-1.0941c-2.725-1.7689-15.738-6.845-19.041-7.4276-1.6727-0.29504-4.2034-0.43823-5.6239-0.31818l-2.5826 0.2183 2.7913-1.0812c5.476-2.1211 13.203-0.66876 24.599 4.6238l3.7993 1.7644-2.9153-2.5823c-6.0924-5.3965-15.237-10.848-19.524-11.639l-0.0001 0.0002z"/>
  <g id="g4067" transform="matrix(.99431 0 0 .99431 359.99 33.407)">
   <path id="path4069" d="m539.35 542.28c-6.9341 0-12.559 5.6245-12.559 12.559 0 6.9341 5.6246 12.559 12.559 12.559 6.9341 0 12.559-5.6246 12.559-12.559 0-6.9341-5.6245-12.559-12.559-12.559zm0 2.926c5.3162 0 9.6326 4.3165 9.6326 9.6326 0 5.3162-4.3165 9.6326-9.6326 9.6326-5.3162 0-9.6326-4.3164-9.6326-9.6326s4.3165-9.6326 9.6326-9.6326z"/>
   <path id="path4071" fill="#9e1225" d="m543.36 554.84c0 2.2147-1.7954 4.01-4.01 4.01-2.2147 0-4.01-1.7954-4.01-4.01 0-2.2147 1.7953-4.01 4.01-4.01s4.01 1.7953 4.01 4.01z"/>
  </g>
 </g>
 <path id="path4083" fill="#7f3f00" d="m938.14 558.93c5.7571 3.3334 8.1846 8.0524 11.573 22.496l1.398 5.9597-2.0253-2.8037c-2.5766-3.567-5.7452-5.0912-13.998-6.7338-10.604-2.1105-14.391-3.7953-17.243-7.6724-1.3568-1.8442-2.7703-5.0853-3.1412-7.2025l-0.6743-3.8495 1.7964 0.2375c2.9047 0.38434 14.8 4.5302 17.405 6.0665 1.3195 0.77795 3.1382 2.1628 4.0416 3.0775l1.6425 1.663-1.2798-2.377c-2.5108-4.663-8.6586-8.1952-19.573-11.246l-3.6384-1.017 3.5117-0.0618c7.3388-0.12915 16.802 1.4926 20.204 3.4623l-0.0001 0.0002z"/>
</svg>
