<?xml version="1.0" encoding="utf8" standalone="no"?>
<svg viewBox="0 0 148.38773 122.7976" xmlns="http://www.w3.org/2000/svg">
<g transform="translate(-18.23511,-15.14499)">
<path d="m79.14906,67.06726c0,0-13.8593,3.67701-22.34464-10.74805-8.48525-14.42495 5.13519-29.26266 13.45703-37.683m-4.84102,53.12991c0,0-21.35123,5.99608-24.87942-13.74983s6.71339-29.2468 6.71339-29.2468m9.70266,51.49232c0,0-6.09496,5.7414-14.01184,3.63468-7.8022-2.07632-17.94375-10.05466-15.76013-31.75595m28.2019,35.93177c0,0-4.16866,13.50185-17.88651,10.95623s-15.12647-11.66683-18.38197-20.57661m37.85022,21.20378c0,0-12.38142,31.18826-36.56615,2.22371m42.15462,4.45845c0,0 1.62657,26.26959-29.42502,18.01894m35.36005-16.13813c0,0 7.48452,26.98691-24.32878,24.6246m31.22774-24.94639c0,0 12.96631,12.40129-8.89136,29.23757m14.27418-31.7664c0,0 14.17813,4.76034 3.23603,26.36333m.65443-31.2886c0,0 14.82268.61405 11.72473,21.97984m-10.65233-26.15763c0,0 13.88603-6.56595 17.08416,14.36225m-17.61048-19.70188c0,0 10.78406-9.28395 20.46322,6.19783m-22.53404-9.93117c0,0 3.43398-11.42725 20.75807-3.01269m-23.82916.98893c0,0 .99706-13.99694 18.98923-9.29603m-22.3687,9.01227c0,0-4.55551-12.07272 13.16502-15.82878m-16.07974,16.39632c0,0-8.41398-6.64672 5.37461-18.38468m-7.96099,19.65998c0,0-10.11388-3.75991-2.06638-16.87186m-.10185,19.13528c0,0-9.48889-.52529-8.02374-13.9821m7.2634,16.80741c0,0-10.4429,3.47889-11.30254-11.55416m11.599,13.65428c0,0-6.5411,6.9971-13.21222-2.67803m14.38237,5.29677c0,0-6.16367,8.46939-13.2904,1.62774m15.21599-.10535c0,0-3.49006,10.84019-13.0578,4.63282m15.8881-4.79314c0,0 .29827,10.40959-8.47756,9.80096m39.18502-5.97955c0,0 9.3148,3.10823 15.1131,3.39106s26.02152,0 30.12275.70706 15.66623,2.7514 15.66623,2.7514m.0313.21894c0,0-.70712-27.43572-5.0912-39.03228s-12.58649-31.96123-30.54699-42.00216-33.51686-13.29361-47.51761-11.73796-34.36538,9.33371-42.70922,18.5262-19.51617,24.46592-20.78898,39.45656-1.46571,34.27172 10.46522,47.09328c12.11173,13.01585 22.62742,17.112 34.3654,16.26347s27.43572-7.35388 33.79967-17.2534 10.04091-23.90019 5.79832-35.92101-16.26349-17.96052-24.74872-17.11198-21.4961,6.92964-23.19317,16.26347-.28267,20.50611 8.20249,23.75879 17.5362.28302 20.50609-6.64683-.14137-15.13209-6.0811-15.55633-10.46527,3.11115-10.32378,6.92962 2.40417,7.63678 6.22252,6.08115 3.2527-4.52551 1.55562-5.7983" fill="none" stroke="#000" stroke-linecap="round" stroke-linejoin="round"/>
</g>
</svg>
