<?xml version="1.0" encoding="UTF-8" standalone="no"?>
<svg width="717.82" xmlns="http://www.w3.org/2000/svg" xmlns:xlink="http://www.w3.org/1999/xlink" height="1032.9">
 <g id="layer1" externalResourcesRequired="false" fill="#0c0c0c" fill-rule="evenodd">
  <path id="path2316-4" d="m242.84 83.362c4.225-0.5586 7.331 0.4708 9.945 2.2659v0.000099c1.44 0.8741 2.635 2.0667 3.695 3.3797 1.061 1.313 1.986 2.75 2.754 4.2031 1.535 2.9063 2.402 5.924 1.884 8.2802-0.31195 1.4165 0.24902 2.3683 0.74103 2.9071 1.184 0.538 2.679 0.89201 4.447 0.97 1.768 0.079002 3.81-0.122 6.054-0.7 2.427-0.634 5.152-2.1029 7.824-4.6946v-0.000099c2.53-2.6553 4.238-6.0622 4.906-9.7502 0.11798-0.5492 0.21997-1.0952 0.30499-1.6354 0.52795-9.5353-2.787-18.912-9.564-26.143-9.593-9.1047-21.637-12.864-32.532-12.449-13.301 0.085102-26.014 5.5029-35.266 15.046-7.93 7.9619-13.217 18.926-13.987 31.193-0.011993 0.5123-0.016998 1.0229-0.015015 1.5317 0.032013 6.33 1.146 12.521 3.229 18.339s5.135 11.263 8.98 16.062c3.547 4.701 7.895 9.009 12.972 12.623 5.078 3.613 10.886 6.532 17.322 8.411 6.616 1.766 13.451 2.379 20.218 1.861s13.466-2.167 19.763-4.896c11.957-5.109 22.519-13.815 29.769-25.246 7.283-11.647 11.009-25.333 10.748-39.126-0.21301-13.354-4.13-26.751-11.675-38.216-9.666-14.428-24.187-25.016-40.422-30.389-16.001-5.3451-33.548-5.8819-49.834-1.2816-11.945 3.3973-22.967 9.5861-32.039 17.892-9.522 8.7746-16.766 19.486-21.95 30.839-6.572 14.475-10.259 29.706-11.942 44.983s-1.368 30.596 0.076996 45.305c2.025 21.215 6.25 41.748 12.297 60.94 6.047 19.191 13.915 37.037 23.071 53.132 6.642 11.665 13.906 22.372 21.23 32.301 2.696 3.656 5.391 7.187 7.957 10.687 1.773 2.43 3.497 4.726 4.756 7.127l-12.091 6.388c-0.56598-1.201-1.953-2.932-3.73-5.439-2.522-3.427-5.217-6.956-7.96-10.681-7.889-10.704-15.349-21.927-22.015-33.795-20.573-36.809-32.348-78.022-35.653-119.74-2.808-31.388 0.029022-65.063 14.451-95.851 5.867-12.358 14.136-24.002 24.948-33.67 10.383-9.1578 22.812-15.827 36.257-19.394 18.172-4.7499 37.403-3.8456 54.985 2.3956 17.605 6.1503 33.301 17.978 43.881 34.277 8.038 12.738 12.156 27.426 12.128 42.206 0.037933 14.823-4.148 29.618-12.421 42.428-7.998 12.153-19.46 21.515-32.772 26.965-13.396 5.595-28.648 6.783-43.409 2.676-13.633-4.217-24.793-12.581-32.46-23.058-8.145-10.325-13.096-23.849-12.696-38.812 0.96701-13.396 6.525-25.192 14.969-33.863v-0.000099c9.903-10.491 23.494-16.701 38.224-17.203 11.802-0.9164 25.243 2.9658 36.88 13.256 0.28397 0.2915 0.56299 0.5859 0.83701 0.8833 2.485 2.6946 4.435 5.4677 5.974 8.2282 1.539 2.7606 2.667 5.51 3.48 8.2015 1.627 5.3831 2.018 10.52 1.648 15.341-0.52402 5.4189-2.448 10.092-5.394 14.022-3.305 4.057-6.506 6.675-9.448 8.191-3.434 1.818-6.648 3.137-9.706 4.095s-5.964 1.548-8.663 1.812c-2.139 0.308-4.343 0.553-6.637 0.736-3.767 0.299-7.334 0.052002-10.49-0.641-4.202-0.877-7.638-2.51-10.255-4.788-1.308-1.139-2.413-2.445-3.28-3.933s-1.494-3.158-1.797-5.031c-0.319-1.9746-0.40302-4.0769-0.14999-6.1764 0.25299-2.0994 0.84799-4.1961 1.854-6.1458s2.427-3.7507 4.243-5.2542c1.816-1.5034 4.025-2.7041 6.513-3.496 1.268-0.40179 2.617-0.7 4.036-0.8877h0.001007z"/>
  <path id="path3114-9" d="m20.804 172.36c1.574-1.626 3.152-2.544 4.78-3.05 1.543-0.62399 3.08-0.573 4.641-0.339 1.561 0.23401 3.153 0.651 4.712 1.123 1.559 0.47101 3.081 1.013 4.382 1.701s2.372 1.537 2.997 2.557c0.64398 1.053 1.544 1.297 2.172 1.311 1.021-0.416 2.126-1.153 3.236-2.273 1.238-1.269 2.387-3.226 2.944-6.133 0.38501-2.576 0.023987-5.414-1.278-8.118-1.174-2.792-2.964-5.362-4.988-7.379-3.752-3.062-8.307-5.131-13.344-5.927-10.352-0.981-19.547 2.436-26.008 7.876-8.147 6.399-13.405 15.746-14.618 26.049-1.151 8.672 0.731 17.968 6.066 26.076 4.228 5.883 9.645 10.339 15.573 13.29 2.915 1.448 5.987 2.566 9.142 3.324 4.433 1.218 9.184 1.809 14.074 1.615s9.919-1.172 14.867-3.104c4.959-2.084 9.502-4.98 13.459-8.546 3.958-3.566 7.33-7.804 9.933-12.531 4.954-8.876 7.34-19.318 6.355-29.927-1.071-10.685-5.289-20.932-12.068-29.357-6.501-8.138-15.319-14.555-25.524-18.059-11.013-3.783-23.298-4.773-35.211-1.96-9.156 2.107-18.125 6.806-24.961 14.32-6.672 7.585-11.163 16.798-13.25 26.487-2.195 10.288-1.904 20.83 0.242 30.794 2.643 12.103 7.68 23.358 14.344 33.471 6.663 10.114 14.951 19.085 24.058 26.66 6.808 5.706 14.137 10.776 21.904 14.971 7.075 3.815 14.459 6.865 21.961 9.229 15.374 4.824 30.92 6.89 45.862 8.829 9.179 1.199 18.203 2.404 27.003 3.82 8.8 1.417 17.377 3.046 25.669 5.043 24.249 5.832 46.082 14.569 64.761 24.147l-5.31 10.349c-19.888-10.095-40.779-18.097-62.259-23.449-16.488-4.146-33.766-6.67-51.448-9.242-15.28-2.152-31.368-4.65-47.501-9.941-8.076-2.686-15.971-6.122-23.516-10.354-8.364-4.713-16.111-10.284-23.203-16.457-19.336-16.492-34.665-39.133-40.082-65.606-2.166-10.897-2.245-22.5 0.39-33.973 2.504-10.742 7.698-20.923 15.383-29.389 8.151-8.541 18.302-13.755 28.596-15.864 13.148-2.817 26.505-1.616 38.502 2.77 11.073 4.028 20.636 11.114 27.686 20.249 7.117 9.127 11.604 20.257 12.635 32.148 0.87799 11.376-1.72 22.656-7.346 32.417-5.608 9.905-14.493 17.959-25.659 22.536-10.561 3.952-21.508 4.144-31.282 1.322-10.015-2.468-19.596-8.505-26.63-18.06-5.904-8.898-8.155-18.942-7.067-28.423 1.11-11.361 6.586-21.798 15.56-29.27 4.718-4.321 11.065-7.583 18.61-8.953 3.687-0.67001 7.375-0.84401 10.983-0.636 2.993 0.41299 5.676 1.157 8.091 2.112 2.415 0.95599 4.562 2.125 6.481 3.433 3.838 2.617 6.779 5.772 9.066 9.255 2.34 3.721 3.487 7.723 3.543 11.867-0.12 4.181-0.85602 7.508-2.033 9.978-1.254 2.707-2.629 5.09-4.092 7.176-1.464 2.086-3.021 3.875-4.589 5.32-0.599 0.61101-1.215 1.219-1.848 1.825-2.85 2.727-5.902 4.715-8.832 5.937-3.087 1.333-6.007 1.815-8.73 1.539-2.723-0.27501-5.289-1.295-7.492-3.352-2.366-2.209-4.391-5.192-5.154-8.646-0.381-1.728-0.448-3.567-0.148-5.42 0.29999-1.853 0.967-3.715 1.969-5.462 0.755-1.305 1.708-2.558 2.839-3.726z"/>
  <path id="path3133-3" d="m176.34 399.06c-1.091 2.879-1.413 4.988-1.238 6.954 0.17401 1.967 0.83899 3.783 1.819 5.522 0.979 1.738 2.284 3.377 3.755 4.707 1.47 1.329 3.109 2.334 4.624 2.84 1.315 0.44 3.381 0.77499 5.265 1.214 1.884 0.439 3.591 1.015 4.001 2.313 0.17502 0.55301-0.117 1.622-0.801 2.991-0.685 1.369-1.768 3.034-3.149 4.749-1.254 1.469-2.721 2.935-4.25 4.265s-3.119 2.526-4.577 3.531c-1.732 1.195-4.519 3.193-8.737 5.227-2.109 1.017-4.578 2.034-7.435 2.897-2.857 0.862-6.105 1.57-9.731 1.922-5.748 0.53403-12.327 0.268-19.323-1.427s-14.417-4.833-21.388-9.877c-4.132-3.031-8.068-6.616-11.648-10.738-3.579-4.123-6.801-8.785-9.502-13.907-3.015-5.716-4.996-11.158-6.341-16.211-1.105-4.098-1.615-7.987-1.721-11.644-0.10501-3.657 0.194-7.083 0.78-10.296 0.58499-3.212 1.458-6.211 2.552-9.027s2.41-5.45 3.928-7.932c3.322-5.246 7.199-9.721 11.807-13.822 4.607-4.1 9.973-7.835 16.438-11.092 4.805-2.467 10.242-4.751 16.533-6.6 6.292-1.848 13.451-3.269 21.59-3.705 5.985-0.32901 12.499-0.10001 19.466 1.044 6.966 1.145 14.393 3.202 21.982 6.684l4.779-10.391c-14.797-6.778-31.037-9.602-47.059-8.403-14.725 1.063-29.218 5.448-42.202 13.038-11.718 6.633-22.309 16.699-29.534 30.037-6.878 13.292-8.421 28.797-3.97 43.576 4.964 16.328 14.856 31.654 29.471 42.935 12.184 9.254 27.408 14.526 43.529 14.314 5.911-0.12 11.761-1.105 17.372-2.92 2.944-0.95401 5.576-2.042 7.96-3.191 2.384-1.148 4.519-2.358 6.465-3.594 3.893-2.473 7.042-5.035 9.831-7.737 2.712-2.889 4.967-5.767 7.018-8.96 2.051-3.194 3.902-6.71 5.496-10.925 1.101-2.909 1.558-6.245 1.338-9.496-0.22-3.25-1.112-6.408-2.481-9.089-1.368-2.682-3.201-4.886-5.223-6.414s-4.225-2.384-6.417-2.518c-1.877-0.11499-3.983-0.074005-6.114 0.186-2.132 0.26001-4.289 0.73502-6.283 1.45-1.994 0.716-3.824 1.666-5.318 2.894-1.494 1.227-2.64 2.726-3.357 4.626z"/>
  <path id="path3167-8" d="m178.27 499.62c0.77798-0.15302 1.337-0.15402 1.814 0.020996 0.75998 0.26498 1.398 0.82599 1.973 1.619 0.57599 0.79401 1.076 1.812 1.456 2.91 0.38101 1.098 0.63602 2.275 0.741 3.352 0.10602 1.076 0.062012 2.05-0.078979 2.722-0.143 0.686-0.49402 1.655-0.75302 2.582-0.259 0.92596-0.418 1.818-0.001984 2.361 0.82098 1.074 2.516 1.397 4.428 1.207 1.912-0.18896 3.996-0.90002 5.762-1.565 0.24799-0.093994 0.483-0.18799 0.70898-0.28198 1.032-0.42401 1.865-0.85504 2.669-1.344 0.80399-0.49005 1.58-1.039 2.468-1.752 0.88702-0.71399 1.888-1.591 3.076-2.8 1.189-1.21 2.572-2.75 4.067-4.889 1.204-1.727 2.461-3.837 3.573-6.479 1.111-2.642 2.085-5.824 2.489-9.629 0.21698-2.483 0.018005-5.097-0.71201-7.719-0.729-2.622-1.992-5.256-3.853-7.654-1.605-2.066-3.511-4.004-5.704-5.765-2.192-1.76-4.672-3.343-7.353-4.708-4.615-2.404-9.973-4.465-16.08-5.774s-12.974-1.869-20.357-1.084l-0.704-6.681c13.783-1.497 27.91 1.157 40.252 7.742 5.348 2.71 10.68 6.776 15.075 12.522 4.049 5.294 6.152 12.267 5.399 19.928-0.92099 6.782-3.616 13.187-7.83 18.593-2.645 3.372-5.803 6.278-9.346 8.621-1.891 1.249-3.637 2.192-5.25 2.954-1.637 0.79303-3.154 1.385-4.597 1.855-1.443 0.46997-2.814 0.81696-4.191 1.077-1.377 0.26001-2.76 0.43201-4.24 0.50604-1.48 0.074951-3.059 0.053955-4.829-0.12604-0.42999-0.044983-0.86801-0.10199-1.316-0.172-1.738-0.27197-3.383-0.99097-4.767-1.995-1.384-1.003-2.507-2.285-3.304-3.649-0.797-1.363-1.271-2.804-1.457-4.154-0.18701-1.349-0.08902-2.606 0.186-3.667 0.45499-1.755 1.355-3.047 2.341-4.053 0.98498-1.006 2.059-1.738 3.067-2.343 1.009-0.60501 1.955-1.085 2.814-1.472 0.85901-0.38599 1.633-0.67297 2.366-0.81598h-0.000977z"/>
  <path id="path3207-2" d="m216.53 241.08s-0.582 0.545-1.605 1.597c-1.023 1.053-2.486 2.619-4.189 4.726-1.704 2.107-3.647 4.758-5.581 7.968-1.934 3.209-3.856 6.979-5.502 11.256-1.584 4.481-2.682 9.225-3.196 13.976-0.51502 4.751-0.44702 9.505 0.129 14.009 0.75998 5.674 2.051 10.788 3.49 15.159s3.014 8.006 4.362 10.83c1.261 2.693 2.303 4.714 2.939 5.93 1.253 2.401 3.124 4.637 5.381 6.464s4.898 3.248 7.693 4.11c5.592 1.725 11.767 1.226 17.01-2.312 5.244-3.538 7.202-8.188 7.181-12.527-0.011017-2.17-0.51901-4.27-1.393-6.185-0.87399-1.916-2.114-3.649-3.637-5.122-0.86002-0.832-2.021-1.624-3.395-2.422-3.146-1.848-7.504-3.651-11.838-6.015-2.168-1.182-4.326-2.504-6.312-3.989s-3.799-3.134-5.284-4.899c-0.89099-1.062-1.659-2.168-2.27-3.285-1.73-3.161-2.998-6.612-3.751-10.173-0.754-3.561-0.992-7.23-0.767-10.831 0.34799-4.457 1.296-8.581 2.455-12.146s2.527-6.576 3.78-8.971 2.389-4.181 3.171-5.371c0.78198-1.189 1.208-1.789 1.129-1.777z"/>
  <path id="path3917-5" d="m31.105 1036.8c5.589-48.585 16.28-95.888 30.384-141.62 14.362-46.607 32.185-91.72 52.351-135.43 38.716-83.904 85.815-162.98 137.61-238.2 40.121-58.271 83.137-114.32 128.7-167.98 13.523-15.926 27.265-31.632 41.307-47.008 3.793-4.154 7.601-8.275 11.438-12.347 0.99603-1.056 1.989-2.104 2.983-3.142 0.25098-0.263 0.50098-0.52301 0.74899-0.77899-0.202 0.172-0.40402 0.345-0.60599 0.51898 22.151-14.25 44.189-28.397 66.113-42.441-2.2359 9.124-4.328 18.118-6.2779 26.982l-44.887 31.878 2.531-2.248c-0.20898 0.23999-0.42401 0.48898-0.64801 0.74799-0.89203 1.033-1.794 2.088-2.709 3.163-3.527 4.143-7.041 8.354-10.559 12.619-13.022 15.786-25.752 31.905-38.286 48.261-42.223 55.108-81.715 112.29-118.16 171.33-47.021 76.244-88.959 155.32-122.06 237.65-17.235 42.853-32.053 86.469-43.347 130.77-7.596 29.841-13.644 59.948-17.624 90.148-23.305 10.96-46.345 23.26-68.999 37.11z"/>
  <path id="path3921-7" d="m205.1 310.65c15.06 5.397 29.445 13.092 42.184 23.236 13.154 10.489 24.366 23.596 32.58 38.597 17.949 33.285 19.916 73.448 10.604 109.86-7.694 31.075-19.257 61.772-36.585 89.849-4.597 7.441-9.705 14.779-15.525 21.796-0.082977 0.099976-0.16598 0.20001-0.25 0.30102-6.955-3.133-13.793-6.488-20.268-10.318-1.761-1.041-3.48-2.13-5.122-3.306-0.418-0.29901-0.81699-0.61499-1.194-0.95398-0.083008-0.097046-0.15601-0.20203-0.22101-0.31702 3.246 3.642 6.521 7.317 9.825 11.026 0.002991 0.002991 0.005981 0.007019 0.009003 0.01001-0.003021-0.002991-0.006012-0.007019-0.009003-0.01001-3.304-3.709-6.608-7.417-9.913-11.124-0.020996 0.02002-0.033997 0.031006-0.039001 0.035034 0.033997-0.031006 0.084991-0.078003 0.15198-0.14099 0.26401-0.24805 0.55502-0.534 0.87601-0.854 1.247-1.244 2.501-2.607 3.785-4.061 4.9-5.542 9.402-11.656 13.685-18.105 16.159-24.301 27.503-52.07 35.698-80.905 8.526-31.197 8.493-65.387-5.756-92.476-6.3-12.427-15.308-23.612-26.046-32.736-11.351-9.682-24.856-17.121-39.248-22.389 3.435-5.744 7.028-11.418 10.778-17.011z"/>
  <path id="path3931-9" d="m-116.11 692.31c1.7498-0.81201 3.1178-1.545 4.2358-2.254 2.531-1.588 3.779-3.066 5.508-4.491 0.865-0.71204 1.854-1.403 3.203-2.037 1.349-0.633 3.06-1.21 5.36-1.634 6.071-1.07 12.246-1.619 18.421-1.722 13.044-0.20898 26.099 1.646 38.579 5.335 13.754 4.067 26.811 10.406 38.497 18.626 13.189 9.268 24.626 20.967 33.955 34.111 11.167 15.719 19.325 33.519 25.067 52.035 7.25 23.39 10.637 47.937 11.643 72.574 1.292 31.897-1.487 63.934-6.525 95.629l13.804 2.017c4.492-32.456 6.628-65.414 4.632-98.28-1.536-25.394-5.629-50.824-13.693-75.133-6.388-19.267-15.404-37.806-27.552-54.22-10.172-13.732-22.565-25.857-36.763-35.414-12.583-8.463-26.522-14.863-41.12-18.852-13.236-3.617-27.005-5.271-40.708-4.769-6.482 0.23401-12.967 0.95099-19.348 2.218-4.577 0.89099-7.514 1.064-10.077 0.99597-2.563-0.067993-4.739-0.362-7.6229 0.007996-1.5607 0.19299-3.3339 0.586-5.4588 1.393-1.292 0.49103-3.1561 1.609-5.1624 3.168-2.0064 1.559-4.1448 3.565-6.0178 5.721-1.8729 2.157-3.4734 4.46-4.5776 6.51-1.1042 2.049-1.7202 3.836-1.8042 4.959 0.96889 0.027039 2.6364-0.461 4.6647-1.0909 2.0284-0.62903 4.4243-1.389 6.8546-2.076 2.4303-0.68597 4.8945-1.306 7.0225-1.849 2.1279-0.54297 3.9185-1.019 4.9831-1.478z"/>
  <path id="path3935-7" d="m162.59 761.65c26.976-3.3 31.353-19.08 34.775-26.271-14.29 8.532-25.521-2.722-33.599 10.96"/>
  <path id="path3938-2" d="m233.06 595.97c47.514-5.812 55.222-33.606 61.249-46.271-25.169 15.028-44.95-4.794-59.178 19.304"/>
  <path id="path3940-7" d="m276.83 812.71c1.806 1.13 3.136 2.389 4.13 3.745 0.99503 1.356 1.657 2.812 2.093 4.337 0.55298 1.591 0.71399 3.271 0.69598 4.959-0.019012 1.688-0.22202 3.385-0.55496 4.994-0.33402 1.609-0.80704 3.13-1.44 4.438-0.633 1.308-1.432 2.402-2.382 3.145-1.143 0.89294-1.317 1.984-1.2809 2.713 1.14 2.339 3.727 4.93 7.923 6.898 2.275 1.057 5.311 1.66 9.021 1.364 3.643-0.435 7.129-1.973 9.993-4.39 0.44098-0.349 0.86694-0.70502 1.277-1.067 6.482-7.014 9.899-16.354 9.281-26.245-1.595-13.129-8.485-23.699-17.148-30.319-10.307-8.407-23.558-12.329-36.77-10.866-11.184 1.086-22.245 6.17-30.652 15.136-0.33499 0.38696-0.664 0.77698-0.987 1.171-4.007 4.9-7.092 10.382-9.193 16.193-2.1 5.812-3.216 11.954-3.309 18.102-0.25998 5.8831 0.34702 11.974 1.959 17.994s4.23 11.969 7.995 17.518c3.975 5.576 8.853 10.403 14.399 14.314 5.547 3.911 11.761 6.907 18.354 8.815 12.471 3.678 26.158 3.695 39.03-0.49902 13.032-4.339 24.623-12.515 33.208-23.314 8.342-10.429 13.857-23.252 15.344-36.896 1.739-17.279-2.709-34.691-11.802-49.174-8.93-14.314-22.114-25.905-37.598-32.733-11.372-4.99-23.811-7.241-36.096-6.617-12.93 0.69904-25.337 4.342-36.564 9.791-14.287 6.971-26.831 16.364-37.86 27.068s-20.544 22.714-28.801 34.972c-11.953 17.644-21.775 36.164-29.339 54.81-7.563 18.646-12.867 37.414-16.061 55.654-2.311 13.223-3.531 26.103-4.21 38.423-0.25101 4.535-0.423 8.974-0.67401 13.306-0.181 3.003-0.31497 5.871-0.87399 8.524l-13.389-2.778c0.328-1.286 0.362-3.504 0.58902-6.568 0.23898-4.249 0.409-8.686 0.66699-13.304 0.737-13.277 2.136-26.681 4.558-40.076 7.588-41.479 24.764-80.75 48.788-115.01 17.83-25.985 41.468-50.136 72.197-64.683 12.394-5.789 26.186-9.497 40.68-10.062 13.837-0.44598 27.666 2.33 40.302 8.146 17.034 7.914 31.283 20.861 40.86 36.872 9.654 15.956 14.219 35.071 11.991 54.375-1.918 14.939-8.099 28.885-17.536 40.261-9.413 11.451-22.065 20.189-36.601 24.794-13.908 4.273-28.707 4.188-42.44-0.089966-13.89-4.221-26.405-13.02-35.167-25.589-7.823-11.935-11.098-25.491-10.334-38.452 0.29901-13.147 5.096-26.726 14.936-38.006 9.279-9.71 21.078-15.263 33.11-16.568 14.317-1.779 28.75 2.092 40.424 11.087 9.682 6.812 17.57 18.367 19.986 33.712 0.03302 0.40601 0.059998 0.81 0.082001 1.214 0.199 3.66-0.063995 7.04-0.63699 10.148-0.57202 3.108-1.453 5.946-2.541 8.539-2.175 5.186-5.146 9.395-8.502 12.876-3.856 3.843-8.316 6.22-13.09 7.373-5.132 1.022-9.268 1.001-12.5 0.29602-3.806-0.78705-7.124-1.817-10.091-3.026-2.968-1.21-5.584-2.607-7.833-4.122-1.845-1.125-3.7-2.34-5.584-3.661-3.095-2.169-5.687-4.631-7.678-7.176-2.681-3.352-4.29-6.801-4.855-10.223-0.28299-1.712-0.30399-3.423-0.023987-5.122 0.28-1.698 0.85998-3.386 1.819-5.022 1.012-1.726 2.287-3.4 3.819-4.857 1.533-1.457 3.327-2.695 5.344-3.557 2.018-0.862 4.26-1.345 6.618-1.347 2.358-0.002014 4.825 0.479 7.247 1.454 1.234 0.49799 2.464 1.127 3.678 1.887z"/>
  <path id="path3943-2" d="m74.948 319.25s0.03299 0.43301 0.14401 1.224c0.11099 0.79102 0.30298 1.944 0.69699 3.373 0.393 1.43 0.98999 3.137 1.941 4.981 0.95102 1.843 2.261 3.821 4.056 5.743 1.89 1.794 4.11 3.258 6.483 4.275s4.893 1.586 7.34 1.716c3.399 0.17999 6.482-0.202 8.996-0.758 2.513-0.55701 4.462-1.274 5.744-1.797 0.423-0.16602 0.77701-0.311 1.059-0.42902 1.409-0.58899 2.795-1.512 3.97-2.646s2.137-2.478 2.768-3.875c0.63-1.399 0.92899-2.847 0.84698-4.202-0.082977-1.356-0.54498-2.616-1.393-3.699s-1.847-1.754-2.879-2.142c-1.034-0.388-2.103-0.49399-3.146-0.40799-1.042 0.085999-2.06 0.36298-3.013 0.776-0.95297 0.41199-1.843 0.95999-2.637 1.615-0.495 0.409-0.98898 0.97101-1.518 1.635-1.032 1.254-2.148 2.928-3.554 4.518-0.703 0.79501-1.478 1.566-2.324 2.249-0.84601 0.68298-1.764 1.276-2.72 1.727-0.86798 0.41101-1.778 0.69199-2.654 0.815-1.536 0.215-3.128 0.17099-4.674-0.14002-1.545-0.31097-3.044-0.88898-4.422-1.695-2.023-1.263-3.628-2.851-4.86-4.408-1.231-1.556-2.095-3.081-2.705-4.366-0.61099-1.284-0.974-2.331-1.202-3.038-0.229-0.70599-0.32599-1.076-0.34399-1.044z"/>
  <path id="path3950-0" d="m318.33 371.91s-0.63202 0.13101-1.763 0.393c-1.13 0.263-2.759 0.65799-4.751 1.228-3.982 1.14-9.424 3.007-15.028 5.953-2.823 1.471-5.667 3.288-8.308 5.403-2.641 2.116-5.076 4.532-7.153 7.074-2.521 3.164-4.312 6.41-5.514 9.176s-1.835 5.044-2.167 6.36c-0.14096 0.55798-0.25497 1.136-0.33899 1.726-0.29199 2.239-0.16299 4.603 0.36499 6.784s1.451 4.177 2.642 5.781c1.191 1.605 2.645 2.82 4.216 3.547 1.57 0.72501 3.254 0.96402 4.971 0.69 1.829-0.29199 3.269-1.042 4.406-2.001 1.138-0.95902 1.975-2.131 2.584-3.361 0.60803-1.229 0.98898-2.514 1.198-3.772 0.20703-1.259 0.245-2.493 0.13501-3.695-0.018982-0.20801-0.049011-0.423-0.090027-0.646-0.29199-1.393-0.98498-3.213-1.523-5.467-0.53799-2.253-0.90002-4.936-0.70502-7.658 0.21097-2.974 1.087-5.948 2.412-8.189 1.58-2.672 3.545-5.084 5.611-7.14 2.296-2.296 4.701-4.203 6.96-5.763 2.258-1.561 4.371-2.776 6.154-3.712 1.781-0.936 3.232-1.594 4.22-2.033 0.98801-0.43802 1.513-0.65701 1.467-0.67801z"/>
  <path id="path2404-5" d="m-137.62 921.7c-1.157 1.793-1.8246 3.498-2.1523 5.151-0.3187 1.648-0.2963 3.247-0.045395 4.814 0.17949 1.674 0.7498 3.262 1.4864 4.7809 0.73651 1.519 1.6398 2.97 2.6232 4.285 0.99251 1.311 2.0652 2.488 3.1919 3.403 1.1269 0.91596 2.3164 1.565 3.4922 1.833 1.4207 0.31897 2.039 1.234 2.3131 1.91-0.035995 2.602-1.268 6.045-4.2309 9.613-1.6043 1.923-4.0985 3.763-7.5816 5.074-3.479 1.155-7.2918 1.249-10.909 0.27802-0.5462-0.12701-1.0869-0.26605-1.6118-0.42004-8.8492-3.588-15.919-10.585-19.568-19.799-4.1493-12.557-2.4134-25.054 2.6145-34.735 5.7423-11.991 16.072-21.184 28.648-25.483 10.579-3.776 22.751-3.882 34.178 0.651 0.463 0.20996 0.928 0.42297 1.394 0.63898 5.705 2.731 10.834 6.376 15.208 10.741 4.374 4.366 7.993 9.451 10.7 14.972 2.739 5.213 4.78 10.984 5.885 17.117s1.266 12.631 0.217 19.257c-1.219 6.735-3.581 13.18-6.938 19.082-3.349 5.897-7.702 11.255-12.853 15.787-9.719 8.635-22.1 14.478-35.531 16.16-13.638 1.62-27.605-0.84601-39.975-6.962-11.986-5.888-22.43-15.146-29.585-26.858-8.929-14.895-12.313-32.545-10.252-49.52 1.9884-16.753 8.9816-32.852 20.092-45.623 8.165-9.355 18.464-16.687 29.842-21.349 11.998-4.871 24.778-6.857 37.26-6.705 15.898 0.22601 31.243 3.388 45.78 8.38 14.537 4.991 28.254 11.811 40.946 19.388 18.323 10.88 35.101 23.455 49.878 37.11s27.571 28.378 38.221 43.526c7.718 10.982 14.304 22.118 20.163 32.977 2.156 3.997 4.2 7.941 6.27 11.755 1.45 2.637 2.788 5.177 4.424 7.339l10.934-8.213c-0.84601-1.023-1.817-3.018-3.329-5.692-2.026-3.743-4.068-7.686-6.269-11.754-6.321-11.699-13.283-23.237-21.184-34.324-24.513-34.308-56.774-62.532-93.091-83.31-27.194-15.925-58.865-27.717-92.864-27.801-13.685 0.039001-27.742 2.553-41.094 8.209-12.714 5.487-24.047 13.885-33 24.524-12.051 14.414-19.436 32.195-21.281 50.756-1.9501 18.551 2.0593 37.789 12.284 54.312 8.0957 12.701 19.624 22.69 33.008 28.967 13.389 6.357 28.564 8.871 43.672 6.858 14.406-2.054 27.762-8.43 38.366-18.145 10.772-9.732 18.356-23.023 20.934-38.125 1.996-14.128-0.80501-27.791-7.019-39.192-5.867-11.769-15.981-22.018-29.686-28.037-12.53-4.836-25.572-4.839-37.013-0.89996-13.715 4.485-25.125 14.13-31.866 27.241-5.8601 10.284-8.0816 24.098-3.7312 39.01 0.13609 0.383 0.29039 0.758 0.4352 1.137 1.3859 3.3929 3.0593 6.34 4.8983 8.91 1.8387 2.57 3.852 4.759 5.9328 6.646 4.1801 3.765 8.6591 6.31 13.181 8.029 5.1194 1.839 10.167 2.092 14.983 1.101 5.0772-1.259 8.8056-3.036 11.437-5.052 3.1035-2.33 5.6695-4.675 7.8421-7.034 2.1643-2.354 3.9403-4.733 5.3313-7.062 1.186-1.801 2.352-3.692 3.491-5.688 1.882-3.282 3.178-6.612 3.895-9.762 0.999-4.174 0.98801-7.98 0.047005-11.32-0.475-1.668-1.185-3.225-2.162-4.6429-0.976-1.417-2.219-2.698-3.784-3.77-1.649-1.132-3.52-2.102-5.5242-2.769-2.0047-0.66705-4.1513-1.025-6.346-0.94604-2.1948 0.080017-4.4275 0.59601-6.5639 1.599-2.1363 1.003-4.1667 2.489-5.9416 4.402-0.901 0.974-1.7464 2.066-2.5178 3.269z"/>
  <path id="path2451-0" d="m39.602 663.26c-0.11099-0.11304-0.21599-0.22302-0.31299-0.32904-0.64801-0.70496-1.236-1.056-1.844-1.235-0.608-0.17902-1.237-0.19702-1.947-0.21899-1.993-0.000977-4.804-0.74103-7.653-1.028-1.424-0.143-2.859-0.17798-4.199-0.021973-1.339 0.15698-2.582 0.508-3.598 1.043-0.629 0.33099-1.374 0.83502-2.153 1.429-0.77899 0.59302-1.589 1.278-2.38 1.91-0.791 0.63196-1.565 1.21-2.309 1.5309-0.744 0.32001-1.464 0.37805-2.12-0.055969-0.578-0.38403-1.293-1.787-1.799-3.899-0.50601-2.112-0.76701-4.929-0.494-7.969 0.22299-2.433 0.744-4.967 1.503-7.353 0.75801-2.386 1.75-4.621 2.779-6.54 0.426-0.79504 0.952-1.747 1.62-2.827 1.138-1.848 2.669-4.082 4.811-6.478s4.899-4.957 8.459-7.299c2.621-1.712 5.622-3.302 9.003-4.601s7.142-2.305 11.218-2.825c7.995-0.823 16.853-0.17297 25.85 2.441 4.499 1.306 9.025 3.095 13.447 5.358 4.421 2.263 8.738 5 12.794 8.138 6.173 4.515 11.996 10.117 17.03 16.776 5.401 7.146 9.043 14.241 11.569 20.94 1.809 4.912 3.044 9.524 3.92 13.886 0.87601 4.361 1.391 8.474 1.668 12.422 0.27701 3.948 0.31601 7.732 0.17902 11.448-0.138 3.716-0.452 7.365-0.926 11.041-0.957 7.551-2.461 15.266-4.814 23.991-2.352 8.725-5.57 18.478-10.344 29.8-3.337 7.937-7.426 16.676-12.656 26.339-5.231 9.663-11.614 20.252-19.539 31.761l9.426 6.478c12.926-18.697 24.263-38.94 32.729-60.743 6.968-17.813 11.849-37.071 12.98-57.232 0.99802-16.75-1.254-34.338-8.043-51.099-6.465-15.532-17.049-29.141-30.66-39.231-14.025-11.154-33.078-19.367-55.078-18.541-7.975 0.56702-15.961 2.879-23.4 7.002-2.277 1.275-4.457 2.726-6.524 4.343-4.331 3.392-7.677 7.081-10.346 10.777-2.485 3.42-4.293 6.872-5.641 10.278-1.349 3.405-2.24 6.77-2.785 10.139-0.59999 3.808-0.653 7.532-0.189 11.291 0.464 3.76 1.444 7.561 3.136 11.497 1.816 3.886 4.19 7.616 7.333 11.052 2.54 2.775 5.773 5.04 9.254 6.491 3.409 1.359 6.849 2.047 10.003 2.122 3.153 0.075989 6.022-0.45001 8.428-1.369 2.406-0.91998 4.353-2.224 5.77-3.709 1.417-1.484 2.307-3.145 2.651-4.87 0.36801-1.845 0.577-3.942 0.535-6.099-0.041992-2.157-0.336-4.376-0.88599-6.467-0.55102-2.091-1.362-4.05-2.327-5.696-0.48297-0.823-1.003-1.567-1.534-2.228-0.53098-0.66101-1.073-1.236-1.594-1.76z"/>
  <path id="path2426-1" d="m174.52 255.42c-3.693-4.119-6.13-8.901-8.261-13.956-2.131-5.054-3.969-10.392-6.333-15.428-0.57999-1.237-1.206-2.463-1.878-3.675-2.337-4.19-5.244-8.186-8.641-11.834-3.398-3.647-7.286-6.944-11.534-9.751-3.532-2.304-7.182-4.203-10.851-5.737s-7.356-2.704-11.001-3.58c-3.411-0.823-6.759-1.398-10.056-1.824-2.202 0.016006-4.463-0.087997-6.667 0-2.205 0.089005-4.358 0.368-6.377 1.187 3.032 2.012 5.91 4.118 8.659 6.352 2.749 2.235 5.366 4.595 7.83 7.051 5.399 5.399 9.987 11.309 13.782 17.054 2.149 3.219 4.149 6.428 6.237 9.549 2.089 3.121 4.267 6.153 6.792 9.092 0.203 0.237 0.41 0.47099 0.62 0.701 3.671 4.019 8.279 7.115 13.441 9.672 5.161 2.557 10.855 4.551 16.378 6.007 1.588 0.418 3.066 1.765 3.888 3.389"/>
  <path id="path2430-7" d="m-167.72 605.33c3.3214-0.32599 5.6941-0.73102 7.6104-1.225 1.9162-0.49402 3.3737-1.07 4.8525-1.618 1.4789-0.547 2.9798-1.066 4.9851-1.375 2.0054-0.30896 4.5209-0.41498 7.9859-0.015991 1.9491 0.23798 3.8927 0.51599 5.8287 0.836 20.49 3.373 40.142 11.133 58.231 21.453 19.435 11.097 37.121 25.156 53.135 40.871 16.848 16.541 31.83 34.952 44.991 54.561 13.21 19.69 24.577 40.589 33.782 62.367 8.753 20.721 15.579 42.212 19.587 64.154 3.614 19.869 5.007 40.086 2.62 59.738-1.084 8.983-2.94 17.82-5.758 26.268-2.698 8.091-6.26 15.848-10.743 22.949l11.885 7.303c4.983-8.234 8.858-17.053 11.7-26.139 2.964-9.475 4.843-19.211 5.839-28.974 2.161-21.319 0.35202-42.736-3.825-63.422-4.598-22.854-12.046-45.004-21.435-66.175-9.866-22.261-21.908-43.521-35.794-63.465-13.827-19.866-29.52-38.474-47.093-55.152-16.696-15.853-35.164-29.996-55.417-41.12-18.857-10.365-39.39-18.027-60.782-21.199-2.0259-0.29901-4.0581-0.55603-6.0946-0.768-3.5524-0.383-6.2379-0.80402-8.4735-1.296-2.2354-0.492-4.0194-1.049-5.7542-1.595-1.7349-0.547-3.4207-1.081-5.4587-1.467-2.0381-0.38501-4.4315-0.625-7.559-0.495-1.6189 0.066956-4.1039 0.547-6.9328 1.371-2.8288 0.82501-5.9963 2-9.0034 3.368s-5.8515 2.928-8.116 4.411c-2.2644 1.484-3.9521 2.884-4.7229 3.892 0.97969 0.43396 3.0161 0.67297 5.5826 0.85797 2.5666 0.18402 5.6634 0.32404 8.7959 0.48804 3.1324 0.16296 6.3005 0.349 9.0423 0.49097 2.7419 0.14203 5.0599 0.23401 6.5095 0.12201z"/>
  <path id="svg_1" transform="rotate(33.042 603.91 333.24)" d="m671.63 285.03c2.3662 1.3618 4.1086 2.879 5.411 4.5132 1.3035 1.6341 2.171 3.3888 2.7421 5.2266 0.72449 1.9173 0.93555 3.9419 0.91199 5.9761-0.025024 2.0342-0.29102 4.0793-0.72723 6.0183-0.43762 1.9391-1.0573 3.7721-1.8865 5.3483-0.82935 1.5763-1.8762 2.8948-3.1208 3.7901-1.4974 1.0761-1.7255 2.3909-1.6783 3.2694 1.4937 2.8187 4.8829 5.9412 10.38 8.3128 2.9807 1.2739 6.9582 2.0005 11.819 1.6438 4.773-0.5242 9.3402-2.3778 13.092-5.2905 0.57788-0.42056 1.1359-0.84955 1.673-1.2859 8.4923-8.4526 12.969-19.708 12.16-31.628-2.0898-15.822-11.117-28.56-22.466-36.538-13.504-10.131-30.864-14.858-48.174-13.095-14.653 1.3088-29.144 7.4356-40.159 18.241-0.43884 0.46637-0.87 0.93637-1.2931 1.4111-5.2498 5.9051-9.2915 12.512-12.044 19.514-2.7512 7.0041-4.2134 14.406-4.3352 21.815-0.3407 7.0897 0.45453 14.43 2.5666 21.685 2.112 7.2547 5.5418 14.424 10.475 21.111 5.2078 6.7197 11.599 12.537 18.865 17.25 7.2675 4.7132 15.409 8.3237 24.046 10.623 16.339 4.4323 34.271 4.4528 51.135-0.60138 17.074-5.229 32.26-15.082 43.507-28.096 10.929-12.568 18.155-28.021 20.102-44.464 2.2785-20.823-3.549-41.806-15.462-59.26-11.7-17.25-28.973-31.218-49.259-39.447-14.899-6.0135-31.196-8.7262-47.291-7.9742-16.94 0.84242-33.195 5.2326-47.904 11.799-18.718 8.4008-35.152 19.72-49.602 32.62s-26.916 27.373-37.734 42.145c-15.66 21.263-28.528 43.582-38.438 66.052-9.9085 22.47-16.858 45.088-21.042 67.069-3.0275 15.935-4.626 31.457-5.5156 46.304-0.32883 5.4652-0.55426 10.815-0.88296 16.035-0.23721 3.619-0.41269 7.0753-1.145 10.272l-17.542-3.3478c0.42969-1.5498 0.47424-4.2227 0.77164-7.9152 0.31314-5.1205 0.5358-10.468 0.87387-16.033 0.96558-16 2.7986-32.154 5.9716-48.296 9.9413-49.987 32.444-97.313 63.919-138.6 23.36-31.315 54.329-60.419 94.588-77.95 16.238-6.9764 34.308-11.445 53.297-12.126 18.129-0.53744 36.247 2.8079 52.802 9.8168 22.317 9.5372 40.985 25.14 53.532 44.435 12.648 19.229 18.628 42.264 15.709 65.528-2.5129 18.003-10.61 34.81-22.974 48.519-12.332 13.8-28.908 24.33-47.953 29.88-18.221 5.1494-37.61 5.047-55.602-0.10846-18.198-5.0868-34.594-15.691-46.074-30.838-10.249-14.383-14.54-30.72-13.539-46.339 0.39178-15.844 6.6764-32.208 19.568-45.802 12.157-11.702 27.615-18.394 43.379-19.966 18.757-2.144 37.667 2.521 52.961 13.361 12.685 8.2092 23.019 22.134 26.184 40.627 0.043274 0.48929 0.078613 0.97614 0.1076 1.4631 0.26062 4.4106-0.083923 8.484-0.83472 12.229-0.74945 3.7455-1.9036 7.1657-3.3291 10.291-2.8495 6.2497-6.742 11.322-11.139 15.517-5.0518 4.6313-10.895 7.4958-17.15 8.8853-6.7238 1.2317-12.143 1.2063-16.377 0.35681-4.9864-0.94849-9.3334-2.1898-13.221-3.6467-3.8885-1.4583-7.3159-3.1418-10.262-4.9676-2.4171-1.3556-4.8475-2.8199-7.3157-4.4119-4.055-2.6138-7.4509-5.5808-10.059-8.6478-3.5125-4.0395-5.6205-8.1959-6.3608-12.32-0.37067-2.0633-0.39832-4.1252-0.031555-6.1726 0.36694-2.0463 1.1268-4.0805 2.3834-6.0521 1.3257-2.0799 2.9961-4.0973 5.0033-5.8532 2.0084-1.7558 4.3588-3.2477 7.0013-4.2865 2.6439-1.0388 5.5812-1.6209 8.6706-1.6234 3.0892-0.002411 6.3214 0.57724 9.4946 1.7523 1.6168 0.6001 3.2282 1.3581 4.8187 2.274z"/>
  <path id="svg_2" d="m406.51 187.02c-0.07901-0.082001-0.15399-0.16101-0.22302-0.23801-0.46198-0.51-0.88098-0.76399-1.314-0.893-0.43301-0.12999-0.88098-0.14299-1.387-0.159-1.42 0-3.4229-0.536-5.4519-0.743-1.015-0.104-2.037-0.129-2.992-0.016006-0.95404 0.11301-1.84 0.367-2.563 0.75401-0.44904 0.23999-0.97897 0.60399-1.534 1.034-0.55499 0.429-1.132 0.925-1.696 1.382-0.564 0.45698-1.115 0.875-1.645 1.108-0.53 0.231-1.043 0.27301-1.51-0.041-0.41205-0.278-0.922-1.293-1.282-2.821-0.36096-1.528-0.547-3.566-0.35202-5.765 0.159-1.76 0.53006-3.594 1.071-5.32 0.54004-1.726 1.246-3.343 1.98-4.731 0.30298-0.576 0.67798-1.264 1.154-2.046 0.811-1.337 1.901-2.953 3.427-4.686 1.526-1.734 3.491-3.586 6.027-5.281 1.867-1.238 4.006-2.389 6.414-3.329 2.409-0.93901 5.089-1.667 7.993-2.043 5.696-0.59601 12.007-0.125 18.417 1.766 3.2049 0.944 6.43 2.239 9.58 3.876s6.226 3.617 9.115 5.888c4.398 3.266 8.547 7.319 12.133 12.137 3.8479 5.17 6.443 10.303 8.243 15.149 1.289 3.554 2.169 6.89 2.793 10.046 0.62402 3.155 0.99103 6.131 1.188 8.987 0.19696 2.856 0.22498 5.594 0.12799 8.282-0.098999 2.689-0.32202 5.329-0.66003 7.988-0.68201 5.463-1.754 11.045-3.43 17.357-1.6759 6.312-3.9679 13.368-7.37 21.56-2.377 5.742-5.29 12.064-9.016 19.055-3.727 6.991-8.275 14.652-13.921 22.978l6.715 4.687c9.21-13.527 17.287-28.172 23.318-43.946 4.965-12.887 8.442-26.82 9.248-41.406 0.71103-12.118-0.89298-24.842-5.73-36.968-4.606-11.237-12.147-21.083-21.844-28.383-9.992-8.069-23.567-14.011-39.241-13.414-5.682 0.411-11.371 2.083-16.671 5.066-1.622 0.922-3.176 1.972-4.648 3.142-3.086 2.454-5.47 5.123-7.371 7.797-1.771 2.474-3.059 4.972-4.019 7.436-0.96103 2.463-1.596 4.898-1.985 7.335-0.427 2.755-0.46506 5.449-0.13406 8.169 0.33005 2.72 1.0291 5.47 2.234 8.317 1.294 2.812 2.985 5.51 5.2251 7.996 1.8089 2.008 4.113 3.647 6.5929 4.696 2.4281 0.98401 4.8791 1.481 7.1261 1.536 2.247 0.054993 4.291-0.326 6.005-0.991 1.714-0.66501 3.101-1.609 4.111-2.683 1.009-1.074 1.643-2.276 1.888-3.523 0.26303-1.335 0.41202-2.852 0.38205-4.413-0.030029-1.561-0.23999-3.166-0.63202-4.679-0.39197-1.512-0.96997-2.93-1.657-4.121-0.345-0.595-0.71503-1.133-1.093-1.611-0.37897-0.479-0.76498-0.895-1.136-1.274z"/>
 </g>
</svg>
